<?xml version="1.0" encoding="utf-8"?>
<!-- Generator: Adobe Illustrator 25.3.1, SVG Export Plug-In . SVG Version: 6.00 Build 0)  -->
<svg version="1.1" id="Слой_1" xmlns="http://www.w3.org/2000/svg" xmlns:xlink="http://www.w3.org/1999/xlink" x="0px" y="0px"
	 viewBox="0 0 595.3 595.3" style="enable-background:new 0 0 595.3 595.3;" xml:space="preserve">
<style type="text/css">
	.st0{fill:#881551;}
	.st1{fill:#AD1758;}
	.st2{fill:#EF7F1F;}
	.st3{fill:#FEC92B;}
	.st4{fill:#B0BDC5;}
	.st5{fill:#E8511E;}
	.st6{fill:#AF235D;}
	.st7{fill:#B4BFC6;}
	.st8{fill:#CBD3D8;}
	.st9{fill:#F18A17;}
	.st10{fill:#F08917;}
	.st11{fill:#FCF9F8;}
	.st12{fill:#2E343A;}
	.st13{fill:#3C333C;}
	.st14{fill:#382F3D;}
	.st15{fill:#F2F2F2;}
	.st16{fill:#EDE8EB;}
	.st17{fill:#EDDCDB;}
	.st18{fill:#E8DDE3;}
	.st19{fill:#F08015;}
	.st20{fill:#E48E20;}
</style>
<g>
	<path class="st0" d="M401.2,417.6c0,13.8,0,27.7,0,49.3c-10.3-14-16.2-22-22.4-30.3c-12.9,2.4-14.4,14.6-20.9,22.2
		c-3.9,8.5-10.4,16.3-19.8,13.6c-13.4-3.8-10.2-17.4-11.8-27.7c0.3-9.7-3.3-15.9-14.2-15.5c-7.9-2.4-12.6-7.5-13.7-15.8
		c-4.7-39.7-38.6-45.8-67.1-58.1c-16.9-5.5-33.7-11.1-46.5-24.4c-18.4-17.3-29.8-37.3-24.5-59.3c1.2,24.1-11,51.6-6.1,80.7
		c8.1,47.6,35.1,83.9,67.9,116.8c21.7,21.7,43.2,43.3,54.4,72.7c4.2,11.1,10.7,21.8,4.8,34.3c-50.8,0-101.5,0-155,0
		c7-16.5,13.2-31.2,19.4-45.8c1.9-52.2-23.2-96.2-43.4-141.6c-36.1-81.1-23.2-155,32.6-222c14.3-17.1,30.7-34.4,56.4-34.6
		c15.8,4.2,19.8,19.2,27.6,30.7c16.4,24.5,31.8,27.6,57.7,11.8c13.4-8.2,16.1-17,4-28.4c-5.5-5.2-12.3-9.3-13.5-17.8
		c17-21.6,31.6-1.3,47.2,2.6c10.3,4.7,17.5,13.5,26.8,19.6c22,11.8,43.8,23.8,65.9,35.4c19.6,10.3,28,25.8,25.8,48.1
		c-2.7,27.5,21.8,50.8,50.2,48.1c21.7-2.1,36.6,7.5,43.5,26.7c7.8,21.6,13.6,47.7-1.5,65.1c-13.7,15.7-39.5,2.4-59.6,7
		c-3.3,3.6-7.5,4.7-12.1,5c-3,0-5.9-0.3-8.8-1c-8.6-2.8-15-8.5-20.5-15.5c-4.6-6.5-8.3-13.7-15.7-17.8c-7.6-3.8-15.9-3.4-24-4.5
		c-23.5-5.4-34.3-25.3-48.4-41.6c-13.5-15.6-27.1-32.3-56-20.1c24.8,19.6,15.9,60.7,53.4,69.1c5.7,2,11.5,3.6,17.4,4.9
		c13.6,3.6,27.2,7,38.6,15.9c7.4,6.5,13.6,13.8,16.3,23.5C406.6,406,406.3,412.4,401.2,417.6z"/>
	<path class="st1" d="M194.6,137.2c-41.6,10.6-64.4,42.5-82,77.3c-29.1,57.6-28.8,115.9-0.8,175.3c18.3,38.7,43.1,76.2,38.9,122.5
		c-0.6,6.5,0.5,13.2-5,18.2c1-16-6.9-24.8-22.5-26.2c-16.4-1.4-23.1,9.6-27,25.9C80.7,509.9,77.6,490,86.4,469
		c6.6-15.5,22-29.5,5.3-47.1c-6.2-6.6-14.4-10-23.8-6.1c-18.8,7.9-24.4,23.5-22.1,48.6c-21.2-52.4-17.9-89.3,8.4-130.2
		c5.9-9.2,13-17.9,17-27.8c4.8-11.9,3.1-23.5-9-31.8c-10.8-7.4-20.8-5-30.1,2.2C25.5,282,19.3,288,8.8,297.2
		C18,244.6,34,202.4,75.7,173.5c9-6.3,27-12.1,20.5-25.2c-7-14.1-20.8,0.5-31.7,1.7c-3.1,0.3-6.4-0.6-13.3-1.3
		c33-43.2,78-56.4,125.8-64.2C194.7,98.1,199.4,116,194.6,137.2z"/>
	<path class="st2" d="M281.4,576.3c-11.4-43.6-37.2-77.7-69.7-107.8c-61.8-57.2-84.8-124.3-50.5-207.9c3.5,26.2,11.2,48.6,28.4,66.8
		c7.6,47.3,35.2,80.9,74.4,105.6c48.3,30.5,75.5,76.4,96.2,127.5c2.1,5.1,2.9,10.4,0,15.6C333.9,576.2,307.6,576.3,281.4,576.3z"/>
	<path class="st3" d="M360.1,576.2c-26.2-60.7-58.3-115.7-119.1-150c-25.5-14.4-41.8-40.7-52.4-69c-3.8-10.1-9.9-20.1,0.9-29.7
		c13.8,11,30.5,16.1,46.6,22.1c20.8,22,48.2,37.6,64.2,64.4c2.2,7.5,9.4,8.1,15,10.9c11-1.6,13.8,7.3,18.3,14.2
		c2.5,13.4-6.4,40.7,24.2,19.8c33.2,35.7,67.2,70.7,92.5,117.4C418,576.2,389.1,576.2,360.1,576.2z"/>
	<path class="st4" d="M194.6,137.2c-5.9-17.6-11.7-35.1-17.6-52.7c0.3-15.1,0.5-30.1,0.8-45.2c3.9-4.3,7.9-4.2,11.9-0.2
		c8.5,19.4,15.3,39.9,33.7,53.1c15.4,12.1,36.4,17.5,45.5,37.4c8.1,5.5,16.4,10.6,24.1,16.5c6.4,4.9,10.8,11.8,7.5,19.9
		c-9.5,23.8-34.8,18.7-52.5,27.6c-13,6.6-20.1-2.2-26.1-12.1C212.8,166.8,203.7,152,194.6,137.2z"/>
	<path class="st5" d="M401.2,417.6c-0.1-6-0.3-12.1-0.4-18.1c24.4,15.9,56,25.2,70.2,50.8c14.6,26.2,27.2,24.8,46.6,9.8
		c9.4-1.7,18.7-0.6,29.7,1.5c-9.4-3.7-17.5-2.1-25.4-2.7c-19.6-4.7-66.5-57-68.9-76.8c4.1-0.3,8.2-0.6,12.3-0.8
		c15.4,19.9,49.5,4.1,61.3,33.1c-1.8,11.1-24.5-2.9-20.8,14c2.6,11.9,15.2,10.1,24.5,11.9c46.6,9.3,67.8,40.8,52.3,83.7
		c-10.4-15-16.9-30.9-32-39.3c-11.1-6.2-23.1-12.3-33.3-3.4c-13.2,11.6,8,17.1,7.8,29.2c-29.4,4.1-49.8-7.2-62.2-34.1
		c-3.2-6.9-6.3-13.9-9.6-20.8c-3.1-6.4-7.6-11.6-15.2-7.7c-6.7,3.5-2.2,9-1,14.1c1.4,5.8,9.3,9.8,4.7,17.7
		c-18.2-1.9-26.6-13.1-28.4-30C412.3,437.9,411.9,425.9,401.2,417.6z"/>
	<path class="st6" d="M268.9,129.6c-17.8-9.2-34.7-19.6-45.5-37.4c7.3-1.5,15.1,7.1,21.4,0.6c10.7-10.9-11.4-14.4-4.6-26.3
		c22,2.8,37.5,19.2,54.6,32.7c16.1,8,24,19.9,18.7,38.3C298,138.6,286.7,115.8,268.9,129.6z"/>
	<path class="st7" d="M313.5,137.6c-6.2-12.8-12.5-25.6-18.7-38.4c10.8-8.7,3.7-25.8,18.1-35.5c3.6,31.6,13.5,60.2,28.1,87.1
		C330.1,150.2,321.8,143.8,313.5,137.6z"/>
	<path class="st8" d="M189.7,39.2c-4,0.1-7.9,0.1-11.9,0.2c0.6-5.3-4.4-14.1,4.3-14.6C189.1,24.3,189.5,32.9,189.7,39.2z"/>
	<path class="st9" d="M453.1,382.2c2.3,4.7,3.3,11.5,7,13.6c16.9,9.6,37.6,13.1,35.9,41.4c-0.7,10.9,15.8,16,28.7,15.8
		c4,7.2-2.7,8.9-6.3,12.2c-3.5,2.5-8.3,4.2-10.3,7.5c-13.9,23.4-23.6,19.1-34-3.1c-8.3-17.5-12.5-38.3-42.3-36.2
		c-12.8,0.9-14.2-27.6-30.9-34.1c-4.5-6.6-9.1-13.3-13.6-19.9c-1.5-1.6-2.2-3.4-2.2-5.3c0-2,0.2-3,0.6-3
		c8.1-10.7,14.7-23.4,30.9-23.4c5.5,4.8,10.3,10,10.7,17.9c0.9,1.9,1.5,4,2.5,5.8c4.1,7.2,0.7,28.2,18.6,10.2
		C449.9,381.5,451.5,381.6,453.1,382.2z"/>
	<path class="st10" d="M387.1,373.8c0,1.9,0,3.8,0,5.8c-13.2-4.5-26.5-8.9-39.7-13.4c-3.5-7.8-7.4-14.4-16.5-5.5
		c-19.7,1.2-32.1-9.8-34.7-27.4c-3.2-21.4-11.8-36.6-34.7-42.6c36.5-28.7,46.8-27.4,74.9,3.5c15.6,17.2,24.1,42.3,50.7,47.9
		C396.6,352.6,393.6,363.2,387.1,373.8z"/>
	<path class="st11" d="M300.5,414c-26.6-16.2-51.5-34.3-64.2-64.4c26.2,3.7,44.8,21.3,64.3,36.5C310.8,394.1,316.8,404.7,300.5,414z
		"/>
	<path class="st12" d="M353.8,249.5c-20.4-5.7-35.1-19.1-52.7-38.5c26.6-1.2,48.3-7.1,66.9,11.1c-0.5,1.2-1,2.5-1.4,3.7
		c-5.3,6-8.9,12.7-10.1,20.7C355.6,247.5,354.7,248.5,353.8,249.5z"/>
	<path class="st13" d="M368,222.1c17,6,21.6,21.4,29.6,37.6c-17.8,4.7-31.6,1.5-43.8-10.2c0,0,0.4-0.5,0.4-0.5
		c4.1-8.9,8-18,13.2-26.4L368,222.1z"/>
	<path class="st14" d="M513.1,323.9c-12.3,2.5-25.2,10-32.7-4.7c-2.6-5-2-12.6,3.2-14.6C500.7,298.2,504.1,315.4,513.1,323.9z"/>
	<path class="st15" d="M387.1,373.8c0-10.6,0-21.2,0-31.8c10.2-0.3,21.4-5.3,29.4,5.9C408.2,358.2,401.2,370.1,387.1,373.8z"/>
	<path class="st16" d="M448.3,381.9c-5.6,6-11.1,12-21.1,22.8c0-17.8,0-28.3,0-38.8C435.1,370,438,380.8,448.3,381.9z"/>
	<path class="st17" d="M333.8,439c-6.1-4.7-12.2-9.4-18.3-14.2C333.1,414.6,337.4,421.7,333.8,439z"/>
	<path class="st18" d="M331,360.7c4.5-4.2,9.1-8.5,13.6-12.7c1,6.1,1.9,12.1,2.9,18.2C341,367.1,335.5,365.5,331,360.7z"/>
	<path class="st19" d="M518.4,465.3c2.1-4.1,4.2-8.1,6.3-12.2c9.9-0.6,19.5-0.1,29.8,12.2C540.4,465.3,529.4,465.3,518.4,465.3z"/>
	<path class="st20" d="M367.4,222.6c12.4,17.2-4.6,19.7-13.2,26.4C343.5,232.7,346.6,223.2,367.4,222.6z"/>
</g>
</svg>
