<svg id="Слой_1" data-name="Слой 1" xmlns="http://www.w3.org/2000/svg" xmlns:xlink="http://www.w3.org/1999/xlink" width="200mm" height="200mm" viewBox="0 0 566.92913 566.92913">
  <defs>
    <style>
      .cls-1 {
        fill: url(#Безымянный_градиент_44);
      }
    </style>
    <radialGradient id="Безымянный_градиент_44" data-name="Безымянный градиент 44" cx="289.2268" cy="291.94329" r="353.87286" gradientUnits="userSpaceOnUse">
      <stop offset="0.36648" stop-color="#ffef26"/>
      <stop offset="0.41585" stop-color="#fbd428"/>
      <stop offset="0.50227" stop-color="#f4aa2c"/>
      <stop offset="0.58666" stop-color="#ef892e"/>
      <stop offset="0.66731" stop-color="#ec7230"/>
      <stop offset="0.7426" stop-color="#ea6432"/>
      <stop offset="0.80719" stop-color="#e95f32"/>
      <stop offset="1" stop-color="#e7441c"/>
    </radialGradient>
  </defs>
  <g>
    <rect class="cls-1" x="-16.7732" y="-104.05671" width="612" height="792"/>
    <path d="M173.0027,109.9049c.41156-.26543.8621-.40283,1.0585-.70514,4.80812-7.39946,11.97665-12.28835,19.08454-16.98643,4.7968-3.17045,10.45224-5.08134,15.80692-7.36018,5.25588-2.23682,9.4579-5.8351,10.87616-11.21466,1.7278-6.55358,2.26147-13.42235,3.29712-20.157a75.29728,75.29728,0,0,1,1.36114-8.749c1.0289-3.6983,3.19089-6.51643,7.37994-7.32537a16.25226,16.25226,0,0,0,4.43478-2.00065c5.27132-2.87886,9.7798-1.39507,13.671,4.5654,2.40511,3.68411,1.09075,9.20834-2.67812,12.30109-2.33292,1.91434-4.523,3.72541-7.82479,3.6013-2.10554-.07914-2.1886,1.75672-1.79249,3.12188,1.38064,4.75737.42738,9.57232.35129,14.31772A27.28865,27.28865,0,0,1,230.46727,92.263c-3.357,3.44116-7.67538,6.06643-11.86435,8.55045a74.37183,74.37183,0,0,0-20.64681,17.95109c-2.18824,2.77583-2.69073,6.90954-3.78664,10.47814a2.2135,2.2135,0,0,0,1.1235,1.84465c1.21616.13079,2.84208.21087,3.66182-.46622a47.89893,47.89893,0,0,0,5.75769-5.91916,47.0929,47.0929,0,0,1,17.16326-13.03269c4.38374-1.89226,8.91673-.47322,13.125.73276,2.8468.81579,3.47306-.1284,3.92022-2.34692a8.53177,8.53177,0,0,0,.14041-.90888c.64141-7.0448,4.14947-9.25107,11.60025-10.05482a6.97178,6.97178,0,0,1,7.03241,3.50768c1.687,2.83114,1.15,5.73354-.4938,8.435-2.57865,4.23773-5.14291,8.488-7.86721,12.632-1.81363,2.75879-3.87945,5.35351-5.8634,7.9984-.97132,1.295-1.62816,2.7275.32108,3.46391,1.79406.67777,4.32586,2.75051,5.57995-.18057,3.47838-8.1298,11.053-9.62262,18.2022-11.151,6.0233-1.28772,11.55092,5.77834,10.03738,11.808-.18509.7373-.25638,1.50313-.42858,2.54823,3.78514-.26332,5.81467-2.60277,7.62043-4.98849a56.91418,56.91418,0,0,0,8.97467-18.19666c1.96986-6.56384,12.14427-10.27862,16.67989-6.02152,3.71954,3.4912,3.39607,10.54156-1.24675,13.34376-6.23559,3.76363-9.04131,9.3635-11.55167,15.86286-3.83949,9.94022-11.83414,15.72088-21.93329,18.90485a65.05193,65.05193,0,0,1-23.2424,3.0868,3.69623,3.69623,0,0,0-1.1924.2172c-.17159.05024-.30181.241-.49095.40222.09116.305.08389.6932.26718.83458,6.62234,5.10935,12.91686,10.78094,20.069,14.99942,2.89193,1.70574,7.82516.89718,11.52641-.00674,2.97349-.72615,5.62133-3.15659,8.14339-5.16912a4.77207,4.77207,0,0,0,1.6996-3.76224c-1.21855-5.71934,3.006-8.85949,5.75642-12.55349,3.24517-4.35831,7.32492-4.23968,11.40939-.21592,2.84373,2.8015,2.48262,8.0336-.37842,11.10026a32.26053,32.26053,0,0,0-5.50551,7.468c-5.52733,11.22585-20.0953,18.83917-32.50884,16.43046a59.72128,59.72128,0,0,1-10.46041-3.29993c-2.22751-.88121-3.45881-.158-4.63667,1.55445-1.29277,1.87952-1.01157,3.42433.79831,4.75013a57.83756,57.83756,0,0,1,6.57264,4.95623c1.10191,1.08177,2.20825,3.15771,1.8778,4.40691-.30818,1.16515-2.48382,1.88265-3.89894,2.68951a18.76348,18.76348,0,0,1-2.94118.96823c1.72945,1.39669,3.03774,2.29735,4.14475,3.39984a18.7728,18.7728,0,0,1,1.96671,2.79316c-1.15634.66958-2.28052,1.826-3.47591,1.90486a51.36718,51.36718,0,0,1-7.00091-.49177,21.788,21.788,0,0,0-2.55114.19843c1.43243,2.00575,2.50511,3.61772,3.68956,5.143,2.34918,3.02523,1.81288,4.86366-1.96064,5.49666-2.03231.34089-3.836.4851-4.29265,2.93616-.04573.24508-.39949.44843-.63563.64-2.17354,1.76356-4.35255,3.52031-6.24849,5.05164,1.39307,3.40371,2.50263,6.32038,3.77546,9.16412,1.16826,2.60987.15406,4.00784-2.39078,4.32173-2.33951.28857-2.478,1.33962-1.99692,3.3367.58143,2.414.65864,4.94517,1.1124,7.39633a6.67547,6.67547,0,0,0,1.21691,2.30788c2.159,3.188,4.495,6.26883,6.4413,9.57959a3.62462,3.62462,0,0,1-.55841,3.43382c-.65062.621-2.47295.64819-3.42965.19648-2.66989-1.26062-5.14389-2.93027-7.72186-4.3915-3.2774-1.85762-5.88431-1.165-8.04286,1.9078-4.45285,6.33895-8.59017,12.958-13.61261,18.81514-2.747,3.2036-6.884,5.35451-10.66836,7.49625-4.41529,2.49878-9.10751,4.52185-12.451,8.526-.73706.88278-1.69309,2.01742-1.67869,3.02358.11282,7.85516.42437,15.70777.711,23.55985.0482,1.31938.35346,2.62939.40264,3.9488.43682,11.725.82386,23.45194,1.2783,35.1763.06687,1.72571-.08928,3.76657.76285,5.07138a6.997,6.997,0,0,0,4.40727,2.89008c3.52958.43218,7.14845.09353,10.72946.15474,14.51211.24785,28.9959.81685,43.20868,4.16942.79613.1878,1.58919.39726,2.36987.6408,6.97708,2.17654,9.269,5.60712,8.27765,12.77574-.67544,4.88484-4.66,6.71377-8.60112,7.69443a269.3315,269.3315,0,0,1-26.6417,5.58427c-10.68508,1.53374-21.47938,2.52147-32.26116,3.115-13.86344.76318-27.76789,1.36009-41.64289,1.17056-12.73364-.174-25.5589-.24691-38.07634-3.41448-4.7875-1.21146-7.41765-3.35683-7.78985-6.96586-.75115-7.28353,1.02177-12.05915,6.23912-13.4943,9.824-2.70235,19.77242-5.09362,29.8011-6.87027,8.91777-1.57989,18.01036-2.18736,27.03369-3.15041,2.7423-.29276,4.113-1.69634,4.00576-4.39753q-.84414-21.24694-1.76093-42.491c-.181-4.27864-.23269-8.57211-.64777-12.82918-.55047-5.64442-3.24689-8.40337-8.88457-10.02424-7.01628-2.01726-13.97357-4.23935-20.98835-6.26205-5.527-1.59367-9.049-5.59794-12.394-9.87454q-2.546-3.25517-5.106-6.4993c-1.15453-1.46544-2.186-1.28926-3.08631.25724-.30856.52993-.53787,1.10922-.87529,1.61841-1.47359,2.22416-2.70219,2.23073-3.889-.18736-.85363-1.73895-1.56812-1.66658-3.016-.6401a17.91062,17.91062,0,0,1-3.97285,1.60717,17.98324,17.98324,0,0,1-1.02177-3.97346c-.12639-4.68377-.049-9.373-.049-14.10574-4.21326-1.70028-4.97978-3.214-3.52448-8.14933.6995-2.372,1.1235-3.97558-2.24049-4.38447-2.09212-.25426-2.31237-2.203-1.97667-4.14069,1.00445-5.79824.39694-6.30348-5.3298-4.64684-3.94324,1.1407-5.07409.20378-4.14549-3.68.42662-1.78424-.0668-2.42439-1.81281-2.61109-2.67326-.28589-3.40319-1.72161-2.52085-4.29623a52.29528,52.29528,0,0,0,1.32478-5.88608c-1.93425-.06287-3.86812-.14123-5.80282-.18505-3.13624-.07108-6.24.30308-9.19035-1.63023-1.03856-.68065-3.09621.3382-4.68134.298a22.54446,22.54446,0,0,1-3.87532-.75295c.46778-1.163.66861-2.55934,1.4481-3.44991,4.03289-4.6078,8.945-8.63016,12.13565-13.73907,3.14463-5.03513,7.7873-9.66656,7.83025-16.24948a54.35062,54.35062,0,0,0-.67738-6.36292l-1.17193-.29823c-1.24427,1.63-2.52963,3.23051-3.72494,4.89557-3.20656,4.46692-5.82,9.54256-9.72748,13.26756-3.33369,3.17788-8.02373,5.05716-12.31879,7.07491-5.49539,2.58161-11.31478,4.4826-16.77359,7.13152-4.82632,2.342-10.61865,1.46676-13.44806-2.67664-2.97679-4.35925-1.1256-11.25027,3.90358-13.10264,4.155-1.53042,8.57661-3.22835,12.87488-3.21479A34.08487,34.08487,0,0,0,57.97257,203.72c5.53025-1.73624,10.57773-7.71816,10.83538-13.5044a2.34755,2.34755,0,0,0-1.41406-1.75063,17.52809,17.52809,0,0,0-5.44884-.65977c-6.08342.53532-11.0219-2.0981-16.1217-4.891-4.26379-2.33509-8.98074-4.17848-14.00355-2.08653a5.626,5.626,0,0,0-2.814,2.55515c-2.87311,6.49773-12.17748,10.03062-18.26479,2.4201-2.94239-3.67874-2.60752-9.6905,1.03226-12.66159a21.006,21.006,0,0,1,13.50519-4.84965c3.097-.04642,6.173-1.16029,9.26831-1.74218,6.30817-1.18588,12.22779.6689,17.85946,2.98455,9.29733,3.82292,18.7062,2.72791,25.91349-3.92539a23.15578,23.15578,0,0,1-2.61568-2.77657,21.86135,21.86135,0,0,1-1.586-3.38116c1.11908-.36185,2.25533-1.07627,3.35424-1.02293,4.17391.20263,8.33687.9388,12.5017.92249a53.33559,53.33559,0,0,0,10.20905-1.32736c1.88035-.37848,1.45537-1.9458.33809-2.72428-2.24333-1.56312-4.53741-3.4577-7.09049-4.09413-6.70878-1.67233-13.57671-2.69855-20.36457-4.06489-9.3052-1.87306-17.531-5.75506-23.24563-13.63214-2.72363-3.75421-4.88893-7.91052-7.35663-11.8537-1.29187-2.06422-2.91322-3.951-3.98972-6.11469a9.3527,9.3527,0,0,1,.80573-9.63121,7.98943,7.98943,0,0,1,7.89765-3.75142,9.00254,9.00254,0,0,1,2.921.80353,11.83639,11.83639,0,0,1,6.44468,12.46135,6.655,6.655,0,0,0,2.61531,7.00522c4.76373,3.71354,9.30264,7.83873,15.751,8.19688,2.51882.13989,5.06157-.22388,7.59449-.24828,5.08061-.04893,10.162-.02286,15.243-.02644,5.17356-.00364,5.0384.03683,3.61114-4.80535a43.87035,43.87035,0,0,1,2.36867-31.946A29.92,29.92,0,0,1,117.77748,79.159a3.80072,3.80072,0,0,0,1.67277-2.90212c-.10307-5.98341-.90543-11.98588-.596-17.93638.29829-5.73479-1.76-10.79808-2.96651-16.13359-.54088-2.39169-1.24113-5.07134-.67739-7.3223,1.245-4.97119,2.48127-10.219,7.78655-12.85532,3.904-1.94,7.59134-.89848,10.61431,1.55386,2.85092,2.31273,5.2609,5.36911,3.98507,9.55716-.842,2.76439-2.01386,5.42727-2.99058,8.15256a6.815,6.815,0,0,0-.73234,2.87569c1.11413,8.487,2.38989,16.95273,3.51991,25.43777.2767,2.07766,1.11916,2.43541,2.84118,1.49545,1.52269-.83105,3.08264-1.595,4.59289-2.44733,1.94339-1.09681,2.45728-2.57614,1.89871-4.878-1.63-6.717,1.0765-12.023,7.06134-14.4738,6.616-2.70929,11.8229.18578,12.41482,7.3807.72424,8.80156-2.08,16.50371-9.13824,22.088-3.32156,2.628-7.2094,4.545-10.85885,6.75408-2.76074,1.67108-2.81359,2.80417.07782,4.35752,3.59795,1.93283,7.314,3.64473,10.9494,5.5098,6.21423,3.18816,11.508,7.38561,14.83642,13.7087C172.23753,109.40212,172.64436,109.59763,173.0027,109.9049ZM126.61749,128.96c.25676,10.87769,6.67984,17.25438,14.98328,21.92337,3.54787,1.99495,6.62167.79682,7.66256-3.18692a31.52626,31.52626,0,0,1,1.75171-5.2233c1.83349-3.98068.60631-7.185-2.4327-9.82764-5.22949-4.54727-10.58574-8.94859-15.86336-13.44106-1.38018-1.1749-2.52947-.96911-3.12035.63406C128.493,122.83784,127.59931,125.91517,126.61749,128.96Z"/>
  </g>
  <path d="M375.30947,334.36135c-2.27923-2.356-4.92493-4.46033-6.75477-7.12516-3.00341-4.374-3.58661-4.26055-6.74683-.24742-2.14157,2.71959-5.60291,4.37675-8.37539,6.63047a23.38,23.38,0,0,0-4.22087,4.13834c-4.331,5.92277-8.46967,11.986-12.77431,17.92859a9.35066,9.35066,0,0,1-2.53652,1.74262q-.64552-.35275-1.291-.70557c.58511-1.78982,1.16627-3.58093,1.756-5.36922,1.63578-4.96,5.49313-9.56367,2.75874-15.228a5.64919,5.64919,0,0,0-3.08048-2.44092c-3.92617-1.341-7.94472-2.41268-11.9328-3.57048-2.66426-.77346-4.70153-.76949-6.78233,1.97025-4.89584,6.44618-17.48819,9.90633-24.4297,6.36516,3.00677-1.78349,5.42523-3.2745,7.89794-4.66928,2.607-1.47053,5.2658-2.8492,9.10611-4.9161-2.69454-1.4848-4.18833-2.59576-5.86563-3.17448a101.48693,101.48693,0,0,0-11.99087-3.54971c-1.376-.29129-3.16108.663-4.575,1.40122-2.10971,1.10151-4.0562,2.51589-7.04948,4.41831-.2038-2.90361-.35886-5.11276-.55155-7.85774-11.383.003-23.41861-7.31107-34.96766,3.805V316.7434c-8.34713-4.31383-16.93634-3.324-25.34955-1.87978-3.19425.54829-6.15745,2.83906-9.05827,4.61042-4.43964,2.71105-4.51111,7.3118-2.98749,11.20127,1.58191,4.03833,4.80729,7.20255,10.00081,7.008,4.1013-.15367,8.22278-.09721,12.31818.14979,1.03786.06259,2.645,1.06311,2.83515,1.89648a3.57209,3.57209,0,0,1-1.71007,2.94962c-9.88485,4.626-27.171,3.88267-32.17582-8.86115-3.81332-9.70982-.27568-19.25691,9.53646-25.67253,4.43476-2.89964,10.11044-3.85139,15.10307-5.97,1.99216-.84536,4.265-2.08078,5.33171-3.80585,1.53467-2.48191,2.36176-2.59334,4.30885-.58636,3.71566,3.83,8.65084,4.23818,13.552,3.86728a5.165,5.165,0,0,0,3.74209-2.85262c1.18522-3.94377,2.9574-3.25171,5.24121-1.22163a17.39548,17.39548,0,0,0,15.76286,4.30872c1.79327-4.85359,2.65283-5.09464,7.0629-1.98418,5.09141,3.591,9.75385,3.3079,14.52429-.58578a3.73288,3.73288,0,0,1,3.28083-.01995c3.95511,2.02613,7.63323,3.89453,12.20813,1.07382,1.52781-.942,4.12476-.1488,6.42061-.1488.43826-1.94013.8243-3.64914,1.49063-6.59892l10.05557,7.31972c.84331-6.24184,3.4523-4.47455,6.69037-2.74742a14.31131,14.31131,0,0,0,7.71761,1.73458c3.02925-.31056,5.79565-1.57329,9.01595-.17088.80752.35169,3.4226-1.59129,4.04785-2.996,2.9617-6.65373,4.00695-7.8042,9.34112-8.87665.61509-4.92813,1.20287-9.63774,1.89023-15.14512a26.52613,26.52613,0,0,1-4.64823.84677c-2.03412.05228-4.08458-.53344-6.11877-.48161-1.58034.04026-3.50125.17572-4.65324,1.0673-3.59088,2.7792-6.71508,6.16965-10.34708,8.88572-3.83089,2.8648-8.35429,1.38808-9.89333-3.01583-.85958-2.45964-.9789-4.62,2.568-5.63986,2.60216-.74825,4.85343-2.71765,7.63751-4.36564-3.46009-3.34065-9.47128-1.12269-10.81148-6.35513,4.41835-1.1014,8.39334-1.84638,12.19283-3.11668,3.07872-1.02934,3.23835-3.1122,1.14817-5.60643-4.55339-5.43363-10.90973-6.26176-17.27333-6.54868-3.1219-.14077-4.00593-1.4895-4.11768-4.05665-.22583-5.188.46755-10.08477,4.2377-14.12938,3.36951-3.61478,7.1718-4.2626,11.29913-1.71705,4.03848,2.49073,7.71344,3.67587,11.63932-.31977.935-.95161,2.99987-1.0328,4.55955-1.08567,5.19472-.17612,9.79695-1.47558,13.52455-5.432,1.07375-1.13969,2.952-1.5209,4.46142-2.24986a38.64851,38.64851,0,0,0,1.57736,4.29164c.63963,1.28236,1.31373,2.89047,2.44,3.5247,3.87391,2.18132,8.11334,5.89281,11.92044,5.56938,8.51151-.72307,16.25752,2.94589,24.47129,2.61307,3.19133-.12931,6.38067-1.19754,9.48815-2.11774,1.46375-.43343,2.732-1.52741,4.91575-2.80634.28345,3.03077.49859,5.33077.60405,6.45828,4.13942,3.18523,7.479,6.09445,11.17206,8.44875a10.85213,10.85213,0,0,0,6.3066,1.61836c7.1762-.61295,14.337-2.07433,20.67926,3.10417.46452.37929,2.1651-.75627,4.5885-1.68452-7.50679-2.85566-12.77425-5.68092-13.85456-14.15049l15.75752,3.11948c3.83065-4.95665,7.007-9.06664,10.3287-13.36477-2.13582-.87-4.26887-1.574-6.22988-2.60537-1.02316-.53814-2.48462-1.70654-2.42746-2.49443a5.81394,5.81394,0,0,1,2.11984-3.40082c1.31-1.1333,3.08505-1.71944,4.43918-2.81434a5.15426,5.15426,0,0,0,1.72172-2.79168c.49829-2.58652-6.51879-13.85254-9.05334-14.7983-1.5315-.57148-3.07894-1.11128-4.64665-1.572-2.88975-.84929-3.39123-3.067-1.66332-4.83758,3.871-3.96667,2.12471-8.31377,1.27-12.45061-.57227-2.76988-2.20784-5.35373-3.55379-7.92323-3.4322-6.55214-8.69584-8.21789-15.41875-5.00075-10.68776,5.11447-13.88514,14.65107-9.41239,26.91008.692,1.89664-.22853,4.382-.40333,6.59514-2.1301-.70645-4.95563-.77394-6.2822-2.2187-12.583-13.70424-13.3247-36.42713,8.42449-46.09369,6.85885-3.04848,14.512-6.26967,22.13668-2.28951,4.6434,2.4239,8.79173,5.88,12.91165,9.18523,1.75958,1.41166,2.76513,2.53461,5.38771,1.34492,3.99071-1.81033,5.61788-.35888,4.8883,3.91285-.88236,5.16621-.86178,9.70825,2.96728,14.19241,2.30846,2.70341,3.49065,3.9591,6.53282,1.56781.742-.58326,2.14069-.33061,3.28544-.46807,2.20694,6.98871-2.23412,14.77232,2.936,20.76577l7.51721-1.578c-.88134,4.70031-1.79491,8.41057-2.2337,12.17619-.71631,6.14766-.43608,6.32536,5.61789,6.14689,4.0472-.11933,4.49526.88952,3.05607,4.915a58.54129,58.54129,0,0,0-2.44525,9.98322c-.55659,3.3095,2.0235,5.209,5.30154,4.10864,1.18441-.3976,2.299-1.00334,3.57317-1.571,2.72518,4.66536-2.12294,6.4577-3.05285,9.52331,6.59749,1.69684,6.82737,1.948,3.41516,7.66845-2.39327,4.01228-3.99583,8.011-3.60348,12.81257.13014,1.59265-.89648,3.31747-1.53165,4.92762-1.466,3.71626-3.24487,7.331-4.3827,11.14052-.31165,1.04351,1.1982,2.62961,1.86808,3.96875q1.52841,3.05541,3.05125,6.11361l-1.33427.872c-3.11867-1.10108-6.30278-3.21618-9.33772-3.02014-3.08114.199-6.015,2.67876-9.37233,4.33693-3.50519,14.6416-11.04234,28.09782-16.083,28.06639,0-7.04725-.48465-14.13884.11263-21.13805.91561-10.73008-6.15326-17.85645-17.04114-15.47957,3.92778,9.57121,8.08926,19.07381,11.73731,28.7697,4.16513,11.07,8.72022,22.08771,9.35892,34.13689.28481,5.37277.38951,10.75506.65934,16.12882a3.77883,3.77883,0,0,0,.88422,2.119c5.177,5.967,6.28746,13.73875,7.4401,20.83684,1.03338,6.36351-1.33774,13.27266-2.15665,19.94724-.59707,4.86621-5.68639,9.01244-2.10091,14.68291.5801.91749-1.32978,3.17722-1.565,4.88855-.6504,4.73194,2.0755,6.79958,8.55607,8.03958a129.1955,129.1955,0,0,1,43.84683,16.77348c16.16664,9.90662,14.8001,34.9288-2.65484,44.36109-16.02283,8.65838-33.09419,13.271-50.924,15.91677-21.18622,3.14368-42.4766,5.0362-63.811,2.93865a520.55421,520.55421,0,0,1-52.49081-7.47471c-14.92835-3.02726-29.222-8.42188-42.10166-17.24522-16.66876-11.41913-16.31306-36.43962,4.58733-45.4365,6.773-2.91559,13.753-5.34989,20.63979-8.00056.45233-.17411,1.1611-.17842,1.33925-.494,2.83844-5.02844,7.51159-6.38158,12.65478-8.42595,4.30709-1.71206,7.74936-2.00289,11.19027-.48229,4.85462,2.14538,8.59632-.0607,12.96873-1.16416,5.34132-1.348,7.0382-4.89006,8.72211-9.29277,1.66552-4.35466-.96085-6.35081-3.98222-7.5041-6.24-2.38191-12.83942-3.8375-19.035-6.3147-4.8484-1.93864-4.789-7.28025-5.05653-11.31222-.38532-5.80827.2922-11.64478,5.09173-16.36744,2.40495-2.36647,3.40519-6.16174,5.03957-9.31138.30266-.5833.44982-1.479.92186-1.70766,6.472-3.135,4.22376-8.8955,4.26288-13.94865.03773-4.87145.00818-9.74345.00818-15.45257-5.16558,5.67182-6.74977,13.1888-12.0488,17.68334q-.91584-.54622-1.83168-1.09247,1.6231-6.28922,3.248-12.58245c2.69892-7.596,5.59361-15.12762,7.94722-22.82483.55314-1.80893-.43137-4.32073-1.35745-6.187-.23214-.46782-3.10967-.00186-4.53338.59917a11.501,11.501,0,0,0-4.67249,3.21049c-.97623,1.28721-1.9312,3.94963-1.28161,4.89184C375.76012,320.32144,374.97292,327.41915,375.30947,334.36135Zm47.27017,35.33177c-2.4572,1.74185-4.96029,3.44442-7.37322,5.26652-.81982.619-2.05476,1.58316-2.00507,2.31519.34485,5.07491.97843,10.13023,1.3259,13.38179,4.271,3.25611,9.23765,5.18785,10.63115,8.58591,1.65113,4.02628,2.18927,9.45056-1.90765,13.78379-2.31761,2.45127-3.56574,5.9144-5.33218,8.9854,14.51945.83081,28.66264,1.6401,42.796,2.44884.74349-6.10094,3.17766-11.65366-1.43489-17.09119-1.67584-1.97559-2.212-5.5738-2.02145-8.3459.43449-6.32076,2.573-12.786-3.857-17.52814-.1038-.07656-.07611-.31447-.141-.4635-1.48557-3.41152-2.97544-6.82117-4.95819-11.36163-1.53038,2.13988-2.233,3.09934-2.91145,4.07557-1.69159,2.43408-3.99517,4.15077-6.90873,3.01588C433.16589,374.691,428.03341,372.14882,422.57964,369.69312Z"/>
</svg>
