<?xml version="1.0" encoding="utf-8"?>
<!-- Generator: Adobe Illustrator 25.3.1, SVG Export Plug-In . SVG Version: 6.00 Build 0)  -->
<svg version="1.1" id="Слой_1" xmlns="http://www.w3.org/2000/svg" xmlns:xlink="http://www.w3.org/1999/xlink" x="0px" y="0px"
	 viewBox="0 0 938 938" style="enable-background:new 0 0 938 938;" xml:space="preserve">
<style type="text/css">
	.st0{fill:url(#SVGID_1_);}
	.st1{fill:#FFFFFF;}
	.st2{fill:url(#SVGID_2_);}
	.st3{display:none;}
	.st4{display:inline;fill:url(#SVGID_3_);}
	.st5{display:inline;fill:url(#SVGID_4_);}
	.st6{fill:url(#SVGID_5_);}
	.st7{fill:url(#SVGID_6_);}
	.st8{fill:url(#SVGID_7_);}
	.st9{fill:url(#SVGID_8_);}
	.st10{fill:url(#SVGID_9_);}
	.st11{fill:#E273F9;}
	.st12{fill:url(#SVGID_10_);}
	.st13{fill:url(#SVGID_11_);}
	.st14{fill:url(#SVGID_12_);}
	.st15{fill:url(#SVGID_13_);}
	.st16{fill:url(#SVGID_14_);}
	.st17{fill:url(#SVGID_15_);}
	.st18{fill:url(#SVGID_16_);}
	.st19{fill:url(#SVGID_17_);}
	.st20{fill-rule:evenodd;clip-rule:evenodd;fill:#FFFFFF;}
	.st21{fill-rule:evenodd;clip-rule:evenodd;fill:#020203;}
	.st22{fill-rule:evenodd;clip-rule:evenodd;fill:#CF84BD;}
	.st23{fill:#020203;}
	.st24{fill:url(#SVGID_18_);}
	.st25{fill:url(#SVGID_19_);}
	.st26{fill:url(#SVGID_20_);}
</style>
<g id="Первые_последователи_1_">
	<linearGradient id="SVGID_1_" gradientUnits="userSpaceOnUse" x1="469" y1="938" x2="469" y2="-9.094947e-13">
		<stop  offset="6.089431e-02" style="stop-color:#45649A"/>
		<stop  offset="0.3076" style="stop-color:#77699F"/>
		<stop  offset="0.5421" style="stop-color:#A06DA3"/>
		<stop  offset="0.7268" style="stop-color:#B96FA6"/>
		<stop  offset="0.8387" style="stop-color:#C270A7"/>
	</linearGradient>
	<rect y="0" class="st0" width="938" height="938"/>
	<g>
		<g>
			<path class="st20" d="M470.9,426.1c2.8-0.1,6.5-1.1,8.9-2.4c3.3-2.1,9.9-9.3,13-12.2c7.9-7.6,16.5-14.7,26.3-19.8
				c21.2-10.9,37.7-10.3,48.8-35.3c6.1-13.8,11.7-28,17.6-41.9c8.6-20.3,17.6-40.5,27.6-60.2c13.6-26.9,32.1-60.3,54.3-80.9
				c23.9-22.4,74-28.2,105.5-30.4c25.4-1.8,51.1-1.9,76.6-1.1c11.7,0.4,23.7,0.9,35.4,1.9l23.8,2l-12.5,20.4
				c-19.5,31.7-38.9,63.6-57.9,95.6c-10.4,17.6-20.8,35.4-30.9,53.2c-6.6,11.5-13.8,24-19.1,36.2c-10.7,24.3-62.4,53.7-85.1,67.1
				c-11.7,6.9-65.7,37-77.5,48.7c2.5,15.8-3.8,36.6-6.6,51.3c-1.8,9.1-3.8,21.4-1.5,30.5c1.6,6.4,6.4,12.9,10.5,18
				c6.5,8.1,13.6,15.7,19.8,24c10.4,13.9,17.5,28.7,18,46.5c0.9,32.7-25.4,75.9-45.6,100.7l-17.9,22l-1.9-7
				c-13.5,16.3-41.2,34.9-56.9,44.4L521.3,811v-8.1c-6.2,2.7-12.8,5.3-18.5,7.6c-8.9,3.6-17.7,7.1-26.6,10.5l-5.3,2.1l-5.2-2.1
				c-8.9-3.4-17.8-6.9-26.6-10.5c-5.7-2.2-12.3-4.8-18.5-7.6v8.1l-22.3-13.5c-15.8-9.5-43.4-28.1-56.9-44.4l-1.9,7l-17.9-22
				c-20.2-24.7-46.5-68-45.6-100.7c0.3-12.4,4-23.8,10.1-34.5c2.3-4.1,5-8.1,7.9-11.9c6.2-8.4,13.3-15.9,19.8-24
				c4.1-5.1,8.9-11.6,10.5-18c2.2-9.1,0.3-21.4-1.5-30.5c-2.9-14.7-9.2-35.5-6.7-51.3c-11.8-11.7-65.8-41.8-77.5-48.7
				c-22.7-13.4-74.3-42.8-85.1-67.1c-5.4-12.1-12.6-24.7-19.1-36.2c-10.1-17.9-20.5-35.6-30.9-53.2c-19-32-38.3-64-57.9-95.6
				L33.3,146l23.8-2c11.8-1,23.7-1.5,35.5-1.9c25.4-0.8,51.1-0.8,76.6,1.1c31.5,2.2,81.5,8,105.5,30.4c22.1,20.6,40.7,54,54.2,80.9
				c9.9,19.7,19,39.9,27.6,60.2c5.9,13.9,11.5,28.1,17.6,41.9c11,25,27.6,24.4,48.8,35.3c9.9,5.1,18.4,12.2,26.4,19.8
				c3.1,2.9,9.7,10.2,13,12.2C464.5,425.1,468.3,426.1,470.9,426.1L470.9,426.1z M470.9,807.3c0,0-43.2-16.7-51-21
				C412.1,781.9,406,774,406,774V785c0,0-45.7-27.7-56.5-45.7c-10.9-18-11.4-28.7-11.4-28.7l-5.1,18.2c0,0-43.3-53.1-42.3-91
				c1-37.8,41-57.6,47.9-85.3c6.8-27.7-13.5-67.8-7.1-86.3c6.3-18.5-148.4-84.4-164.4-120.8C151,309,58.3,158.6,58.3,158.6
				s164.1-13.8,206.4,25.6c42.2,39.4,82.2,147,96,178.2c13.8,31.2,37.7,33.3,55.5,42.4c17.9,9.1,31.2,27.4,38.8,31.7
				c7.6,4.3,16,4.3,16,4.3s8.4,0,16-4.3c7.6-4.3,21-22.6,38.8-31.7c17.8-9.1,41.7-11.2,55.5-42.4c13.8-31.2,53.8-138.8,96-178.2
				s206.3-25.6,206.3-25.6S790.9,309,774.8,345.4c-16,36.5-170.7,102.3-164.4,120.8c6.4,18.5-13.9,58.6-7,86.3
				c6.8,27.7,46.8,47.5,47.9,85.3c1,37.9-42.3,91-42.3,91l-5.1-18.2c0,0-0.6,10.6-11.4,28.7c-10.9,18-56.6,45.7-56.6,45.7V774
				c0,0-6.1,7.8-13.9,12.2C514.1,790.7,470.9,807.3,470.9,807.3L470.9,807.3z"/>
		</g>
		<g>
			<g>
				<g id="Слой_1_2_">
					<path class="st21" d="M677.4,183.7c-42.3,39.5-82.2,147.1-96,178.5c-13.8,31.4-37.7,33.2-55.6,42.5c-4.7,2.5-9.1,5.5-13.3,8.9
						c-0.7-5.4-1.5-10.7-2.3-15.8c0,0,0-0.6,0-0.7s0,0,0-0.4c-1.6,1.1-3.2,2.2-4.7,3.4c-0.4,0.2-0.8,0.6-1,0.9
						c-0.5,0.3-0.9,0.6-1.2,0.9c-1.6,1.3-3.1,2.6-4.6,4c-0.9,0.7-1.8,1.4-2.6,2.3c-1,0.9-2.1,1.8-3,2.8c-4.1,4.4-8.4,8.5-13,12.3
						c-2.8,1.4-5.8,2.2-8.8,2.3h-1.2c-2-0.2-3.9-0.6-5.7-1.2l0,0c-0.8-0.3-1.5-0.6-2.2-1.1c-0.6-0.4-1.2-0.8-1.7-1.4
						c-1.4-1.1-2.7-2.2-3.9-3.5c-2.8-2.6-5.7-5.7-7.4-7.4c-1.8-1.7-3.3-3.1-5-4.5c-1.8-1.5-2.9-2.6-4.3-3.7
						c-0.7-0.7-1.4-1.2-2.2-1.7c-0.7-0.7-1.5-1.3-2.4-1.8c-1.4-1.2-2.9-2.3-4.4-3.3c0,0,0,0,0,0.5c-0.9,3.2-1.5,6.6-2.2,10.2
						c0,1.8-0.6,3.8-0.9,5.8c-3.6-3-7.5-5.6-11.6-7.8c-17.8-9-41.7-11.1-55.3-42.4s-54.1-139.1-96.2-178.6S58,158.1,58,158.1
						S150.8,308.6,166.9,345s170.8,102.3,164.5,121.2c-6.3,18.9,13.9,58.7,7.2,86.2c-6.8,27.5-47,47.4-48,85.2
						c-1,37.9,42.3,91.1,42.3,91.1l5.1-18.5c1.6,10.3,5.5,20.1,11.4,28.6c10.8,18,56.5,45.7,56.5,45.7V774c3.9,4.9,8.6,9,13.9,12.3
						c7.9,4.3,51.1,21,51.1,21s43-16.7,51-21c5.4-3.3,10.1-7.4,14-12.3v10.9c0,0,45.6-27.7,56.5-45.7c5.9-8.5,9.8-18.3,11.4-28.6
						L609,729c0,0,43-53.2,42.3-91.1c-0.7-37.9-41.1-58-47.9-85.5c-6.8-27.5,13.4-67.7,7-86.2S758.8,381.5,774.9,345
						c16.2-36.4,108.9-186.9,108.9-186.9S719.6,144.3,677.4,183.7z M471,717.9c-15.4-13.3-40.5-36.3-35.8-42.7
						c4.7-6.5,23.6-8.9,35.8-10c12.3,1.1,31.1,3.8,35.8,10C511.4,681.3,486.4,704.6,471,717.9z M471,654
						c-25.5,8.1-49.2,10.8-59,36.4c-7.6-16.9-10.5-25.6-3.7-43.1l-17.8,14.5c-3.3-11.7-2.2-24.2,2.9-35.2l-12.3,6.2
						c39.3-53.2,45.4-12.3,89.7,4.3c44.3-16.4,50.3-57.5,89.6-4.3l-12.3-6.2c5,11,6,23.5,2.8,35.2l-17.9-14.7
						c6.9,17.7,4.1,26.5-3.6,43.1C520,664.9,496.4,662.2,471,654z M316.2,383.2c-21.9-19.4-23.4-62.5-48.1-122S167.2,216,167.2,216
						s33.8,30,54,46.1c20.2,16.1-3.8,33.2,23.2,80.6c25,44.1,79.1,84.5,86.7,90.2c-37.1-17.5-71.5-40.1-102.2-67.2l0,0
						c-4.7-4.3-9.3-8.9-13.8-13.5c-2.2-2.4-4.5-4.7-6.6-7.1c-4.3-4.8-8.5-9.9-12.3-15.1c-2-2.5-3.9-5.2-5.7-7.9
						c-1.7-2.3-3.2-4.7-4.5-7.1c-1.9-3.1-3.8-6.2-5.4-9.3c-41.3-78.8-75.9-121.2-75.9-121.2c12.9-0.7,25.8-0.7,38.7,0l6.2,0.3
						c11.6,0.6,23.2,1.9,34.7,3.8c20.9,2.6,41.2,9.2,59.7,19.3c58.4,35.8,79,155.9,130.4,213.1C353.7,410.3,334.2,397.7,316.2,383.2
						z M761.6,305.4c-3.2,6.2-6.9,12.2-10.9,17.9c-1.4,2-2.8,3.9-4.2,5.9c-9.7,13-20.7,24.9-32.7,35.8c-0.2,0.3-0.4,0.5-0.7,0.6l0,0
						c-5.7,5.2-11.3,10-17.2,14.5c-2.8,2.4-5.7,4.6-8.6,6.7c-8.5,6.2-17.1,12.3-25.2,17.6l-9.8,6.2c-4.4,2.7-8.4,5.1-12.3,7.2
						c-1,0.6-1.9,1.2-2.9,1.7c-3.5,2-6.8,3.8-9.8,5.4l-5.2,2.6l0,0c-2.2,1.2-4.2,2.3-6.2,3c-1,0.5-1.9,1-2.9,1.4l-1.9,0.8l2-1.4l0,0
						l2.9-2.2c3.2-2.5,7.5-5.9,12.3-10l3.8-3.2c5.4-4.6,11.4-9.9,17.6-15.8c2.2-2,4.2-4.1,6.2-6.2c16.1-15.2,30-32.5,41.4-51.4
						c27-47.3,3.1-64.5,23.2-80.6s53.9-46.1,53.9-46.1s-75.5-14.3-100.3,45.3c-24.8,59.6-26.3,102.6-48.2,122
						c-18.1,14.6-37.6,27.3-58.3,37.8c51.4-57.2,71.9-177.3,130.2-213.1c18.4-10.2,38.6-16.9,59.6-19.6c11.5-1.9,23-3.2,34.7-3.8
						l6.2-0.3c12.9-0.7,25.8-0.7,38.7,0c0,0-34.3,42.5-75.5,121.3L761.6,305.4L761.6,305.4z"/>
					<path class="st20" d="M510.1,397.6c0,0,0-0.6,0-0.7c-1.7,1.2-3.2,2.3-4.7,3.5c-0.4,0.2-0.8,0.5-1.1,0.8
						c-0.5,0.3-0.8,0.6-1.2,1.1c-1.6,1.2-3.1,2.6-4.7,3.9l-3.1,2.8l-2.5,2.3c-4.1,4.4-8.4,8.5-13,12.3c-2.8,1.4-5.8,2.2-8.8,2.4
						h-1.4c-1.9-0.3-3.8-0.7-5.7-1.4c-0.6-0.2-1.2-0.5-1.7-0.9c-0.7-0.4-1.4-0.9-2-1.5c-1.1-0.9-2.6-2.3-3.9-3.5
						c-2.7-2.6-5.5-5.7-7.1-7.2c-1.7-1.5-3.4-3.2-5.1-4.6s-2.9-2.6-4.4-3.7c-0.7-0.7-1.4-1.3-2.2-1.8c-0.7-0.7-1.5-1.3-2.3-1.8
						c-1.5-1.1-2.9-2.2-4.4-3.2c-0.9,3.2-1.5,6.6-2.2,10.2c0,1.8-0.6,3.8-0.9,5.8c1.7,1.2,3.2,2.6,4.7,4c0.8,0.5,1.5,1.2,2.2,1.8
						c0.7,0.5,1.3,1.1,1.8,1.7c1.7,1.4,3.3,2.9,4.7,4.5l4.4,4.2l3.8,3.5c0.7,0.7,1.4,1.3,2.2,1.8l0,0c1,0.9,2,1.7,3.2,2.4l0,0
						c1.8,1,3.6,1.8,5.6,2.3c3.4,1.1,6.9,1.7,10.4,1.8c5.6-0.2,11.1-1.6,16-4.2c4.7-3.5,9.1-7.4,13.2-11.8l4.8-4.7l1.2-1.1
						c0.4-0.5,0.9-0.9,1.5-1.3c1.5-1.5,3.2-2.8,4.8-4.1C511.8,408,510.9,402.7,510.1,397.6z"/>
					<path class="st20" d="M359.2,466.3c0,0,11.6-9.2,20.4,7.6c10.1,16,21.6,31.1,34.3,45.1c0,0-12.1,15-27.6,15
						c-15.5,0-27.1-30.2-27.1-30.2s15.5,42.7,38.9,37.7c13.4-2.8,24.2-12.8,28-26c0,0-29.1-38.8-44.9-49.8
						c-10.1-7.1-16.5-4.6-19.7-2C360.7,464.5,359.9,465.4,359.2,466.3z"/>
					<path class="st22" d="M394.6,519.6c-4.8,0.5-10.8-9.4-11.6-14.3C379.7,484.9,406.9,518.3,394.6,519.6z"/>
					<path class="st20" d="M633.7,627.3c-8.8-30.8-38.7-40.8-50.8-61.5c-10.9-18.8-2.3-53.6-0.4-60.4c-0.3,0.4-0.5,0.8-0.6,1.2l0,0
						c0,0.3,0,0.5,0,0.7c-0.1,0.4-0.3,0.7-0.5,1l0,0l0,0c-2.8,6.1-6.4,11.7-10.7,16.9l-2.5,2.6c-1.1,1.1-2.4,2.2-3.7,3.1l-0.9,0.6
						c-1.5,1-3.1,1.7-4.8,2.2c-0.9,0.3-1.9,0.4-2.9,0.3c-1.8,0-3.5-0.2-5.3-0.6c-1.1-0.2-2.2-0.5-3.3-0.8c-0.9-0.3-1.8-0.6-2.6-1.1
						c-0.8-0.2-1.6-0.6-2.3-1.1c-1-0.6-2.1-1.2-3-1.8c-0.7-0.4-1.3-0.8-2-1.3c-0.6-0.4-1.2-0.9-1.7-1.4c-2.7-2.1-5.2-4.4-7.3-7
						l0.4-0.5l0.7-0.7c1.7-2,5.5-6.2,10-11.8c1.7-2.2,3.6-4.4,5.5-6.9c4.9-6.2,9.8-12.3,13.7-18.5c1.4-2.3,2.8-4.6,3.9-6.6
						c0.9-1.8,2.1-3.5,3.4-5c0.5-0.6,1.1-1.2,1.7-1.7c1-0.9,2.1-1.7,3.3-2.3c0.9-0.5,1.9-0.8,2.9-1h3.4c1.1,0.2,2.1,0.5,3.1,1
						c0.8,0.3,1.6,0.7,2.4,1.1l0,0l0,0c-0.6-0.6-1.5-1.6-2.6-2.6c-6.3-7-15-11.2-24.4-11.8c-8.7-0.7-16.9,4.3-20.5,12.3
						c5.8-24.1,5.7-30.8,30.7-24.1c0,0-13.2-17.8-30.2-14.2c-7.6,3.1-14.8,7.3-21.3,12.3c-1.6,1.1-3.3,2.3-5,3.4l-2,1.4l-5.6,3.6
						c-2.5,1.7-5.2,3.3-7.8,4.9c-7.4,4.8-15.2,9-23.4,12.3c-8.2-3.4-16.1-7.7-23.5-12.7l-4.4-2.6c-0.4-0.3-0.9-0.6-1.4-0.8
						c-0.3-0.4-0.7-0.8-1.2-0.9l0,0c-0.4-0.3-0.8-0.5-1.2-0.7l-2.8-1.8c-0.5-0.4-1.1-0.8-1.7-1.1l0,0l-2.2-1.4l-5.4-3.7
						c-6.5-5.1-13.7-9.2-21.3-12.3c-17-3.6-30,14.2-30,14.2c24.6-7,24.6,0,30.3,24.1c-3.5-8-11.7-12.9-20.4-12.3
						c-9.2,0.7-17.9,4.9-24.1,11.8l-0.9,0.9c-0.3,0.2-0.5,0.5-0.7,0.7c-0.4,0.4-0.6,0.8-0.9,1.1c0.7-0.6,1.6-1,2.5-1.2
						c0.4-0.3,0.9-0.4,1.4-0.6c0.6,0,1.2,0,1.8,0c0.2-0.1,0.4-0.1,0.6,0c1.3-0.2,2.7-0.1,4,0.4l1.7,0.6c0.7,0.4,1.4,0.8,2.1,1.2
						c0.8,0.5,1.4,1.2,2,1.8c0.8,0.8,1.5,1.7,2.1,2.6c0.8,1.1,1.4,2.2,2,3.4c0.6,1,1.2,2,1.8,3.2c0.6,1.2,1.5,2.3,2.3,3.4l0,0
						c1.5,2.4,3.3,4.9,5,7.3c7.7,10,16.5,21.1,21.5,26.5l2.3,2.6c0.5,0.5,1,1.1,1.5,1.5c0,0-11.9,15.3-27.4,15
						c-0.9,0-1.9-0.1-2.8-0.4c-2-0.4-3.8-1.3-5.5-2.5c-0.9-0.6-1.8-1.2-2.6-2c-0.9-0.6-1.7-1.4-2.5-2.3c-1.6-1.6-3-3.4-4.3-5.2
						c-0.7-0.9-1.4-1.8-2-2.8c-1.4-2-2.6-4-3.7-6.2c-0.9-1.5-1.5-2.8-2.1-4.1l0,0c-0.2-0.4-0.4-0.7-0.6-1.1
						c-0.2-0.3-0.3-0.6-0.4-0.9c-0.2-0.4-0.4-0.8-0.6-1.2c0,0,0,0,0-0.3c1.7,6.2,10.6,41.6,0,60.6c-12.3,21.1-41.9,30.8-50.9,61.5
						c-9,30.8,27.3,68.8,27.3,68.8l10.5-27.2c-0.4,19.4,4.4,38.5,13.8,55.4c15.2,25.6,49.9,38.5,49.9,38.5l-10.2-26.2
						c0,0,23.2,26.2,41.7,35.7c9,5.3,19,8.7,29.4,10.1c10.4-1.4,20.4-4.8,29.5-10.1c18.4-9.5,41.6-35.7,41.6-35.7l-10.1,26.2
						c0,0,34.6-12.9,49.9-38.5c9.4-16.9,14.1-36,13.8-55.4L606,696C606,696.1,642.6,658.3,633.7,627.3z M565.5,653.4l-6.6-13.4
						c1.8,7.6,2.3,15.5,1.5,23.3c-1,7.1-3.5,13.8-7.4,19.8l-9.3-20.7c0.3,8-1.2,16-4.4,23.4c-3.1,6.6-7.9,12.2-14,16.3l-3.2-9.2
						c-4.1,6.7-8.7,13-13.9,18.8c-10.2,11.8-22.8,21.4-36.9,28c-14.1-6.7-26.7-16.2-36.9-28c-5.3-5.8-9.9-12.1-13.9-18.8l-3.3,9.2
						c-6.4-3.9-11.5-9.5-14.8-16.3c-3.2-7.4-4.7-15.4-4.4-23.4l-9.2,20.7c-3.8-6-6.3-12.7-7.3-19.8c-0.8-7.8-0.3-15.7,1.5-23.3
						l-6.6,13.4c-10.1-25.4,16.2-46.2,37.2-57.2c-6.2-10-6.5-19.7,5.5-26.3c-9.3,25.5,29.1,31.3,51.7,33.2
						c22.7-2,61.5-7.8,51.8-33.2c11.9,6.6,11.9,16.4,5.5,26.3C549.3,607.2,575.5,628,565.5,653.4z"/>
					<path class="st20" d="M471,717.9c-15.4-13.3-40.5-36.3-35.8-42.7c4.7-6.5,23.6-8.9,35.8-10c12.3,1.1,31.1,3.8,35.8,10
						C511.4,681.3,486.4,704.6,471,717.9z"/>
					<path class="st20" d="M548.5,626.7c5,11,6,23.5,2.8,35.2l-17.9-14.7c6.9,17.7,4.1,26.5-3.6,43.1c-9.9-25.6-33.4-28.3-58.9-36.4
						c-25.5,8.1-49.2,10.8-59,36.4c-7.6-16.9-10.5-25.6-3.7-43.1l-17.8,14.7c-3.3-11.7-2.2-24.2,2.9-35.2l-12.3,6.2
						c39.3-53.2,45.4-12.3,89.7,4.3c44.3-16.4,50.3-57.5,89.6-4.3L548.5,626.7z"/>
					<path class="st20" d="M583,466.3c0,0-11.5-9.2-20.4,7.6c-10.2,16-21.7,31.1-34.4,45.1c0,0,11.8,15,27.7,15
						c15.9,0,27.4-30.2,27.4-30.2s-15.7,42.5-39.2,37.7c-13.5-2.7-24.5-12.7-28.3-26c0,0,29.1-38.8,44.8-49.8
						c10.2-7.1,16.5-4.6,19.8-2c0.9,0.9,1.8,1.8,2.6,2.8V466.3z"/>
					<path class="st22" d="M547.3,519.6c4.8,0.5,10.8-9.4,11.6-14.3C562.1,484.9,535,518.3,547.3,519.6z"/>
					<path class="st20" d="M712.9,365.6c0.3-0.2,0.5-0.4,0.7-0.6C713.3,365.2,713.1,365.4,712.9,365.6L712.9,365.6z"/>
					<path class="st1" d="M497.4,372.7c0,0-1,30.3-19.7,42C459,426.5,443,440.2,440,447.2c-3.4,9.5-5.5,19.5-6.2,29.6
						c0.8,26.1,6.2,18,32.7,18.5s39.5-11.8,40.9-36.9C508.8,433.1,503.4,381.9,497.4,372.7z"/>
					<path class="st1" d="M493,317.9c0.6-4.5,6.2,13.5,5,46.8c-1.2,33.4-12.3,46.1-21.5,51.6c-9.2,5.5-24.6,15.1-30.7,23.3
						c-6.2,8.1-8.2,20.6-9,18.5c-4.2-19.7-3.7-40.1,1.4-59.5c8-28,16.8-34.7,28-40.9C480.3,348.7,490,334.3,493,317.9z"/>
					<path class="st1" d="M489.2,260.1c0.4-4.1,6.2,15.9,4.8,45.1c-1.4,29.2-12.9,43.1-21,47.6c-9.3,5.2-17.6,11.9-24.6,19.9
						c-5.2,7.4-7.6,19.7-8.3,17.8c-3.4-18.4-2.9-37.2,1.5-55.4c7-24.6,14.8-30.3,24.6-35.8C476.1,293.8,486.3,288.2,489.2,260.1z"/>
					<path class="st1" d="M484.7,223.4c0.4-3.2,5.7,9.5,4.7,32.7c-1,23.3-9.8,34.8-16.3,38.7c-8,4.5-15.4,10.3-21.6,17
						c-4.2,5.7-5.4,11.1-6.2,9.5c-3.7-13.9-3.9-28.5-0.6-42.5c2.4-12.2,10.7-22.4,22.2-27.1C476.5,245.3,483,235,484.7,223.4z"/>
					<path class="st1" d="M481.4,182.7c2.8,12.3,3.9,25,3.3,37.7c-1.3,11.6-6.4,22.5-14.6,30.8c-6.2,5.7-13,7.1-18.4,14.5
						c-3.1,4.2-6.8,14-6.8,7.8c0-6.2,3.2-42.1,9.4-49.2C460.4,217,478.3,203.8,481.4,182.7z"/>
					<path class="st1" d="M475,144c0,0,7.7,29.1,6.2,38.6c-2.5,19.6-14,27.3-21,35.2c-6.9,7.9-9.9,14.5-9.9-1.7
						c0-13,6.2-31.9,11.1-56.8C465.7,139.6,468.3,124.3,475,144z"/>
					<path class="st23" d="M451.4,433.7c-0.8-0.6-1.5-1.2-2.2-1.8c-2.2,2.3-4.2,4.8-6.2,7.4c-0.4,0.6-0.9,1.2-1.4,2
						c-0.5,0.7-1,1.5-1.4,2.3c-0.3,0.4-0.6,0.9-0.7,1.4c-0.2,0.3-0.4,0.7-0.4,1.1c0.4,0.2,0.8,0.5,1.2,0.7l0,0
						c0.5,0.2,0.9,0.5,1.2,0.9l0,0c0,0,0.5-1.1,0.7-1.6c0.2-0.6,0.5-1.1,0.8-1.6c0.3-0.5,0.5-1.1,0.9-1.5c0.6-1.1,1.2-2.1,1.9-3
						l0.4-0.6l0.4-0.4c1.4-1.4,3.1-3,4.9-4.6C451.4,433.9,451.4,433.7,451.4,433.7z M451.4,433.7c-0.8-0.6-1.5-1.2-2.2-1.8
						c-2.2,2.3-4.2,4.8-6.2,7.4c-0.4,0.6-0.9,1.2-1.4,2c-0.5,0.7-1,1.5-1.4,2.3c-0.3,0.4-0.6,0.9-0.7,1.4c-0.2,0.3-0.4,0.7-0.4,1.1
						c0.4,0.2,0.8,0.5,1.2,0.7l0,0c0.5,0.2,0.9,0.5,1.2,0.9l0,0c0,0,0.5-1.1,0.7-1.6c0.2-0.6,0.5-1.1,0.8-1.6
						c0.3-0.5,0.5-1.1,0.9-1.5c0.6-1.1,1.2-2.1,1.9-3l0.4-0.6l0.4-0.4c1.4-1.4,3.1-3,4.9-4.6C451.4,433.9,451.4,433.7,451.4,433.7z
						 M509.7,445.4c0-1.4,0-2.8,0-4.2c0-4-0.4-7.9-0.7-11.9s-0.7-7.9-1.2-11.8c-0.6-6.2-1.5-11.6-2.4-17.1c0-0.2,0-0.3,0-0.5
						c0-0.6,0-0.9,0-1.4c-0.4-2.6-0.8-4.9-1.3-7.4c-0.5-2.5-1-4.7-1.7-6.9c0-1.1-0.6-2.3-0.9-3.4l-1-3.2l-1.2-2.8l0,0
						c0-0.9,0-1.8,0-2.6c0.5-10.1,0.3-20.1-0.6-30.2c-0.4-4.9-0.9-9.7-1.7-14.2c-0.4-2.2-0.9-4.5-1.5-6.6c-0.2-0.9-0.6-1.8-0.9-2.6
						c0.5-3.1,0.7-6.1,0.8-9.2c0.4-9.1,0.2-18.2-0.8-27.3c-0.4-4.3-1-8.7-1.8-12.7c-0.4-2-0.8-4.1-1.2-6.2c-0.2-0.8-0.4-1.7-0.7-2.5
						c0.3-7.3,0-14.6-0.9-21.9c-0.4-3.3-1-6.5-1.8-9.7c-0.3-1.5-0.7-3-1.2-4.4c0-0.4,0-0.6-0.4-0.9c0-1.7,0.4-3.4,0.5-5.2
						c0.2-3.5,0.2-7,0-10.5c-0.2-3.2-0.6-6.3-1.1-9.4c-0.4-3.1-1-6.2-1.7-8.7c-0.2-1.2-0.5-2.4-0.8-3.5c-0.1-0.4-0.1-0.8,0-1.2
						c0.2-1.9,0.2-3.8,0-5.7c-0.2-2.9-0.6-5.9-1.1-8.7c-1-5.2-2.4-9.6-3.5-14c-1.1-4.4-2.5-8.9-3.6-13.4l-1.1-3.1
						c-0.3-1.1-0.9-1.8-1.2-2.9c-0.5-1.7-1.5-3.2-2.9-4.3c-1.2-0.9-2.6,0.4-3.7,2.2c-1,2-1.9,4-2.6,6.2c-1.4,4.3-2.7,9-3.8,13.5
						l-3.2,13.6c-2.2,9-4.3,18.5-6.2,28.3c-0.4,2.6-0.9,5.2-1.2,8c-0.4,3-0.6,6.1-0.6,9.2c-0.1,1.5-0.1,3.1,0,4.6c0,1.5,0,3,0.4,4.7
						c0,0.6,0,1.5,0.4,2.4c0.4,0.9-0.4,1.2-0.6,2c-1.6,5.9-2.8,11.9-3.6,18c-0.8,6.2-1.5,12.3-1.9,18.5c0,1.6,0,3.3,0,4.8v5.5
						c-2,7-2.9,14.3-2.9,21.6c-0.1,3.9,0.2,7.9,0.6,11.8c0.4,3.5,1,7,1.8,10.5c0,0.6,0.4,1.2,0.4,1.8c-1.1,3.1-2.2,6.2-3.2,9.8
						c-0.5,1.8-1,4.1-1.5,6.2c-0.6,2-0.9,4.4-1.2,6.7c-0.7,4.7-1.2,9.5-1.4,14.2c-0.4,9.4,0.2,18.7,1.6,28c0.1,1.1,0.3,2.2,0.5,3.3
						c0.1,0.2,0.1,0.4,0,0.6l-1.3,4.1l-1.5,5.6c0,0,0,0,0,0.4c-0.6,2.6-1.2,5.2-1.5,7.8c-0.4,2.6-0.9,6.2-1.2,9
						c-0.7,7.5-0.8,15-0.3,22.5c0,1.1,0,2,0.3,2.9c0.3,4.1,0.8,8.2,1.5,12.3c0,1.2,0.4,2.4,0.7,3.6c0.3,1.2,0.3,1.1,0.4,1.7
						c0,0.3,0,0.6,0,0.9c0,1.4-0.6,2.8-0.9,4.2c-0.4,2.5-0.8,5.1-1.1,7.6c-0.2,1.4-0.3,2.8-0.3,4.2c-0.1,1.5-0.1,2.9,0,4.4
						c0.1,2.7,0.3,5.4,0.7,8.1c0.3,2.4,1.1,4.8,2.3,6.9c0.9,1.2,2,2.1,3.3,2.8c1,0.5,2.1,0.8,3.3,0.9c2,0.4,4.1,0.5,6.2,0.5
						l12.7,0.9c4.2,0.5,8.4,0.6,12.6,0.4c4.4-0.1,8.8-0.8,13-2.2c2.2-0.8,4.2-1.9,6.2-3.2c1.2-0.7,2.3-1.5,3.3-2.4
						c1.1-1,2.1-2.1,3.1-3.3c2.5-3.2,4.6-6.7,6.2-10.4c1.8-5.4,3-10.9,3.4-16.6c0.6-5.7,0.9-11.4,0.9-17.1L509.7,445.4L509.7,445.4z
						 M449,493.2c-2,0.3-4.2,0.7-6.2,0.9c-2.1,0.3-4.3-0.5-5.7-2.2c-1.8-3.8-2.7-8.1-2.5-12.3c0-1.2,0-2.6,0-3.6c0-1,0-2.2,0.3-3.4
						c0-2.4,0.7-4.7,1.1-7.1c0-1.1,0.5-2.3,0.7-3.5c0.2,0.1,0.4,0.1,0.6,0v-0.3h0.3c0-0.3,0-0.7,0.5-1.1l0.6-1.5l0.9-3
						c0.9-2.8,1.8-5.3,2.9-7.6c0.6-1.4,1.2-2.7,2-4c3.2-2.9,6.5-5.7,10.1-8.1l0,0l1-0.7l12.3-8.7l1.4-1.1l0.6-0.5l4.1-2.9l2.2-1.5
						h0.7c2.2-1,4.3-2.3,6.2-3.8c2-2,3.8-4.3,5.2-6.7c2-3.1,3.7-6.4,5-9.9c2.6-7.6,4.3-15.5,4.9-23.6l0.7,2.3l0.8,3.4
						c0,1,0.4,2.2,0.6,3.4c0.9,4.7,1.5,9.5,2.2,14.5c0,0.4,0,0.8,0,1.2c0,0.2,0,0.3,0,0.5c0.7,5.9,1.7,11.8,2,17.6
						c0.4,3.6,0.6,7.3,0.3,10.9c-0.3,5.3-1.4,10.6-3.2,15.6c-10.9,30.8-48.9,46.2-52.5,46.9L449,493.2z M435.8,437.4
						c-0.2-5.9,0-11.9,0.6-17.8c0-2.8,0.7-5.6,1.2-8.1c0.5-2.5,1.2-5.8,2-8.6c0,0,0-0.3,0-0.4c0-0.1,0.5-1.5,0.7-2.3
						c1-3.5,2.3-6.9,3.7-10.3c2.1-5.6,5.1-10.8,8.8-15.5c3.2-3.6,6.8-6.8,10.9-9.4l2.8-1.8c1-0.7,2-1.5,2.9-2.3
						c1.8-1.4,3.4-3,4.9-4.7c0.6-0.2,1.2-0.4,1.8-0.6c2-1.2,3.8-2.6,5.4-4.2c4.1-4.6,7.3-9.9,9.3-15.8c1.8-5,3-10.2,3.7-15.5
						c0,0.5,0.4,1.1,0.6,1.7c0.5,2.1,0.9,4.2,1.2,6.5c0.6,4.6,1,9.2,1.2,14.1c0.3,4.9,0,9.5,0,14.3c0,2.4,0,4.7-0.4,7.1
						s-0.4,4.5-0.6,6.8c-0.8,7.8-2.7,15.4-5.5,22.6c-2.1,5.1-5.1,9.8-8.8,13.8c-1,0.9-2,1.6-3,2.3c-1.9,1.4-4,2.4-6.2,3.6l-6.2,4
						c-2.2,1.5-4.3,3-6.2,4.7l0,0c-1.8,1.4-3.6,2.9-5.4,4.4c-1.8,1.5-3.7,3.5-5.4,5.5c-2.2,2.3-4.2,4.8-6.2,7.4
						c-0.4,0.6-0.9,1.2-1.4,2c-0.5,0.7-1,1.5-1.4,2.3c-0.3,0.4-0.6,0.9-0.7,1.4c-0.2,0.3-0.4,0.7-0.4,1.1c-0.1,0.2-0.2,0.3-0.3,0.5
						c0,1.1-0.7,2.2-1,3.3c-0.3,1.2-0.3,1.5-0.6,2.3c0-0.5,0-0.9,0-1.4c-0.3-2.1-0.5-4.3-0.7-6.6c-1.2-2.2-1.3-4.1-1.4-6.4
						L435.8,437.4L435.8,437.4z M439.8,358.7c0-4.1,0.7-7.8,1.3-11.5c0-1.7,0.7-3.5,1.2-5.2s0.8-3.3,1.4-4.9c1-3.3,2.2-6.2,3.3-9.2
						c2-5,4.6-9.6,8-13.8c5.7-6.9,12.3-9.5,19-15.8c0.3-0.1,0.5-0.1,0.7,0c1.5-0.9,2.9-2,4.2-3.2c3.4-3.7,6-8.1,7.6-12.9
						c2.1-6.3,3.4-12.9,3.8-19.6c0.1,0.5,0.2,1,0.4,1.5c0.4,1.8,0.7,3.8,1,5.9c0.6,4.2,1,8.4,1.2,12.7c0,4.3,0,8.7,0,13
						c0,4.3-0.4,8.6-0.8,12.3c-0.7,7-2.4,13.8-4.9,20.3c-2,5.1-4.7,9.8-8,14.1c-1.3,1.7-2.8,3.3-4.4,4.8c-0.4,0.4-0.8,0.7-1.3,1.1
						c-1.8,1.2-3.7,2.3-5.6,3.3l-5.7,2.8c-2.1,1-4,2.2-5.8,3.7c-2.2,1.5-4.3,3.3-6.2,5.4c-4.4,5.4-7.8,11.5-10.2,18.1v1.2
						c-0.4-3.9-0.6-7.8-0.7-11.9c-0.1-4.1,0.3-8.3,0.5-12.2L439.8,358.7L439.8,358.7z M466.2,145.6c0.3-2.1,0.8-4.1,1.4-6.2
						c0.6-1.7,1.2-3,2.1-3.1c0.9-0.1,1.8,1.2,2.8,2.6c0.4,0.8,0.8,1.6,1.1,2.5l1.2,2.9c2.3,9.5,3.9,19.2,4.7,29c0,2.4,0.3,4.9,0,6.7
						c0,0.5,0,0.6,0,0.9c0,0.4,0,0.7,0,1.1c0,0.9-0.4,2-0.6,2.9c-0.9,3.5-2.2,6.9-3.7,10.2l-1.4,2.6c-1.4,1.7-2.7,3.4-4.1,4.9
						c-4.4,4.8-9,8.7-13.6,13c-0.6,0.6-1.2,1.2-1.8,1.8l-0.9,1c0,0-0.7,0.9-1,1.5v-1.8c0-1.1,0-2.3,0-3.3c0.3-4.5,1-8.9,2-13.3
						c2.1-8.9,4.5-17.7,6.6-27.1c1-4.7,2.1-9.6,2.9-14.5C464.6,155,465.4,150.2,466.2,145.6z M454,232.3c0.3-0.7,0.7-1.3,1-2
						l0.6-0.7l0.8-0.9l1.7-1.7c5-5,9.6-10.5,13.5-16.4l1.2-2.2c1.8-1.7,3.4-3.6,4.7-5.8c2.3-3.8,3.9-8,4.7-12.3c0,0.4,0,0.7,0,1.1
						c0,2.9,0.5,6.2,0.7,8.7c0.5,5.5,0.5,11.1,0,16.6c-0.2,2.4-0.7,4.7-1.4,7c-0.5,2.1-1.2,4.2-2,6.2c-1.5,3.7-3.2,7.2-5.2,10.7
						c-0.7,1-1.4,1.9-2,3c-0.5,0.3-0.9,0.6-1.4,0.9c-1.3,0.8-2.6,1.4-4,2c-1.2,0.5-2.7,0.9-4.1,1.5c-3.1,1.3-5.9,3.1-8.4,5.4
						c-3,2.8-5.5,6.1-7.2,9.9c0.6-4.7,1.2-9.3,2-13.8c0.8-4.9,1.9-9.8,3.3-14.5c0.5-0.7,0.9-1.5,1.2-2.5L454,232.3L454,232.3z
						 M447.1,280.9c0.7-2.2,1.6-4.4,2.6-6.6c1.7-3.4,3.9-6.5,6.6-9.2c3.8-3.9,8-5.7,12.3-9.5l0,0c2.8-1.5,5.4-3.6,7.3-6.2
						c2.7-3.6,4.7-7.7,6.2-11.9c1.5-4,2.6-8.1,3.2-12.3c0.1,0.2,0.1,0.4,0,0.6c0.4,1.2,0.8,2.6,1.1,4.2c0.9,3.2,1.6,6.4,1.9,9.7
						c0.3,6.6,0.1,13.2-0.7,19.7c-1.1,9.6-4.6,18.7-10.2,26.5c-1,1.5-2.2,2.9-3.6,4.1l-0.4,0.3c-3.2,1.7-6.6,2.8-10,4.4
						c-4,2-7.6,4.7-10.6,8c-2.9,3.6-5.4,7.6-7.3,11.9c-0.5-2.8-0.9-5.6-1-8.5c-0.5-6-0.2-12,0.7-17.8
						C445.7,285.8,446.3,283.3,447.1,280.9z M451.4,433.7c-0.8-0.6-1.5-1.2-2.2-1.8c-2.2,2.3-4.2,4.8-6.2,7.4
						c-0.4,0.6-0.9,1.2-1.4,2c-0.5,0.7-1,1.5-1.4,2.3c-0.3,0.4-0.6,0.9-0.7,1.4c-0.2,0.3-0.4,0.7-0.4,1.1c0.4,0.2,0.8,0.5,1.2,0.7
						l0,0c0.5,0.2,0.9,0.5,1.2,0.9l0,0c0,0,0.5-1.1,0.7-1.6s0.5-1.1,0.8-1.6c0.3-0.5,0.5-1.1,0.9-1.5c0.6-1.1,1.2-2.1,1.9-3l0.4-0.6
						l0.4-0.4c1.4-1.4,3.1-3,4.9-4.6C451.4,433.9,451.4,433.7,451.4,433.7z"/>
					<path class="st23" d="M514.9,445.3c0-2.6,0-5.1,0-7.5s-0.4-6.2-0.6-9c-0.4-5.2-1-10.5-1.5-15.5c-0.6-5.1-1.5-10.7-2.3-15.8
						c0,0,0-0.6,0-0.7s0,0,0-0.4c0-1.5-0.7-3.1-1-4.8l-0.8-3.8c-0.4-1.7-0.7-3.4-1.2-5.1v-1.1c0-0.9-0.4-1.7-0.6-2.4l-1.1-3.5
						l-1.7-1.8v-1.5c0.6-10.3,0.4-20.5-0.5-30.8c-0.6-5.1-1-10-1.8-14.7c-0.4-2.3-0.9-4.7-1.5-7c-0.1-0.6-0.3-1.2-0.6-1.8
						c0.5-2.9,0.9-5.9,1-8.9c0.2-9.3-0.2-18.6-1.3-27.8c-0.5-4.5-1-8.8-1.8-13.2c-0.4-2-0.8-4.2-1.4-6.2c-0.1-0.6-0.3-1.3-0.5-1.8
						c0.2-7.3-0.2-14.7-1.2-21.9c-0.4-3.5-1-6.9-1.8-10.3c-0.4-1.6-0.8-3.2-1.4-4.7c0-1.5,0.3-2.8,0.4-4.2c0-3.7,0-7.5,0-11.1
						c0-3.6-0.6-6.9-1.2-10c-0.6-3.1-1.1-6.2-1.7-8.9c-0.2-0.9-0.4-1.8-0.6-2.7c0.2-2.3,0.3-4.6,0.2-7c-0.1-2.9-0.3-5.9-0.8-8.7
						v-1.1c-0.9-4.3-2-8.2-3-12.3l-0.6-2.3c-1.2-4.4-2.5-8.7-3.7-13.7l-1.2-3.1c0-0.6-0.5-1.2-0.7-1.8l-0.9-2
						c-0.9-2.5-2.5-4.7-4.7-6.2c-1.6-0.9-3.6-1.1-5.4-0.5c-2.4,0.8-4.4,2.5-5.5,4.7c-1.3,2.4-2.3,5-3.1,7.6c-1.5,4.5-2.7,9.3-3.8,14
						l-3.5,13.2c-1.9,8.6-4.2,18.1-6.2,29.3c-0.4,2.5-0.8,5-1.1,7.6c-0.5,3.2-0.7,6.4-0.7,9.7c-0.1,1.8-0.1,3.5,0,5.3
						c0,1.5,0,3.1,0.4,4.7c0,0.5,0,0.9,0,1.4c0,0.3,0,0.6,0,0.9c-1.7,6.1-3,12.2-3.8,18.5c-0.9,6.8-1.5,13.1-1.8,19.2l-0.3,7.8v2.2
						c-0.9,3.1-1.6,6.3-2.1,9.5c-0.6,4.2-0.9,8.4-0.8,12.7c0,4.1,0.2,8.2,0.6,12.3c0.5,3.7,1.1,7.4,2,11.1v0.3c-1,2.8-2,5.7-2.8,8.6
						c-0.4,1.4-0.7,2.9-1.1,4.4l-0.6,2.3c-0.5,2.3-0.9,4.6-1.2,7c-0.7,4.9-1.2,9.8-1.4,14.8c0,5.5,0,10.4,0,14.8
						c0,4.4,0.9,9.6,1.5,14.2l0.5,2.8l-0.9,3l-1,3.7c0,0,0,0,0,0.5c-0.9,3.2-1.5,6.6-2.2,10.2c0,1.8-0.6,3.8-0.9,5.8
						c-1.1,8.6-1.3,17.4-0.7,26v1.1c0.3,5.6,1.1,11.1,2.2,16.6c0,1.1,0,2,0.5,2.8l0.4,1.6l-0.6,3.3c-0.4,2.6-0.9,5.1-1.2,7.9
						c0,1.4,0,2.8,0,4.7c-0.1,1.5-0.1,3,0,4.5c0.1,2.9,0.4,5.9,0.8,8.7c0.4,3.2,1.4,6.2,3.1,8.9c1.2,2.1,3.1,3.7,5.4,4.6
						c1.4,0.7,2.9,1.2,4.5,1.4c2.3,0.4,4.7,0.6,7,0.6l14.7,0.9c2.6,0,5.2,0.4,8,0.4c1.1,0.1,2.1,0.1,3.2,0c4.9-0.2,9.7-1,14.3-2.5
						c2.6-0.9,5-2.1,7.2-3.6c1.1-0.6,2-1.3,2.9-2l1.2-1.1c1.3-1.2,2.6-2.5,3.8-3.9c2.7-3.6,4.9-7.6,6.6-11.8c2-5.8,3.2-11.9,3.7-18
						c0-3.9,0.4-7.5,0.4-11.1C515,449.8,515,447.8,514.9,445.3z M495.3,487.5l-1.2,1.3l-1.4,1c-0.5,0.5-1.1,0.9-1.7,1.2
						c-1.6,1.1-3.4,2-5.3,2.6c-3.7,1.3-7.6,1.9-11.6,2c-3.3,0.3-6.5,0.3-9.8,0H464h-1.7h-3.5c12.7-6.2,35.5-19.8,46-41.8
						c0,2.9,0,6.2-0.3,9c-0.4,5.2-1.4,10.3-3.2,15.1c-1.2,3.2-2.8,6.2-4.9,8.9c-0.3,0.4-0.6,0.7-0.9,1.1
						C495.4,487.9,495.3,487.4,495.3,487.5z M443.9,457c0.7-2.2,1.7-3.7,2.9-6.2c0.4-1.1,1.6-2,2.1-3c2.7-2.6,5.6-4.9,8.6-7.1
						l2.8-2.1l10.5-7.7l8.1-5.7c2.6-1.2,5-2.8,7.1-4.7c2.5-2.2,4.7-4.7,6.6-7.5c0.9-1.3,1.7-2.7,2.3-4.1c0.2-0.3,0.4-0.6,0.6-1
						c0.8-1.5,1.5-3.1,2.3-4.9l0.4,1.9l0.2,0.9l0.2,1.7c0.9,5.6,1.5,11.2,1.7,16.9c0.2,2.5,0,4.1,0,6c-0.5,7.3-2.6,14.3-6.2,20.7
						c-13.3,24.6-45,36.9-46,36.9c-1.8,0.4-3.6,0.6-5.5,0.7c-1.1,0-1.4,0-1.6,0c-0.9-3.3-1.3-6.8-1.1-10.3c-0.1-0.7-0.1-1.5,0-2.2
						c0-1.1,0-2.1,0-3.2c0-2.3,0.6-4.5,1-6.8 M478.4,359.7c2.5-1.7,4.4-3.1,6.2-5.1c3-3.1,5.5-6.6,7.4-10.5c0,4.1,0,8.2,0,12.3
						c0,2.3,0,4.6-0.4,6.9s-0.3,3.3-0.4,4.9v1.7c-0.7,7.3-2.5,14.5-5.2,21.3c-1.7,4.3-4,8.3-7,11.8c-0.8,0.8-1.7,1.5-2.6,2.1
						c-1.1,0.7-2.2,1.4-3.4,2l-8.7,5.5c-2.5,1.7-5,3.5-7.5,5.5l0,0c-1.7,1.4-3.3,2.7-5,4.2c-1.7,1.5-3.7,3.5-5.7,5.7
						c-2,2.2-3.1,3.3-4.7,5.1c0-3.1,0-6.2,0.3-9.3s0.5-7.6,1.1-11.4c0.4-1.9,0.8-3.9,1.4-5.9c0-0.1,0-0.3,0-0.4
						c0.4-1.4,0.9-3,1.4-4.4c1-3.6,2.3-6.8,3.5-9.9c2-5.2,4.7-10,8.1-14.3c2.8-3.2,5.9-6,9.5-8.3l3.9-2.7l2.2-1.6 M473.4,183.5
						c-0.8,3.2-1.9,6.3-3.3,9.3l-0.8,1.5c-1.1,1.6-2.4,3.1-3.7,4.6c-2.4,2.6-4.7,4.9-7.1,7c0-1.1,0.4-2.2,0.6-3.1
						c0.9-4.1,2-8.2,3-12.3c1-4.1,2.5-9.7,3.6-14.7c1.1-5.1,2.1-9.8,2.9-14.7c0.6-2.6,0.9-5.2,1.4-7.8c0-1.2,0-2.5,0.5-3.8
						c1.7,7.9,3,16,3.6,24.1c0.2,2.2,0.2,4.4,0,6.6L473.4,183.5z M488.3,295.3c0,4.1-0.3,8.2-0.8,12.3c-0.7,6.5-2.2,12.9-4.5,19
						c-1.8,4.6-4.2,8.9-7.3,12.9c-1.3,1.7-2.8,3.2-4.4,4.6c-1.5,1.1-3.2,2.1-4.9,3l-5.8,2.8c-2.3,1.1-4.6,2.5-6.6,4.1
						c-2.4,1.8-4.6,3.9-6.6,6.2c-0.8,0.9-1.5,1.8-2.2,2.7c0-1.2,0-2.5,0-3.7c0-3.7,0.7-7.4,1.4-10.8c0-1.7,0.6-3.4,0.9-4.6l0.5-2
						c0-0.9,0.6-1.8,0.9-2.9c1-3.2,2-6.2,3.1-8.9c1.8-4.4,4.2-8.6,7.2-12.3c2.8-3.1,6-5.9,9.5-8.1c3-2,5.9-4.2,8.5-6.6l0,0
						c2-1.1,3.9-2.5,5.5-4.1c2.2-2.2,4-4.7,5.5-7.4C488.3,292.4,488.3,293.9,488.3,295.3z M482.8,258.7c-0.9,8.7-4.1,17-9.2,24.2
						c-0.9,1.2-1.8,2.3-2.9,3.3c-1.3,0.7-2.7,1.3-4.1,1.8c-1.6,0.7-3.4,1.4-5.1,2.3c-4.4,2.2-8.4,5.1-11.7,8.7
						c0-3.2,0.3-6.5,0.9-9.7c0.4-2.3,0.9-4.6,1.7-6.9c0.6-2,1.4-3.9,2.3-5.7c2.6-5.1,6.6-9.4,11.5-12.3c2-1.2,3.8-2.6,5.5-4.2
						c3.5-1.9,6.6-4.5,9-7.6c1.1-1.4,2.1-2.8,2.9-4.3 M478.2,216.6c-0.2,2.1-0.6,4.1-1.1,6.2c-0.5,1.9-1.1,3.8-1.8,5.7
						c-1.6,3.5-3.4,6.9-5.4,10.1c-0.5,0.6-0.9,1.2-1.2,1.8l0,0c-1.2,0.6-2.2,1.2-3.1,1.5l-1.2,0.4c-1,0.4-2.2,0.7-3.2,1.2
						c-2,0.9-3.9,1.9-5.7,3.1c0.5-3.4,1.2-6.7,2.2-10c0.1-0.6,0.4-1.3,0.6-1.8l3.2-4.2c5.5-5.2,10.4-11,14.6-17.2l1-1.7
						c0.6-0.5,1.1-1.1,1.5-1.7"/>
				</g>
			</g>
			<path class="st20" d="M244.2,207.9c-48.4-29.7-139.5-23.6-139.5-23.6s34.6,42.4,75.8,121C221.9,383.9,332.2,433,332.2,433
				s-60.8-43.2-87.8-90.5c-27-47.3-3.1-64.5-23.2-80.5c-20.2-16-54-46.1-54-46.1s76.2-14.2,100.9,45.1
				c24.8,59.4,26.3,102.5,48.2,121.9c22,19.3,58.5,37.9,58.5,37.9C323.3,363.7,302.7,243.7,244.2,207.9L244.2,207.9z"/>
			<path class="st20" d="M697.8,207.7c48.4-29.8,139.5-23.7,139.5-23.7s-34.6,42.5-75.8,121.3c-41.3,78.8-151.6,128.1-151.6,128.1
				s60.8-43.3,87.8-90.8c27-47.4,3.1-64.7,23.2-80.7c20.2-16.1,54-46.2,54-46.2s-76.2-14.3-100.9,45.2
				c-24.8,59.5-26.3,102.8-48.2,122.2c-22,19.3-58.5,38-58.5,38C618.7,363.8,639.4,243.6,697.8,207.7L697.8,207.7z"/>
		</g>
	</g>
</g>
</svg>
