<?xml version="1.0" encoding="utf-8"?>
<!-- Generator: Adobe Illustrator 25.3.1, SVG Export Plug-In . SVG Version: 6.00 Build 0)  -->
<svg version="1.1" id="Слой_1" xmlns="http://www.w3.org/2000/svg" xmlns:xlink="http://www.w3.org/1999/xlink" x="0px" y="0px"
	 viewBox="0 0 938 938" style="enable-background:new 0 0 938 938;" xml:space="preserve">
<style type="text/css">
	.st0{fill:url(#SVGID_1_);}
	.st1{fill:#FFFFFF;}
	.st2{fill:url(#SVGID_2_);}
	.st3{display:none;}
	.st4{display:inline;fill:url(#SVGID_3_);}
	.st5{display:inline;fill:url(#SVGID_4_);}
	.st6{fill:url(#SVGID_5_);}
	.st7{fill:url(#SVGID_6_);}
	.st8{fill:url(#SVGID_7_);}
	.st9{fill:url(#SVGID_8_);}
	.st10{fill:url(#SVGID_9_);}
	.st11{fill:#E273F9;}
	.st12{fill:url(#SVGID_10_);}
	.st13{fill:url(#SVGID_11_);}
	.st14{fill:url(#SVGID_12_);}
	.st15{fill:url(#SVGID_13_);}
	.st16{fill:url(#SVGID_14_);}
	.st17{fill:url(#SVGID_15_);}
	.st18{fill:url(#SVGID_16_);}
	.st19{fill:url(#SVGID_17_);}
	.st20{fill:url(#SVGID_18_);}
	.st21{fill-rule:evenodd;clip-rule:evenodd;fill:#FFFFFF;}
	.st22{fill-rule:evenodd;clip-rule:evenodd;fill:#020203;}
	.st23{fill-rule:evenodd;clip-rule:evenodd;fill:#CF84BD;}
	.st24{fill:#020203;}
	.st25{fill:url(#SVGID_19_);}
	.st26{fill:url(#SVGID_20_);}
	.st27{fill:url(#SVGID_21_);}
	.st28{fill:#FCFCFC;}
</style>
<g id="Исполинский_ход">
	<linearGradient id="SVGID_1_" gradientUnits="userSpaceOnUse" x1="470.0163" y1="938" x2="470.0163" y2="-1.5317">
		<stop  offset="6.089431e-02" style="stop-color:#45649A"/>
		<stop  offset="0.3076" style="stop-color:#77699F"/>
		<stop  offset="0.5421" style="stop-color:#A06DA3"/>
		<stop  offset="0.7268" style="stop-color:#B96FA6"/>
		<stop  offset="0.8387" style="stop-color:#C270A7"/>
	</linearGradient>
	<rect y="-1.5" class="st0" width="940" height="939.5"/>
	<g>
		<path class="st1" d="M707.9,131.4c20.2,0.9,38.4,5.7,49.8,24.7c2.6,4.3,7.8,2.6,11.9,3.2c3.7,0.6,7.4,0.7,11.7,1
			c-8.1,12.6-24,18.9-26.4,35c-0.2,4-3.6,8.6,2.3,11.4c6.2,0.1,11.5-3.3,17.4-4.1c0-1.8,1-3,2.4-4c1.2-0.5,2.4-1.1,3.6-1.6
			c5.1-4.4,11.9-5.7,17.2-9.7c1.7-0.7,3.5-1.3,5.2-2c4.9-4.7,11.8-5.5,17.4-9.1c2.1-1.3,4.5-0.4,5.8,2c-3.8,4.2-6.3,9.9-3.8,14.6
			c2.9,5.4,9.4,3.9,14.8,2.9c1.3-0.2,2.6-0.5,4-0.8c13.4-2.7,13.4-2.7,11.6,9.9c-1.8,11.9,0.7,13.9,14.2,11.3
			c0.4,0.3,0.8,0.5,1.2,0.8c-0.1,1-0.6,1.7-1.5,2.2c-2.7,0.8-5.4,1.4-5.8,1.5c1-0.4,4.3-1,7.5-1.6c8.2,0.7,16-0.4,22.8-5.5
			c0.9-0.5,1.8-0.6,2.8-0.3c3.2-0.6,6.4-1.2,9.6-1.8c2.6,1.3,2.9,3.2,1.6,5.6c-5.4,19-20,29.9-35.3,40.1c-6.7,4.4-13.9,8-20.9,12
			c-5.1,4.3-11.7,5.9-17.1,9.8c-1.7,0.7-3.5,1.3-5.2,2c-5.1,4.4-11.8,6-17.1,9.8c-1.7,0.6-3.4,1.3-5.1,1.9c-3.9,3.6-9.4,4.8-12.8,9
			c-1.2,0.4-2.3,0.8-3.5,1.2c-1.3,1.6-0.8,3,0.5,4.3c2.2,1.2,4.1-0.3,6.1-0.7c0.9-0.2,1.8-0.2,2.6,0.1c2-0.3,3.9-0.6,5.9-0.8
			c3.4,2,8.2-5,10.8,1.7c-2.7,2.8-6.9,1.4-10.2,3.3c-1.1,0.3,1.4,1.3,0.5,0.3c-0.4-0.4-0.2-0.8,0.5-0.8c6.7,0.1,12.8-4.5,19.7-2.4
			c2.4,7.1-5.6,3.1-6.8,6.3c-2.3,1.3-5.9,0.4-7.4,4.3c3.6,1.7,7.1,2.6,10.9,1.7c5.1,1.9,10.5,0.6,15.6,1.9l-0.1,0.4
			c4.2,1.3,8.5,1.2,12.7-0.1c1.6,0,2.9,0.3,2.5,2.4c-7.3,1.7-14.5,3.5-21.8,5.2c-5.8-0.3-11,2.3-14.9,2.9c0.3-0.1,2-1.1,3.9,0.4
			c-4.8,3.3-9.7,6.5-14.5,9.8c-2.1,2.3-1.8,4.2,1,5.7c5.8,0.3,11.1,3.8,17.2,2.5c3.8,1.3,7.7,0.8,11.5,0c3.2-0.6,6.5-1.2,8.7,2.3
			c-2.2,3.6-7,3.7-9.4,7.1c-2.4,2-3.7,4.6-4.6,7.5c-0.9,4.3-2.2,8.5,1,12.5l0.1,0c5.2,1.3,10.3,0.6,15.4-0.8
			c1.9-0.2,4.3-1.9,5.4,0.4c1.2,2.4-1.2,3.3-3,4.1c-3.7,1.6-7.3,3.3-11.3,4c-3,0.8-5.3,2.9-7.6,4.8c-4.2,2.1-7.7,6.3-7.2,10
			c0.7,4.5,6.8,3.4,10.5,4.2c4.2,0.9,8.7,0.8,13,1.1c3.5,1.3,7.3,0.3,10.9,1.3c1.7,5-3,4.9-5.3,6.6c-7.5,5.7-18.3,4.7-24.8,12.7
			c-2.1,2.6-4.7,4.7-5.3,8.3c-2.4,7.9,2.8,5.3,6.5,4.7c1.9-0.5,3.7-0.5,5.5,0.3c0.7,0.1,1.4,0.2,2.1,0.4c2.8,1,5.7,1,8.7,0.6
			c2.1,0,4.9-2.6,6.1,0.6c0.9,2.3-1.7,3.2-3.6,4c-3.4,1.5-6.8,2.8-10.4,3.7c-10.9,2.7-10.8,2.8-3.7,12.3c4.2,4,7.9,8.8,14.4,9.3
			c5.3,2.4,3.4,4.6-0.5,6.1c-5.2,1.9-10.6,3.3-15.5,6c0.5,9-4.9,14-12,18c-2.2,2.3-5.1,3.5-7.4,5.6c-1.5,10.8,6.7,15,13.6,20
			c-1.1,2.1-3.3,1.7-5.1,2.2c-2.4-0.2-4.8-0.3-7.2-1c-6,0.7-14.4,0.4-15.7,6.3c-1.2,5.6,7.5,6.4,12,9.1c5.4,3.2,10.5,7,16.3,9.3
			c9.4,3.7,10.3,9.2,5.7,17.1c-0.6,1.1-0.5,2.6-0.7,3.9c-1.7,3.9,0.3,9-3.8,12.2c-8.5,0.2-16.7,3.3-25.4,2.7c-3.1-0.2-7.4,1-3.6,5.9
			c4.1,8.7,11.2,13.2,20.7,13.8c7.4,0.4,6.5,3.5,3.3,8.4c-11.6,17.7-28.8,31.1-38.3,50.2c-3.6,7.3-5.9,15.2-9.3,22.6
			c-8.7,18.6-24,32-38.1,46.1c-27.3,27.1-56.7,52.1-87,75.8c-7.7,6-15.9,11.2-23.4,17.4c-5.4,4.4-7.4,2.4-8.8-3.1
			c-4.1-15.7-8.2-31.5-12.4-47.2c-3.4-21.6-8.2-43-14.6-63.9c-2.6-8.6-4.4-17.4-6-23.2c2.2,10.9,6.5,24.3,10.1,37.8
			c1.2,4.7,4.3,9.4,1.4,14.6c-7.8-18.4-11.6-38-16.7-57.2c-9.4-35.6-21.4-70.4-29.4-106.4c0.7-3.1-0.4-6-1.7-8.6
			c-4.3-8.6-5.2-18-6.8-27.3c-1.1-1.1-1.8,1-0.7,0.1c0.5-0.4,0.7-0.3,1,0.3c0.9,2.1,2,4.2,0.5,6.5c-6.9-4.4-4.4-12.5-7.2-18.4
			c-0.9-9.7-2.4-19.2-5.2-28.5c1.7,4.8,2.9,9.8,3.4,15c-2.4,1.8-3.3,0.1-4-1.8c-1.1-3-1-6.4-3-9.1c-1.3-5.2-2.7-10.4-4-15.6
			c0.1-7.1-3-13.6-4.3-20.4c0.7,3.7,2.8,7.2,1.5,11.2c-6.8-12.9-11-27-16.4-40.5c-4.2-6.8-6.6-14.3-8.1-22.1
			c2.7-4.3-1.4-8.6-0.7-12.4c-0.8,3.3,2.4,6.8,1.4,10.6c-6.7,1.7-2.7-5.7-5.9-7c-1-3.1-2-6.1-2.9-9.2c-4.3-5-4.8-11.7-7.9-17.3
			c-1.9-4.3-3.8-8.6-5.8-12.9c-3.1-4.1-5.1-8.7-6.2-13.7c1.3-2.7,1.1-5.6,0.2-7.6c-0.4,1.3,1.4,3.4,0.5,5.5c-0.5,1-1.1,1.2-2,0.5
			c-1.9-4.3-3.9-8.6-5.8-12.8c-3-3.3-4.2-7.7-6.4-11.4c-2.8-5.5-5.6-11.1-8.5-16.6c-2.5-3.5-3.5-7.9-6.7-11
			c-3.1-7.8-9.9-13.4-12.4-21.5c-2.9-3.6-4.8-7.9-8.2-11.2c-3.6-5.3-7.2-10.7-10.8-16c-3.5-3.1-4.9-7.8-8.5-10.8
			c-7.5-11-14.8-22.3-22.7-33c-5.9-7.9-5.4-13.9,3.4-18.8c2.9-3.4,7.5-4.1,10.9-6.8c3.7-1.7,7.5-3.5,11.2-5.2
			c4.3-3.9,9.6-5.3,15.1-6.2c5.5,2.3,10.1-1.2,13.7-1.6c2.7-1.2,0.6-2.8,1.3-1.6c0.3,0.5,0.2,0.8-0.1,0.9c-3.9,1.8-8,2.9-12.3,2.9
			c-0.3-7,7.1-3.1,9.3-6.5c2.5-0.8,4.9-1.6,7.4-2.5c1-1.1,2.2-1.9,3.8-2.2c7.3-0.6,14.6-1.1,22.1-2.4c-2.8-1.3-6.4,3.8-8.6-0.9
			c3.6-4.1,9.1-3,13.5-4.8c8.7-2.2,17.6-4,25.3-9.1c0.5-0.4,1.1-0.8,1.7-1.1c4.1-3.1,9.2-3.6,13.6-5.8c0.8-0.4,1.7-0.7,2.6-0.9
			c2.1-0.5,4.7,0.6,6.2-1.9c0.2-1.4,1.1-2.3,2.1-3c1.3-0.4,2.6-0.7,3.9-1.1c4.2,0.2,8.2-0.7,11.8-3c1.9-0.4,3.7-0.7,5.6-1.1
			c4.5,1,9.2,1.5,13.7,2.2c6.4,0.7,12.8,1.4,19.2,2.1c3.9,1.5,7.9,1.4,11.9,1c1.8-0.4,3.6-0.4,5.4,0.3c0.7,0.1,1.4,0.2,2,0.2
			c4,1,8.1,1.2,12.1-0.1c1.4-0.3,2.7-0.1,4,0.2c3.6,0.7,7-0.3,10.4-1.3c0.8-0.5,1.7-0.6,2.6-0.3c2.6-0.4,5.1-0.8,7.7-1.3
			c7.1-0.3,14.2-1.2,21.3-1.1c0.8,1.4,0.4,2.3-1,3c0.7,0.2,1.2-0.3,1.6-0.6c2.3-2.1,5.3-2,8.1-2.8c0.4-0.2,0.8-0.3,1.3-0.5
			c9.9-1.3,19.8-2.6,29.8-1c-0.1,1-1.3,1.1-1.6,2c1.6-1.1,3.9-0.6,5.1-2.4c1.3-0.3,2.6-0.6,4-0.9
			C699.3,132.5,703.6,130.8,707.9,131.4z"/>
		<path class="st1" d="M459,859.6c-1.8-1.6-3.6-3.2-5.4-4.8c-3.2-1.9-5.7-0.6-8.1,1.6c-2.1,1.5-4.3,2.9-6.4,4.4
			c-2.9,2.6-7.3,2.8-9.9,5.9c-0.7,0.2-1.3,0.3-2,0.5c-4-1.4-7.8,0.6-11.7,0.6c-4.6,0.8-9.2,0.1-13.7,0c-7.3,2.2-13.1-2.2-19-4.9
			c-6.2-2.9-10.1-2.5-13.3,3.7c-3.7,7.1-9.3,8.6-16.3,4.7c-1.2-0.7-2.4-1.5-3.7-1.7c-18.8-2.5-25.6-16.2-30.2-32.2
			c-2.9-10.1-4.6-10.6-11.9-3.1c-4.6,4.8-8.3,10.6-12.3,15.9c-2.1,2.6-5.1,4.4-7.7,6.4c-4.3,3.2-8.1,3-10.1-2.8
			c-0.4-3.1,1.3-5.9,1.3-8.2c0.7-2-1.7-1-0.8-0.4c0.9,0.6,0.6,2.3-0.7,3.2c-6.6-2-6.4-9-9.6-13.4c-0.9-2.5-2.4-2.3-4.2-0.9
			c-0.7,0.5-1.4,1-2.2,1.4c-3,1.3-5.6,3.3-8.7,4.3c-6.1,1.9-9.6,0-10.8-6.5c-0.6-3.4-1-7.6-6.7-8.3c-1.1,6.2,3.3,16.5-9.5,15
			c-2.1-0.3-3.7-1.4-5-3c-2.9-1.6-4.9-5.1-9-4.6c-2.9-0.3-4.8-1.7-5.6-4.5c-1.1-6.9-1.9-13.6,5.7-17.7c1.2-0.7,1.9-2,1.2-3.5
			c-0.9-1.8-2.7-1.8-4.4-1.5c-4.2,0.7-7.5,2.8-9.7,6.6c-1.5,2.6-2.1,5.8-5.1,7.3c-1,0.3-1.9,0.1-2.7-0.5c-2.9-4.3-7.6-7.7-11.9-8.6
			c-20.9-4.9-36.4-20.2-56.1-27.4c-7.3-2.7-10.3-10.1-16.1-14.4c-5.8-5.6-11.7-11.1-13.1-19.6c-0.5-4.2-3.7-7.6-3.7-12
			c2.2-5.1-1.4-9.5-1.5-13c-1-2.6-2.3-0.2-1.3-1.1c0.4-0.4,0.8-0.3,0.9,0.3c1,3.9,2.8,7.6,2.2,11.7c-6.9,0.1-3-7.2-6.4-9.5
			c-3.3-13.6-6.7-27.2-10-40.7c1.5-2.1-3.3-6.8,2.8-7c1.5,4.8,3.4,9.6,3.3,13.4c-0.7-4.6-0.9-10.6-5.2-15.5
			c-2.1-5.3-2.9-10.8-1.5-16.4c-0.1-1.3-0.2-2.5-0.3-3.8c2-5-0.3-10.6,1.7-15.6c1.6-13,3.3-26,4.6-39.1c0.3-3.3,0.5-7.6-1.3-9.9
			c-8.3-10.4-2.4-18.7,2.6-27.6c5-8.7,9.1-18,17.7-24c4.8-3,3.6-7.2,2.7-11.6c-1.4-6.5-4.9-12.8-2-19.7
			c11.6-23.2,24.5-45.7,38.3-67.7c15.4-24.5,29.9-49.6,45.1-74.2c8.4-13.7,19.9-25.1,30.4-37.1c2.2-2.5,4.7-4.8,6.2-7.9
			c1.4-4.3,4.9-6.4,8.5-8.4c20.2-18.4,44.4-32.3,62.1-53.6c2.7-2.3,4.7-1,6.5,1.3c0.5,1.2,0.9,2.4,1.4,3.5c0.1,0.5,0.2,1,0.3,1.6
			c-0.1,11,3.6,20.8,9.8,29.7c4.2,13.6,7,27.6,10.6,41.4c1,3.9,1.9,7.9,4.3,11.3c4.9,17,9.3,34.2,15.2,51c1.2,3.5,2,7.1,3.9,10.3
			c1.7,3.6,2.8,7.5,3.8,11.3c0.4,5.3,3.1,9.5,6.2,13.6c5.2,7.2,9.1,2.1,13.2-1.3c10.2-8.5,32.5-1.8,36.8,11c0.3,0.9-0.2,2-0.8,2.8
			c-0.6,4.7,2.1,8.9,2.2,11.4c-0.3-2.4-2.6-6.7-2.2-11.4c8.2-0.4,8.3,6.1,8.7,11.2c0.9,10.2-1.8,20.1-4,30
			c-1.1,4.9-2.3,9.9-3.4,14.8c-2,5-3.3,10.2-1.5,15.6c3,32.1,9.8,63.2,22.2,93c1.4,3.4,2.8,6.9,3,10.6c0.1,6.7-3.3,13.9,3.2,19.5
			c2.5,2.2,1.7,6.1,4.5,8.1c1.9-0.1,3.5,0.6,4.7,2.1c1.2,1.5,1.9,3.2,2.5,4.9c0.7,3.1,2.6,5.8,3.8,8.6c1,2.9,2.5,5.5,4.9,7.6
			c0.6,0.7,1.1,1.4,1.6,2.1c1.1,1.9,2.3,3.7,3.3,5.7c1.3,3.2,2.7,6.3,5.4,8.5c0.6,0.7,1,1.4,1.3,2.2c1,2.8,2.2,5.6,4,8
			c4.3,5.8,8.7,11.6,13,17.4c2.5,1.9,3.8,4.8,5.7,7.1c19.3,24.5,42.2,45.5,65.2,66.5c15.2,14,29.7,28.8,44.4,43.4
			c1.3,1.3,1.8,3.5,2.6,5.2c-0.2,7.1-5.9,8.1-11,9.8c-18.6,6-38.5,6-57,12.2c-1.9,0.6-4,0.7-5.6,2.1c-5.1,1.2-10.3,2.5-15.4,3.7
			c-3.4-0.5-6.3,1.1-9.5,1.6c-2,0.3-4,0.5-3.8-2.5c6.4-2.8,13.2-3.7,17.7-4.9c-4.9,2.2-13.2,1.1-19.5,6.5
			c-6.6,2.2-13.3,3.9-20.4,2.5c-2.1-0.4-4.5,1.1-6.5-0.8C462.2,866.4,462.3,861.8,459,859.6z"/>
		<path class="st1" d="M41.6,451.8c1.8,3.7,3.5,7.5,5.3,11.2c0.1,0.5,0.2,1,0.3,1.5c-0.5,10.5,3.7,19.8,7.5,29.2
			c0.4,7.3,0.7,14.6,4.8,21.1c0.2,0.4,0.4,0.9,0.6,1.3c0.1,1.3,0.2,2.6,0.3,4c-0.4,5.2-1.1,10.4-2,15.6c-4.8,25.6-16.2,49-23.5,73.8
			c-8.2,27.9-0.4,56.6-9.2,84.3c-0.4,4,2.7,48-0.5,51.1c1,27.4,6.4,48.4-1,63.3c-12.6,25.2-69-11.6-92.7,4.4
			c-3.1,3.5-7.9,4.9-10.9,8.5c-7.5,3.8-13.7,10.1-22.1,12.4c-0.4,0.1-0.9,0.3-1.3,0.4c-2.5,0.8-5.1-0.9-8,0.5
			c-1-0.1,0.1,0.9,0.6,0.5c2.4-1.8,3.5-0.8,2.8,2.1c-8.5,2.5-16.7,6.6-25.9,4.3c-7.1,0.3-10.9-3.7-13.1-9.9c0.1-0.6,0.1-1.1,0.2-1.7
			c0.1-1.2,0-2.3-0.2-3.5c-9.8-23.1-16.2-47.2-21.8-71.6c-6-26.5-13.5-52.6-19.1-79.1c0-0.7-0.1-1.5,0.2-2c7-9.2,7-9.2,3.2-20
			c0-2,0.3-3.9,2.3-5c3.2-0.7,5.9,0.9,8.9,1.6c10.1,2.2,13.9-1.5,12.8-12.5c-1.5-2.2-3.4-4-5-6.1c-0.5-0.8-0.8-1.6-1-2.5
			c-0.1-2.1,0.7-3.6,3-3.9c6.7,0.7,11.8,4.2,15.9,9.3c1,0.8,2.1,1.4,3.3,1.8c6.5,0.9,9.5-3.6,12.6-8c2.2-3.2,2-6.4-0.7-9
			c-4.4-4.1-3.2-8.1-0.5-12.4c0.5-1.3,1.2-2.5,2-3.6c1.9-2.5,4.2-4.7,6.3-7c1.2-1.7,1-3.9,2.2-5.6c6.3-8.8,6.3-8.8-4.2-12.5
			c-2.4-1-4.3-2.6-5.7-4.7c-1.6-2.7-2.4-5.6-1.8-8.8c3.5-5.7,7.9-2.9,12-1c3.2,1.5,5.5,4.7,9.3,5.5c0.4-2.4-2.1-3.2-2.6-5.1
			c-1.7-8,3.6-5.6,7.7-5.2c0.9,0.1,1.8,0.3,2.7,0.4c2.3,0.3,4.3,0.1,5.2-2.4c-7.1-4.5-15.9-5.9-20.9-14c-1.2-1.9-7.1-2.9-8.3,2.8
			c-0.1,3.1,1.8,6,0.4,9.1c-6.1,4.1-12.1,8.2-12.1,16.7c3.2,5.8,10.6,6.5,14,12c-1.5,9.5-6.8,2-10.3,2.4c-7.1-3.2-13.8-4.5-18.2,4.2
			c-1.6,2.6-1.1,6.1-3.5,8.5c-2.9,2-5,4.6-6.8,7.6c-1.4,1.7-3.1,3.1-4.5,4.7c-2.7,2.8-1.6,5.8-0.3,8.7c0.4,0.8,0.7,1.7,0.9,2.6
			c0.2,2-0.4,3.6-2.3,4.5c-1.4,0.4-2.7,0.2-4.1-0.1c-4-1.2-6.8,0.8-9.3,3.6c-1.7,2.6-1.8,5.8-3.1,8.5c-1.9,3.7-4.5,5.9-8.5,2.1
			c-0.6-5.5-4.3-10.6-2.5-16.5c1.3-1,2.5-2.5,4-3c11-3.8,11.3-10.1,4.6-18.3c-2.4-2-3.6-4.9-5.8-7c-3.8-7.6-15.8-11.1-13.1-21.4
			c4.7-17.4,12.9-32.6,28.7-43.4c29.9-20.5,53.7-46.7,68.4-80.2c3.7-8.4,5-17.4,2.4-26.6c-0.4-1.5-2.6-2.7-0.9-4.4
			c1.6-1.5,4.4-1.8,5.6-0.6c5.9,5.9,13.6,4.8,20.8,5.8c0,0.8-0.3,1.2-0.9,1.2c0.3,0.3,0.6,0.5,0.6,0.4c0.5-0.5,1.9-0.7,0.8-1.8
			c1.2-3.3,5.2-5.2,5.1-9.2c1-3.8,1.1-7.3-2.5-9.9l-0.4,0.3c-3.2-3.5-4.2-8.6-8.3-11.4c-0.1-0.5-0.4-0.9-0.8-1.1
			c-5.6-6.3,1.4-8,4.1-11.2c10-5.5,17.7-12.8,19.9-24.6c0.5-2.6,0.7-4.7-2.5-5.5c-13.8-4.6-25.1,1.1-35.8,8.9
			c-24.8,22-48.2,44.8-63.3,75.4c-10.2,20.7-17.9,42.6-28.9,62.8c-5.8,10.6-13.1,20.1-22.1,28.2c-8.7-2.2-5.5-10.3-7.8-15.7
			c-1.3-11.1-0.5-22.6-5.8-32.9c-0.2-0.7-0.3-1.3-0.5-2c0.3-1.5,0.8-2.9,1.6-4.3c0.3-2.2-0.1-4.3-1-6.3c-0.4-0.8-0.5-1.7-0.2-2.6
			c0.2-23.4,13.6-39.3,30.6-53.1c4.2-3.4,8.5-6.6,12.8-9.9c2-2.5,4.8-3.9,7.3-5.7c11.3-7.6,21.2-17,31.5-25.8c7-6,6.6-12.1,0.6-17.8
			c-2.7-2.5-3.2-4.2-0.8-6.3c9.6-8.5,17.7-19,30.1-24c6.7-1.1,13.1-3.7,19.7-4.9c7.1-1.8,12.5,2.5,17.5,6
			c19.7,13.7,58.1,20.2,77.4,34.6c21.1,15.8,38,21.1,41.7,49.9"/>
		<path class="st1" d="M-28,30.9c2.6,2.8,20.9-37,21.1-35.7c-6-15.2,26.3-12.6,23.5-15.3C16.4-34.9,31.5-22.9,37-35.5
			c15.9-36.2,39-67.9,65.3-97.2c5-5.6,11.4-10.3,18.4-13.8c0.5,0,1,0,1.5,0.1c16.2-6.8,33.6-8.7,50.5-12.5c0.4-0.3,0.9-0.5,1.3-0.8
			c4-0.3,7.3-0.5,11.3-0.7c3.9,1.4,8.2-1.1,12.1,1.1c7.1,0.6,14.1,1.2,21.2,1.9c3.2,1,6.5,1.8,9.9,0.5c0.8,0,1.6,0.3,2.2,0.8
			c2,1.1,3.9-0.1,5.8-0.3c0.4-0.1,0.8-0.1,1.3-0.2c15.2-3.8,21.2,8.7,29.1,17c12.1,12.6,23.5,25.9,35.2,39c1.3,0.7,2.3,1.6,3.1,2.8
			c2.1,4.1,4.8,7.8,8.1,11.2c1.6,5,5.2,8.8,7.8,13.2l1.3,3.4c4.5,5.4,6.5,12.2,10.1,18.1c1,2.7,1.9,5.2,2.9,7.9
			c0.1,0.5,0.2,1.1,0.3,1.6c2.7,1.4-2.6,7.4,3.9,6.6c3.2,9.7,14.5,18,17.4,27.9c5,19.8,1.3,40.7-0.5,61.2
			c-2.7,30.1-18.9,53.1-40.2,72.8c-15.8,14.7-33.4,27.1-51.3,39c-3.1,3.6-8,4.8-11.1,8.3c-1.1,0.4-2.2,0.9-3.3,1.3
			c-2.6,2.8-6.4,3.7-9.2,6.1c-12.5,8.7-24.9,17.5-37.4,26.2c-3-0.9-4.1-3.2-4.7-6c-2.5-10.5-5.2-21-7.8-31.5
			c2.6,9.8,4.8,19.8,7.3,29.6c0.8,3.2,1,6.9,5.3,7.8c-1.3,1.3-1.2,4.4-3.8,4c-2.3-0.3-2.6-2.7-3.2-4.7c-3.9-12.9-7.8-25.9-11.7-38.8
			c-3.7-4.8-5.2-10.6-6.8-16.3c-1-5.2-2.5-10.2-6.4-14.1l-0.4,0.3c-1.7-2.2-4.3-3.9-4.6-7c-0.4-4-2.4-7-5.3-9.7
			c-8.7-13.9-18.9-26.4-29.7-38.7c-4.9-5.6-11.5-9.4-18.8-11c-44.9-9.4-48.3-7.5-50.1-9.7"/>
		<path class="st1" d="M-4.2,36c4.5,1.6,28.2,9.5,32.7,10.9c8.3,0.4,16.9,4,25.2,4.4c4.5,1.3,6.9,1.9,11.4,3.4
			c13.3-6.1,15.4,9.9,23.7,19.6c17.4,20.5,33.1,42.1,46.1,65.7c5.2,6.2,6.6,14.3,10.8,21c1,3.8,2,7.6,2.9,11.4
			c1.9,12.8,4.8,25.3,9.3,37.5c2.5,5.9,2.3,12.1,2.5,18.2c-0.8,1-1.7,1-2.5,0.1c-1.8-3-2-6.4-2.8-9.1c1.2,3,0.4,7.3,3.9,9.9
			c2.5,3.9,1.2,7.9,0.7,12c-0.7,11.4-4.5,22.1-6.8,33.1c-1.7,3.6-0.2,8.3-3.8,11.3c-8.6,19.6-13.5,40.4-20.7,60.4
			c-11.3,31.5-19.8,64.3-40.3,91.8c-4.7,6.3-8.5,13.9-17,16.5c-2.6-4.3-3.4-9.6-7.1-13.4l-0.4,0.3c-2.7-3.1-4.1-6.9-5.5-10.7
			c-0.8-4.5-2.7-8.5-5.9-11.9l-0.4,0.3c-3.4-3.1-4.3-7.7-6.6-11.4c-22-33.4-391.7-53.9-74.1-73.1c-21.8-15.6-45.2-28.7-68.8-41.5
			c-6-3.3-11.6-6.9-16.8-11.3c-2.3-2-4.1-4.4-4.9-7.4c-0.4-5-1.9-9.7-3.2-14.5c-1.4-4-1-8-0.1-12.1c0.7-6.4,1.3-12.8,2-19.2
			c1.3-2.8,1.1-6,1.8-8.9c7.4-53.3,33.7-96.7,70.3-134.8c3-3.1,6.4-6,9.6-8.9c3-3.6,7.7-5,10.9-8.5c1.9-0.5,3.8-1,5.7-1.5"/>
		<path class="st1" d="M704.2,951.2c-6.5,4.5-13,9-19.6,13.5c-2.6,2.7-6.4,3.6-9.1,6.2c-2.4,1.4-4.8,2.8-7.2,4.2
			c-2.1,1.8-4.5,3.3-7.1,4.5c-3.8,0.7-6.7,3-9.7,5.2c-13.2,5.6-25.7,13-39.7,16.8c-9.3,7.6-20.5,7.8-31.7,7.8
			c-3.9,0.7-7.8,1.5-11.7,2.2c-4.3-2.2-9.3,5.9-13.2-1c6.3-2.8,13-3.9,16.4-4.6c-4.3,1.7-12.6,1.3-19.4,6.1
			c-2.7,1.3-5.5,2.5-8.7,1.9c-2.1,0.5,1.6-4.2-1.8-2.2c-2.3,1.4-4.9,1.4-7.3,2.3c-0.4,0.2-0.8,0.3-1.2,0.5c-2,0.2-4,0.4-6,0.6
			c-3.7-0.4-7.4-1.2-11.1,0.1c-2.9,0.9-5.6,0.3-8.4-0.5c-4.1,0.2-8.2,0.3-12.3,0.5c-4.2-0.9-8.6,0.5-12.7-0.9
			c-2.7-0.2-5.5-0.3-8.2-0.5c-3.7-0.7-7.5,0.2-11.1-1.1c-50.3-8.6-100.2-18.5-148-37.4c5.8-3.3,11.5-5.4,14.5-12.7
			c-11.2-4.6-22.3-9.4-33.6-13.9c-34.7-14.1-192,4.8-226.6-9.5c-4.9-2,37.7-19.5,33.7-23.7c1.6-5.2,80.3-21.3,84.6-22.7
			c3.7-1.2,7.7-1.6,10.8-4.5c1-0.6,2-0.7,3.1-0.4c8.2,2.3,15.8,6.7,24.5,7c4.4,1.6,9.1,1.6,13.6,2.5c1.2-0.1,2.5-0.2,3.7-0.3
			c5,2.1,10.6-0.3,15.6,1.8c14.5,0.3,27,8.2,40.9,11c6.2,1.2,12.3,2.3,18.7,2.1c3.7,1.9,7.6-3.3,11.2,0.3c0.1,1.1-0.3,1.8-1.4,2.1
			c1,0.9,1.5-0.4,2-0.7c3.7-2.6,8.1-3.1,12.2-4.5c0.9-0.2,1.9-0.2,2.8,0c9.1-0.5,16.6,0.7,22.6,6.3c7.6,7.2,13.2,8.2,22.4,4.9
			c4.4-1.5,10.9,0.9,15.4-0.4c19.8-3.8,39-10,58.8-13.4c29.5-5.2,58.6-12.3,87.9-18.7c2-0.4,4-0.6,6,0.2c28.1-5.1,56.7-8,83-20.5
			c6.5-4.5,14.1-6.7,20.8-10.9c2.3-0.8,4.6-1.7,6.9-2.5c3.7-2.7,8-4.8,11.2-8.2c8.8-6.5,17.6-13,26.5-19.6c1.9-2.5,4.8-3.7,7-5.8
			c10.9-8.7,21.9-17.4,32.8-26.1c1.9-1.5,3.3-4.3,6.6-2.1c19.9,13.3,41.8,24.1,55.6,45c1.1,1.6,1.7,3.5,2.5,5.3
			c-0.1,2.8,14.7,116.7,14.9,119.4c-9.1,15.1-36.5-11.1-49,0.8"/>
		<path class="st1" d="M820.4-45.9c1,2,34,33.2,37.1,36.4c-1.9,19.9-30.4,17.1-47.7,18.9c-12.8,2-19.6,3.1-21.8,5.2
			c-9.2,5.2-17.2,12.6-28,15c-19.9,4-39.8,8.3-59.2,14.6c-5.7,2.6-12,1.1-17.9,2.4c-3.1-1.3-6.5,2.7-9.5-0.5
			c-0.4-1.5,1.1-2.1,1.7-3.1c-0.8,0.8-1.8,1.1-2.6,1.8c-1.2,1.1-2.5,1.9-4.1,2.4c-0.9,0.2-1.8,0.2-2.8-0.1l0.1-0.5
			c-4.5-1.7-8.8,1-13.2,0.4c-4,1.3-8,0.8-12,0.2c-11.8,0.7-23.6,1.3-35.4,2.3c-4.2,0.3-4-1.6-4-4.7c0.3-16.7,6.1-32.1,10.8-47.8
			c2.3-7.7,5.1-15.4,4.5-23.7c1.8-5.2,0.6-10.4,0-15.6c-0.4-2-0.1-3.9,0.3-5.8l0.5,0c1.2-9.8-2.9-19.1-3-28.8
			c3.1-3.8,0.2-7.8-0.4-11.3c-3.8-20.6-8.1-41.1-17.1-60.2c-2.6-3-2.9-6.8-3.8-10.4c-0.1-8.8-3.6-16.8-6.2-25
			c-2.2-0.9-2.7-3.2-4.1-4.8c-0.2-0.7-0.3-1.4-0.5-2c0-3.6-3.5-6.6-2-10.5c0.1-0.1,0.2-0.6-0.3-0.7c0,1.1-0.5,1.8-1.6,2.2
			c-4.6-5-6-11.6-9.1-17.4c-0.8-2.4-1.7-4.9-2.5-7.3c-3.4-4.7-5.9-9.8-5.9-15.7c5.5-6.1,13.4-5.4,20.4-7.4c1-0.5,2.1-0.7,3.3-0.6
			c3.2-0.5,6.3-1.1,9.5-1.6c7.9,0.6,15.8-1.9,23.7-0.2c4-0.1,8-0.2,12-0.3c3.7,0.4,7.6-1.3,11.3,0.7c0.7,0.1,1.3,0.2,2,0.2
			c3.6,0.9,7.3,1,11,0.5c2.8,0.2,5.6-0.5,8.3,0.5c40.4,2.4,78.1,13.3,111.9,36c17.2,11.5,27.7,28.9,39.6,45.1c1.1,1.5,1.6,2.9-0.6,4
			c-1.6,0.8-2.1,1.1-4.5,0.2c-23.8-9-47.3-19.1-72.5-23.6c-2.9-0.9-6.1-0.6-8.9-1.8c-2.6-0.2-5.3-0.5-7.9-0.6
			c-13.5-0.7-18.2,3.6-19.6,17.6c-1.9,4.7,0,8.4,2.9,11.9c0.4,0.6,0.7,1.1,1.1,1.7c2.5,2.7,3.6,6.4,6,9.3
			c8.5,10.4,24.1,11.4,32.8,1.4c5.3-6.1,8.9-5.4,13,0.5c4,5.7,7.9,11.5,11.9,17.3c3.6,4.1,5.6,9,6.1,14.4c-2.4,4,1,8,0.8,12
			c0.1-3.5-1.9-6.7-1.7-10.2c0.4-1.2,1.1-1.6,2.3-1c2.4,6.3,4.9,12.5,7.3,18.8c4,5.6,5.7,12.8,11.6,17.1c0.9,1.2,1.7,2.4,2.4,3.6
			c1.4,2.2,3.6,3.4,5.9,2.7c7.8-2.7,11.7,1.8,15.2,7.6"/>
		<path class="st1" d="M479.6,67.2c-1.3,0.5-2.5,1.1-3.8,1.6c-0.5-0.1-1-0.1-1.5-0.2c-2-0.4-4.2-0.2-5.9,0.6
			c-19.1,8.6-39.5,11.6-59.8,14.9c-0.9,0.4-1.8,0.9-2.5,1.5c-0.4,0.3-0.8,0.5-1.2,0.8c-2,0.3-4,0.7-5.9,1c-2.3-1.4-2.7-3.4-1.9-5.8
			c1.9-34.2-26.8-52.6-47.8-78.1c-3.8-4.7-28.7-27.4-30.6-33.2c-3.8-5.5,50.3-16.5,48.8-22.9c-1.1-5.2-3-10.1-6.4-14.3
			c-3.9-7.4-7.9-14.9-11.8-22.3c-1-7.9,2.8-10.4,10.3-11.1c23.4-2,24.4-3.9,18.8-26.9c-2-8.1-4.9-16.2-3.6-24.8
			c0.2-1.7,0.9-3.2,2-4.6c5-6.3,8.9-5,12.6,1.5c3.1,5.4,6.9,10.4,10.4,15.6c2.8,2.9,5.2,6,8.1,8.8c0.4,0.5,0.8,1.3,1.3,1.4
			c3.4,0.9,6,6.1,9.7,3.5c4.1-2.9,0.5-7.3-0.3-10.8c-2.1-9.2-4.5-18.4-7.6-27.3c-3.7-10.5-2.4-19.6,5.2-27.8
			c3.6-2.2,4.5,1.9,6.7,2.8c6.9,2.4,13.6-0.1,19.7-2.3c18.8-7,35.3-5.1,50.6,8.6c7.4,6.6,17,10.5,23.2,18.7c3,4,6.7,4.8,11.4,2.2
			c5-2.8,10.4-4.9,15.6-7.3c1.8-1.7,3.8-2.4,6-0.6c2.3,6.1,9,9.1,10.7,15.6c3.8,4.4,5.7,9.6,6.3,15.3c2.4,9.2,4.7,18.4,6.8,27.7
			c0.9,4,3.3,7.8,2.1,12.3c-3.6,1.4-3.2-1.2-3.8-3.1c0.3,5.4,2.1,10.4,4.5,15.3c0.5,1.9,93,7,93.4,8.9c-1.1,7.8-11.5,54.4-13.3,62.3
			c3.5,21.3-69.1,31.2-79.9,39.6c-8.3,6.5-53.4,16.6-77.9,32.5c-2.6,2.1-5.3,4.1-8.7,5C485.7,62.6,482.7,64.9,479.6,67.2z"/>
		<path class="st1" d="M940-16.7c8.3-2.1,9.7-9.8,13.8-16.8c3.3,26.2,15.2,48.3,32.4,68.1c5.1-4,9.7-9.9,8.7-18.8
			c-0.3-2.3-0.6-4.8,1.4-6.7c4.1,0.5,5.5,5.8,10,5.4c0.8-0.3,1.4-0.2,2,0.4c3.4,5.2,9.8,7.6,12.3,13.6c2.3,2.3,3,5,1.8,8
			c-3.5,25.2-13.1,48.2-25,70.3c-3.3,6.2-8.3,11.4-15.5,13.6c-0.4,0.1-0.9,0.1-1.3,0.2c-5.6,1.8-11.2,3.2-17,4.2
			c-0.4,0.1-0.8,0.3-1.3,0.4c-2.1,0.2-4.1,0.4-6.2,0.6c-1.5-0.3-2.9-0.8-4.3-1.6c-2.6-0.5-4.9,0-7.1,1.5c-2.8,1.2-5.3-0.5-8-0.7
			c-1.8,0.2-3.7,0.4-5.5,0.6c-4.5-1.3-9.2-1.4-13.7-2.4c-34.2-6.9-68.1-15-98.6-32.8c-8.1-4.7-15.8-9.9-24.1-14.2
			c-7.2-3.7-7.9-8-3.1-13.7c7.7-9.2,15.4-18.5,23.3-27.6c21.2-24.2,37.3-50.7,37.1-84.3c0.5-6.3-1.2-12.3-3.2-18.1
			c-0.3-1.5-0.4-3.1-0.3-4.7c1.9-6.4-0.2-12.5-1.2-18.7c-1.2-8.2,2.1-11.1,9.3-7.3c5.4,2.8,9.7-2.2,14.4,0
			c8.6,10.2,15.2,22,24.9,31.3c1.9,2.3,4.7,4,4.5,7.6c-0.8,4.5-0.1,8.7,1.9,12.8c0.8,1.2,1.6-1,0.6-0.1c-0.5,0.4-0.8,0.4-1-0.1
			c-0.8-2.8-1.9-5.5-1.6-8.6c5.5-2.2,3.1,4.2,5.6,5.2c0.8,3.2,1.6,6.5,2.4,9.7c-0.9,5.2,0.1,10,3.7,14.1c0.6,0.7,0.7,1.7,1.6,2.1
			c-0.3-1-0.2-2,0.4-2.8c4.8,5.4,8.2,5.6,10.3-2.4c1.2-4.5,3.7-8.6,2.9-13.4c5.2-0.6,4.7,3.8,5.5,6.7
			C934.7-29.4,935.9-22.6,940-16.7z"/>
		<path class="st1" d="M923.8,333.9c-3.2-35.1-9.2-185.9-22.1-221.6c-7.1-22.8,46.1-10.3,45.4-7.7c-1.2,6.6,11,147.1,9.8,153.7
			c-0.6,2-0.8,4-0.8,6c0,3-0.2,6.7,2.6,8.3c3.5,2.1,5.1-2.2,7.5-3.6c0.6-0.2,1.3-0.4,1.9-0.6c2.9,0.7,4.8,2,3.4,5.4
			c-0.3,13.2-7.2,24.8-9.5,37.5c-0.8,4.6-2,9.2-3.1,13.8c-1.6,2.7-0.7,6-1.9,8.9c-2.5,11.2-3.4,22.5-1.1,33.9
			c0.8,3.9,1.6,9.1,6.2,9.4c4.7,0.3,7.6-4.1,8.9-8.3c4.1-13,7.8-26.1,11.8-39.1c0.6-1.8,1.7-3.5,2.5-5.3c2.6-1.9,2.5-4.8,2.7-7.6
			c3-3.9,1.8-9.6,5.7-13.1c7.3,1.2,0.8,5.8,2.1,8.5c0.4,0.5,0.4,1,0,1.4c-1.9,3.7-2.1,7.9-3,11.9c0,12.6-4.9,24.5-5.9,37
			c-0.4,5.6-1.5,11.1-2.2,16.7c-0.9,3.6,0.1,7.4-1.2,11c0.8,4.9-2,9.9,0.8,15.8c10.4-8.7,15.1-20.4,20.2-31.8
			c7.7-17,11.8-35.4,18.7-52.7c1.3-2.3,1.5-4.8,2-7.3c1.6-5.8,3.2-11.7,4.8-17.5c1.6-2.6,2.6-5.4,3.3-8.3l-0.3-0.5l0.4-0.5
			c1.6-2.5,2.3-5.2,2-8.1c2.1-8.3,4.4-16.6,8.8-24c1.2-1.4,2.9-2.1,4.1-0.8c1.7,1.9,0.3,4.2-0.3,6.3c-2.1,1.9,0,4.5-1.1,6.5
			c-1.6,2.3-3.5,4.6-3.6,7.7c-2.4,7.4-4.8,14.9-7.3,22.3c-2,2.4-0.5,5.2-0.9,7.7c-0.9,3.2,0.2,6.5-0.9,9.6l-0.4-0.1
			c-0.9,5.6-2.3,12.9,3.1,15.3c6.9,3.1,13.1-2.1,18-7.4c11.3-13,24.5-23.8,37.4-35c4.5-4,6.7-10.7,13.5-12.3
			c12.1-3.3,14.1-1.1,11.9,12.6c-4.8,7.7-8,16.6-15.4,22.6l-0.1,0c-2.3,4.1-1.8,8.9-2.8,13.3c0.6,2.6,1.3,5.2,1.9,7.7
			c2.1,4.3,5.4,8,5.8,13.1c-0.2,3.2,0.9,6.4-0.3,9.6c-1.5,7.8-7.6,13-11.5,19.4c-2.7,4.5-5.4,2.8-6.8-1.6
			c-5.5-16.8-10.8-19.8-23-2.6c-10.7,15-17.2,32-24.6,48.5c-0.9,2.1-2.3,3.1-3.8,4.4c-1.4-5.5-0.8-11.2-2-16.8
			c-2.7-13-7.8-14.5-18.2-5.3c-13.1,12.9-18.2,29.3-19.9,47c-2,5-0.7,10.4-1.9,15.5c0.3,2.3,0.4,4.7,3.1,5.6c2,1.4,4.6,1.2,6.8,2.3
			c2.2,0.3,4.4,0.6,6.6,0.9c2.7,2.7,1.7,4.9-0.8,7c-5.5,1.5-11.6-5.9-15.1-1.7c-3.7,4.5-3.9,11.9-5.4,18.1c-4,17-7.8,34.1-11.6,51.1
			c-0.7,3.4-1.8,6.5-4.1,9.3c-21.4-14.6-42.6-29.4-64.2-43.6c-5.2-3.4-7-6.6-5.3-12.2c0.7-3,0.6-6.1,1.7-9
			c4.5-29.5,8.9-59.1,13.5-88.6c0.5-3,1.5-5.9,0.7-8.9c1.6-4.4,1.5-9.1,2.5-13.6"/>
		<path class="st1" d="M113.6,926.2c-1.6-7.9,7.5-25.1,13.2-28.8c3-2.7,7-4.3,9.3-7.8c1.5-6.1,6.5-9.2,11.2-12.2
			c4.9-3.1,7.2-4.5,0-8.1c-17.1-8.4-33.2-18.4-48.6-29.8c-12.4-9.2-25.4-17.4-41.3-19.3c-2.7-1.1-5.5-0.4-8.3-0.6
			c-3.7,0.5-7.3,0.3-11-0.4c-4,0.1-8,0.2-12,0.3C22,819.5,0.8,807-1,811.1c-3.9,9.4,5.1,26.9-3.2,31.1c-1.2,0.9-2.2,2-2.9,3.3
			c-2.1,1.7-4.7,2-7.3,2.1c-1.4,0.3-2.7,0.6-4.1,1c-3.9,0.9-7.4,2.4-10.3,5.2c-1.8,0.7-3.6,1.5-5.4,2.2c-5.1,4.2-11.7,5.7-16.9,9.8
			c-4.5,0.9-7.7,4.1-11,6.8c-18.2,14.6-37.2,27.7-61.5,29.9c-2.1-0.9-4.2-0.8-6.3-0.2c-4,1.4-8.6,0.1-12.5,2.4
			c-4.6,2.3-6.1,5.5-4.4,10.7c1.5,4.7,3.1,9.5,3.2,14.5c0.2-3.7-1.8-7-2-10.6c-0.3-4.1-4.4-8.1-0.4-12.4c1.3-3.2-0.8-3.5-3.1-3.7
			c-3.2,1.5-3,4.2-2.2,6.9c3.5,12.3,6.5,24.7,11.6,36.5c5.7,13.4,16.6,23.3,23.5,35.9c3.4,3.2,5.6,7.3,8.5,10.9
			c17.5,28.4,46.2,22.9,65.4,11c-9.3-0.1-17.9,4.5-25.2,5.2c7.3-1.9,16.6-3.5,25.4-6.9c6.5-13.3,8.6-28,12.6-42.1
			c2.5-8.9,6.5-8.3,12.8-5.6c8.8,3.8,17.6,7.7,26.4,11.5c2.7,0.8,4.3,0.5,3.4-2.9"/>
		<path class="st1" d="M1031-72.7c11.3,7.8,25.1,8.8,37.3,14.2c2.1,0.9,4.4,1.6,6.6,2.4c2.6,15.5,6.2,30.8,9.3,46.2
			c0.8,3.8,3,7.9-1.7,10.9c-7,0-15.6-4.6-20.1,3.5c-4.9,8.8-6.7,18.6-0.9,28.5c2.5,4.2,6.4,7.9,6.8,13.3c-0.7,2.1,1.8,3.5,1.4,5.3
			c-0.7,3.7,2.1,1.7,3.3,2.3c2.7,7.8,6.7,15,9,23c5.1,20.7,8.8,41.7,10.1,63c-6.2-3-2.4-9.3-4.6-12.8c0.4,9.4,3.9,18.7,7.6,28
			c7,17.3-0.4,31.9-9,46.2c-1.5,2.6-3,5.2-4.4,7.7c-0.6,0.7-1.2,1.2-2,1.7c-3.1,1.5-6.5,2.5-9.7,3.8c-0.8,0.4-1.7,0.6-2.6,0.8
			c-2.7-0.2-5.4,0.5-8.1-0.5c-18,0.5-35.1-4.8-52.5-8.4c-14.6-1.5-27.7-6.8-39.1-16.1c-6.2-6.3-15.1-9.6-19.8-17.5
			c-3.7-6.3,3.3-5.2,5.3-7.6c1.8-0.6,3.7-1.3,5.5-1.9c4.8-3.5,10.3-5.2,15.9-6.8c4-0.9,7.7-2.3,10.5-5.5c2.1-1.4,4.2-2.8,6.3-4.2
			c2.6-1.1,4.5-2.9,6.1-5.2c17-23.1,34.8-45.7,42.7-74c0.5-1.9,0.5-3.9,0.7-5.9c1.8-4.3,1.6-9,2.6-13.5c0.2-2.2,0.4-4.4,0.6-6.5
			c1.3-4.2-1-8.6,0.8-12.8c-0.1-1.3-0.2-2.6-0.3-3.9c0.3-1.6,1-3,1.8-4.3c0.4-5.3-1.5-9.9-3.6-14.6c-2.5-15.5-6-30.7-13.8-44.6
			c-0.5-1.2-1.1-2.4-1.6-3.6c-4.6-4.9-5.4-11.9-9.9-16.9c-12.6-21.3-27-41.3-45.9-57.6c-2.1-2.2-4.7-3.5-7.4-4.6
			c-12.6-8.1-27.6-9.4-41.4-14.1c-4.3-1.4-8.4-4.6-13.4-3.7c-3.1-2.2-7.9-0.5-10.1-4.5c3.3-7.4,10.2-11.5,15.6-17
			c3.3-1.2,5.9-0.1,8.3,2.1c18.3,8.7,37.4,15.8,53.9,28c19.1,14.1,35.8,30.4,48,50.9C1027.5-77.7,1028.8-74.8,1031-72.7z"/>
		<path class="st1" d="M951.9,577.7c8.8,12.6,7.6,25.9,2,39.1c-9.1,21.7,3.6,36.8-7.3,57.9c-0.5,2.2,1.5,16.3-0.8,17.6
			c-14.1,16.9,45.9,257.3,33.7,275.5c-17.5,26.2-179.2,40.6-159.2-70.8c-5.4,8.4,16.5-42.6,1.9-73.7c-14.5-18.4-34.1-30.1-53.5-42.1
			c-4.7-2.9-4.7-4.4-1-8c6.2-6.1,12-12.7,17.9-19c2.1-2.4,4.4-1.7,6.8-0.6c3.5,2.2,6.2,5.6,10.9,7.6c-2.2-4.6-6.3-5.5-9.5-7.6
			c-5.5-7.6-4.6-9.6,6.3-14.4c2.5,0.2,4.1,2.1,6,3.3c2,1.2,3.8,2.7,6.2,4c-1.7-3.5-5-4.6-7.5-6.6c-1.9-1.9-3.1-4.1-1.7-6.8
			c0.5-0.9,1.1-1.9,1.6-2.8c1.1-2.4,3-3.8,5.7-3.5c3.1,1.6,3.3,5.2,5.4,7.6c1.4,1.6,3.1,2.7,5.2,3.1c5.7,0.7,6-4.3,8.1-7.4
			c3.1-5.2-1.9-6.8-4.2-9.6c-2.5-3-7.9-4.3-6.1-10c1.2-0.9,2.3-1.9,3.5-2.8c7.7-2.4,13.4,6.1,21.7,3.8c-1-5.8-6.9-8.7-7.4-14.3
			c-0.1-3.9,1.7-5.5,5.6-4.6c2.6,0.7,4.8,2.2,7.5,2.7c8.5,1.7,12.2-2,11.8-11.7c-1.4-3.1-5.7-5.3-3.6-9.4c1.6-3.1,4.6-1.3,7-0.9
			c1.8,0.6,3.4,1.4,4.9,2.6c1.6,1.4,2.7,3.3,4.2,4.8c1.5,1.4,3.2,2.4,5.2,2.8c3.4,0.5,5.9-0.7,7.5-3.8c0.6-1.1,1.3-2.2,2-3.3
			c1.8-2.4,1.6-4.6-0.4-6.8c-0.9-1.1-1.6-2.2-2-3.5c-1-3.5-1-6.8,2.6-8.9c4.2-2.5,5.6-6.6,6.8-10.8c-0.6-4.4-5.3-6.1-6.7-10
			c-0.5-2-0.3-3.7,1.5-5c4.4-0.9,7.4,2.8,11.2,3.7c2.2,0.1,2.2-0.8,1-2.3c-3.9-3.1-8.7-5-12.2-8.7c-5.9-6.1-4.8-10,3.6-13.4
			c5.9,0.8,9.9,5.2,15,7.6c-6.4-3.6-10.4-11.3-19.4-10.3c-6.9,3.5-9.5,8.7-6.8,16.2c0.4,5.4-4,5-7.2,6.2c-3.2,0.7-6.3,1.5-9.6,1
			c-1.6-0.5-3-1.3-2.9-3.3c7.5-21.9,14.8-43.9,20.6-66.3c2.4-9.4,6.1-18.4,8.2-27.8c1.5-6.8,5.2-47.8,9.8-44.9
			c7.4,4.6,39.4,19.2,45.4,25.5c0.6,0.8-9.8,11.7-8.2,32.4"/>
	</g>
</g>
</svg>
