<?xml version="1.0" encoding="utf-8"?>
<!-- Generator: Adobe Illustrator 25.3.1, SVG Export Plug-In . SVG Version: 6.00 Build 0)  -->
<svg version="1.1" id="Слой_1" xmlns="http://www.w3.org/2000/svg" xmlns:xlink="http://www.w3.org/1999/xlink" x="0px" y="0px"
	 viewBox="0 0 938 938" style="enable-background:new 0 0 938 938;" xml:space="preserve">
<style type="text/css">
	.st0{fill:url(#SVGID_1_);}
	.st1{fill:#FFFFFF;}
	.st2{fill:url(#SVGID_2_);}
	.st3{display:none;}
	.st4{display:inline;fill:url(#SVGID_3_);}
	.st5{display:inline;fill:url(#SVGID_4_);}
	.st6{fill:url(#SVGID_5_);}
	.st7{fill:url(#SVGID_6_);}
	.st8{fill:url(#SVGID_7_);}
	.st9{fill:url(#SVGID_8_);}
	.st10{fill:url(#SVGID_9_);}
	.st11{fill:#E273F9;}
	.st12{fill:url(#SVGID_10_);}
	.st13{fill:url(#SVGID_11_);}
	.st14{fill:url(#SVGID_12_);}
	.st15{fill:url(#SVGID_13_);}
	.st16{fill:url(#SVGID_14_);}
	.st17{fill:url(#SVGID_15_);}
	.st18{fill:url(#SVGID_16_);}
	.st19{fill:url(#SVGID_17_);}
	.st20{fill:url(#SVGID_18_);}
	.st21{fill-rule:evenodd;clip-rule:evenodd;fill:#FFFFFF;}
	.st22{fill-rule:evenodd;clip-rule:evenodd;fill:#020203;}
	.st23{fill-rule:evenodd;clip-rule:evenodd;fill:#CF84BD;}
	.st24{fill:#020203;}
	.st25{fill:url(#SVGID_19_);}
	.st26{fill:url(#SVGID_20_);}
	.st27{fill:url(#SVGID_21_);}
	.st28{fill:#FCFCFC;}
</style>
<g id="Восстание_ГИГАНТЮР">
	<linearGradient id="SVGID_1_" gradientUnits="userSpaceOnUse" x1="471.348" y1="942.4436" x2="471.348" y2="0.2499">
		<stop  offset="6.089431e-02" style="stop-color:#45649A"/>
		<stop  offset="0.3076" style="stop-color:#77699F"/>
		<stop  offset="0.5421" style="stop-color:#A06DA3"/>
		<stop  offset="0.7268" style="stop-color:#B96FA6"/>
		<stop  offset="0.8387" style="stop-color:#C270A7"/>
	</linearGradient>
	<rect y="0.2" class="st0" width="942.7" height="942.2"/>
</g>
<path class="st28" d="M47.8,528.5c1.6-4.8,5.1-7.3,9.2-9.2c5.6-2.7,11.1-5.6,16.7-8.5c2-1,3.7-2.5,4.3-5.1c1.1-5.3,4.9-7.9,8.7-10.5
	c4.7-3.1,9.2-6.6,14-9.4c4.3-2.5,8.9-4.6,13.6-6.5c3.5-1.4,7.3-2.2,10.9-3.3c0.5-0.1,1.1-0.2,1.5-0.5c5.9-4.5,11.6-9.2,17.6-13.5
	c10.8-7.6,22-13.7,34.7-16.9c9.5-2.4,18.7-1.4,27.9-0.1c10,1.4,19.2,5.8,28.4,10.1c11,5.1,22.3,9.2,34.2,10.6
	c6.3,0.8,12.5,2,18.8,2.5c3.6,0.3,7.4-0.1,11-0.6c0.9-0.1,1.8-1.5,2.4-2.5c3.4-5.7,2.3-11.5,0-17.3c-1.1-2.7-2.2-5.5-3.1-8.4
	c-2.5-8.2,0-15.8,2.5-23.3c0.6-1.8,1-3.7,1.8-6.3c-5.2,4.1-10.1,6.6-15.9,6.7c-6.8,0.2-12.2-3.9-18.2-6.1c-1-0.4-1.9-1.1-2.8-1.6
	c-4.4-2.3-4.9-4.2-1.7-8.1c5.3-6.4,7.7-14.3,10.6-22c0.6-1.6,1.6-3.8-0.8-5.1c-2.2-1.3-4.2-1.2-6.2,0.5c-3.4,2.9-6.5,6.3-10.2,8.8
	c-8,5.4-16.8,7.4-26.1,5.5c-9.6-2-18.6-5.6-26.7-11.6c-0.8-0.6-1.5-1.3-2.2-2c-3.4-3.6-2.9-6.5,1.7-8.2c6.1-2.3,12.3-4,18.3-6.4
	c4.7-1.9,9.4-4.1,13.7-6.9c1.8-1.2,2.4-4.5,3.5-6.8c-2.2-0.3-4.4-1.1-6.5-0.8c-4.8,0.6-9.5,2.1-14.3,2.4c-5,0.3-10-0.4-15-0.8
	c-2.5-0.2-5.1-0.2-7.5-0.9c-13.3-4-26.5-8.1-39.7-12.4c-2.1-0.7-4-2.1-5.8-3.4c-2.2-1.6-2-3.2,0.4-4.3c1.7-0.8,3.6-1.5,5.4-1.7
	c12.9-2.1,25.7-5,38.8-5.3c8.8-0.2,17.5-2.6,26.2-4c0.8-0.1,1.5-0.6,3.1-1.3c-4-2.1-7.4-2.5-11.1-2c-10.7,1.4-21.3,3.5-32.1,0.1
	c-5.6-1.8-11.4-3.7-17.2-4.1c-9-0.6-15.9-5.9-23-10.8c-2-1.4-3.8-3.3-5.7-5c-3.5-3.3-7-6.7-10.5-10.1c-0.4-0.4-0.7-1.1-1.4-2.2
	c3.2-0.6,6.1-1.1,8.9-1.8c13.8-3.1,27.8-2.3,41.7-1.7c8,0.4,16,1,24,1.7c8,0.8,15.9,2.1,23.9,2.9c3.9,0.4,7.9-0.1,11.9,0
	c10,0.2,20.1,0.1,30.1,0.8c8.8,0.6,17.6,2.1,26.5,3.1c3.6,0.4,7.3,0.1,10.9,0.6c11.2,1.7,22.8-0.6,33.6,4.6
	c7.2,3.4,13,8.1,16.8,16.1c6.9,14.5,14.3,28.6,21.5,42.9c0.3,0.6,0.7,1.1,1.3,2.3c1.3-5.4,2.2-10.3,3.5-15
	c3.7-12.9,7.3-25.7,11.4-38.5c4.4-14,6.2-28.3,5.7-43c-0.3-9,0-17.9-0.2-26.9c-0.1-9.6-8.9-17-17.4-15c-5.7,1.4-11.5,2.6-17.2,3.8
	c-2.1,0.4-3.5-1.9-4.9-2.3c-3.8-1.3-1.5-3.4-1-4.9c0.4-1.2,1.6-2.2,2.6-3c4-3.3,8-6.4,12-9.6c3.2-2.7,5.9-5.8,6.4-10.7
	c0.2-1.9,1.4-3.9,2.6-5.5c4.3-5.7,8.2-12.2,15.7-13.3c5.5-0.8,10.9-1.6,16.5,0.3c5,1.7,9.8,3.3,14.2,6.6c5.5,4.2,8.8,10.2,12,16.4
	c4.9,9.4,6.3,19.6,7,30.1c0.3,4,0.9,7.9,1.1,11.9c0.2,5.2,0.4,10.5,0.1,15.7c-0.8,11.4-1.6,22.8-2.9,34.1c-1.6,14.4-6,28-10.1,41.7
	c-3.3,11.1-6.5,22.4-9.4,33.6c-2.2,8.5-2,16.9,2.2,24.7c0.8,1.5,1.8,2.7,2.8,4.1c0.4,0,0.8-0.1,1.2-0.1c0.4-3.4,0.7-6.9,1.2-10.3
	c1.7-12.8,1.1-26,5.2-38.4c3.1-9.4,6.5-18.7,10.2-27.9c3.7-9.3,7.5-18.5,11.8-27.4c3.4-7.1,7.8-13.6,11.3-20.6
	c2.8-5.6,4.7-11.7,7.3-17.4c5.3-11.6,10.3-23.5,20.4-31.2c4.9-3.8,9.7-7.7,14.6-11.4c1.8-1.3,4-2.4,6.1-2.7
	c9.8-1.3,17.7-7.1,25.8-12.5c4.6-3.1,9.2-6.2,14-9c1.7-1,3.8-1.6,5.8-1.5c3.8,0,4.9,2.6,2.6,6c-4.3,6.2-8.7,12.2-13.1,18.3
	c-1.5,2.1-3,4.3-4.1,6.9c3.7-2.2,7.3-4.7,11.1-6.6c3.8-1.9,7.9-3.6,13.1-1c-7.4,3.8-13.1,8.5-17.3,16.3c9.6-0.5,18.6-2.3,27.6-1.7
	c0.2,0.5,0.4,1,0.6,1.6c-2,1.6-3.8,3.7-6.1,4.8c-8.5,4.4-17,8.8-25.7,12.5c-8,3.5-13.1,10.2-18.1,17.4c-3.3,4.8-6.6,9.8-10.5,14
	c-10.8,11.9-19.6,25.5-26.4,40.5c-5,11.1-9.9,22.5-13.1,34.4c-3.5,12.9-6,26.3-7.1,39.7c-1.2,14.6-0.3,29.5-0.2,44.2
	c0,1.6,0.4,3.2,0.8,6c3.2-3.9,6.6-6.9,8.6-10.7c7.7-14.3,12.2-29.8,14.8-46.2c1.9-11.9,4.2-23.8,7.1-35.4c1.4-5.8,4.9-11,6.7-16.8
	c2.7-8.4,7.4-14.4,14.6-18.3c9.5-5.1,21.4-0.3,26.3,9.9c2.6,5.3,4.5,10.4,4.4,16.4c-0.1,2.9,0,6-0.8,8.6c-1.8,5.9,1.6,10.9,2.7,16.6
	c1.1,5.6,1.5,11.6,1.5,17.4c0,4.7,0.5,9.1-1.7,10c-3.4,1.4-5.7-1.4-7.6-3.7c-2.8-3.4-5.2-7.3-7.8-10.9c-1-1.4-2-2.6-3.5-4.6
	c-1.1,10.1-1.6,19.5-3.2,28.7c-1.6,9.2-4.3,18.2-6.6,27.7c4.3-3.6,8.6-6.9,12.7-10.5c2.9-2.6,5.6-5.5,8.4-8.2
	c1.4-1.3,2.7-2.7,4.2-3.7c4.4-2.8,8.8-5.4,11.7-10.4c1-1.8,2.8-3.7,4.5-4.3c7.7-2.7,11.1-10.2,15.7-16.5c4-5.4,6.4-12.1,11.8-16.4
	c1.6-1.3,2.2-4.2,3.5-6.2c3-4.8,6.1-9.5,9.2-14.2c0.5-0.7,0.9-1.6,1.3-2.4c2.4-5.5,4.8-10.9,7.2-16.4c0.4-0.9,1.1-2,1.9-2.3
	c5.3-2.5,6.8-8.4,9.5-13.2c2.7-4.6,5.3-9.3,10-12.3c3.1-2,4.9-6.2,7.6-9.2c3.5-3.9,5.9-9.1,11.1-11c0.6-0.2,1.1-1.4,1.4-2.2
	c3.4-8.8,9.9-14.9,16-21.1c4.8-4.9,10.1-9.6,15.9-12.8c4.2-2.4,7.7-4.9,10.9-8.6c1.5-1.8,4.2-2.2,6.4-3.3c0.8-0.4,1.9-0.8,2.3-1.5
	c2.7-4.6,6.9-7,10.9-10c5.9-4.4,11.4-9.3,17.1-13.9c8.1-6.7,16.2-13.5,24.5-20c6.8-5.3,13.9-10.2,20.8-15.4c4-3,7.8-6.2,11.6-9.5
	c8.6-7.6,17-15.4,25.7-22.8c8.9-7.6,17.9-15.4,27.3-22.2c7.9-5.7,16.6-10.2,25-15.1c1.9-1.2,3.9-2.2,5.9-3.3c1.2-0.6,2.4-1.1,4.4-2
	c-0.3,2.8-0.5,4.7-0.8,6.5c-0.8,6.9-1.6,13.9-2.4,20.8c-1,8.3-4.9,14.9-10.2,20.5c-6.9,7.3-14,14.2-20.9,21.4
	c-6.5,6.8-14.6,10.6-22.7,14.5c-2.2,1-4.3,2.5-6.4,3.8c0.2,0.5,0.4,1,0.6,1.5c2.4-0.9,4.8-1.7,7.1-2.8c8.8-4.4,17.7-8.7,26.4-13.3
	c6.5-3.4,12.7-7.3,19-11c5.3-3.1,10.5-6.6,15.9-9.3c5-2.5,10.3-4.1,15.5-6.1c2.6-1,5.1-2.1,7.8-2.9c2.6-0.8,3.5,0.3,3.5,3.3
	c0,7.6-4.4,13-7.7,18.9c-5.7,10.2-13.9,17.5-23,23.5c-2.7,1.8-5.2,3.9-7.7,6.1c-8,7.2-18.1,9.2-27,14.3c-2.2,1.3-4.6,2.6-6.3,4.5
	c-1.6,1.8-2.6,4.4-3.2,6.8c-0.2,0.9,1.4,3.2,2.4,3.3c3.7,0.6,7.6,1.1,11.3,0.6c12-1.4,23.1-6.5,34.4-10.5c4.3-1.5,8.6-3.4,12.9-4.7
	c2.4-0.7,5-0.6,7.5-0.1c2.5,0.5,3,2.8,2.6,5.5c-1.2,7.2-5.2,12.7-8.9,18.3c-6.2,9.3-15.1,14.2-24.6,17.6c-7.4,2.6-14.9,4.7-22.9,4.9
	c-6,0.1-12.3-0.1-17.9,3.4c-6.4,4-6.7,11.7-0.7,16.5c4.4,3.5,9.3,5.4,14.7,5.8c9.3,0.6,18.6-0.1,27.7-2.9c2.4-0.7,5-1,7.5-1.2
	c3-0.1,4.1,1.7,2.9,4.7c-0.6,1.5-1.4,2.9-2.4,4.1c-4.1,4.5-8.1,9.4-12.7,13.2c-6.4,5.1-13.9,7.9-21.9,8.3c-5.1,0.3-10.2,0.2-15.3,0
	c-9.9-0.2-11.1,7.7-9.1,14.6c2.4,7.9,8.2,12.7,13.8,17.9c3.5,3.2,6.3,7.4,9.3,11.3c2.3,3,1.9,6.3,0.6,9.5c-2.4,6.1-6,10.9-11.7,13.5
	c-5,2.3-8.2,5.6-9.1,12.2c-1.1,7.4-5.9,12.3-11.6,16.3c-1.7,1.2-3.6,3.8-3.7,5.9c-0.8,9.5-6.5,14.6-13.1,18.4
	c-4.6,2.6-9.8,2-14.9,0.5c-1.4-0.4-3-0.1-5.4-0.1c1.9,3.6,3.2,6.2,4.5,8.8c1.4,2.8,1.1,5.2-0.8,7.7c-4.6,6.3-11.2,9-17.6,12
	c-0.6,0.3-1.2,0.4-1.8,0.6c-3.4,0.9-5.7,2.4-5.7,7.2c0.1,4.5-3.6,6.7-6.6,8.8c-4.7,3.1-9.7,5.5-15.4,6.1c-3.6,0.3-6.6-0.5-9.3-3.2
	c-1.8-1.8-3.7-3.5-5.6-5.2c-0.9-0.7-1.9-1.2-2.9-1.7c-0.3,0.2-0.5,0.4-0.8,0.6c1.2,4.4,2.2,8.9,3.6,13.2c1.6,4.9,0.8,9-2.3,12.6
	c-3.1,3.6-6.8,6.4-11.3,7.3c-4.5,0.9-5,1.3-4.7,6.4c0.4,7.8-2.7,13.2-8.5,17.2c-2,1.4-4,2-6.3,0.8c-3-1.6-4.2,0.2-4.5,3.1
	c-0.3,2.5-0.3,5.2-0.1,7.7c0.4,4.7-0.6,8.7-3,12.6c-2.4,3.7-5.3,5.4-9.4,5.1c-1.2-0.1-2.9,0.7-3.6,1.8c-1.3,1.8-2.3,3.9-3,6.1
	c-2.5,7.6-6.9,13.4-12.8,17.9c-1.7,1.3-4.2,1.5-6.3,2c-2.7,0.6-4,1.9-3.2,5.1c0.3,1.3,0.2,2.8,0.4,4.2c1.3,8.5-4,16.6-11.7,18.2
	c-1,0.2-2.1,0.4-3.2,0.4c-2.7,0.1-3.8,1.8-3.9,4.5c-0.1,2.3,0.1,4.7,0.1,7c0,6.3-4.1,10.3-9.5,8.5c-4.8-1.6-9.6-3.8-13.9-6.7
	c-4.8-3.2-9-7.3-13.3-11.3c-1.6-1.5-2.6-3.7-4.2-6.2c0,2.1,0,3.7,0,5.3c0,13.3,0,26.5,0,39.8c0,1.1,0,2.5-0.5,3.4
	c-4.7,7.3-2.9,15.7-2.4,23.5c0.6,8.5,2.6,16.9,4.2,25.4c0.7,4,2.2,7.8,2.8,11.8c1.3,7.5,2.8,15.1,3.2,22.7
	c0.3,4.9-0.5,10.2-4.9,13.8c-1,0.9-1,4-0.7,6c0.9,8.1,2.1,16.2,1,24.5c-1.2,9.6-2.2,19.3-2.7,28.9c-0.4,8.7-0.4,17.4-0.1,26.1
	c0.2,5.4,2.9,8.9,7.9,10.5c3.4,1.1,6.5,3.1,9.7,4.8c0.8,0.4,1.8,1.2,2,2.1c1.4,4.3,4.4,4.3,7.8,4.4c14.9,0.3,29.9,0.7,44.8,1.3
	c5.8,0.2,11.6,0.8,17.4,1.4c1,0.1,2.4,1.1,2.8,2.1c3.2,9.6,6.2,19.2,9.4,29.4c-1.8,0-3.1,0-4.5,0c-27.9,0-55.7,0-83.6,0.1
	c-1.2,0-2.5,0.4-3.7,0.7c-100.6,0-201.1,0-301.7,0c-0.9-0.2-1.7-0.6-2.6-0.7c-5.9-0.1-11.8,0-17.6,0c-29.5,0-58.9-0.1-88.4-0.1
	c-1.1,0-2.2-0.2-3.5-0.3c0.2-1,0.3-1.6,0.5-2.1c3-8.7,6.2-17.3,9-26.1c0.9-2.7,2.2-3.6,4.6-3.7c14.7-0.6,29.4-1.6,44.1-1.9
	c26-0.5,51.9-0.5,77.9-1.1c6.9-0.1,13.8-1.2,20.7-2.1c5.9-0.8,11.8-1.8,17.7-2.8c7.1-1.3,14.3-2.6,21.4-4.2c5.1-1.2,9.4-4,11.6-9.5
	c2-5,3.7-10.1,5.1-15.3c3.5-12.9,6.3-26,6.4-39.4c0-7-1.2-14.1-2.2-21.1c-0.2-1.8-1.2-3.6-2.2-5.1c-1.7-2.6-3.9-4.9-5.5-7.6
	c-3.4-5.8-6.5-11.9-9.8-17.8c-1.1-2-9.4-5.6-10.8-4.5c-3,2.2-5.7,4.8-8.5,7.3c4.1,6.3,3.7,12.4-1.2,17c-2.1,2-2.3,3.9-1.6,6.6
	c0.7,2.7,1.1,5.5,1.1,8.3c0,2.4,1.2,6-1.6,6.8c-1.6,0.4-4.3-1.6-5.8-3.4c-7.2-8.8-16.2-13.1-26.8-14.7c-8.4-1.2-16.7-3.5-25-5.7
	c-7.3-2-14.5-4.2-22.3-3.3c-11.2,1.3-21,5.5-29,14.3c-1.4,1.6-2.9,3.1-4.4,4.7c-0.3-0.1-0.5-0.3-0.8-0.4c0-1.2-0.3-2.5,0.1-3.5
	c1.1-2.8,2.3-5.7,3.9-8.2c1.5-2.5,3.9-4.4,5.2-7c2.7-5.3,6.7-8.5,11.9-9.9c5.3-1.5,10.3-3.8,14-8.4c3-3.8,6.8-5.2,11.2-5.4
	c1.1-0.1,2.3-0.3,3.4-0.6c5.4-1.6,10.8-1.8,16.2-0.3c4.6,1.3,8.5,1.5,12.1-2.8c3.2-3.7,7.1-6.8,10.8-10.2c-1.7-1.4-3.1-2.5-4.4-3.6
	c-4.7-3.9-9.1-8.7-14.3-11.4c-8.6-4.4-17.8-7.8-26.8-11c-5.4-1.9-11.4-1.9-16.2-6.2c-0.5-0.4-1.6-0.1-2.5,0
	c-3.5,0.1-7.1,0.7-10.6,0.2c-8.6-1.4-16.8-4.6-24.9-8.4c-4.1-1.9-8.4-3.3-13-5.1c-0.6,2.9-1.1,5.3-1.7,7.6c-1.6,6-2.9,12.1-4.9,18
	c-1.3,3.9-4,4-6,0.4c-1.4-2.6-2.6-5.3-3.7-8.1c-3-7.7-7.2-14.1-14.2-18.1c-9.8-5.6-19.5-11.5-29.3-17.1c-8.1-4.6-16.5-8.5-24.2-13.7
	c-4.7-3.2-9.2-6.3-14.8-7.2c-3.4-0.6-6.9-1.3-10.2-2.2c-1-0.3-1.8-1.6-2.6-2.4c1-0.8,1.8-2.1,2.9-2.3c6-0.9,12.3-2.9,18.1-1.9
	c7.2,1.2,11.2-1.7,15.1-7.4c4-5.9,7.8-11.8,9.8-19c2.1-7.6,1.6-9.5-4.1-14.3c-1.8-1.6-3.7-3.1-5.4-4.9c-0.6-0.6-1.2-2-0.9-2.6
	c0.3-0.9,1.4-1.5,2.3-1.9c0.5-0.3,1.2-0.2,1.9-0.2c8.7,0.1,15.8,4.8,23,9.4c1.1,0.7,1.9,2,3.1,2.4c6,2,12,3.8,18,5.7
	c3.5,1.1,7.1,2.1,10.5,3.4c5.6,2.2,11.1,4.7,16.9,7.2c0-1.1,0.1-1.8,0-2.5c-0.7-3.9,0.2-5.1,3.6-3.9c4.2,1.4,7.6,4.3,8.9,9.1
	c0.9,3.4,1.5,7.1,1.4,10.6c-0.2,6.6-1,13.1-1.6,20.1c7.1,4.1,15.4,5.7,23.5,7.3c0.9-4.8,1.1-9.4,2.7-13.4c3.1-8,6.9-15.6,10.6-23.3
	c0.8-1.6,2.2-2.9,3.2-4.3c3.6-4.7,7.1-9.4,10.9-14.4c-1.9-0.4-3.6-0.6-5.2-1c-7.5-1.8-15.1-3.1-22.4-5.7
	c-9.3-3.3-18.2-7.8-27.4-11.5c-11.8-4.8-21.7-12.9-31.3-21.5c-4.3-3.9-8.8-7.1-14.1-8.9c-2.5-0.9-4.9-0.3-7.1,1.7
	c-8.1,7.3-16,14.8-24.5,21.5c-17.4,13.7-35.9,24.2-58.3,22.4c-0.9-0.1-2.1,0.4-2.9,1c-6,4.6-11.8,9.5-17.8,13.9
	c-4.1,3-8.4,5.6-12.9,7.7c-2.5,1.2-5.1-1.2-4.6-3.5c0.4-1.9,0.8-3.9,1.7-5.5c3.4-6.5,7-12.9,10.6-19.4c0.3-0.5,0.3-1.2,0.4-1.8
	c-5.7-0.7-9,5.8-15,5.6c3.4-11.7,11.9-14.6,21.6-17c-5.4-3.1-10.2-4.3-15.4-4.5c-5.6-0.2-11.1-0.8-16.7-1.3
	C47.8,529.9,47.8,529.2,47.8,528.5z M461.9,835.7C461.9,835.7,461.9,835.8,461.9,835.7c7.6,0.1,15.3,0.1,22.9,0
	c2.9,0,5.9-0.1,8.8-0.6c6.6-1.3,13.2-3,19.8-4.3c10.4-2.1,20.9-3.2,30.9-7.6c6.2-2.7,10.4-7.2,11-14.5c0.9-11.6,1.8-23.2,1.7-34.8
	c-0.1-8.7-1.9-17.4-6.1-25.1c-2.9-5.4-5.4-11.4-11.5-13.6c-1.3-0.5-2.5-1.7-3.7-2.7c-4.8-4.2-9.6-8.4-14.5-12.5
	c-0.9-0.7-2.1-1.7-3-1.6c-3.6,0.3-7.1,0.8-10.6,1.6c-8.4,2-16.7,4.5-25.1,6.3c-4.3,0.9-8.8,1.4-13.1,0.9c-5.4-0.6-8.6,1.8-11.5,6.3
	c-2.1,3.2-4.7,6.8-7.8,8.4c-4.2,2.1-5.4,5.7-6.6,9.6c-2.6,8.2-5,16.6-7.4,24.9c-3.5,12-7.2,24-10.2,36.1c-1.7,6.7-2.2,13.9,3.2,19.5
	c0.3,0.3,0.6,0.8,0.7,1.2c0.5,2.5,2.1,2.6,4.1,2.6C443.2,835.7,452.5,835.7,461.9,835.7z M686.9,499c0.3-0.2,0.5-0.4,0.8-0.7
	c0.2-3.9-0.2-7.6-2.7-10.8c-1.2-1.6-2.5-3.2-3.7-4.9c-3.1-4.1-6.1-8.4-9.3-12.4c-0.8-1-2.4-1.3-3.7-1.8c0,1.5-0.2,3,0,4.4
	c0.1,0.8,0.8,1.6,1.3,2.4c3.8,5.9,7.4,11.9,11.4,17.7C682.6,495.3,684.9,497,686.9,499z M623,574.8c0.5-0.3,0.9-0.6,1.4-0.9
	c-0.1-1.8,0.2-3.9-0.5-5.4c-3.2-6.9-6.7-13.8-10.2-20.5c-1-1.8-2.5-3-4.5-1.6c-2,1.4-1.5,3.4-0.6,5.2c2.7,5.2,5.2,10.4,8.1,15.4
	C618.4,569.9,620.9,572.3,623,574.8z M664.7,512.6c-1.6-3.3-3-6.8-4.9-9.9c-2.3-3.8-4.8-7.3-7.5-10.7c-0.7-0.8-2.3-0.7-3.5-1.1
	c-0.1,1.5-0.8,3.3-0.3,4.3c2.6,5.5,5.5,10.8,8.5,16c1,1.6,2.7,2.8,4.3,3.8C663.2,516.3,664,515.2,664.7,512.6z"/>
</svg>
