<?xml version="1.0" encoding="utf-8"?>
<!-- Generator: Adobe Illustrator 25.3.1, SVG Export Plug-In . SVG Version: 6.00 Build 0)  -->
<svg version="1.1" id="Слой_1" xmlns="http://www.w3.org/2000/svg" xmlns:xlink="http://www.w3.org/1999/xlink" x="0px" y="0px"
	 viewBox="0 0 566.93 566.93" style="enable-background:new 0 0 566.93 566.93;" xml:space="preserve">
<style type="text/css">
	.st0{fill:url(#SVGID_1_);}
</style>
<g>
	<radialGradient id="SVGID_1_" cx="289.2268" cy="291.9433" r="353.8729" gradientUnits="userSpaceOnUse">
		<stop  offset="0.3665" style="stop-color:#FFEF26"/>
		<stop  offset="0.3926" style="stop-color:#FFE32C"/>
		<stop  offset="0.469" style="stop-color:#FBC033"/>
		<stop  offset="0.5443" style="stop-color:#F4A034"/>
		<stop  offset="0.6171" style="stop-color:#EF8534"/>
		<stop  offset="0.6866" style="stop-color:#EB7133"/>
		<stop  offset="0.7515" style="stop-color:#E96432"/>
		<stop  offset="0.8072" style="stop-color:#E95F32"/>
		<stop  offset="1" style="stop-color:#E7441C"/>
	</radialGradient>
	<rect x="-16.77" y="-104.06" class="st0" width="612" height="792"/>
</g>
<g>
	<path d="M262.49,348.02c5.87-4,8.95-11.59,17-12.63c2.24-0.29,4.69,1.05,7.06,1.6c2.08,0.48,5.05,1.98,6.08,1.13
		c2.09-1.71,4.54-4.86,4.29-7.13c-0.47-4.33-2.46-8.6-4.32-12.66c-2.32-5.08-4.97-10.03-7.86-14.81c-0.74-1.23-2.91-1.59-4.43-2.35
		c-0.79,1.71-2.44,3.56-2.19,5.11c0.42,2.68,4.2,5.76,0.19,7.72c-4.31,2.11-5.23-2.71-7.1-5.22c-0.64-0.86-1.34-1.67-2.88-3.56
		c-0.57,2.82-0.8,4.49-1.27,6.1c-0.3,1.02-0.79,2.54-1.51,2.74c-0.78,0.22-2.06-0.65-2.87-1.34c-0.73-0.62-0.99-1.78-1.69-2.46
		c-0.87-0.85-2.59-2.24-2.88-2.01c-1.2,0.92-2.71,2.31-2.82,3.63c-0.62,7.43-1.2,14.9-1.06,22.33c0.05,2.69,1.68,5.73,3.45,7.91
		c4.63,5.7,5.25,7.5,1,13.23c-4.82,6.5-7.77,13.56-8.93,21.52c-0.64,4.4-3.36,6.82-7.72,8.25c-2.28,0.75-4.29,3.14-5.79,5.25
		c-1.98,2.77-3.33,5.99-4.95,9.02c-0.65-0.03-1.3-0.05-1.95-0.08c-0.3-2.83-0.51-5.67-0.95-8.47c-0.23-1.49-0.87-2.91-1.32-4.36
		c-1.28,1.07-3.09,1.89-3.74,3.26c-2.1,4.45-3.78,9.1-6.91,14.03c-0.74-1.96-1.66-3.88-2.19-5.9c-0.86-3.33-1.79-5.77-5.5-2.3
		c-0.7,0.66-2.03,0.65-3.06,0.95c-0.23-1.23-0.88-2.54-0.63-3.66c1.32-6.17,5.36-10.28,10.8-13.05c5.06-2.58,10.28-4.84,15.36-7.38
		c6.47-3.24,12.13-13.47,10.44-20.59c-1.67-7.05-4.09-14.03-7.1-20.62c-3.17-6.94-7.49-13.34-11.18-20.04
		c-3.02-5.48-2.42-9.11,1.84-13.56c9.69-10.11,18.73-20.95,31.47-27.58c1.46-0.76,3.05-1.31,4.41-2.2c2.84-1.87,6.37-3.35,8.21-5.97
		c6.42-9.19,6.19-9.35,15.94-13.39c-3.71-6.13-9.03-10.07-15.31-12.85c-7.76-3.44-15.4-6.79-19.49-15.14
		c-1.46-2.97-4.29-5.27-7.33-8.86c-0.58,2.55-0.76,3.77-1.14,4.92c-1.2,3.6-2.33,7.25-3.78,10.75c-1.68,4.08-3.31,8.26-5.64,11.97
		c-1.97,3.14-4.41,6.82-7.55,8.21c-5.51,2.44-11.66,3.6-17.65,4.74c-4.24,0.81-8.7,0.43-12.97,1.09c-4.84,0.75-6.97,4.21-6.27,9.11
		c0.42,2.97,0.83,5.95,1.2,8.93c0.03,0.28-0.25,0.59-0.97,2.18c-1.66-2.39-2.73-4.46-4.3-6.01c-1.05-1.04-2.82-1.37-4.26-2.01
		c-0.29,1.6-1.34,3.62-0.72,4.71c2.31,4.12,5.16,7.93,8.28,12.57c-2.04,0.18-3.83,0.34-5.67,0.5c-0.12,0.21-0.41,0.49-0.4,0.76
		c0.06,1.85,0.18,3.69,0.28,5.54c-2.43-0.26-5.26,0.21-7.21-0.89c-8.89-5.04-13.04-23.24-4.32-29.61
		c4.53-3.31,7.01-9.44,10.67-14.65c-7.05-1.09-22.52,10.93-22.36,15.02c-2.11,2.51-3.57,4.24-5.47,6.5
		c-4.9,0.28-12.27-4.53-13.73-9.86c-0.33-1.2-0.22-2.69,0.17-3.88c1.58-4.87,3.42-9.66,4.98-14.54c0.37-1.16,0.03-2.55,0.01-3.84
		c-1.2,0.03-2.42-0.09-3.59,0.12c-2.13,0.37-4.26,0.81-6.34,1.43c-2.7,0.8-5.33,1.8-8.68,2.94c-4.11-4.02-3.67-15.91,1.58-20.41
		c4.66-3.99,9.15-8.2,13.39-12.62c1.06-1.11,1.08-3.38,1.23-5.15c0.2-2.25,0.05-4.53,0.05-6.8c0.62-0.25,1.23-0.51,1.85-0.76
		c1.63,2.42,3.51,4.7,4.82,7.28c2.56,5.04,2.36,4.94,6.18,1.15c1.64-1.63,4.11-3.07,6.35-3.34c6.42-0.77,9.69-6.05,14.41-9.21
		c0.97-0.65,1.78-1.59,2.81-2.09c9.04-4.31,14.36-11.86,18.21-20.72c0.36-0.82,1.01-1.51,1.52-2.27c0.54,0.16,1.07,0.32,1.61,0.49
		c-1.16,4.46-2.31,8.91-3.47,13.37c0.4,0.16,0.8,0.31,1.21,0.47c1.79-3.63,3.57-7.25,5.8-11.76c0.9,1.73,1.19,2.27,1.47,2.82
		c0.56,1.12,1.11,2.24,1.66,3.36c1.23-0.73,2.97-1.17,3.6-2.25c3.11-5.39,6.03-10.89,8.76-16.49c0.46-0.95,0.09-2.86-0.62-3.74
		c-5.42-6.72-10.41-13.96-16.73-19.72c-5.68-5.18-14.23-2.48-18.42,4.55c-1.72,2.89-3.18,5.95-4.76,8.93
		c-0.48-0.13-0.97-0.26-1.45-0.39c0-1.48-0.2-2.99,0.03-4.43c1.85-11.74-0.29-22-10.65-29.27c-1.49-1.04-3.11-1.94-4.76-2.71
		c-3.31-1.53-5.44-0.66-6.17,3.15c-0.27,1.4-1.05,2.7-1.71,4.31c-4.1-1.9-4.76-5.24-4.45-8.52c1.21-12.78,2.48-25.56,4.22-38.27
		c0.59-4.29,1.08-7.75-3.15-10.53c-1.64-1.08-2.49-3.36-4.29-5.95c2.43-0.45,3.95-0.73,5.46-1.02c2.95-0.56,6.15-0.57,8.79-1.79
		c5.87-2.71,11.57-2.25,16.92,0.56c9.31,4.9,18.65,9.86,27.45,15.6c14.65,9.56,28.93,19.71,43.26,29.76
		c1.47,1.03,2.9,2.95,3.19,4.66c1.08,6.38,5.2,9.63,10.62,12.25c2.7,1.3,5.15,3.46,7.18,5.71c5.03,5.55,9.53,11.6,14.76,16.94
		c1.24,1.27,5.42,1.67,6.67,0.61c10.05-8.48,21.22-16.23,27.53-28.07c4.56-8.55,7.18-17.87-0.28-27.07
		c-4.76-5.87-3.84-12.96,2.39-16.95c3.46-2.21,8.43-2.22,12.78-2.81c3.59-0.49,7.42,0.22,10.88-0.64
		c14.18-3.49,28.59-2.97,42.93-2.48c4.72,0.16,9.39,2.93,14.02,4.66c2.33,0.87,4.42,2.47,6.79,3.09
		c22.78,6.03,43.46,16.56,62.73,29.8c6.25,4.29,11.77,9.88,16.87,15.56c5.79,6.44,11.14,13.37,15.9,20.6
		c2.76,4.2,3.75,9.53,5.93,14.16c2.83,5.99,5.5,12.18,9.28,17.56c3.43,4.89,5.5,9.53,3.28,15.77c-1.37-2.71-2.37-5.71-4.2-8.08
		c-2.89-3.76-6.11-7.34-9.66-10.48c-1.31-1.16-4.47-1.74-5.77-0.94c-1.22,0.75-1.99,3.98-1.43,5.6c2.79,8.17,6.06,16.18,9.19,24.23
		c0.62,1.59,1.41,3.11,2.12,4.66c-0.43,0.38-0.86,0.76-1.29,1.14c-1.66-1.34-3.51-2.5-4.96-4.04c-7.01-7.4-13.71-15.11-20.96-22.26
		c-2.3-2.26-5.93-4.25-9.03-4.38c-5.7-0.22-8.52,3.72-8.89,10.55c-0.21,3.83-0.22,7.67-0.36,11.51c-0.01,0.25-0.41,0.48-0.85,0.97
		c-0.56-0.65-1.33-1.14-1.5-1.79c-2.41-8.99-8.13-15.72-15.04-21.45c-2.75-2.28-6.23-3.78-9.58-5.15c-1.29-0.53-3.66-0.24-4.56,0.66
		c-0.78,0.78-0.41,2.98-0.14,4.49c0.47,2.65,1.24,5.24,1.89,7.86c-0.55,0.26-1.1,0.51-1.66,0.77c-2.69-3.81-4.83-8.2-8.18-11.29
		c-5.3-4.88-11.03-9.58-17.34-12.94c-2.57-1.37-7.82,0.04-10.51,2.01c-1.5,1.1-0.74,6.06-0.11,9.1c0.98,4.74,2.72,9.33,4.14,13.98
		c-0.63,0.3-1.25,0.6-1.88,0.89c-1.14-1.42-2.28-2.82-3.41-4.25c-2.78-3.54-5.3-7.3-8.37-10.57c-3.36-3.58-6.58-3.42-9.89,0.28
		c-4.53,5.05-6.41,10.99-4.47,17.68c1.86,6.42,4.15,12.71,5.89,19.15c0.59,2.16,0.09,4.61,0.09,6.92c-0.61,0.12-1.22,0.24-1.83,0.36
		c-1.11-2.08-2.11-4.23-3.37-6.21c-2.32-3.65-4.41-7.56-7.31-10.7c-3.37-3.64-9.29-4.11-13-1.92c-5.4,3.2-8.95,9.78-7.98,15.13
		c0.63,3.46,1.73,6.84,2.2,10.31c0.36,2.66,0.07,5.41,0.07,8.12c-0.49,0.11-0.99,0.21-1.48,0.32c-0.59-1.19-1.14-2.4-1.77-3.57
		c-2.61-4.84-5.09-9.77-7.98-14.43c-0.66-1.06-2.76-1.22-4.2-1.8c0.17,1.62-0.21,3.63,0.62,4.79c2.42,3.42,5.32,6.51,8.09,9.79
		c-7.06,4.99-7.06,8.92-1.06,13.96c3.67,3.08,7.27,6.25,11.89,10.23c-1.68,1.59-4.07,3.11-5.28,5.29c-0.64,1.16,0.22,4.47,1.32,5.05
		c4.86,2.55,4.97,7.24,6.07,11.52c0.16,0.61,0.22,1.64-0.13,1.94c-4.69,3.98-0.88,7.83,0.08,11.72c0.9,3.67,1.36,7.14-1.74,10.28
		c-2.18,2.21-2.45,4.89-0.69,7.82c1.03,1.7,1.32,3.85,2.19,6.55c-2.01-0.34-2.92-0.49-3.84-0.65c-3.41-0.6-4.09,1.12-2.68,3.69
		c1.02,1.86,2.9,3.23,4.11,5.01c2.33,3.43,4.97,6.79,6.43,10.59c0.67,1.74-1.15,4.45-1.85,6.71c-1.62-0.78-3.23-1.6-4.88-2.33
		c-1.44-0.64-2.91-1.2-4.37-1.8c-0.35,1.66-1.3,3.46-0.94,4.94c1.84,7.63,4.25,15.13,5.93,22.79c0.57,2.59-0.39,5.52-0.66,8.29
		c-0.54,0.03-1.08,0.06-1.63,0.09c-1.86-2.57-3.72-5.15-5.57-7.72c-0.44,0.13-0.87,0.25-1.31,0.38c0.22,4.15,0.74,8.31,0.58,12.44
		c-0.15,3.98-1.01,7.94-1.55,11.91c-0.55,0.04-1.1,0.08-1.66,0.12c-1.3-1.91-2.6-3.82-4.74-6.97c-1.01,6.86-1.83,12.42-2.72,18.42
		c-2.23-0.71-3.58-1.13-5.96-1.89c0,4.3-0.39,8.35,0.1,12.29c0.53,4.23,1.04,8.17-3,12.33c-0.66-1.15-0.91-2.12-1.52-2.54
		c-1.26-0.86-2.72-1.43-4.09-2.12c-0.64,1.43-1.81,2.85-1.83,4.29c-0.17,9.38-0.1,18.76-0.1,28.14c0,19.43-0.02,38.86,0.01,58.29
		c0.01,5.45,1.51,6.88,6.66,5.31c10.18-3.11,20.19-6.77,30.34-9.98c2.99-0.95,6.21-1.32,9.36-1.62c5.4-0.52,10.28-1.63,14.71-5.4
		c4.12-3.5,10-5.05,13.74-8.82c6.64-6.69,13.94-13.16,16.66-22.87c0.55-1.97,1.91-3.71,2.91-5.59c5.57,3.33-3.93,9.55,4.55,11.13
		c-5.65,5.7-10.71,10.81-15.76,15.91c0.31,0.51,0.61,1.02,0.92,1.53c2.43,0,4.86,0,7.28,0c0,1,0.11,1.54-0.02,1.6
		c-7.34,3.62-12.32,9.55-17.7,15.6c-4.83,5.44-12.64,8.28-19.2,12.16c-3.57,2.11-7.3,3.97-10.91,6.03
		c-0.46,0.26-0.63,1.03-1.33,2.26c4.76,0.56,8.96,1.17,13.19,1.53c16.63,1.41,33.28,2.7,49.91,4.15c1.78,0.16,4.18,0.54,5.08,1.73
		c1.56,2.06,2.91,4.84,2.93,7.32c0.01,1.57-2.35,4.2-4.03,4.55c-9.14,1.93-18.34,3.85-27.62,4.75c-17.78,1.74-35.6,3.13-53.44,4.04
		c-15.85,0.81-31.75,1.08-47.63,1.06c-18.74-0.02-37.51-0.11-56.22-1.08c-21.84-1.13-43.62-3.22-65.43-4.99
		c-2.31-0.19-5.05-0.4-6.73-1.71c-1.96-1.53-3.89-4.19-4.09-6.51c-0.14-1.64,2.34-4.72,4.11-5.11c8.14-1.78,16.44-2.89,24.7-4.13
		c3.47-0.52,7.06-0.42,10.42-1.3c1.33-0.35,3.19-2.71,3.06-3.98c-1.86-18.22,2.92-34.6,12.87-49.75c2.29-3.49,3.68-7.59,6.13-10.93
		c4.3-5.88,8.81-11.67,13.77-17c8.18-8.79,16.86-17.11,25.19-25.76c6.57-6.82,13.52-13.39,19.19-20.9
		c4.25-5.63,7.02-12.46,9.94-18.98c2-4.47-3.49-5.22-5.17-7.91c-1.64-2.63-4.89-4.68-7.88-5.94c-2.83-1.2-6.22-1.21-9.38-1.44
		c-3.12-0.22-6.26-0.05-9.4-0.05C262.91,349.49,262.7,348.76,262.49,348.02z M263.14,457.81c-0.57-0.26-1.14-0.52-1.72-0.78
		c-0.64-1.75-1.29-3.5-2.28-6.21c-5.94,6.67-2.49,17.47-11.86,21.51c-0.4-1.83-0.71-3.28-1.12-5.18c-4.02,3.18-4.1,7.15-4.2,11.17
		c-0.17,7.1-2.14,8.95-9.07,8.2c-0.84,2.18-2.3,4.46-2.41,6.81c-0.07,1.5,1.52,3.88,2.95,4.47c2.38,0.99,5.23,1.16,7.88,1.17
		c18.84,0.1,37.69,0.09,56.53,0.09c6.52,0,6.97-0.43,6.97-6.75c0.02-24.12,0.02-48.24-0.01-72.36c0-1.7-0.32-3.4-0.49-5.1
		c-0.47-0.11-0.93-0.22-1.4-0.33c-0.94,1.58-1.8,3.22-2.84,4.73c-2.56,3.72-3.25,9.72-10.17,8.28c-0.67-0.14-1.93,1.23-2.48,2.16
		c-1.11,1.86-1.75,3.99-2.88,5.83c-2.08,3.38-3.6,7.47-8.96,8.47c0-1.91,0.24-3.24-0.06-4.43c-0.36-1.41-1.2-2.69-1.83-4.03
		c-1.11,1.09-2.78,2-3.23,3.32c-1.09,3.15-1.26,6.62-2.44,9.72C266.77,451.8,264.79,454.74,263.14,457.81z M224.56,139.17
		c1.41,3.33,1.86,5.68,3.23,7.16c0.88,0.95,4.23,1.31,4.59,0.74c2.64-4.15,5.5-8.4,6.93-13.03c1.4-4.53-3.06-7.81-6.86-4.98
		C229.02,131.61,226.94,135.98,224.56,139.17z"/>
</g>
</svg>
