<?xml version="1.0" encoding="utf-8"?>
<!-- Generator: Adobe Illustrator 25.3.1, SVG Export Plug-In . SVG Version: 6.00 Build 0)  -->
<svg version="1.1" id="Слой_1" xmlns="http://www.w3.org/2000/svg" xmlns:xlink="http://www.w3.org/1999/xlink" x="0px" y="0px"
	 viewBox="0 0 938 938" style="enable-background:new 0 0 938 938;" xml:space="preserve">
<style type="text/css">
	.st0{fill:url(#SVGID_1_);}
	.st1{fill:#FFFFFF;}
	.st2{fill:url(#SVGID_2_);}
	.st3{display:none;}
	.st4{display:inline;fill:url(#SVGID_3_);}
	.st5{display:inline;fill:url(#SVGID_4_);}
	.st6{fill:url(#SVGID_5_);}
	.st7{fill:url(#SVGID_6_);}
	.st8{fill:url(#SVGID_7_);}
	.st9{fill:url(#SVGID_8_);}
	.st10{fill:url(#SVGID_9_);}
	.st11{fill:#E273F9;}
	.st12{fill:url(#SVGID_10_);}
	.st13{fill:url(#SVGID_11_);}
	.st14{fill:url(#SVGID_12_);}
	.st15{fill:url(#SVGID_13_);}
	.st16{fill:url(#SVGID_14_);}
	.st17{fill:url(#SVGID_15_);}
	.st18{fill:url(#SVGID_16_);}
	.st19{fill:url(#SVGID_17_);}
	.st20{fill-rule:evenodd;clip-rule:evenodd;fill:#FFFFFF;}
	.st21{fill-rule:evenodd;clip-rule:evenodd;fill:#020203;}
	.st22{fill-rule:evenodd;clip-rule:evenodd;fill:#CF84BD;}
	.st23{fill:#020203;}
	.st24{fill:url(#SVGID_18_);}
	.st25{fill:url(#SVGID_19_);}
	.st26{fill:url(#SVGID_20_);}
</style>
<g id="Крупная_партия">
	<g id="Грунтовка_6_">
		<linearGradient id="SVGID_1_" gradientUnits="userSpaceOnUse" x1="469" y1="938" x2="469" y2="0">
			<stop  offset="6.089431e-02" style="stop-color:#45649A"/>
			<stop  offset="0.3076" style="stop-color:#77699F"/>
			<stop  offset="0.5421" style="stop-color:#A06DA3"/>
			<stop  offset="0.7268" style="stop-color:#B96FA6"/>
			<stop  offset="0.8387" style="stop-color:#C270A7"/>
		</linearGradient>
		<rect x="-0.2" class="st0" width="938.5" height="938"/>
	</g>
	<path class="st1" d="M633.9,560.2c-3.8-3.9-8-7.4-11.1-11.6c-4.9-7.2-5.9-7-11-0.3c-3.4,4.4-9.2,7.2-13.8,10.8
		c-2.6,2-4.9,4.3-6.9,6.7c-7,9.7-13.9,19.7-21,29.3c-1.1,1.1-2.6,2.1-4.1,2.8c-0.7-0.3-1.5-0.8-2.1-1.1c1-3,2-5.9,3-8.9
		c2.6-8.2,9-15.7,4.6-24.9c-1.1-2-3-3.3-5.1-3.9c-6.4-2.1-12.9-3.9-19.5-5.9c-4.4-1.3-7.7-1.3-11.1,3.3c-8,10.5-28.7,16.2-40,10.5
		c4.9-3,8.9-5.4,12.9-7.7c4.3-2.5,8.7-4.6,14.9-8c-4.4-2.5-6.9-4.3-9.7-5.2c-6.4-2.3-12.9-4.3-19.7-5.7c-2.3-0.5-5.2,1.1-7.5,2.3
		c-3.4,1.8-6.7,4.1-11.5,7.2c-0.3-4.8-0.7-8.4-1-12.9c-18.7,0-38.4-12-57.4,6.2v-11.8c-13.6-7-27.7-5.4-41.5-3.1
		c-5.2,0.8-10.2,4.6-14.9,7.5c-7.2,4.4-7.4,12-4.9,18.4c2.6,6.6,7.9,11.8,16.4,11.5c6.7-0.3,13.4-0.2,20.2,0.2
		c1.6,0.2,4.3,1.8,4.6,3.1c0,2-1.1,3.8-2.8,4.8c-16.2,7.5-44.6,6.4-52.8-14.6c-6.2-15.9-0.5-31.6,15.6-42.1
		c7.2-4.8,16.6-6.4,24.8-9.8c3.3-1.3,7-3.4,8.7-6.2c2.5-4.1,3.9-4.3,7-1c6.1,6.2,14.3,6.9,22.3,6.4c2.6-0.5,4.9-2.3,6.1-4.8
		c2-6.4,4.9-5.4,8.5-2c6.9,6.6,16.6,9.2,25.9,7c3-8,4.4-8.4,11.6-3.3c8.4,5.9,16.1,5.4,23.8-1c1.6-0.8,3.6-0.8,5.4,0
		c6.6,3.3,12.5,6.4,20,1.8c2.5-1.5,6.7-0.2,10.5-0.2c0.7-3.1,1.3-5.9,2.5-10.8l16.6,12c1.3-10.2,5.7-7.4,11-4.4
		c3.9,2.1,8.2,3.1,12.6,2.8c4.9-0.5,9.5-2.6,14.8-0.3c1.3,0.7,5.6-2.6,6.6-4.9c4.9-11,6.6-12.8,15.2-14.6c1-8,2-15.7,3.1-24.8
		c-2.5,0.7-5.1,1.1-7.5,1.3c-3.3,0.2-6.7-0.8-10-0.8c-2.6,0-5.7,0.3-7.7,1.8c-5.9,4.6-11,10.2-16.9,14.6c-6.2,4.8-13.8,2.3-16.2-4.9
		c-1.5-4.1-1.6-7.5,4.3-9.2c4.3-1.1,8-4.4,12.5-7.2c-5.7-5.4-15.6-1.8-17.7-10.5c7.2-1.8,13.8-3,20-5.1c5.1-1.6,5.2-5.1,1.8-9.2
		c-7.5-8.9-17.9-10.3-28.4-10.7c-5.1-0.2-6.6-2.5-6.7-6.7c-0.3-8.5,0.8-16.6,6.9-23.1c5.6-5.9,11.8-7,18.5-2.8
		c6.6,4.1,12.6,6.1,19-0.5c1.5-1.6,4.9-1.6,7.5-1.8c8.5-0.3,16.1-2.5,22.1-8.9c1.8-1.8,4.9-2.5,7.4-3.6c0.7,2.5,1.6,4.8,2.6,7
		c1,2.1,2.1,4.8,3.9,5.7c6.4,3.6,13.3,9.7,19.5,9.2c13.9-1.1,26.7,4.8,40.2,4.3c5.2-0.2,10.5-2,15.6-3.4c2.5-0.7,4.4-2.5,8-4.6
		c0.5,4.9,0.8,8.7,1,10.7c6.7,5.2,12.3,10,18.4,13.8c3.1,2,6.7,2.8,10.3,2.6c11.8-1,23.4-3.4,33.9,5.1c0.8,0.7,3.6-1.3,7.5-2.8
		c-12.3-4.8-21-9.3-22.8-23.3l25.9,5.1c6.2-8.2,11.5-14.9,16.9-22c-3.4-1.5-7-2.6-10.2-4.3c-1.6-0.8-4.1-2.8-3.9-4.1
		c0.5-2.1,1.6-4.3,3.4-5.6c2.1-1.8,5.1-2.8,7.2-4.6c1.5-1.1,2.5-2.8,2.8-4.6c0.8-4.3-10.7-22.8-14.9-24.3c-2.5-1-5.1-1.8-7.5-2.6
		c-4.8-1.3-5.6-5.1-2.8-7.9c6.4-6.6,3.4-13.6,2.1-20.5c-1-4.6-3.6-8.9-5.9-12.9c-5.6-10.8-14.3-13.4-25.2-8.2
		c-17.5,8.4-22.8,24.1-15.4,44.1c1.1,3.1-0.3,7.2-0.7,10.8c-3.4-1.1-8.2-1.3-10.3-3.6c-20.7-22.5-21.8-59.7,13.8-75.6
		c11.3-4.9,23.8-10.3,36.2-3.8c7.5,3.9,14.4,9.7,21.1,15.1c3,2.3,4.6,4.1,8.9,2.1c6.6-3,9.2-0.7,8,6.4c-1.5,8.5-1.5,15.9,4.9,23.3
		c3.8,4.4,5.7,6.6,10.7,2.6c1.1-1,3.4-0.5,5.4-0.8c3.6,11.5-3.6,24.3,4.8,34.1l12.3-2.6c-1.5,7.7-3,13.8-3.6,20
		c-1.1,10-0.7,10.3,9.2,10c6.6-0.2,7.4,1.5,5.1,8c-1.8,5.2-3.1,10.8-3.9,16.4c-1,5.4,3.3,8.5,8.7,6.7c2-0.7,3.8-1.6,5.9-2.6
		c4.4,7.7-3.4,10.7-5.1,15.6c10.8,2.8,11.1,3.1,5.6,12.6c-3.9,6.6-6.6,13.1-5.9,21c0.2,2.6-1.5,5.4-2.5,8c-2.5,6.1-5.2,12-7.2,18.2
		c-0.5,1.6,2,4.3,3.1,6.6c1.6,3.3,3.3,6.7,5.1,10l-2.1,1.5c-5.1-1.8-10.3-5.2-15.2-4.9c-5.1,0.3-9.8,4.4-15.4,7
		c-5.7,23.9-18,46.1-26.4,46.1c0-11.5-0.8-23.1,0.2-34.6c1.5-17.5-10.2-29.3-27.9-25.4c6.4,15.7,13.3,31.3,19.2,47.2
		c6.9,18.2,14.3,36.2,15.4,55.9c0.5,8.9,0.7,17.7,1.1,26.4c0.2,1.3,0.7,2.5,1.5,3.4c8.5,9.8,10.3,22.5,12.1,34.1
		c1.6,10.5-2.1,21.8-3.6,32.6c-1,8-9.3,14.8-3.4,24.1c1,1.5-2.1,5.2-2.6,8c-1.1,7.7,3.4,11.1,14.1,13.1
		c25.4,4.8,49.8,14.1,71.8,27.5c26.6,16.2,24.3,57.2-4.4,72.8c-26.2,14.3-54.3,21.8-83.4,26.1c-34.7,5.1-69.7,8.2-104.6,4.8
		c-28.8-2.6-57.5-6.7-86.1-12.3c-24.4-4.9-47.9-13.8-69-28.2c-27.4-18.7-26.7-59.7,7.5-74.4c11.1-4.8,22.6-8.7,33.8-13.1
		c0.8-0.3,2-0.3,2.1-0.8c4.6-8.2,12.3-10.5,20.8-13.8c7-2.8,12.6-3.3,18.4-0.8c8,3.4,14.1-0.2,21.3-2c8.7-2.1,11.5-8,14.3-15.2
		c2.8-7.2-1.6-10.5-6.6-12.3c-10.2-3.9-21-6.2-31.1-10.3c-7.9-3.1-7.9-12-8.4-18.5c-0.7-9.5,0.5-19,8.4-26.9
		c3.9-3.9,5.6-10.2,8.2-15.2c0.5-1,0.7-2.5,1.5-2.8c10.7-5.1,6.9-14.6,7-22.8c0-8,0-15.9,0-25.4c-8.5,9.3-11,21.6-19.7,29
		c-1-0.7-2-1.1-3-1.8C630.4,573.8,632.1,566.9,633.9,560.2c4.4-12.5,9.2-24.8,13.1-37.4c1-3-0.7-7-2.3-10.2c-0.3-0.8-5.1,0-7.4,1
		c-3,1.1-5.6,3-7.7,5.2c-1.6,2.1-3.1,6.4-2.1,8C634.7,537,633.4,548.7,633.9,560.2z M711.4,618c-4.1,2.8-8.2,5.6-12.1,8.7
		c-1.3,1-3.4,2.6-3.3,3.8c0.5,8.4,1.6,16.6,2.1,22c7,5.4,15.1,8.5,17.4,14.1c2.8,6.6,3.6,15.6-3.1,22.6c-3.8,4.1-5.9,9.7-8.7,14.8
		c23.8,1.3,47,2.6,70.2,3.9c1.1-10,5.2-19.2-2.3-28c-2.8-3.3-3.6-9.2-3.3-13.6c0.7-10.3,4.3-21-6.4-28.7c-0.2-0.2-0.2-0.5-0.2-0.8
		c-2.5-5.6-4.9-11.1-8.2-18.7c-2.5,3.4-3.6,5.1-4.8,6.7c-2.8,3.9-6.6,6.9-11.3,4.9C728.8,626.2,720.2,621.9,711.4,618z"/>
	<path class="st1" d="M287.1,196.8c0.7-0.5,1.5-0.7,1.8-1.1c7.9-12.1,19.7-20.2,31.3-27.9c7.9-5.2,17.2-8.4,25.9-12.1
		c8.7-3.6,15.6-9.5,17.9-18.4c2.8-10.8,3.8-22,5.4-33.1c0.5-4.8,1.1-9.7,2.3-14.3c1.6-6.1,5.2-10.7,12.1-12c2.6-0.7,5.1-1.8,7.2-3.3
		c8.7-4.8,16.1-2.3,22.5,7.5c3.9,6.1,1.8,15.1-4.4,20.2c-3.8,3.1-7.4,6.1-12.8,5.9c-3.4-0.2-3.6,3-3,5.1c2.3,7.9,0.7,15.7,0.7,23.4
		c0,11.6-4.4,22.6-12.5,31c-5.6,5.6-12.6,10-19.5,14.1c-12.9,7.7-24.4,17.5-33.8,29.5c-3.6,4.6-4.4,11.3-6.2,17.2
		c0,1.3,0.8,2.5,1.8,3c2,0.2,4.6,0.3,6.1-0.8c3.4-3,6.6-6.2,9.5-9.7c7.5-9.2,17.2-16.6,28.2-21.3c7.2-3.1,14.6-0.8,21.5,1.1
		c4.6,1.3,5.7-0.2,6.4-3.8c0.2-0.5,0.2-1,0.2-1.5c1-11.5,6.7-15.2,19-16.6c4.6-0.7,9.2,1.6,11.5,5.7c2.8,4.6,1.8,9.3-0.8,13.8
		c-4.3,6.9-8.4,13.9-12.9,20.7c-3,4.6-6.4,8.9-9.7,13.1c-1.6,2.1-2.6,4.4,0.5,5.7c3,1.1,7,4.6,9.2-0.3c5.7-13.3,18.2-15.7,29.8-18.4
		c9.8-2.1,19,9.5,16.4,19.3c-0.3,1.1-0.5,2.5-0.7,4.1c6.2-0.5,9.5-4.3,12.5-8.2c6.7-9,11.6-19,14.8-29.8
		c3.3-10.8,19.8-16.9,27.4-9.8c6.1,5.7,5.6,17.2-2,21.8c-10.2,6.2-14.8,15.4-19,26.1c-6.2,16.2-19.3,25.7-35.9,31
		c-12.3,3.9-25.2,5.7-38,5.1c-0.7,0-1.3,0.2-2,0.3c-0.3,0.2-0.5,0.3-0.8,0.7c0.2,0.5,0.2,1.1,0.5,1.3c10.8,8.4,21.1,17.7,32.9,24.6
		c4.8,2.8,12.8,1.5,18.8,0c4.9-1.1,9.2-5.2,13.3-8.5c1.8-1.5,2.8-3.8,2.8-6.2c-2-9.3,4.9-14.6,9.5-20.7c5.2-7.2,12-6.9,18.7-0.3
		c4.6,4.6,4.1,13.1-0.7,18.2c-3.6,3.6-6.6,7.7-9,12.3c-9,18.4-32.9,30.8-53.3,26.9c-5.9-1.3-11.6-3.1-17.2-5.4
		c-3.6-1.5-5.7-0.3-7.5,2.6c-2.1,3.1-1.6,5.6,1.3,7.9c3.8,2.5,7.4,5.2,10.8,8.2c1.8,1.8,3.6,5.2,3.1,7.2c-0.5,2-4.1,3.1-6.4,4.4
		c-1.6,0.7-3.1,1.1-4.8,1.6c2.8,2.3,4.9,3.8,6.7,5.6c1.1,1.5,2.3,3,3.3,4.6c-2,1.1-3.8,3-5.7,3.1c-3.8,0-7.7-0.3-11.5-0.8
		c-1.5,0-2.8,0.2-4.3,0.3c2.3,3.3,4.1,5.9,6.1,8.4c3.8,4.9,3,8-3.3,9c-3.3,0.5-6.2,0.8-7,4.8c0,0.3-0.7,0.7-1,1
		c-3.6,3-7.2,5.7-10.2,8.4c2.3,5.6,4.1,10.3,6.2,15.1c2,4.3,0.3,6.6-3.9,7c-3.8,0.5-4.1,2.1-3.3,5.4c1,3.9,1.1,8,1.8,12.1
		c0.3,1.3,1.1,2.6,2,3.8c3.6,5.2,7.4,10.3,10.5,15.7c0.7,2,0.3,4.1-1,5.6c-1.1,1-4.1,1-5.6,0.3c-4.4-2.1-8.4-4.8-12.6-7.2
		c-5.4-3.1-9.7-2-13.1,3.1c-7.4,10.3-14.1,21.3-22.3,30.8c-4.4,5.2-11.3,8.9-17.5,12.3c-7.2,4.1-14.9,7.4-20.5,13.9
		c-1.1,1.5-2.8,3.3-2.8,4.9c0.2,12.9,0.7,25.7,1.1,38.7c0,2.1,0.7,4.3,0.7,6.4c0.7,19.2,1.3,38.5,2.1,57.7c0.2,2.8-0.2,6.2,1.3,8.4
		c1.6,2.5,4.3,4.1,7.2,4.8c5.7,0.7,11.6,0.2,17.5,0.3c23.8,0.3,47.5,1.3,70.8,6.9c1.3,0.3,2.6,0.7,3.9,1c11.5,3.6,15.2,9.2,13.6,21
		c-1.1,8-7.7,11-14.1,12.6c-14.4,3.8-29,6.9-43.6,9.2c-17.5,2.5-35.2,4.1-52.9,5.1c-22.8,1.3-45.6,2.3-68.2,2
		c-20.8-0.3-42-0.3-62.5-5.6c-7.9-2-12.1-5.6-12.8-11.5c-1.3-12,1.6-19.8,10.2-22.1c16.1-4.4,32.5-8.4,48.8-11.3
		c14.6-2.6,29.5-3.6,44.3-5.2c4.4-0.5,6.7-2.8,6.6-7.2c-1-23.3-1.8-46.4-3-69.7c-0.3-7-0.3-14.1-1-21c-1-9.2-5.2-13.8-14.6-16.4
		c-11.5-3.3-22.9-6.9-34.4-10.3c-9-2.6-14.8-9.2-20.3-16.2c-2.8-3.6-5.6-7-8.4-10.7c-2-2.5-3.6-2.1-5.1,0.5
		c-0.5,0.8-0.8,1.8-1.5,2.6c-2.5,3.6-4.4,3.6-6.4-0.3c-1.5-2.8-2.6-2.8-4.9-1c-2.1,1.1-4.3,2-6.6,2.6c-0.8-2.1-1.3-4.3-1.6-6.6
		c-0.2-7.7,0-15.4,0-23.1c-6.9-2.8-8.2-5.2-5.7-13.3c1.1-3.9,1.8-6.6-3.6-7.2c-3.4-0.5-3.8-3.6-3.3-6.7c1.6-9.5,0.7-10.3-8.7-7.5
		c-6.4,1.8-8.4,0.3-6.7-6.1c0.7-3-0.2-3.9-3-4.3c-4.4-0.5-5.6-2.8-4.1-7c1-3.1,1.6-6.4,2.1-9.7c-3.1-0.2-6.4-0.2-9.5-0.3
		c-5.1-0.2-10.2,0.5-15.1-2.6c-1.6-1.1-5.1,0.5-7.7,0.5c-2.1-0.2-4.3-0.7-6.4-1.3c0.8-2,1.1-4.3,2.3-5.6
		c6.6-7.5,14.6-14.1,19.8-22.5c5.1-8.2,12.8-15.9,12.8-26.6c-0.2-3.4-0.5-7-1.1-10.5l-2-0.5c-2,2.6-4.1,5.2-6.1,8
		c-5.2,7.4-9.5,15.6-15.9,21.8c-5.4,5.2-13.1,8.4-20.2,11.6c-9,4.3-18.5,7.4-27.5,11.6c-7.9,3.8-17.4,2.5-22-4.4
		c-4.9-7.2-1.8-18.5,6.4-21.5c6.9-2.5,14.1-5.2,21.1-5.2c5.9,0,11.8-1.1,17.5-3c9-2.8,17.4-12.6,17.7-22.1c-0.2-1.3-1.1-2.3-2.3-3
		c-3-0.8-5.9-1.1-8.9-1.1c-10,0.8-18-3.4-26.4-8c-7-3.8-14.8-6.9-22.9-3.4c-2,0.8-3.6,2.3-4.6,4.3c-4.8,10.7-20,16.4-30,3.9
		c-4.8-6.1-4.3-15.9,1.6-20.8c6.2-5.2,14.1-8,22.1-7.9c5.1,0,10.2-2,15.2-2.8c10.3-2,20,1.1,29.3,4.9c15.2,6.2,30.7,4.4,42.5-6.4
		c-1.5-1.5-3-3-4.3-4.6c-1-1.8-2-3.6-2.6-5.6c1.8-0.7,3.8-1.8,5.6-1.6c6.9,0.3,13.6,1.5,20.5,1.5c5.6-0.2,11.3-1,16.7-2.1
		c3.1-0.7,2.5-3.1,0.5-4.4c-3.6-2.6-7.4-5.7-11.6-6.7c-11-2.8-22.3-4.4-33.4-6.7c-15.2-3.1-28.7-9.5-38-22.3
		c-4.4-6.2-8-12.9-12.1-19.5c-2.1-3.4-4.8-6.6-6.6-10c-2.5-5.1-2-11.1,1.3-15.7c2.8-4.4,7.9-6.9,12.9-6.2c1.6,0.2,3.3,0.7,4.8,1.3
		c7.5,3.8,12,12,10.5,20.5c-1,4.4,0.7,8.9,4.3,11.5c7.9,6.1,15.2,12.8,25.9,13.4c4.1,0.2,8.4-0.3,12.5-0.3c8.4,0,16.7,0,24.9,0
		c8.5,0,8.2,0,5.9-7.9c-5.4-17.4-3.9-36.1,3.9-52.3c4.8-10.3,12.8-18.7,23.1-23.6c1.6-1.1,2.6-2.8,2.8-4.8c-0.2-9.8-1.5-19.7-1-29.3
		c0.5-9.3-3-17.7-4.9-26.4c-0.8-3.9-2-8.4-1.1-12c2-8.2,4.1-16.7,12.8-21.1c6.4-3.1,12.5-1.5,17.4,2.6c4.8,3.8,8.7,8.9,6.6,15.7
		c-1.3,4.6-3.3,8.9-4.9,13.4c-0.8,1.5-1.1,3.1-1.1,4.8c1.8,13.9,3.9,27.9,5.7,41.6c0.5,3.4,1.8,3.9,4.6,2.5c2.5-1.3,5.1-2.6,7.5-3.9
		c3.1-1.8,4.1-4.3,3.1-8c-2.6-11,1.8-19.7,11.6-23.8c10.8-4.4,19.3,0.3,20.3,12.1c1.1,14.4-3.4,27-14.9,36.2
		c-5.4,4.3-11.8,7.4-17.9,11.1c-4.6,2.8-4.6,4.6,0.2,7.2c5.9,3.1,12,5.9,17.9,9c10.2,5.2,18.8,12.1,24.3,22.5
		C285.8,196,286.5,196.3,287.1,196.8z M211.1,228.1c0.5,17.9,11,28.4,24.6,35.9c5.7,3.3,10.8,1.3,12.6-5.2c0.7-3,1.6-5.7,3-8.5
		c3-6.6,1-11.8-3.9-16.1c-8.5-7.4-17.4-14.6-26.1-22c-2.3-2-4.1-1.6-5.1,1C214.2,217.9,212.7,223,211.1,228.1z"/>
</g>
</svg>
