<?xml version="1.0" encoding="utf-8"?>
<!-- Generator: Adobe Illustrator 25.3.1, SVG Export Plug-In . SVG Version: 6.00 Build 0)  -->
<svg version="1.1" id="Слой_1" xmlns="http://www.w3.org/2000/svg" xmlns:xlink="http://www.w3.org/1999/xlink" x="0px" y="0px"
	 viewBox="0 0 938 938" style="enable-background:new 0 0 938 938;" xml:space="preserve">
<style type="text/css">
	.st0{fill:url(#SVGID_1_);}
	.st1{fill:#FFFFFF;}
	.st2{fill:url(#SVGID_2_);}
	.st3{display:none;}
	.st4{display:inline;fill:url(#SVGID_3_);}
	.st5{display:inline;fill:url(#SVGID_4_);}
	.st6{fill:url(#SVGID_5_);}
	.st7{fill:url(#SVGID_6_);}
	.st8{fill:url(#SVGID_7_);}
	.st9{fill:url(#SVGID_8_);}
	.st10{fill:url(#SVGID_9_);}
	.st11{fill:#E273F9;}
	.st12{fill:url(#SVGID_10_);}
	.st13{fill:url(#SVGID_11_);}
	.st14{fill:url(#SVGID_12_);}
	.st15{fill:url(#SVGID_13_);}
	.st16{fill:url(#SVGID_14_);}
	.st17{fill:url(#SVGID_15_);}
	.st18{fill:url(#SVGID_16_);}
	.st19{fill:#FCFCFC;}
	.st20{fill:url(#SVGID_17_);}
	.st21{fill:url(#SVGID_18_);}
	.st22{fill-rule:evenodd;clip-rule:evenodd;fill:#FFFFFF;}
	.st23{fill-rule:evenodd;clip-rule:evenodd;fill:#020203;}
	.st24{fill-rule:evenodd;clip-rule:evenodd;fill:#CF84BD;}
	.st25{fill:#020203;}
	.st26{fill:url(#SVGID_19_);}
	.st27{fill:url(#SVGID_20_);}
	.st28{fill:url(#SVGID_21_);}
	.st29{fill:url(#SVGID_22_);}
</style>
<g id="Восстание_ГИГАНТЮР_2_">
	<linearGradient id="SVGID_1_" gradientUnits="userSpaceOnUse" x1="469" y1="940.0969" x2="469" y2="-2.0969">
		<stop  offset="6.089431e-02" style="stop-color:#45649A"/>
		<stop  offset="0.3076" style="stop-color:#77699F"/>
		<stop  offset="0.5421" style="stop-color:#A06DA3"/>
		<stop  offset="0.7268" style="stop-color:#B96FA6"/>
		<stop  offset="0.8387" style="stop-color:#C270A7"/>
	</linearGradient>
	<rect x="-2.3" y="-2.1" class="st0" width="942.7" height="942.2"/>
</g>
<g>
	<path class="st1" d="M471.4,96.3c187.9,0,239.1,125.3,239.1,200.2c0,112.9-42.7,160.4-171.8,231.6c-38.9,21.8-60.7,31.3-61.7,111
		h-66.4c-1.9-23.7-5.7-49.3-5.7-73.1c0-49.3,14.2-94.9,80.7-125.3C561.5,406.6,608,374.3,608,296.5c0-32.3-26.6-95.8-136.7-95.8
		c-86.4,0-129.1,35.1-177.5,85.4l-66.4-77.8C280.6,148.5,353.7,96.3,471.4,96.3z M445.8,728.3c31.3,0,56.9,25.6,56.9,56.9
		c0,31.3-25.6,55-56.9,55s-56-23.7-56-55C389.8,753.9,414.4,728.3,445.8,728.3z"/>
</g>
</svg>
