<svg xmlns="http://www.w3.org/2000/svg" xmlns:xlink="http://www.w3.org/1999/xlink" width="200mm" height="200mm" viewBox="0 0 566.9 566.9">
  <defs>
    <style>
      .cls-1 {
        isolation: isolate;
      }

      .cls-2 {
        fill: url(#Безымянный_градиент_44);
      }

      .cls-3, .cls-7 {
        fill: #010101;
      }

      .cls-3, .cls-4, .cls-5 {
        fill-rule: evenodd;
      }

      .cls-4, .cls-6, .cls-8 {
        fill: #fff;
      }

      .cls-5 {
        fill: #e94f1d;
      }

      .cls-8 {
        mix-blend-mode: overlay;
        opacity: 0.21;
      }
    </style>
    <radialGradient id="Безымянный_градиент_44" data-name="Безымянный градиент 44" cx="289.23" cy="291.94" r="353.87" gradientUnits="userSpaceOnUse">
      <stop offset="0.37" stop-color="#ffef26"/>
      <stop offset="0.42" stop-color="#fbd428"/>
      <stop offset="0.5" stop-color="#f4aa2c"/>
      <stop offset="0.59" stop-color="#ef892e"/>
      <stop offset="0.67" stop-color="#ec7230"/>
      <stop offset="0.74" stop-color="#ea6432"/>
      <stop offset="0.81" stop-color="#e95f32"/>
      <stop offset="1" stop-color="#e7441c"/>
    </radialGradient>
  </defs>
  <g class="cls-1">
    <g id="Слой_1" data-name="Слой 1">
      <g>
        <rect class="cls-2" x="-16.8" y="-104.1" width="612" height="792"/>
        <g>
          <path class="cls-3" d="M283.4,265.8a15.4,15.4,0,0,0,5.2-1.4c1.9-1.2,5.8-5.4,7.6-7.1,4.6-4.4,9.6-8.6,15.4-11.5,12.3-6.3,23.1-4.2,29.6-18.7,3.6-8.1,7.3-16.4,10.8-24.5,5-11.7,10.1-23.9,15.9-35.4,8-15.6,17.3-36.1,30.3-48.1s43.2-16.4,61.6-17.6a418.5,418.5,0,0,1,44.8-.6c6.8.2,13.8.5,20.7,1.1l13.9,1.1L531.9,115c-11.5,18.3-22.7,36.9-33.9,55.5-6.1,10.2-12.1,20.5-18,30.8-3.8,6.7-8.1,14-11.2,21-6.2,14.1-36.4,31.2-49.7,39-6.8,4-38.4,21.5-45.3,28.3,1.5,9.1-2.2,21.2-3.8,29.8-1.1,5.3-2.3,12.4-.9,17.7.9,3.7,3.8,7.5,6.1,10.4,3.8,4.7,8,9.1,11.6,13.9,6.1,8.1,10.3,16.7,10.5,27,.5,19-14.9,44.1-26.6,58.5l-10.5,12.7-1.1-4.1c-7.9,9.5-24.1,20.3-33.3,25.8l-13,7.9v-4.7c-3.6,1.6-7.5,3.1-10.8,4.4L286.5,495l-3.1,1.1-3-1.1-15.6-6.1c-3.3-1.3-7.2-2.8-10.8-4.4v4.7l-13-7.9c-9.2-5.5-25.3-16.3-33.2-25.8l-1.2,4.1-10.4-12.7c-11.8-14.4-27.2-39.5-26.7-58.5a42.7,42.7,0,0,1,5.9-20,76.6,76.6,0,0,1,4.6-7c3.7-4.8,7.8-9.2,11.6-13.9,2.4-2.9,5.2-6.7,6.2-10.4,1.3-5.3.1-12.4-.9-17.7-1.7-8.6-5.4-20.7-3.9-29.8-6.9-6.8-38.4-24.3-45.3-28.3-13.2-7.8-43.4-24.9-49.7-39-3.1-7-7.3-14.3-11.1-21-5.9-10.3-12-20.6-18.1-30.8C57.7,151.9,46.4,133.3,35,115l-7.3-11.9L41.5,102c6.9-.6,13.9-.9,20.8-1.1a416.7,416.7,0,0,1,44.7.6c18.4,1.2,47.7,4.6,61.7,17.6s19.7,30.8,27.6,46.4c5.8,11.4,9,25.6,17.1,37.6,4.9,7.2,7.5,18.3,12.3,24,12,13.9,16.9,16.7,29.6,18.7,6.4,1,10.7,7.1,15.4,11.5,1.8,1.7,5.6,5.9,7.6,7.1a13.4,13.4,0,0,0,5.1,1.4Z"/>
          <g>
            <path class="cls-4" d="M283.3,264.8a15.4,15.4,0,0,0,5.3-1.4c2-1.3,5.9-5.6,7.8-7.4,4.7-4.5,9.8-8.8,15.7-11.8,12.7-6.5,22.6-6.1,29.2-21.1,3.7-8.2,7-16.7,10.6-25,5.1-12.1,10.5-24.2,16.5-36,8.1-16,19.2-36,32.4-48.3S445.1,97,463.9,95.7c15.3-1.1,30.6-1.1,45.9-.7,7,.3,14.2.6,21.2,1.2l14.2,1.2-7.5,12.2q-17.6,28.3-34.6,57.1c-6.3,10.5-12.5,21.1-18.5,31.8-3.9,6.8-8.2,14.3-11.5,21.6-6.3,14.5-37.3,32.1-50.8,40.1-7,4.1-39.3,22.1-46.4,29.1,1.5,9.4-2.3,21.9-4,30.7-1,5.4-2.2,12.7-.8,18.2.9,3.8,3.8,7.7,6.2,10.7,3.9,4.9,8.2,9.4,11.9,14.4,6.2,8.3,10.5,17.2,10.7,27.8.6,19.5-15.2,45.3-27.2,60.1L362,464.3l-1.2-4.1c-8.1,9.7-24.6,20.8-34.1,26.5l-13.3,8v-4.8c-3.7,1.7-7.6,3.2-11,4.5q-7.9,3.3-15.9,6.3l-3.2,1.2-3.1-1.2q-7.9-3-15.9-6.3c-3.4-1.3-7.4-2.8-11-4.5v4.8l-13.4-8c-9.4-5.7-25.9-16.8-34-26.5l-1.2,4.1L194,451.2c-12.1-14.8-27.8-40.6-27.3-60.1a43,43,0,0,1,6.1-20.7,62.2,62.2,0,0,1,4.7-7.1c3.7-5,8-9.5,11.8-14.4,2.5-3,5.4-6.9,6.3-10.7,1.4-5.5.2-12.8-.9-18.2-1.7-8.8-5.4-21.3-3.9-30.7-7.1-7-39.4-25-46.4-29.1-13.6-8-44.5-25.6-50.9-40.1a233.4,233.4,0,0,0-11.4-21.6c-6.1-10.7-12.2-21.3-18.5-31.8Q46.5,137.9,29,109.6L21.5,97.4l14.2-1.2c7-.6,14.2-.9,21.2-1.2,15.2-.4,30.6-.4,45.8.7,18.9,1.3,48.8,4.7,63.2,18.1s24.3,32.3,32.4,48.3c5.9,11.8,11.3,23.9,16.5,36,3.5,8.3,6.9,16.8,10.5,25,6.6,15,16.5,14.6,29.2,21.1,5.9,3,11,7.3,15.8,11.8,1.8,1.8,5.8,6.1,7.8,7.4a13.4,13.4,0,0,0,5.2,1.4Zm0,227.7s-25.8-9.9-30.5-12.5a33.2,33.2,0,0,1-8.3-7.3v6.5s-27.3-16.5-33.8-27.3-6.9-17.1-6.9-17.1l-3,10.9s-25.9-31.8-25.3-54.4,24.5-34.5,28.6-51-8-40.5-4.2-51.6-88.8-50.4-98.4-72.2S36.4,104.9,36.4,104.9s98.2-8.2,123.5,15.3,49.2,87.9,57.4,106.5,22.6,19.9,33.2,25.3,18.7,16.4,23.2,19a22.5,22.5,0,0,0,9.6,2.5,22.2,22.2,0,0,0,9.6-2.5c4.6-2.6,12.6-13.5,23.2-19s25-6.7,33.2-25.3,32.2-82.9,57.5-106.5,123.4-15.3,123.4-15.3-55.4,89.9-65.1,111.6S363,277.7,366.8,288.7s-8.4,35.1-4.3,51.6,28.1,28.4,28.7,51-25.3,54.4-25.3,54.4l-3.1-10.9s-.3,6.3-6.8,17.1-33.8,27.3-33.8,27.3v-6.5a33.2,33.2,0,0,1-8.3,7.3c-4.8,2.6-30.6,12.5-30.6,12.5Z"/>
            <path class="cls-4" d="M283.3,439.1V407.7c-7.2.7-18.6,2.3-21.4,6s12.2,17.6,21.4,25.4Z"/>
            <path class="cls-4" d="M283.3,401.1v-10c-26.5-9.8-30.1-34.4-53.6-2.6l7.3-3.8c-3.5,6.3-3.2,14.2-1.7,21.1l10.6-8.9c-4.1,10.6-2.3,15.8,2.2,25.9,5.9-15.3,20-16.9,35.2-21.7Z"/>
            <path class="cls-4" d="M216.3,288.9s7-5.5,12.3,4.6,20.5,26.9,20.5,26.9-7.1,9.1-16.4,8.9-16.4-18-16.4-18,9.3,25.5,23.3,22.5a22.2,22.2,0,0,0,16.9-15.7s-17.4-23.1-26.8-29.7c-6.1-4.3-9.9-2.8-11.8-1.2l-1.6,1.7Z"/>
            <path class="cls-5" d="M237.7,320.8c-2.9.3-6.5-5.6-6.9-8.6-2-12.2,14.2,7.8,6.9,8.6Z"/>
            <path class="cls-4" d="M147.7,134.7c-28.9-17.8-83.3-14.2-83.3-14.2s20.6,25.4,45.3,72.4,90.5,76.4,90.5,76.4-36.4-25.9-52.5-54.1-1.8-38.6-13.9-48.2-32.2-27.6-32.2-27.6,45.5-8.5,60.3,27,15.7,61.3,28.8,72.9S225.6,262,225.6,262c-30.7-34.2-43.1-106-77.9-127.3Z"/>
            <path class="cls-4" d="M112.2,122.9a244,244,0,0,0-47.8-2.4s20.6,25.4,45.3,72.4c7.1,13.5,17.6,25.6,29,35.9-11.3-17.3-23.1-36.5-26.5-46.6-7.2-21.3-38.5-56.4-38.5-56.4Z"/>
            <path class="cls-4" d="M380.7,385.1c-5.3-18.5-23.2-24.4-30.4-37s-.7-34.1-.1-36.5c-.9,2.1-7.6,17.6-16.2,17.7s-16.4-8.9-16.4-8.9,15.2-16.9,20.5-26.9,11.3-5.2,12.1-4.6-6.8-8.5-15.9-8.7-12.2,7.4-12.2,7.4c3.4-14.4,3.4-18.6,18.2-14.4,0,0-7.9-10.6-18.1-8.5-6,1.3-25.3,17.4-38.9,22.7-13.6-5.3-32.9-21.4-38.9-22.7-10.2-2.1-17.9,8.5-17.9,8.5,14.8-4.2,14.6,0,18.1,14.4,0,0-2.7-7.5-12.2-7.4s-15.3,7.8-16,8.7c.9-.6,7.2-4.8,12.1,4.6s20.6,26.9,20.6,26.9-7.1,9.1-16.4,8.9-15.3-15.6-16.3-17.7c.7,2.4,6.7,24.7,0,36.5s-25.1,18.5-30.5,37,16.7,41,16.7,41l6.3-16.2s-.9,17.7,8.2,33.1,29.8,23,29.8,23l-6.1-15.7s13.9,15.6,24.9,21.3,17.6,6,17.6,6,6.7-.3,17.7-6,24.8-21.3,24.8-21.3l-6,15.7s20.6-7.7,29.8-23,8.2-33.1,8.2-33.1l6.3,16.2S386,403.6,380.7,385.1Zm-40.8,15.5-4-8a40.2,40.2,0,0,1,.9,13.9,28.6,28.6,0,0,1-4.4,11.8L327,406a32.8,32.8,0,0,1-2.7,13.9,22.6,22.6,0,0,1-8.5,9.7l-1.9-5.4a85.9,85.9,0,0,1-8.4,11.2,64.9,64.9,0,0,1-22.2,16.7,65.7,65.7,0,0,1-22.1-16.7,77.4,77.4,0,0,1-8.4-11.2l-1.9,5.4a22.5,22.5,0,0,1-8.6-9.7,31.9,31.9,0,0,1-2.6-13.9l-5.5,12.3a30.3,30.3,0,0,1-4.4-11.8,39.3,39.3,0,0,1,1-13.9l-4,8c-6.1-15.1,9.7-27.5,22.3-34.2-3.8-5.9-3.9-11.7,3.3-15.7-5.6,15.3,17.4,18.7,30.9,19.9,13.6-1.2,36.6-4.6,31-19.9,7.1,4,7.1,9.8,3.3,15.7C330.2,373.1,345.9,385.5,339.9,400.6Z"/>
            <path class="cls-4" d="M350.3,288.9s-6.9-5.5-12.2,4.6-20.5,26.9-20.5,26.9,7,9.1,16.4,8.9,16.3-18,16.3-18-9.2,25.5-23.2,22.5a22.2,22.2,0,0,1-16.9-15.7S327.5,295,337,288.4c6-4.3,9.8-2.8,11.8-1.2a15.2,15.2,0,0,1,1.5,1.7Z"/>
            <path class="cls-5" d="M329,320.8c2.9.3,6.5-5.6,6.9-8.6,2-12.2-14.3,7.8-6.9,8.6Z"/>
            <path class="cls-4" d="M419,134.7c28.9-17.8,83.3-14.2,83.3-14.2s-20.7,25.4-45.3,72.4-90.5,76.4-90.5,76.4,36.3-25.9,52.4-54.1,1.9-38.6,13.9-48.2S465,139.4,465,139.4s-45.4-8.5-60.2,27-15.7,61.3-28.8,72.9S341.1,262,341.1,262c30.7-34.2,43.1-106,77.9-127.3Z"/>
            <path class="cls-4" d="M454.5,122.9a244,244,0,0,1,47.8-2.4s-20.7,25.4-45.3,72.4c-7.1,13.5-17.6,25.6-29,35.9,11.3-17.3,23-36.5,26.5-46.6,7.2-21.3,38.5-56.4,38.5-56.4Z"/>
            <path class="cls-4" d="M283.3,401.1v-10c26.5-9.8,30.1-34.4,53.6-2.6l-7.3-3.8c3.6,6.3,3.2,14.2,1.8,21.1l-10.7-8.9c4.1,10.6,2.4,15.8-2.2,25.9-5.8-15.3-19.9-16.9-35.2-21.7Z"/>
            <path class="cls-4" d="M283.3,439.1V407.7c7.3.7,18.7,2.3,21.4,6s-12.2,17.6-21.4,25.4Z"/>
          </g>
          <g>
            <g>
              <path class="cls-6" d="M299.3,233.1s-.7,18.1-11.8,25.1-20.8,15.2-22.6,19.4-3.6,14.4-3.5,17.6c.4,15.6,3.5,10.8,19.5,11s23.6-7.1,24.5-22S302.9,238.6,299.3,233.1Z"/>
              <path class="cls-6" d="M296.6,200.3c.4-2.7,3.9,8.1,3,28s-7.3,27.5-12.8,30.8-14.7,9.1-18.3,13.9-4.9,12.3-5.4,11-4.1-18.7.7-35.4,10.1-20.7,16.8-24.5S295.2,210.7,296.6,200.3Z"/>
              <path class="cls-6" d="M294.4,165.8c.2-2.5,3.6,9.5,2.8,27s-7.7,25.5-12.5,28.4-11.5,7.6-14.6,11.9-4.6,11.8-5,10.6-3.4-18.5.8-33.2,8.8-18.1,14.7-21.4S292.6,182.6,294.4,165.8Z"/>
              <path class="cls-6" d="M291.6,143.9c.3-1.9,3.5,5.7,2.8,19.6s-5.8,20.8-9.7,23.1-10.5,6.8-13,10.2-3.2,6.6-3.5,5.7-3.7-13.7-.3-25.4,8.6-13.6,13.3-16.2S290.6,151.2,291.6,143.9Z"/>
              <path class="cls-6" d="M289.7,119.6s3.1,13.4,1.9,22.5-4.8,15.1-8.7,18.5-7.8,4.3-11,8.6c-1.8,2.5-4,8.3-4,4.6s1.9-25.1,5.6-29.4S287.8,132.2,289.7,119.6Z"/>
              <path class="cls-6" d="M285.9,96.5s4.6,17.4,3.8,23.1c-1.5,11.7-8.4,16.3-12.5,21s-5.9,8.7-6-1c0-7.8,3.6-19.1,6.7-33.9C280.3,93.9,281.8,84.7,285.9,96.5Z"/>
              <g>
                <path class="cls-7" d="M306.7,276.5c-.1-3.3-.3-6.5-.6-9.7-.5-6.3-1.3-12.5-2.3-18.4-.2-1.5-.5-2.9-.8-4.3s-.6-2.9-1-4.2a11.7,11.7,0,0,0-.6-2l-.6-1.9a8.7,8.7,0,0,0-.7-1.7h0c0-.5.1-1,.1-1.6a153.7,153.7,0,0,0-.3-18c-.3-2.9-.6-5.7-1.1-8.5-.3-1.3-.5-2.6-.9-3.9s-.3-1-.4-1.5a49.1,49.1,0,0,0,.4-5.5,108.9,108.9,0,0,0-.5-16.3c-.3-2.6-.7-5.2-1.1-7.6s-.5-2.4-.8-3.6a5.7,5.7,0,0,0-.4-1.4,68.8,68.8,0,0,0-.6-13,48.3,48.3,0,0,0-1-5.9c-.3-.9-.5-1.8-.8-2.6a1.4,1.4,0,0,1-.2-.6c.1-.9.2-2,.3-3.1a42.3,42.3,0,0,0-.1-6.2,49.8,49.8,0,0,0-.6-5.7c-.3-1.8-.7-3.5-1-5.2a19.4,19.4,0,0,1-.5-2,2.2,2.2,0,0,1,.1-.8,31.1,31.1,0,0,0,.2-3.4,34.2,34.2,0,0,0-.7-5.3c-.6-3.1-1.4-5.7-2.1-8.4s-1.5-5.2-2.2-8l-.6-1.8c-.2-.6-.5-1.1-.7-1.7a5.2,5.2,0,0,0-1.8-2.6c-.7-.5-1.6.3-2.2,1.3a20.4,20.4,0,0,0-1.5,3.7c-.9,2.6-1.6,5.3-2.3,8l-1.9,8.1c-1.3,5.4-2.6,10.9-3.7,17-.2,1.5-.5,3-.7,4.7a45.8,45.8,0,0,0-.4,5.5v2.8c.1.9.2,1.7.3,2.8l.3,1.4a5.6,5.6,0,0,0-.4,1.2,73.7,73.7,0,0,0-2.2,10.8c-.5,3.6-.9,7.3-1.1,11.1-.1,1-.1,2-.1,2.9a8.6,8.6,0,0,0-.1,1.6v.9a2.5,2.5,0,0,0,.1.8,43.5,43.5,0,0,0-1.3,5.7,55.5,55.5,0,0,0-.5,7.2,53.7,53.7,0,0,0,.4,7,58.9,58.9,0,0,0,1.1,6.3l.3,1c-.7,1.9-1.4,3.9-2,5.9s-.6,2.5-.9,3.7-.5,2.6-.7,4a76.6,76.6,0,0,0-.8,8.5c-.1,2.8-.1,5.7,0,8.5s.5,5.6.9,8.2l.3,2v.3c-.3.9-.5,1.7-.8,2.5a76.7,76.7,0,0,0-1.9,8.2,90.5,90.5,0,0,0-.8,18.8,85.1,85.1,0,0,0,1.1,9c.1.7.3,1.4.4,2.1l.3,1.1a.9.9,0,0,0,.1.5c-.2.8-.3,1.7-.5,2.5s-.5,3-.6,4.6a19.5,19.5,0,0,0-.2,2.5,22.5,22.5,0,0,0,0,2.6,39.1,39.1,0,0,0,.5,4.8,9,9,0,0,0,1.4,4.1,4.2,4.2,0,0,0,1.9,1.7l1.9.6,3.9.3,7.5.4a48.3,48.3,0,0,0,7.6.3,25.9,25.9,0,0,0,7.7-1.3,23.3,23.3,0,0,0,3.9-1.9l1.9-1.5c.6-.6,1.3-1.2,1.9-1.9a29.1,29.1,0,0,0,3.5-6.2,40.3,40.3,0,0,0,2-9.9A90.2,90.2,0,0,0,306.7,276.5ZM292.5,145.3a18.3,18.3,0,0,1,.6,2.5,55.9,55.9,0,0,1,.8,5.9,64.3,64.3,0,0,1-.5,11.7c-1,7.2-3.3,12.2-6.1,15.9l-2.1,2.5h-.3c-1.9,1.1-3.9,1.7-5.9,2.7a19.1,19.1,0,0,0-6.4,4.8,36.9,36.9,0,0,0-4.4,7l-.6-5.2a44.9,44.9,0,0,1,.5-10.5,32.8,32.8,0,0,1,1.1-4.5,35.2,35.2,0,0,1,1.6-3.9,19.3,19.3,0,0,1,3.9-5.5c2.3-2.3,4.8-3.4,7.4-5.7h.2a14.9,14.9,0,0,0,4.4-3.8,24.6,24.6,0,0,0,3.8-7.1,39.8,39.8,0,0,0,1.8-7.2Zm-20.3-4.6a12.7,12.7,0,0,1,.1-2,56.3,56.3,0,0,1,1.3-7.7c1.2-5.3,2.6-10.6,3.9-16.2.6-2.8,1.2-5.8,1.7-8.7s.9-5.9,1.4-8.7a28.7,28.7,0,0,1,.9-3.7c.3-1.1.7-1.8,1.2-1.9s1.1.8,1.6,1.6a10.2,10.2,0,0,1,.8,1.5l.6,1.6a95.8,95.8,0,0,1,2.8,17.4,28,28,0,0,1,.1,4,.8.8,0,0,1,0,.5,5.6,5.6,0,0,0-.1.7c-.2.6-.2,1.2-.4,1.7a29.4,29.4,0,0,1-2.2,6.1,10.9,10.9,0,0,1-.8,1.5l-2.4,3c-2.7,2.9-5.4,5.2-8.2,7.8l-1.1,1.1-.5.6a7,7,0,0,0-.6.9h-.1Zm-1.6,18.9a56.2,56.2,0,0,1,2-8.7l.6-1.6a6.7,6.7,0,0,1,.6-1.2l.3-.5.5-.5,1-1a69.3,69.3,0,0,0,8.1-9.8l.7-1.3a20.5,20.5,0,0,0,2.9-3.4,24.2,24.2,0,0,0,2.8-7.3c0,.2.1.4.1.6.2,1.8.3,3.6.4,5.3a55,55,0,0,1,.1,9.9,18.6,18.6,0,0,1-.8,4.1,21.1,21.1,0,0,1-1.2,3.8,54.6,54.6,0,0,1-3.2,6.4l-1.2,1.7-.8.6a9.7,9.7,0,0,1-2.3,1.1l-2.5,1a17,17,0,0,0-5,3.1,21.1,21.1,0,0,0-4.3,6C269.7,165.1,270.1,162.3,270.6,159.6Zm-5.8,72.3c-.1-2.5,0-4.9.1-7.3s.4-4.6.8-6.7l.6-3.1c.3-1,.5-2,.9-3s1.2-3.8,1.9-5.5a28.6,28.6,0,0,1,4.8-8.2c3.4-4.2,7.4-5.7,11.4-9.5l.4-.2a10.7,10.7,0,0,0,2.6-1.9,22,22,0,0,0,4.5-7.6,43.5,43.5,0,0,0,2.2-11.7l.3.9c.2,1.1.5,2.3.6,3.5s.6,5,.8,7.6.1,5.2,0,7.7-.2,5.2-.5,7.5a47.7,47.7,0,0,1-2.9,12.1,31.9,31.9,0,0,1-4.8,8.4,24.3,24.3,0,0,1-2.6,2.9l-.7.6-3.3,2-3.5,1.6a28.4,28.4,0,0,0-3.5,2.2,33.3,33.3,0,0,0-3.4,3.2,37.1,37.1,0,0,0-6.1,10.9,1.4,1.4,0,0,0-.2.6A54.8,54.8,0,0,1,264.8,231.9Zm-1.7,47.8c-.3-2.6-.5-5.3-.6-8a77.7,77.7,0,0,1,1-15.5c.5-2.3,1-4.5,1.7-6.7s1.5-4.2,2.2-6.2a39.2,39.2,0,0,1,5.3-9.2,29.9,29.9,0,0,1,6.4-5.6l1.6-1.2,1.8-1.3a24.7,24.7,0,0,0,2.8-2.8,3.3,3.3,0,0,0,1-.6,12.1,12.1,0,0,0,3.2-2.5c2.1-2,4-5.2,5.6-9.4a44.2,44.2,0,0,0,2.3-9.2l.3,1.1a22.6,22.6,0,0,1,.7,3.9,74.8,74.8,0,0,1,.8,8.4c.1,2.9,0,5.7-.1,8.6s-.1,2.8-.2,4.2-.3,2.7-.4,4a56.5,56.5,0,0,1-3.3,13.6,30.2,30.2,0,0,1-5,8.2l-1.8,1.4-3.7,2.2-3.7,2.3a89.7,89.7,0,0,0-7.2,5.7,66.8,66.8,0,0,0-7.1,7.7,8.3,8.3,0,0,1-.8,1.2l-.9,1.3a3.6,3.6,0,0,1-.4.9l-.4.9-.6,2-.3,1.4C263.2,280.2,263.2,279.9,263.1,279.7Zm7.3,25.3-3.7.5c-1.2,0-2.5,0-3.5-1.3s-1.3-4.2-1.4-7.2a16.2,16.2,0,0,1-.1-2.1,14.9,14.9,0,0,1,.2-2.1l.6-4.3.5-2h.3l.2-.2h.2a1.6,1.6,0,0,1,.3-.6l.4-1,.5-1.8a40.9,40.9,0,0,1,2.9-6.9,62.1,62.1,0,0,1,6.7-5.3l7.2-5.3,3.6-2.6,1.3-.9.5-.2a16.1,16.1,0,0,0,3.5-2.3,19.4,19.4,0,0,0,3.4-3.9,26.1,26.1,0,0,0,2.9-5.8,51.5,51.5,0,0,0,3-14.1l.5,1.4.4,2a15.5,15.5,0,0,1,.4,2.1c.5,2.8.9,5.7,1.3,8.6.7,6,1.8,12,1.5,18.1C302.8,292.3,272.9,304.5,270.4,305Z"/>
                <path class="cls-7" d="M283.9,312.6l-4.8-.2-8.8-.6a29.7,29.7,0,0,1-4.2-.3,9.4,9.4,0,0,1-2.7-.9,6.6,6.6,0,0,1-3.2-2.7,14.2,14.2,0,0,1-1.9-5.3,45.5,45.5,0,0,1-.4-5.2c-.1-1.2-.1-1.9-.1-2.7a24.8,24.8,0,0,1,.2-2.9c.2-1.6.4-3.2.7-4.7l.4-1.9-.3-1-.3-1.7a70.8,70.8,0,0,1-1.3-9.9,90.5,90.5,0,0,1,.9-19.5,78.5,78.5,0,0,1,2-8.6c.2-.6.3-1.2.5-1.8l-.3-1.6a78.9,78.9,0,0,1-.8-8.5,84.4,84.4,0,0,1-.1-8.8,86.5,86.5,0,0,1,.8-8.9c.3-1.4.5-2.8.8-4.1l.3-1.4c.3-.9.5-1.8.7-2.6s1.1-3.4,1.7-5.1v-.2a61.8,61.8,0,0,1-1.2-6.7c-.2-2.2-.4-4.7-.4-7.3a57.4,57.4,0,0,1,.6-7.6,43.9,43.9,0,0,1,1.2-5.7v-6c.2-3.6.6-7.3,1.2-11.4a84.3,84.3,0,0,1,2.2-11.2c.1-.1.1-.3.2-.5a2.8,2.8,0,0,1-.1-.9c-.2-1-.2-1.9-.3-2.8s-.1-2.1-.1-3.2a49.3,49.3,0,0,1,.4-5.7c.2-1.6.5-3.1.7-4.6,1.3-6.7,2.6-12.4,3.8-17.5l1.9-8.1a78.8,78.8,0,0,1,2.4-8.3,19.7,19.7,0,0,1,1.8-4.3,5.9,5.9,0,0,1,3.3-2.8,4.3,4.3,0,0,1,3.1.4,8.1,8.1,0,0,1,2.8,3.6l.5,1.2.5,1.2.6,1.8,2.2,8.2.4,1.4a68.8,68.8,0,0,1,1.8,7.2v.7a23.8,23.8,0,0,1,.6,5.1,24.2,24.2,0,0,1-.2,4c.1.3.2,1,.4,1.6s.7,3.6,1,5.4.5,3.9.7,6,.2,4.4.1,6.6l-.3,2.5.9,2.8c.4,2,.8,4.1,1.1,6.2a96.5,96.5,0,0,1,.6,13l.3,1.2c.3,1.2.6,2.4.8,3.7s.8,5.2,1.1,7.8a123.7,123.7,0,0,1,.6,16.8,43.8,43.8,0,0,1-.4,5.1l.3,1a25.9,25.9,0,0,1,.9,4.2c.5,2.8.8,5.8,1.1,8.8a144.3,144.3,0,0,1,.4,18.4v.8c.2.4.3.9.5,1.3l.7,2a8.3,8.3,0,0,0,.4,1.5l.2.7c.2.9.5,2,.7,3l.5,2.3.6,3.5c1.1,5.9,1.8,12.2,2.4,18.7.2,3.2.5,6.5.6,9.8h0c0,3.4.1,6.8-.2,10.6a37.5,37.5,0,0,1-2.3,10.7,25.5,25.5,0,0,1-3.9,7.1,24.9,24.9,0,0,1-2.3,2.3l-.7.6-1.7,1.2a20.1,20.1,0,0,1-4.4,2.2,31.8,31.8,0,0,1-8.5,1.5Zm-7.8-6.5,3.5.2a37.7,37.7,0,0,0,5.8.1,25.3,25.3,0,0,0,6.9-1.1,13.7,13.7,0,0,0,3.2-1.6l1-.7.7-.6,1.4-1.5a19.9,19.9,0,0,0,3-5.4,37.5,37.5,0,0,0,1.9-9c.1-1.9.2-3.7.2-5.4C297.4,294.2,283.8,302.5,276.1,306.1Zm-10.4-17.6v.6c-.3,1.3-.5,2.7-.7,4.1a10.9,10.9,0,0,0-.1,1.8,6.5,6.5,0,0,0,0,1.4c.2,4.7.7,5.7.8,5.9h1a18.7,18.7,0,0,0,3.2-.4c.8-.3,30-11.1,31.1-34.4a79,79,0,0,0-1-13.7l-.3-2.7a28.1,28.1,0,0,1-3.1,6,21.1,21.1,0,0,1-3.9,4.5,22,22,0,0,1-4.3,2.7l-4.8,3.4-8,5.8c-1.8,1.4-3.5,2.7-5.2,4.2a31.2,31.2,0,0,0-2.4,6l-.6,1.7-.5,1.3a6,6,0,0,1-.6,1.1Zm21.5-62.8a23.7,23.7,0,0,1-2.8,2.7l-1.3,1-2.3,1.6a25.8,25.8,0,0,0-5.6,5,28.9,28.9,0,0,0-4.9,8.5,45.3,45.3,0,0,0-2.1,5.9c-.7,2.1-1.2,4.2-1.7,6.4a72.3,72.3,0,0,0-1,12.6,56.9,56.9,0,0,1,6.2-6.5,58.7,58.7,0,0,1,7.6-6l5.2-3.3,2.1-1.2,1.6-1.2a28.2,28.2,0,0,0,4.1-7.1,48,48,0,0,0,3.1-12.8v-1l.3-2.9c.1-1.3.2-2.7.2-4.1s.2-4.8.1-7.3a28,28,0,0,1-4.4,6.3,17.9,17.9,0,0,1-3.8,3Zm-.2-34.5a42.2,42.2,0,0,1-5.1,4,23.6,23.6,0,0,0-9.9,12.3,51.9,51.9,0,0,0-1.9,5.2c-.2.7-.3,1.2-.5,1.8l-.3,1.1c-.2.8-.4,1.8-.6,2.8a61.7,61.7,0,0,0-.7,6.5,15.5,15.5,0,0,0-.1,2.2,10.9,10.9,0,0,1,1.3-1.7,33.2,33.2,0,0,1,3.9-3.7,24.9,24.9,0,0,1,4-2.4l3.4-1.7,2.9-1.8a14,14,0,0,0,2.7-2.8,29.9,29.9,0,0,0,4.4-7.7,46.6,46.6,0,0,0,2.7-11.3c.2-2.2.4-4.8.4-7.2a20.9,20.9,0,0,0,.1-2.5,21.7,21.7,0,0,1-3.2,4.4,20.5,20.5,0,0,1-3.3,2.5Zm3.8-32.6a13,13,0,0,1-1.7,2.6,17.9,17.9,0,0,1-5.4,4.6,20,20,0,0,1-3.4,2.5,18.4,18.4,0,0,0-3.4,2.7,17.2,17.2,0,0,0-3.4,4.7,31.7,31.7,0,0,0-1.4,3.5,30.6,30.6,0,0,0-1,4.1,33.9,33.9,0,0,0-.5,5.8,24.5,24.5,0,0,1,7-5.3l3.1-1.3,2.4-1.1,1.8-2c2.8-3.7,4.6-8.4,5.4-14.4A44.8,44.8,0,0,0,290.8,158.6Zm-3.9-21.7-.6,1a68.6,68.6,0,0,1-8.5,10.3l-1.9,2.5-.4,1.1a57.8,57.8,0,0,0-1.5,6,25.9,25.9,0,0,1,3.5-1.9l1.9-.7.7-.2,1.8-.9.2-.2.8-1.1a40.2,40.2,0,0,0,2.9-5.9,19.3,19.3,0,0,0,1.1-3.4,22.9,22.9,0,0,0,.7-3.6c.1-1.2.2-2.5.2-4Zm-3.6-37.1L283,102c-.3,1.6-.5,3.1-.8,4.6-.5,3-1.1,6-1.7,8.8s-1.4,6-2.1,8.8-1.3,5-1.8,7.4a12.9,12.9,0,0,0-.4,1.9c1.4-1.3,2.8-2.6,4.2-4.1l2.3-2.8.4-1a26.3,26.3,0,0,0,2-5.5c.1-.5.2-.8.3-1.2l2.4-.2v-.3l-2.3-.3a26.7,26.7,0,0,0,0-4A99.8,99.8,0,0,0,283.3,99.8Z"/>
              </g>
            </g>
            <path class="cls-8" d="M292.9,155.6s-.6,2.1-1.5,4.9A12.3,12.3,0,0,0,292.9,155.6Z"/>
          </g>
        </g>
      </g>
    </g>
  </g>
</svg>
