<?xml version="1.0" encoding="utf-8"?>
<!-- Generator: Adobe Illustrator 25.3.1, SVG Export Plug-In . SVG Version: 6.00 Build 0)  -->
<svg version="1.1" id="Слой_1" xmlns="http://www.w3.org/2000/svg" xmlns:xlink="http://www.w3.org/1999/xlink" x="0px" y="0px"
	 viewBox="0 0 566.9 566.9" style="enable-background:new 0 0 566.9 566.9;" xml:space="preserve">
<style type="text/css">
	.st0{fill:url(#SVGID_1_);}
	.st1{display:none;fill:url(#SVGID_2_);}
	.st2{fill-rule:evenodd;clip-rule:evenodd;fill:#FFFFFF;}
	.st3{fill-rule:evenodd;clip-rule:evenodd;fill:#020203;}
	.st4{fill-rule:evenodd;clip-rule:evenodd;fill:#0075FF;}
	.st5{fill:#FFFFFF;}
	.st6{fill:#020203;}
</style>
<g>
	<linearGradient id="SVGID_1_" gradientUnits="userSpaceOnUse" x1="283.5" y1="567.855" x2="283.5" y2="0.925">
		<stop  offset="0.1058" style="stop-color:#115086"/>
		<stop  offset="0.9674" style="stop-color:#CADCE6"/>
	</linearGradient>
	<rect x="0" y="0.9" class="st0" width="566.9" height="566.9"/>
	<linearGradient id="SVGID_2_" gradientUnits="userSpaceOnUse" x1="283.5" y1="567.855" x2="283.5" y2="0.925">
		<stop  offset="0.1058" style="stop-color:#115086"/>
		<stop  offset="0.9674" style="stop-color:#CADCE6"/>
	</linearGradient>
	<rect x="0" y="0.9" class="st1" width="566.9" height="566.9"/>
</g>
<g>
	<g>
		<g>
			<path class="st2" d="M283.3,264.6c1.7,0,3.9-0.6,5.3-1.4c2-1.2,5.9-5.6,7.8-7.3c4.7-4.6,9.8-8.8,15.7-11.8
				c12.7-6.5,22.6-6.2,29.2-21.1c3.6-8.2,7-16.7,10.5-25.1c5.1-12.1,10.5-24.2,16.5-36c8.1-16.1,19.2-36,32.4-48.4
				c14.3-13.4,44.2-16.8,63.1-18.2c15.2-1.1,30.6-1.1,45.8-0.6c7,0.3,14.2,0.6,21.2,1.2l14.2,1.2l-7.5,12.2
				c-11.7,18.9-23.2,38-34.6,57.2c-6.2,10.5-12.5,21.1-18.5,31.8c-3.9,6.9-8.2,14.4-11.5,21.6c-6.4,14.5-37.3,32.1-50.9,40.1
				c-7,4.1-39.3,22.1-46.3,29.1c1.5,9.5-2.3,21.9-4,30.7c-1.1,5.5-2.3,12.8-0.9,18.2c0.9,3.9,3.8,7.7,6.3,10.8
				c3.9,4.9,8.1,9.4,11.9,14.4c6.2,8.3,10.5,17.2,10.7,27.8c0.5,19.6-15.2,45.4-27.3,60.2l-10.7,13.1l-1.2-4.2
				c-8.1,9.8-24.6,20.8-34,26.5l-13.3,8.1v-4.8c-3.7,1.6-7.7,3.2-11,4.5c-5.3,2.1-10.6,4.2-15.9,6.3l-3.2,1.2l-3.1-1.2
				c-5.3-2-10.6-4.1-15.9-6.3c-3.4-1.3-7.4-2.9-11-4.5v4.8l-13.3-8.1c-9.4-5.7-25.9-16.8-34.1-26.5l-1.2,4.2L194,451.1
				c-12.1-14.8-27.8-40.6-27.3-60.2c0.2-7.4,2.4-14.2,6-20.6c1.4-2.5,3-4.9,4.7-7.1c3.7-5,8-9.5,11.9-14.4c2.5-3,5.3-6.9,6.3-10.8
				c1.3-5.5,0.1-12.8-0.9-18.2c-1.7-8.8-5.5-21.2-4-30.7c-7.1-7-39.3-25-46.3-29.1c-13.6-8-44.4-25.6-50.9-40.1
				c-3.2-7.2-7.5-14.8-11.4-21.6c-6-10.7-12.2-21.3-18.5-31.8c-11.4-19.2-22.9-38.2-34.6-57.2l-7.5-12.2l14.2-1.2
				C42.9,95.3,50,95,57,94.7c15.2-0.5,30.6-0.4,45.8,0.6c18.8,1.3,48.7,4.8,63.1,18.2c13.2,12.3,24.3,32.3,32.4,48.4
				c5.9,11.8,11.3,23.9,16.5,36c3.5,8.3,6.9,16.8,10.6,25.1c6.6,14.9,16.5,14.6,29.2,21.1c5.9,3,11,7.3,15.8,11.8
				c1.8,1.8,5.8,6.1,7.8,7.3C279.5,264,281.7,264.6,283.3,264.6L283.3,264.6z M283.3,492.5c0,0-25.8-10-30.5-12.6
				c-4.7-2.6-8.3-7.3-8.3-7.3v6.5c0,0-27.3-16.5-33.8-27.3c-6.5-10.8-6.8-17.1-6.8-17.1l-3.1,10.9c0,0-25.9-31.8-25.3-54.4
				c0.6-22.6,24.5-34.5,28.6-51c4.1-16.5-8.1-40.5-4.2-51.6c3.8-11.1-88.7-50.5-98.3-72.3C92,194.5,36.6,104.6,36.6,104.6
				s98.2-8.2,123.4,15.3c25.2,23.6,49.1,87.9,57.4,106.5c8.3,18.7,22.5,19.9,33.2,25.4c10.7,5.5,18.7,16.4,23.2,19
				c4.5,2.6,9.6,2.6,9.6,2.6s5,0,9.6-2.6s12.5-13.5,23.2-19c10.7-5.4,25-6.7,33.2-25.4c8.2-18.6,32.2-83,57.4-106.5
				s123.4-15.3,123.4-15.3s-55.5,89.9-65.1,111.7c-9.6,21.8-102.1,61.2-98.3,72.3c3.8,11-8.3,35.1-4.2,51.6
				c4.1,16.5,28,28.4,28.6,51c0.6,22.7-25.3,54.4-25.3,54.4l-3-10.9c0,0-0.3,6.4-6.8,17.1c-6.5,10.8-33.8,27.3-33.8,27.3v-6.5
				c0,0-3.6,4.7-8.3,7.3C309.1,482.6,283.3,492.5,283.3,492.5L283.3,492.5z"/>
		</g>
		<g>
			<g>
				<g id="Слой_1_1_">
					<path class="st3" d="M406.8,119.7c-25.3,23.6-49.2,88-57.4,106.7s-22.6,19.8-33.3,25.4c-2.8,1.5-5.5,3.3-7.9,5.3
						c-0.4-3.2-0.9-6.4-1.4-9.4c0,0,0-0.3,0-0.4s0,0,0-0.3c-1,0.6-1.9,1.3-2.8,2.1c-0.2,0.1-0.5,0.3-0.6,0.6
						c-0.3,0.1-0.5,0.3-0.7,0.6c-1,0.8-1.9,1.6-2.8,2.4c-0.6,0.4-1.1,0.9-1.5,1.4c-0.6,0.6-1.2,1.1-1.8,1.7c-2.5,2.6-5,5.1-7.8,7.4
						c-1.6,0.8-3.5,1.3-5.3,1.4h-0.7c-1.2-0.1-2.3-0.3-3.4-0.7l0,0c-0.5-0.2-0.9-0.4-1.3-0.6c-0.4-0.2-0.7-0.5-1-0.8
						c-0.8-0.6-1.6-1.3-2.3-2.1c-1.7-1.6-3.4-3.4-4.5-4.4c-1.1-1-2-1.8-3-2.7c-1.1-0.9-1.7-1.6-2.6-2.2c-0.4-0.4-0.8-0.7-1.3-1
						c-0.4-0.4-0.9-0.8-1.4-1.1c-0.8-0.7-1.7-1.4-2.6-2c0,0,0,0,0,0.3c-0.5,1.9-0.9,3.9-1.3,6.1c0,1.1-0.4,2.3-0.5,3.5
						c-2.2-1.8-4.5-3.3-6.9-4.6c-10.7-5.4-24.9-6.7-33.1-25.4s-32.3-83.2-57.5-106.8S36.4,104.3,36.4,104.3s55.5,90,65.1,111.8
						s102.1,61.2,98.4,72.5c-3.8,11.3,8.3,35.1,4.3,51.5c-4,16.5-28.1,28.3-28.7,51c-0.6,22.6,25.3,54.5,25.3,54.5l3.1-11
						c1,6.1,3.3,12,6.8,17.1c6.5,10.8,33.8,27.4,33.8,27.4v-6.4c2.3,2.9,5.1,5.4,8.3,7.4c4.7,2.6,30.5,12.5,30.5,12.5
						s25.7-10,30.5-12.5c3.2-2,6-4.4,8.4-7.4v6.5c0,0,27.3-16.6,33.8-27.4c3.5-5.1,5.9-11,6.8-17.1l3.1,11c0,0,25.7-31.8,25.3-54.5
						c-0.4-22.7-24.6-34.7-28.7-51.1c-4.1-16.5,8-40.5,4.2-51.5s88.7-50.7,98.4-72.5s65.1-111.8,65.1-111.8S432,96.1,406.8,119.7z
						 M283.4,439.1c-9.2-8-24.2-21.7-21.4-25.5c2.8-3.9,14.1-5.3,21.4-6c7.4,0.7,18.6,2.3,21.4,6
						C307.5,417.2,292.6,431.1,283.4,439.1z M283.4,400.9c-15.2,4.9-29.4,6.5-35.2,21.8c-4.5-10.1-6.2-15.3-2.2-25.8l-10.6,8.6
						c-1.9-7-1.3-14.5,1.7-21l-7.4,3.7c23.5-31.8,27.2-7.4,53.7,2.6c26.5-9.8,30.1-34.4,53.6-2.6l-7.4-3.7c3,6.6,3.6,14,1.7,21
						l-10.7-8.8c4.1,10.6,2.4,15.8-2.1,25.8C312.6,407.4,298.6,405.8,283.4,400.9z M190.8,238.9c-13.1-11.6-14-37.4-28.8-72.9
						s-60.3-27-60.3-27s20.2,18,32.3,27.6c12.1,9.6-2.3,19.9,13.9,48.2c14.9,26.4,47.3,50.5,51.9,53.9c-22.2-10.5-42.7-24-61.1-40.2
						l0,0c-2.8-2.6-5.6-5.3-8.2-8.1c-1.3-1.4-2.7-2.8-4-4.3c-2.6-2.9-5.1-5.9-7.3-9.1c-1.2-1.5-2.3-3.1-3.4-4.7
						c-1-1.4-1.9-2.8-2.7-4.3c-1.1-1.8-2.3-3.7-3.2-5.6C85.1,145.4,64.4,120,64.4,120c7.7-0.4,15.4-0.4,23.1,0l3.7,0.2
						c6.9,0.4,13.9,1.1,20.7,2.3c12.5,1.6,24.6,5.5,35.7,11.6c34.9,21.4,47.2,93.2,78,127.4C213.2,255.1,201.6,247.6,190.8,238.9z
						 M457.1,192.4c-1.9,3.7-4.1,7.3-6.5,10.7c-0.8,1.2-1.6,2.4-2.5,3.5c-5.8,7.8-12.4,14.9-19.5,21.4c-0.1,0.1-0.2,0.3-0.4,0.4l0,0
						c-3.4,3.1-6.8,6-10.3,8.7c-1.7,1.4-3.4,2.8-5.1,4c-5.1,3.7-10.2,7.4-15.1,10.5l-5.9,3.7c-2.6,1.6-5,3-7.4,4.3
						c-0.6,0.3-1.1,0.7-1.8,1c-2.1,1.2-4.1,2.3-5.8,3.2l-3.1,1.6l0,0c-1.3,0.7-2.5,1.4-3.7,1.8c-0.6,0.3-1.2,0.6-1.8,0.9l-1.1,0.5
						l1.2-0.9l0,0l1.7-1.3c1.9-1.5,4.5-3.5,7.4-6l2.3-1.9c3.2-2.8,6.8-5.9,10.5-9.5c1.3-1.2,2.5-2.4,3.7-3.7
						c9.6-9.1,17.9-19.4,24.8-30.7c16.2-28.3,1.8-38.6,13.9-48.2s32.2-27.6,32.2-27.6s-45.1-8.5-60,27.1s-15.7,61.4-28.8,72.9
						c-10.8,8.7-22.5,16.3-34.8,22.6c30.7-34.2,43-106,77.9-127.4c11-6.1,23.1-10.1,35.6-11.7c6.9-1.1,13.8-1.9,20.7-2.3l3.7-0.2
						c7.7-0.4,15.4-0.4,23.1,0c0,0-20.5,25.4-45.2,72.5L457.1,192.4L457.1,192.4z"/>
					<path class="st2" d="M306.8,247.5c0,0,0-0.3,0-0.4c-1,0.7-1.9,1.4-2.8,2.1c-0.2,0.1-0.5,0.3-0.7,0.5c-0.3,0.2-0.5,0.4-0.7,0.6
						c-1,0.7-1.9,1.6-2.8,2.4l-1.9,1.7l-1.5,1.4c-2.4,2.6-5,5.1-7.8,7.4c-1.7,0.8-3.5,1.3-5.3,1.4h-0.8c-1.2-0.1-2.3-0.4-3.4-0.9
						c-0.4-0.1-0.7-0.3-1-0.5c-0.4-0.2-0.8-0.5-1.2-0.9c-0.7-0.5-1.5-1.4-2.3-2.1c-1.6-1.6-3.3-3.4-4.3-4.3c-1-0.9-2-1.9-3-2.8
						c-1-0.9-1.7-1.6-2.6-2.2c-0.4-0.4-0.8-0.8-1.3-1.1c-0.4-0.4-0.9-0.8-1.4-1.1c-0.9-0.7-1.7-1.3-2.6-1.9
						c-0.5,1.9-0.9,3.9-1.3,6.1c0,1.1-0.4,2.3-0.5,3.5c1,0.7,1.9,1.5,2.8,2.4c0.5,0.3,0.9,0.7,1.3,1.1c0.4,0.3,0.8,0.6,1.1,1
						c1,0.8,2,1.7,2.8,2.7l2.6,2.5l2.3,2.1c0.4,0.4,0.8,0.8,1.3,1.1l0,0c0.6,0.6,1.2,1,1.9,1.4l0,0c1.1,0.6,2.2,1,3.3,1.4
						c2,0.7,4.1,1,6.2,1.1c3.3-0.1,6.6-1,9.6-2.5c2.8-2.1,5.5-4.5,7.9-7l2.9-2.8l0.7-0.6c0.3-0.3,0.6-0.6,0.9-0.8
						c0.9-0.9,1.9-1.7,2.9-2.5C307.8,253.7,307.2,250.6,306.8,247.5z"/>
					<path class="st2" d="M216.5,288.6c0,0,6.9-5.5,12.2,4.6c6.1,9.6,12.9,18.6,20.5,27c0,0-7.2,8.9-16.5,8.9S216.5,311,216.5,311
						s9.3,25.5,23.2,22.6c8-1.6,14.5-7.6,16.8-15.5c0,0-17.4-23.2-26.8-29.8c-6.1-4.3-9.9-2.8-11.8-1.2
						C217.4,287.6,216.9,288.1,216.5,288.6z"/>
					<path class="st4" d="M237.7,320.5c-2.9,0.3-6.5-5.6-6.9-8.5C228.8,299.8,245.1,319.7,237.7,320.5z"/>
					<path class="st2" d="M380.6,384.9c-5.3-18.4-23.2-24.4-30.4-36.8c-6.5-11.3-1.4-32.1-0.3-36.1c-0.1,0.2-0.3,0.5-0.4,0.7l0,0
						c0,0.1,0,0.3,0,0.4c-0.1,0.2-0.2,0.4-0.3,0.6l0,0l0,0c-1.7,3.6-3.8,7-6.4,10.1l-1.5,1.6c-0.7,0.7-1.4,1.3-2.2,1.8l-0.5,0.4
						c-0.9,0.6-1.9,1-2.9,1.3c-0.6,0.1-1.1,0.2-1.7,0.2c-1.1,0-2.1-0.1-3.2-0.3c-0.7-0.1-1.3-0.3-2-0.5c-0.5-0.2-1-0.4-1.5-0.6
						c-0.5-0.1-1-0.4-1.4-0.7c-0.6-0.3-1.2-0.7-1.8-1.1c-0.4-0.2-0.8-0.5-1.2-0.8c-0.4-0.2-0.7-0.5-1-0.8c-1.6-1.2-3.1-2.6-4.4-4.2
						l0.3-0.3l0.4-0.4c1-1.2,3.3-3.7,6-7c1-1.3,2.1-2.6,3.3-4.1c2.9-3.7,5.8-7.4,8.2-11c0.9-1.4,1.6-2.8,2.3-4c0.5-1.1,1.2-2.1,2-3
						c0.3-0.4,0.6-0.7,1-1c0.6-0.6,1.3-1,2-1.4c0.5-0.3,1.1-0.5,1.8-0.6h2c0.6,0.1,1.2,0.3,1.8,0.6c0.5,0.2,1,0.4,1.4,0.7l0,0l0,0
						c-0.4-0.4-0.9-1-1.5-1.5c-3.7-4.2-9-6.7-14.6-7.1c-5.2-0.4-10.1,2.6-12.2,7.4c3.5-14.4,3.4-18.4,18.4-14.4c0,0-7.9-10.6-18-8.5
						c-4.6,1.9-8.9,4.3-12.8,7.4c-1,0.7-2,1.4-3,2l-1.2,0.9l-3.3,2.2c-1.5,1-3.1,2-4.7,2.9c-4.4,2.9-9.1,5.4-14,7.4
						c-4.9-2.1-9.6-4.6-14.1-7.6l-2.6-1.6c-0.2-0.2-0.5-0.4-0.8-0.5c-0.2-0.2-0.4-0.5-0.7-0.5l0,0c-0.2-0.2-0.5-0.3-0.7-0.4
						l-1.6-1.1c-0.3-0.2-0.6-0.5-1-0.6l0,0l-1.3-0.9l-3.2-2.2c-3.9-3-8.2-5.5-12.8-7.4c-10.2-2.1-17.9,8.5-17.9,8.5
						c14.7-4.2,14.7,0,18.1,14.4c-2.1-4.8-7-7.7-12.2-7.4c-5.5,0.4-10.7,3-14.4,7l-0.5,0.5c-0.1,0.1-0.3,0.3-0.4,0.4
						c-0.3,0.3-0.4,0.5-0.5,0.6c0.4-0.3,0.9-0.6,1.5-0.7c0.2-0.1,0.5-0.3,0.8-0.3c0.4,0,0.7,0,1.1,0c0.1,0,0.2,0,0.4,0
						c0.8-0.1,1.6,0,2.4,0.2l1,0.4c0.4,0.2,0.9,0.5,1.2,0.7c0.4,0.3,0.9,0.7,1.2,1.1c0.5,0.5,0.9,1,1.2,1.5c0.4,0.6,0.9,1.3,1.2,2
						c0.4,0.6,0.7,1.2,1.1,1.9c0.4,0.7,0.9,1.4,1.4,2.1l0,0c0.9,1.4,1.9,2.9,3,4.4c4.6,6,9.9,12.6,12.8,15.9l1.4,1.6
						c0.3,0.3,0.6,0.6,0.9,0.9c0,0-7.1,9.1-16.4,8.9c-0.6,0-1.1-0.1-1.6-0.3c-1.2-0.3-2.3-0.8-3.3-1.5c-0.6-0.3-1.1-0.7-1.5-1.2
						c-0.6-0.4-1-0.8-1.5-1.4c-0.9-1-1.8-2-2.6-3.1c-0.4-0.5-0.8-1.1-1.2-1.7c-0.8-1.2-1.6-2.4-2.2-3.7c-0.5-0.9-0.9-1.7-1.2-2.4
						l0,0c-0.1-0.2-0.2-0.4-0.3-0.7c-0.1-0.2-0.2-0.4-0.2-0.5c-0.1-0.2-0.2-0.5-0.3-0.7c0,0,0,0,0-0.2c1,3.7,6.3,24.9,0,36.2
						c-7.4,12.6-25.1,18.4-30.4,36.8c-5.4,18.4,16.3,41.1,16.3,41.1l6.3-16.3c-0.2,11.6,2.6,23,8.2,33.1c9.1,15.3,29.8,23,29.8,23
						l-6.1-15.7c0,0,13.9,15.6,24.9,21.4c5.4,3.2,11.4,5.2,17.6,6c6.2-0.8,12.2-2.9,17.6-6c11-5.7,24.9-21.4,24.9-21.4l-6.1,15.7
						c0,0,20.7-7.7,29.8-23c5.6-10.1,8.5-21.5,8.2-33.1l6.3,16.3C364.1,426,386,403.4,380.6,384.9z M339.8,400.5l-3.9-8
						c1.1,4.5,1.4,9.3,0.9,13.9c-0.6,4.2-2.1,8.2-4.5,11.8l-5.6-12.4c0.2,4.8-0.7,9.6-2.6,14c-1.8,4-4.7,7.3-8.4,9.7l-1.9-5.5
						c-2.4,4-5.2,7.8-8.3,11.3c-6.1,7.1-13.6,12.8-22,16.8c-8.4-4-16-9.7-22-16.8c-3.1-3.5-5.9-7.2-8.3-11.3l-2,5.5
						c-3.8-2.3-6.9-5.7-8.8-9.7c-1.9-4.4-2.8-9.2-2.6-14l-5.5,12.4c-2.3-3.6-3.8-7.6-4.3-11.8c-0.5-4.7-0.2-9.4,0.9-13.9l-3.9,8
						c-6.1-15.2,9.7-27.6,22.3-34.2c-3.7-6-3.9-11.8,3.3-15.8c-5.6,15.2,17.4,18.7,30.9,19.9c13.6-1.2,36.8-4.6,31-19.9
						c7.1,4,7.1,9.8,3.3,15.8C330.2,372.9,345.8,385.3,339.8,400.5z"/>
					<path class="st2" d="M283.4,439.1c-9.2-8-24.2-21.7-21.4-25.5c2.8-3.9,14.1-5.3,21.4-6c7.4,0.7,18.6,2.3,21.4,6
						C307.5,417.2,292.6,431.1,283.4,439.1z"/>
					<path class="st2" d="M329.7,384.5c3,6.6,3.6,14,1.7,21l-10.7-8.8c4.1,10.6,2.4,15.8-2.1,25.8c-5.9-15.3-20-16.9-35.2-21.8
						c-15.2,4.9-29.4,6.5-35.2,21.8c-4.5-10.1-6.2-15.3-2.2-25.8l-10.6,8.8c-1.9-7-1.3-14.5,1.7-21l-7.4,3.7
						c23.5-31.8,27.2-7.4,53.7,2.6c26.5-9.8,30.1-34.4,53.6-2.6L329.7,384.5z"/>
					<path class="st2" d="M350.3,288.6c0,0-6.9-5.5-12.2,4.6c-6.1,9.6-13,18.6-20.5,27c0,0,7.1,8.9,16.6,8.9s16.4-18.1,16.4-18.1
						s-9.4,25.4-23.5,22.6c-8.1-1.6-14.6-7.6-16.9-15.5c0,0,17.4-23.2,26.8-29.8c6.1-4.3,9.9-2.8,11.8-1.2c0.5,0.5,1.1,1.1,1.5,1.7
						V288.6z"/>
					<path class="st4" d="M329,320.5c2.9,0.3,6.4-5.6,7-8.5C337.9,299.8,321.6,319.7,329,320.5z"/>
					<path class="st2" d="M428,228.4c0.2-0.1,0.3-0.2,0.4-0.4C428.3,228.2,428.1,228.3,428,228.4L428,228.4z"/>
					<path class="st5" d="M299.1,232.7c0,0-0.6,18.1-11.8,25.1c-11.2,7-20.7,15.2-22.5,19.4c-2,5.7-3.3,11.6-3.7,17.7
						c0.5,15.6,3.7,10.8,19.5,11s23.6-7,24.4-22.1C306,268.8,302.8,238.2,299.1,232.7z"/>
					<path class="st5" d="M296.5,199.9c0.4-2.7,3.7,8.1,3,28c-0.7,19.9-7.4,27.6-12.8,30.8c-5.5,3.3-14.7,9-18.4,13.9
						s-4.9,12.3-5.4,11c-2.5-11.8-2.2-24,0.9-35.6c4.8-16.8,10.1-20.7,16.8-24.5C288.9,218.3,294.7,209.7,296.5,199.9z"/>
					<path class="st5" d="M294.3,165.3c0.3-2.5,3.7,9.5,2.9,27s-7.7,25.8-12.5,28.5c-5.5,3.1-10.5,7.1-14.7,11.9
						c-3.1,4.4-4.5,11.8-5,10.6c-2-11-1.8-22.3,0.9-33.1c4.2-14.7,8.8-18.1,14.7-21.4C286.4,185.5,292.5,182.1,294.3,165.3z"/>
					<path class="st5" d="M291.5,143.4c0.3-1.9,3.4,5.7,2.8,19.6c-0.6,13.9-5.9,20.8-9.7,23.1c-4.8,2.7-9.2,6.1-12.9,10.2
						c-2.5,3.4-3.2,6.6-3.7,5.7c-2.2-8.3-2.3-17-0.3-25.4c1.4-7.3,6.4-13.4,13.3-16.2C286.7,156.5,290.5,150.3,291.5,143.4z"/>
					<path class="st5" d="M289.6,119c1.7,7.4,2.3,15,2,22.5c-0.8,6.9-3.8,13.4-8.8,18.4c-3.7,3.4-7.8,4.3-11,8.6
						c-1.8,2.5-4.1,8.4-4.1,4.6c0-3.7,1.9-25.2,5.6-29.4S287.7,131.7,289.6,119z"/>
					<path class="st5" d="M285.8,95.9c0,0,4.6,17.4,3.7,23.1c-1.5,11.7-8.4,16.3-12.5,21c-4.1,4.7-5.9,8.7-5.9-1
						c0-7.8,3.7-19.1,6.6-34C280.2,93.3,281.7,84.1,285.8,95.9z"/>
					<path class="st6" d="M271.7,269.1c-0.5-0.3-0.9-0.7-1.3-1.1c-1.3,1.4-2.5,2.9-3.7,4.4c-0.3,0.4-0.5,0.7-0.8,1.2
						c-0.3,0.4-0.6,0.9-0.9,1.4c-0.2,0.3-0.3,0.5-0.4,0.9c-0.1,0.2-0.2,0.4-0.3,0.6c0.2,0.1,0.5,0.3,0.7,0.4l0,0
						c0.3,0.1,0.5,0.3,0.7,0.5l0,0c0,0,0.3-0.6,0.4-1c0.1-0.3,0.3-0.7,0.5-1c0.1-0.3,0.3-0.6,0.5-0.9c0.4-0.6,0.7-1.2,1.1-1.8
						l0.3-0.4l0.3-0.3c0.9-0.9,1.8-1.8,2.9-2.8C271.7,269.2,271.7,269.1,271.7,269.1z M271.7,269.1c-0.5-0.3-0.9-0.7-1.3-1.1
						c-1.3,1.4-2.5,2.9-3.7,4.4c-0.3,0.4-0.5,0.7-0.8,1.2c-0.3,0.4-0.6,0.9-0.9,1.4c-0.2,0.3-0.3,0.5-0.4,0.9
						c-0.1,0.2-0.2,0.4-0.3,0.6c0.2,0.1,0.5,0.3,0.7,0.4l0,0c0.3,0.1,0.5,0.3,0.7,0.5l0,0c0,0,0.3-0.6,0.4-1c0.1-0.3,0.3-0.7,0.5-1
						c0.1-0.3,0.3-0.6,0.5-0.9c0.4-0.6,0.7-1.2,1.1-1.8l0.3-0.4l0.3-0.3c0.9-0.9,1.8-1.8,2.9-2.8
						C271.7,269.2,271.7,269.1,271.7,269.1z M306.5,276.1c0-0.9,0-1.7,0-2.5c0-2.4-0.3-4.8-0.4-7.1s-0.4-4.8-0.7-7.1
						c-0.4-3.7-0.9-6.9-1.4-10.2c0-0.1,0-0.2,0-0.3c0-0.3,0-0.6,0-0.8c-0.2-1.6-0.5-2.9-0.8-4.4c-0.3-1.5-0.6-2.8-1-4.1
						c0-0.7-0.4-1.4-0.5-2l-0.6-1.9l-0.7-1.7l0,0c0-0.6,0-1.1,0-1.6c0.3-6,0.2-12-0.4-18c-0.2-2.9-0.5-5.8-1-8.5
						c-0.3-1.3-0.5-2.7-0.9-3.9c-0.1-0.5-0.3-1.1-0.5-1.6c0.3-1.8,0.4-3.7,0.5-5.5c0.2-5.4,0.1-10.9-0.5-16.3
						c-0.3-2.6-0.6-5.2-1.1-7.6c-0.2-1.2-0.5-2.5-0.7-3.7c-0.1-0.5-0.3-1-0.4-1.5c0.2-4.4,0-8.7-0.5-13.1c-0.2-2-0.6-3.9-1.1-5.8
						c-0.1-0.9-0.4-1.8-0.7-2.6c0-0.2,0-0.4-0.2-0.6c0-1,0.2-2,0.3-3.1c0.1-2.1,0.1-4.2,0-6.3c-0.1-1.9-0.3-3.8-0.7-5.6
						c-0.3-1.9-0.6-3.7-1-5.2c-0.1-0.7-0.3-1.4-0.5-2.1c0-0.2,0-0.5,0-0.7c0.1-1.1,0.1-2.3,0-3.4c-0.1-1.8-0.3-3.5-0.7-5.2
						c-0.6-3.1-1.4-5.7-2.1-8.4s-1.5-5.3-2.2-8l-0.7-1.8c-0.2-0.6-0.5-1.1-0.7-1.7c-0.3-1-0.9-1.9-1.7-2.6c-0.7-0.5-1.6,0.2-2.2,1.3
						c-0.6,1.2-1.1,2.4-1.5,3.7c-0.9,2.6-1.6,5.4-2.3,8.1l-1.9,8.1c-1.3,5.4-2.6,11-3.7,16.9c-0.3,1.5-0.5,3.1-0.7,4.8
						c-0.2,1.8-0.4,3.6-0.4,5.5c-0.1,0.9-0.1,1.8,0,2.8c0,0.9,0,1.8,0.3,2.8c0,0.4,0,0.9,0.3,1.4s-0.3,0.7-0.4,1.2
						c-1,3.5-1.7,7.1-2.1,10.8c-0.5,3.7-0.9,7.4-1.1,11c0,1,0,1.9,0,2.9v3.3c-1.2,4.2-1.8,8.6-1.7,12.9c0,2.4,0.1,4.7,0.4,7
						c0.2,2.1,0.6,4.2,1.1,6.3c0,0.4,0.2,0.7,0.3,1.1c-0.7,1.8-1.3,3.7-1.9,5.9c-0.3,1.1-0.6,2.5-0.9,3.7c-0.3,1.2-0.5,2.6-0.7,4
						c-0.4,2.8-0.7,5.7-0.8,8.5c-0.2,5.6,0.1,11.2,1,16.8c0.1,0.7,0.1,1.3,0.3,1.9c0,0.1,0,0.2,0,0.4l-0.8,2.5l-0.9,3.4
						c0,0,0,0,0,0.2c-0.3,1.6-0.7,3.1-0.9,4.7s-0.5,3.7-0.7,5.4c-0.4,4.5-0.5,9-0.2,13.5c0,0.6,0,1.2,0.2,1.7
						c0.2,2.5,0.5,4.9,0.9,7.4c0,0.7,0.3,1.4,0.4,2.2c0.2,0.7,0.2,0.7,0.3,1c0,0.2,0,0.3,0,0.5c0,0.9-0.4,1.7-0.5,2.5
						c-0.2,1.5-0.5,3-0.7,4.6c-0.1,0.8-0.2,1.7-0.2,2.5c-0.1,0.9-0.1,1.7,0,2.6c0,1.6,0.2,3.2,0.4,4.9c0.2,1.5,0.6,2.9,1.4,4.1
						c0.5,0.7,1.2,1.3,2,1.7c0.6,0.3,1.3,0.5,2,0.5c1.2,0.2,2.4,0.3,3.7,0.3l7.6,0.5c2.5,0.3,5,0.4,7.5,0.2c2.6,0,5.2-0.5,7.8-1.3
						c1.3-0.5,2.5-1.1,3.7-1.9c0.7-0.4,1.4-0.9,2-1.4c0.7-0.6,1.3-1.3,1.8-2c1.5-1.9,2.8-4,3.7-6.2c1.1-3.2,1.8-6.5,2-9.9
						C306.4,283,306.6,279.5,306.5,276.1L306.5,276.1L306.5,276.1z M270.2,304.7c-1.2,0.2-2.5,0.4-3.7,0.5c-1.3,0.2-2.6-0.3-3.4-1.3
						c-1.1-2.3-1.6-4.8-1.5-7.4c0-0.7,0-1.6,0-2.2c0-0.6,0-1.3,0.2-2.1c0-1.4,0.4-2.8,0.7-4.3c0-0.7,0.3-1.4,0.4-2.1
						c0.1,0,0.2,0,0.4,0v-0.2h0.2c0-0.2,0-0.4,0.3-0.6l0.4-0.9l0.5-1.8c0.5-1.7,1.1-3.2,1.7-4.6c0.3-0.8,0.7-1.6,1.2-2.4
						c1.9-1.8,3.9-3.4,6-4.9l0,0l0.6-0.4l7.4-5.2l0.9-0.6l0.4-0.3l2.4-1.7l1.3-0.9h0.4c1.3-0.6,2.6-1.4,3.7-2.3
						c1.2-1.2,2.3-2.5,3.1-4c1.2-1.9,2.2-3.8,3-5.9c1.6-4.6,2.6-9.3,2.9-14.1l0.4,1.4l0.5,2.1c0,0.6,0.3,1.3,0.4,2
						c0.5,2.8,0.9,5.7,1.3,8.7c0,0.2,0,0.5,0,0.7c0,0.1,0,0.2,0,0.3c0.4,3.5,1,7,1.2,10.5c0.3,2.2,0.3,4.3,0.2,6.5
						c-0.2,3.2-0.8,6.3-1.9,9.3C295.1,295,272.5,304.3,270.2,304.7L270.2,304.7z M262.3,271.3c-0.1-3.5,0-7.1,0.4-10.6
						c0-1.7,0.4-3.4,0.7-4.9c0.3-1.5,0.7-3.5,1.2-5.1c0,0,0-0.2,0-0.3s0.3-0.9,0.4-1.4c0.6-2.1,1.4-4.1,2.2-6.1
						c1.3-3.4,3.1-6.5,5.3-9.3c1.9-2.2,4.1-4.1,6.5-5.6l1.6-1.1c0.6-0.4,1.2-0.9,1.7-1.4c1-0.9,2-1.8,2.9-2.8
						c0.4-0.1,0.7-0.2,1.1-0.4c1.2-0.7,2.2-1.6,3.2-2.5c2.5-2.7,4.4-5.9,5.6-9.4c1-3,1.8-6.1,2.2-9.3c0,0.3,0.2,0.7,0.4,1
						c0.3,1.2,0.5,2.5,0.7,3.9c0.4,2.8,0.6,5.5,0.7,8.4c0.1,2.9,0,5.7,0,8.5c0,1.4,0,2.8-0.3,4.3s-0.2,2.7-0.4,4.1
						c-0.5,4.6-1.6,9.2-3.3,13.5c-1.2,3-3,5.8-5.3,8.2c-0.6,0.5-1.2,1-1.8,1.4c-1.1,0.8-2.4,1.4-3.7,2.2l-3.7,2.4
						c-1.3,0.9-2.6,1.8-3.7,2.8l0,0c-1.1,0.8-2.1,1.7-3.2,2.6c-1.1,0.9-2.2,2.1-3.2,3.3c-1.3,1.4-2.5,2.9-3.7,4.4
						c-0.3,0.4-0.5,0.7-0.8,1.2c-0.3,0.4-0.6,0.9-0.9,1.4c-0.2,0.3-0.3,0.5-0.4,0.9c-0.1,0.2-0.2,0.4-0.3,0.6
						c-0.1,0.1-0.1,0.2-0.2,0.3c0,0.6-0.4,1.3-0.6,2c-0.2,0.7-0.2,0.9-0.3,1.4c0-0.3,0-0.5,0-0.8c-0.2-1.3-0.3-2.6-0.4-4
						C262.5,273.9,262.4,272.7,262.3,271.3L262.3,271.3L262.3,271.3z M264.7,224.3c0-2.4,0.4-4.7,0.8-6.9c0-1,0.4-2.1,0.7-3.1
						c0.3-1,0.5-1.9,0.8-2.9c0.6-1.9,1.3-3.7,2-5.5c1.2-3,2.8-5.8,4.8-8.2c3.4-4.1,7.4-5.7,11.4-9.4c0.1,0,0.3,0,0.4,0
						c0.9-0.5,1.8-1.2,2.5-1.9c2-2.2,3.6-4.8,4.6-7.7c1.3-3.8,2-7.7,2.3-11.7c0,0.3,0.1,0.6,0.2,0.9c0.3,1.1,0.4,2.3,0.6,3.5
						c0.4,2.5,0.6,5,0.7,7.6c0,2.6,0,5.2,0,7.8s-0.3,5.1-0.5,7.4c-0.4,4.2-1.4,8.2-2.9,12.1c-1.2,3-2.8,5.9-4.8,8.4
						c-0.8,1-1.7,2-2.6,2.9c-0.2,0.2-0.5,0.4-0.8,0.6c-1.1,0.7-2.2,1.4-3.3,2l-3.4,1.7c-1.2,0.6-2.4,1.3-3.5,2.2
						c-1.3,0.9-2.6,2-3.7,3.2c-2.6,3.2-4.7,6.9-6.1,10.8v0.7c-0.3-2.4-0.4-4.7-0.4-7.1C264.4,229.2,264.7,226.6,264.7,224.3
						L264.7,224.3L264.7,224.3z M280.5,96.8c0.2-1.2,0.5-2.5,0.9-3.7c0.3-1,0.7-1.8,1.2-1.8c0.5,0,1.1,0.7,1.6,1.6
						c0.2,0.5,0.5,1,0.7,1.5l0.7,1.7c1.4,5.7,2.3,11.5,2.8,17.3c0,1.4,0.2,2.9,0,4c0,0.3,0,0.4,0,0.6c0,0.2,0,0.4,0,0.7
						c0,0.6-0.3,1.2-0.4,1.7c-0.6,2.1-1.3,4.1-2.2,6.1l-0.8,1.6c-0.8,1-1.6,2-2.5,2.9c-2.6,2.9-5.4,5.2-8.2,7.8
						c-0.3,0.4-0.7,0.7-1.1,1.1l-0.5,0.6c0,0-0.4,0.6-0.6,0.9v-1.1c0-0.7,0-1.4,0-1.9c0.2-2.7,0.6-5.3,1.2-7.9
						c1.2-5.3,2.7-10.6,3.9-16.2c0.6-2.8,1.2-5.7,1.7-8.7C279.6,102.5,280,99.6,280.5,96.8z M273.2,148.7c0.2-0.4,0.4-0.8,0.6-1.2
						l0.3-0.4l0.5-0.6l1-1c3-3,5.7-6.3,8.1-9.8l0.7-1.3c1.1-1,2-2.2,2.8-3.5c1.4-2.3,2.3-4.8,2.8-7.4c0,0.2,0,0.4,0,0.7
						c0,1.7,0.3,3.7,0.4,5.2c0.3,3.3,0.3,6.6,0,9.9c-0.1,1.4-0.4,2.8-0.8,4.2c-0.3,1.3-0.7,2.5-1.2,3.7c-0.9,2.2-1.9,4.3-3.1,6.4
						c-0.4,0.6-0.8,1.2-1.2,1.8c-0.3,0.2-0.5,0.4-0.8,0.6c-0.8,0.5-1.6,0.9-2.4,1.2c-0.7,0.3-1.6,0.6-2.5,0.9
						c-1.9,0.8-3.5,1.9-5,3.2c-1.8,1.7-3.3,3.7-4.3,5.9c0.4-2.8,0.7-5.6,1.2-8.3c0.5-2.9,1.1-5.8,2-8.7c0.3-0.4,0.5-0.9,0.7-1.5
						L273.2,148.7L273.2,148.7z M269.1,177.8c0.4-1.3,1-2.7,1.6-3.9c1-2,2.3-3.9,3.9-5.5c2.3-2.3,4.8-3.4,7.4-5.7l0,0
						c1.7-0.9,3.2-2.2,4.4-3.7c1.6-2.2,2.8-4.6,3.7-7.1c0.9-2.4,1.5-4.8,1.9-7.4c0,0.1,0,0.2,0,0.4c0.2,0.7,0.5,1.6,0.7,2.5
						c0.5,1.9,0.9,3.9,1.1,5.8c0.2,3.9,0.1,7.9-0.4,11.8c-0.6,5.7-2.8,11.2-6.1,15.9c-0.6,0.9-1.3,1.7-2.1,2.5l-0.3,0.2
						c-1.9,1-3.9,1.7-6,2.6c-2.4,1.2-4.5,2.8-6.4,4.8c-1.8,2.2-3.2,4.6-4.3,7.1c-0.3-1.7-0.5-3.4-0.6-5.1c-0.3-3.6-0.1-7.1,0.4-10.7
						C268.2,180.7,268.6,179.2,269.1,177.8z M271.7,269.1c-0.5-0.3-0.9-0.7-1.3-1.1c-1.3,1.4-2.5,2.9-3.7,4.4
						c-0.3,0.4-0.5,0.7-0.8,1.2c-0.3,0.4-0.6,0.9-0.9,1.4c-0.2,0.3-0.3,0.5-0.4,0.9c-0.1,0.2-0.2,0.4-0.3,0.6
						c0.2,0.1,0.5,0.3,0.7,0.4l0,0c0.3,0.1,0.5,0.3,0.7,0.5l0,0c0,0,0.3-0.6,0.4-1s0.3-0.7,0.5-1c0.1-0.3,0.3-0.6,0.5-0.9
						c0.4-0.6,0.7-1.2,1.1-1.8l0.3-0.4l0.3-0.3c0.9-0.9,1.8-1.8,2.9-2.8C271.7,269.2,271.7,269.1,271.7,269.1z"/>
					<path class="st6" d="M309.6,276.1c0-1.5,0-3,0-4.5s-0.2-3.7-0.4-5.4c-0.2-3.1-0.6-6.3-0.9-9.3c-0.3-3-0.9-6.4-1.4-9.4
						c0,0,0-0.3,0-0.4s0,0,0-0.3c0-0.9-0.4-1.9-0.6-2.9l-0.5-2.3c-0.3-1-0.4-2-0.7-3V238c0-0.5-0.3-1-0.4-1.4l-0.7-2.1l-1-1.1v-0.9
						c0.3-6.1,0.2-12.3-0.3-18.4c-0.3-3-0.6-6-1.1-8.8c-0.2-1.4-0.5-2.8-0.9-4.2c-0.1-0.4-0.2-0.7-0.3-1.1c0.3-1.8,0.5-3.5,0.6-5.3
						c0.1-5.6-0.1-11.1-0.8-16.6c-0.3-2.7-0.6-5.3-1.1-7.9c-0.3-1.2-0.5-2.5-0.8-3.7c-0.1-0.4-0.2-0.8-0.3-1.1
						c0.1-4.4-0.1-8.8-0.7-13.1c-0.2-2.1-0.6-4.1-1.1-6.1c-0.2-1-0.5-1.9-0.9-2.8c0-0.9,0.2-1.7,0.3-2.5c0-2.2,0-4.5,0-6.7
						s-0.4-4.1-0.7-6c-0.3-1.8-0.7-3.7-1-5.3c-0.1-0.6-0.2-1.1-0.4-1.6c0.1-1.4,0.2-2.8,0.1-4.2c0-1.8-0.2-3.5-0.5-5.2v-0.7
						c-0.5-2.6-1.2-4.9-1.8-7.4l-0.4-1.4c-0.7-2.7-1.5-5.2-2.2-8.2l-0.7-1.8c0-0.4-0.3-0.7-0.4-1.1l-0.5-1.2
						c-0.5-1.5-1.5-2.8-2.8-3.7c-1-0.6-2.1-0.7-3.2-0.3c-1.4,0.5-2.6,1.5-3.3,2.8c-0.8,1.4-1.4,3-1.8,4.5c-0.9,2.7-1.6,5.6-2.3,8.4
						l-2.1,7.9c-1.1,5.1-2.5,10.8-3.7,17.5c-0.2,1.5-0.5,3-0.7,4.6c-0.3,1.9-0.4,3.9-0.4,5.8c-0.1,1.1-0.1,2.1,0,3.2
						c0,0.9,0,1.8,0.3,2.8c0,0.3,0,0.6,0,0.9c0,0.2,0,0.4,0,0.6c-1,3.6-1.8,7.3-2.3,11c-0.5,4.1-0.9,7.8-1.1,11.5l-0.2,4.7v1.3
						c-0.5,1.9-0.9,3.8-1.2,5.7c-0.4,2.5-0.5,5.1-0.5,7.6c0,2.5,0.1,4.9,0.4,7.4c0.3,2.2,0.7,4.4,1.2,6.6v0.2
						c-0.6,1.7-1.2,3.4-1.6,5.1c-0.3,0.8-0.4,1.7-0.7,2.6l-0.3,1.4c-0.3,1.4-0.5,2.8-0.7,4.2c-0.4,2.9-0.7,5.9-0.9,8.8
						c0,3.3,0,6.2,0,8.8s0.5,5.7,0.9,8.5l0.3,1.7l-0.5,1.8l-0.6,2.2c0,0,0,0,0,0.3c-0.5,1.9-0.9,3.9-1.3,6.1c0,1.1-0.4,2.3-0.5,3.5
						c-0.6,5.2-0.8,10.4-0.4,15.6v0.7c0.2,3.3,0.6,6.6,1.3,9.9c0,0.6,0,1.2,0.3,1.7l0.3,1l-0.4,2c-0.3,1.5-0.5,3-0.7,4.8
						c0,0.9,0,1.7,0,2.8c0,0.9,0,1.8,0,2.7c0,1.8,0.2,3.5,0.5,5.2c0.2,1.9,0.9,3.7,1.9,5.3c0.7,1.2,1.9,2.2,3.2,2.8
						c0.8,0.4,1.8,0.7,2.7,0.8c1.4,0.2,2.8,0.3,4.2,0.4l8.8,0.5c1.6,0,3.1,0.3,4.8,0.3c0.6,0,1.3,0,1.9,0c2.9-0.1,5.8-0.6,8.6-1.5
						c1.5-0.5,3-1.2,4.3-2.2c0.6-0.3,1.2-0.8,1.8-1.2l0.7-0.6c0.8-0.7,1.6-1.5,2.3-2.3c1.6-2.1,3-4.5,3.9-7
						c1.2-3.5,1.9-7.1,2.2-10.8c0-2.3,0.3-4.5,0.3-6.6C309.7,278.7,309.7,277.6,309.6,276.1z M297.9,301.3l-0.7,0.8l-0.8,0.6
						c-0.3,0.3-0.6,0.5-1,0.7c-1,0.7-2,1.2-3.2,1.5c-2.2,0.8-4.6,1.2-6.9,1.2c-2,0.1-3.9,0.1-5.8,0h-0.3h-1H276
						c7.6-3.7,21.2-11.8,27.5-25c0,1.7,0,3.7-0.2,5.4c-0.2,3.1-0.9,6.1-1.9,9c-0.7,1.9-1.7,3.7-2.9,5.3c-0.2,0.2-0.4,0.4-0.5,0.6
						C298,301.6,297.9,301.3,297.9,301.3z M267.2,283.1c0.4-1.3,1-2.2,1.8-3.7c0.2-0.7,0.9-1.2,1.2-1.8c1.6-1.5,3.3-3,5.1-4.2
						l1.6-1.2l6.2-4.6l4.9-3.4c1.5-0.7,3-1.7,4.3-2.8c1.5-1.3,2.8-2.8,3.9-4.5c0.5-0.8,1-1.6,1.4-2.5c0.1-0.2,0.3-0.4,0.3-0.6
						c0.5-0.9,0.9-1.8,1.4-2.9l0.2,1.1l0.1,0.6l0.1,1c0.5,3.4,0.9,6.7,1,10.1c0.1,1.5,0,2.4,0,3.6c-0.3,4.4-1.5,8.6-3.7,12.4
						c-8,14.7-26.9,22.1-27.5,22.1c-1.1,0.2-2.2,0.4-3.3,0.4c-0.7,0-0.9,0-1,0c-0.6-2-0.8-4.1-0.7-6.1c0-0.4,0-0.9,0-1.3
						c0-0.6,0-1.2,0-1.9c0-1.4,0.4-2.7,0.6-4.1 M287.8,224.9c1.5-1,2.6-1.8,3.7-3c1.8-1.9,3.3-4,4.4-6.3c0,2.5,0,4.9,0,7.4
						c0,1.4,0,2.8-0.3,4.1s-0.2,1.9-0.3,2.9v1c-0.4,4.4-1.5,8.6-3.1,12.7c-1,2.6-2.4,4.9-4.2,7.1c-0.5,0.5-1,0.9-1.6,1.2
						c-0.6,0.4-1.3,0.9-2,1.2l-5.2,3.3c-1.5,1-3,2.1-4.5,3.3l0,0c-1,0.8-2,1.6-3,2.5c-1,0.9-2.2,2.1-3.4,3.4c-1.2,1.3-1.9,2-2.8,3
						c0-1.9,0-3.7,0.2-5.6s0.3-4.6,0.7-6.8c0.3-1.1,0.5-2.3,0.8-3.5c0-0.1,0-0.2,0-0.3c0.3-0.9,0.5-1.8,0.8-2.6
						c0.6-2.1,1.4-4.1,2.1-5.9c1.2-3.1,2.8-6,4.9-8.6c1.6-1.9,3.5-3.6,5.7-5l2.3-1.6l1.3-1 M284.8,119.6c-0.5,1.9-1.2,3.8-2,5.6
						l-0.5,0.9c-0.7,1-1.4,1.9-2.2,2.8c-1.4,1.6-2.8,2.9-4.3,4.2c0-0.6,0.3-1.3,0.4-1.9c0.5-2.4,1.2-4.9,1.8-7.4
						c0.6-2.5,1.5-5.8,2.1-8.8c0.7-3,1.2-5.8,1.7-8.8c0.3-1.6,0.5-3.1,0.8-4.6c0-0.7,0-1.5,0.3-2.2c1,4.7,1.8,9.6,2.2,14.4
						c0.1,1.3,0.1,2.6,0,3.9L284.8,119.6z M293.7,186.4c0,2.5-0.2,4.9-0.5,7.4c-0.4,3.9-1.3,7.7-2.7,11.3c-1.1,2.8-2.5,5.4-4.3,7.7
						c-0.8,1-1.7,1.9-2.6,2.8c-0.9,0.7-1.9,1.2-2.9,1.8l-3.5,1.7c-1.4,0.7-2.7,1.5-4,2.4c-1.4,1.1-2.8,2.3-3.9,3.7
						c-0.5,0.5-0.9,1.1-1.3,1.6c0-0.7,0-1.5,0-2.2c0-2.2,0.4-4.4,0.8-6.5c0-1,0.4-2,0.5-2.8l0.3-1.2c0-0.6,0.3-1.1,0.5-1.7
						c0.6-1.9,1.2-3.7,1.8-5.3c1.1-2.6,2.5-5.1,4.3-7.4c1.6-1.9,3.6-3.5,5.7-4.9c1.8-1.2,3.5-2.5,5.1-3.9l0,0
						c1.2-0.7,2.3-1.5,3.3-2.5c1.3-1.3,2.4-2.8,3.3-4.4C293.7,184.7,293.7,185.5,293.7,186.4z M290.4,164.5
						c-0.6,5.2-2.4,10.2-5.5,14.5c-0.5,0.7-1.1,1.4-1.7,1.9c-0.8,0.4-1.6,0.8-2.5,1.1c-1,0.4-2,0.9-3,1.4c-2.6,1.3-5,3.1-7,5.2
						c0-1.9,0.2-3.9,0.5-5.8c0.2-1.4,0.5-2.8,1-4.1c0.4-1.2,0.8-2.3,1.4-3.4c1.6-3.1,3.9-5.6,6.9-7.4c1.2-0.7,2.3-1.6,3.3-2.5
						c2.1-1.1,3.9-2.7,5.4-4.6c0.6-0.8,1.2-1.7,1.8-2.6 M287.7,139.3c-0.1,1.2-0.4,2.5-0.7,3.7c-0.3,1.1-0.7,2.3-1.1,3.4
						c-0.9,2.1-2,4.1-3.2,6c-0.3,0.3-0.5,0.7-0.7,1.1l0,0c-0.7,0.4-1.3,0.7-1.9,0.9l-0.7,0.3c-0.6,0.3-1.3,0.4-1.9,0.7
						c-1.2,0.5-2.3,1.1-3.4,1.8c0.3-2,0.7-4,1.3-6c0.1-0.4,0.2-0.8,0.4-1.1l1.9-2.5c3.3-3.1,6.2-6.6,8.8-10.3l0.6-1
						c0.3-0.3,0.6-0.6,0.9-1"/>
				</g>
			</g>
			<path class="st2" d="M147.8,134.1C118.8,116.4,64.4,120,64.4,120s20.7,25.3,45.3,72.3c24.7,47,90.6,76.4,90.6,76.4
				s-36.4-25.9-52.5-54.1c-16.1-28.3-1.8-38.6-13.9-48.1c-12.1-9.6-32.3-27.6-32.3-27.6s45.6-8.5,60.4,27
				c14.8,35.5,15.7,61.3,28.9,72.9c13.2,11.5,35,22.7,35,22.7C195.1,227.3,182.7,155.5,147.8,134.1L147.8,134.1z"/>
			<path class="st2" d="M419,134c28.9-17.8,83.4-14.2,83.4-14.2s-20.7,25.4-45.3,72.5c-24.7,47.1-90.6,76.6-90.6,76.6
				s36.4-25.9,52.5-54.3c16.1-28.4,1.8-38.7,13.9-48.2c12.1-9.6,32.3-27.6,32.3-27.6s-45.6-8.5-60.4,27
				c-14.8,35.6-15.7,61.4-28.9,73c-13.2,11.6-35,22.7-35,22.7C371.7,227.4,384,155.4,419,134L419,134z"/>
		</g>
	</g>
</g>
</svg>
