<?xml version="1.0" encoding="utf-8"?>
<!-- Generator: Adobe Illustrator 25.3.1, SVG Export Plug-In . SVG Version: 6.00 Build 0)  -->
<svg version="1.1" id="Слой_1" xmlns="http://www.w3.org/2000/svg" xmlns:xlink="http://www.w3.org/1999/xlink" x="0px" y="0px"
	 viewBox="0 0 566.93 566.93" style="enable-background:new 0 0 566.93 566.93;" xml:space="preserve">
<style type="text/css">
	.st0{fill:url(#SVGID_1_);}
	.st1{fill-rule:evenodd;clip-rule:evenodd;fill:#FFFFFF;}
	.st2{fill-rule:evenodd;clip-rule:evenodd;fill:#020203;}
	.st3{fill-rule:evenodd;clip-rule:evenodd;fill:#E94F1D;}
	.st4{fill:#FFFFFF;}
	.st5{fill:#020203;}
</style>
<g>
	<radialGradient id="SVGID_1_" cx="289.2268" cy="291.9433" r="353.8729" gradientUnits="userSpaceOnUse">
		<stop  offset="0.3665" style="stop-color:#FFEF26"/>
		<stop  offset="0.3926" style="stop-color:#FFE32C"/>
		<stop  offset="0.469" style="stop-color:#FBC033"/>
		<stop  offset="0.5443" style="stop-color:#F4A034"/>
		<stop  offset="0.6171" style="stop-color:#EF8534"/>
		<stop  offset="0.6866" style="stop-color:#EB7133"/>
		<stop  offset="0.7515" style="stop-color:#E96432"/>
		<stop  offset="0.8072" style="stop-color:#E95F32"/>
		<stop  offset="1" style="stop-color:#E7441C"/>
	</radialGradient>
	<rect x="-16.77" y="-104.06" class="st0" width="612" height="792"/>
	<g>
		<g>
			<path class="st1" d="M283.29,264.61c1.68-0.04,3.88-0.63,5.3-1.42c1.98-1.23,5.93-5.56,7.79-7.32
				c4.74-4.56,9.84-8.81,15.74-11.84c12.68-6.5,22.56-6.16,29.16-21.1c3.65-8.25,7.01-16.73,10.55-25.06
				c5.15-12.14,10.55-24.2,16.48-36c8.13-16.06,19.21-36.03,32.44-48.36c14.32-13.37,44.23-16.84,63.06-18.15
				c15.21-1.08,30.58-1.12,45.83-0.63c7.01,0.26,14.17,0.56,21.18,1.16l14.21,1.2l-7.49,12.17c-11.67,18.93-23.23,38.01-34.61,57.17
				c-6.23,10.53-12.46,21.14-18.46,31.81c-3.92,6.87-8.24,14.38-11.45,21.62c-6.38,14.53-37.29,32.11-50.86,40.14
				c-6.97,4.11-39.27,22.14-46.31,29.13c1.49,9.45-2.28,21.88-3.95,30.69c-1.08,5.45-2.27,12.77-0.89,18.22
				c0.93,3.85,3.84,7.73,6.26,10.75c3.88,4.86,8.13,9.37,11.86,14.38c6.23,8.33,10.48,17.18,10.74,27.78
				c0.52,19.57-15.21,45.41-27.26,60.19l-10.7,13.14l-1.16-4.18c-8.06,9.75-24.61,20.84-34.05,26.55l-13.27,8.07v-4.82
				c-3.69,1.64-7.68,3.17-11.04,4.52c-5.3,2.13-10.59,4.22-15.89,6.27l-3.17,1.23l-3.13-1.23c-5.33-2.05-10.63-4.14-15.89-6.27
				c-3.39-1.34-7.38-2.88-11.04-4.52v4.82l-13.31-8.07c-9.43-5.71-25.95-16.8-34.05-26.55l-1.16,4.18l-10.7-13.14
				c-12.05-14.79-27.78-40.63-27.26-60.19c0.19-7.43,2.39-14.23,6.04-20.65c1.38-2.46,2.98-4.86,4.7-7.13
				c3.73-5,7.98-9.52,11.86-14.38c2.46-3.02,5.33-6.91,6.3-10.75c1.34-5.45,0.15-12.77-0.89-18.22c-1.72-8.81-5.48-21.25-3.99-30.69
				c-7.05-6.98-39.34-25.02-46.31-29.13c-13.57-8.03-44.45-25.62-50.86-40.14c-3.21-7.24-7.53-14.75-11.41-21.62
				c-6.04-10.68-12.23-21.28-18.5-31.81c-11.37-19.16-22.9-38.24-34.61-57.17l-7.5-12.17l14.21-1.2C42.88,95.3,50,95,57.05,94.74
				c15.21-0.49,30.58-0.45,45.79,0.63c18.83,1.31,48.74,4.78,63.1,18.15c13.2,12.32,24.31,32.3,32.41,48.36
				c5.93,11.8,11.34,23.86,16.48,36c3.54,8.33,6.9,16.8,10.55,25.06c6.6,14.94,16.48,14.6,29.16,21.1c5.89,3.02,11,7.28,15.77,11.84
				c1.83,1.76,5.78,6.09,7.76,7.32C279.49,264.01,281.73,264.57,283.29,264.61L283.29,264.61z M283.33,492.54
				c0,0-25.81-9.97-30.5-12.58c-4.7-2.65-8.32-7.32-8.32-7.32v6.54c0,0-27.3-16.54-33.78-27.3c-6.53-10.79-6.82-17.14-6.82-17.14
				l-3.06,10.9c0,0-25.92-31.78-25.28-54.44c0.6-22.63,24.54-34.47,28.64-51.01c4.06-16.54-8.05-40.55-4.25-51.61
				c3.77-11.09-88.71-50.45-98.3-72.26c-9.62-21.77-65.07-111.69-65.07-111.69s98.15-8.25,123.39,15.31
				c25.21,23.56,49.15,87.9,57.39,106.53c8.28,18.67,22.52,19.9,33.19,25.36c10.7,5.45,18.65,16.39,23.19,18.97
				c4.55,2.58,9.58,2.58,9.58,2.58s5.03,0,9.58-2.58c4.55-2.58,12.53-13.52,23.19-18.97c10.67-5.45,24.95-6.68,33.19-25.36
				c8.24-18.63,32.18-82.97,57.43-106.53c25.25-23.56,123.36-15.31,123.36-15.31s-55.45,89.92-65.07,111.69
				c-9.58,21.81-102.06,61.17-98.3,72.26c3.8,11.05-8.32,35.06-4.21,51.61c4.06,16.54,28.01,28.38,28.64,51.01
				c0.6,22.67-25.32,54.44-25.32,54.44l-3.02-10.9c0,0-0.34,6.35-6.82,17.14c-6.53,10.75-33.82,27.3-33.82,27.3v-6.54
				c0,0-3.62,4.67-8.32,7.32C309.13,482.57,283.33,492.54,283.33,492.54L283.33,492.54z"/>
		</g>
		<g>
			<g>
				<g id="Слой_1_1_">
					<path class="st2" d="M406.77,119.67c-25.29,23.59-49.18,87.96-57.41,106.73s-22.57,19.84-33.26,25.4
						c-2.82,1.5-5.47,3.27-7.94,5.3c-0.4-3.2-0.92-6.37-1.4-9.42c0,0,0-0.33,0-0.44s0,0,0-0.26c-0.98,0.63-1.93,1.32-2.83,2.06
						c-0.24,0.14-0.45,0.33-0.62,0.55c-0.27,0.15-0.51,0.34-0.74,0.55c-0.96,0.75-1.88,1.55-2.76,2.39
						c-0.56,0.4-1.07,0.86-1.54,1.36c-0.62,0.55-1.25,1.1-1.8,1.66c-2.45,2.61-5.05,5.06-7.79,7.36c-1.65,0.82-3.45,1.29-5.29,1.4
						h-0.7c-1.17-0.09-2.32-0.34-3.42-0.74l0,0c-0.45-0.16-0.88-0.37-1.29-0.63c-0.36-0.23-0.69-0.5-0.99-0.81
						c-0.83-0.63-1.6-1.34-2.32-2.1c-1.69-1.58-3.38-3.42-4.45-4.42c-1.07-0.99-1.95-1.84-3.01-2.72c-1.07-0.88-1.73-1.58-2.57-2.21
						c-0.39-0.39-0.82-0.73-1.29-1.03c-0.43-0.43-0.91-0.8-1.43-1.1c-0.84-0.71-1.73-1.38-2.65-1.99c0,0,0,0,0,0.29
						c-0.51,1.91-0.92,3.94-1.29,6.11c0,1.1-0.37,2.28-0.51,3.46c-2.16-1.77-4.49-3.32-6.95-4.64
						c-10.66-5.41-24.92-6.66-33.08-25.36c-8.16-18.7-32.34-83.18-57.52-106.77s-123.5-15.31-123.5-15.31s55.5,89.99,65.09,111.78
						s102.14,61.17,98.36,72.47c-3.79,11.3,8.34,35.08,4.3,51.53c-4.04,16.45-28.08,28.34-28.71,50.97
						c-0.62,22.64,25.32,54.47,25.32,54.47l3.05-11.04c0.98,6.14,3.31,11.99,6.84,17.11c6.47,10.78,33.81,27.35,33.81,27.35v-6.37
						c2.32,2.92,5.13,5.41,8.31,7.36c4.7,2.58,30.54,12.55,30.54,12.55s25.73-9.97,30.47-12.55c3.2-1.95,6.03-4.44,8.38-7.36v6.51
						c0,0,27.27-16.56,33.78-27.35c3.55-5.11,5.88-10.96,6.84-17.11l3.09,11.04c0,0,25.73-31.8,25.32-54.47
						c-0.4-22.67-24.59-34.67-28.67-51.12c-4.08-16.45,8.01-40.49,4.19-51.53c-3.82-11.04,88.69-50.68,98.36-72.47
						s65.13-111.78,65.13-111.78S432.02,96.11,406.77,119.67z M283.35,439.06c-9.23-7.95-24.22-21.68-21.39-25.54
						c2.83-3.86,14.11-5.3,21.39-5.96c7.35,0.66,18.6,2.28,21.39,5.96C307.53,417.2,292.57,431.11,283.35,439.06z M283.35,400.89
						c-15.25,4.86-29.4,6.48-35.25,21.79c-4.52-10.08-6.25-15.31-2.21-25.76l-10.62,8.65c-1.95-7-1.33-14.46,1.73-21.05l-7.35,3.68
						c23.52-31.8,27.16-7.36,53.66,2.58c26.46-9.79,30.1-34.38,53.59-2.58l-7.35-3.68c3.01,6.6,3.61,14.05,1.69,21.05l-10.7-8.8
						c4.15,10.6,2.43,15.83-2.13,25.76C312.64,407.37,298.56,405.75,283.35,400.89z M190.8,238.92
						c-13.08-11.59-13.97-37.36-28.78-72.95s-60.28-27.01-60.28-27.01s20.22,17.96,32.27,27.57c12.06,9.61-2.28,19.87,13.89,48.18
						c14.92,26.35,47.3,50.53,51.86,53.92c-22.16-10.46-42.73-23.99-61.12-40.19l0,0c-2.83-2.58-5.59-5.3-8.23-8.06
						c-1.32-1.44-2.68-2.83-3.97-4.27c-2.6-2.89-5.06-5.91-7.35-9.05c-1.18-1.51-2.35-3.13-3.38-4.71c-0.99-1.37-1.9-2.8-2.72-4.27
						c-1.14-1.84-2.28-3.68-3.23-5.59C85.05,145.36,64.4,120,64.4,120c7.7-0.41,15.42-0.41,23.12,0l3.68,0.18
						c6.95,0.38,13.87,1.14,20.73,2.28c12.52,1.56,24.63,5.48,35.69,11.56c34.92,21.42,47.23,93.19,77.96,127.42
						C213.24,255.14,201.59,247.6,190.8,238.92z M457.13,192.43c-1.94,3.7-4.12,7.28-6.51,10.71c-0.81,1.18-1.65,2.36-2.54,3.5
						c-5.8,7.75-12.35,14.91-19.55,21.38c-0.11,0.15-0.24,0.28-0.4,0.37l0,0c-3.38,3.09-6.76,6-10.29,8.69
						c-1.69,1.44-3.42,2.76-5.15,4.01c-5.11,3.68-10.22,7.36-15.07,10.53l-5.88,3.68c-2.61,1.62-5,3.02-7.35,4.31
						c-0.59,0.33-1.14,0.7-1.76,0.99c-2.1,1.21-4.08,2.28-5.84,3.2l-3.09,1.58l0,0c-1.32,0.74-2.5,1.36-3.68,1.8
						c-0.57,0.32-1.16,0.6-1.76,0.85l-1.14,0.48l1.18-0.85l0,0l1.73-1.29c1.91-1.47,4.48-3.5,7.35-5.96l2.28-1.91
						c3.2-2.76,6.8-5.89,10.55-9.46c1.29-1.18,2.54-2.43,3.68-3.68c9.6-9.09,17.93-19.42,24.77-30.73
						c16.17-28.3,1.84-38.57,13.89-48.18s32.2-27.57,32.2-27.57s-45.14-8.54-59.95,27.09s-15.73,61.35-28.82,72.95
						c-10.8,8.73-22.48,16.31-34.84,22.63c30.73-34.23,43-106,77.88-127.42c11.03-6.12,23.11-10.11,35.62-11.74
						c6.86-1.14,13.78-1.9,20.73-2.28l3.68-0.18c7.7-0.41,15.42-0.41,23.12,0c0,0-20.51,25.43-45.17,72.51H457.13z"/>
					<path class="st1" d="M306.76,247.53c0,0,0-0.33,0-0.44c-0.99,0.7-1.91,1.36-2.83,2.1c-0.24,0.13-0.47,0.29-0.66,0.48
						c-0.27,0.17-0.5,0.38-0.7,0.63c-0.96,0.74-1.87,1.55-2.79,2.36l-1.87,1.69l-1.47,1.36c-2.44,2.62-5.04,5.07-7.79,7.36
						c-1.66,0.81-3.45,1.29-5.29,1.44h-0.81c-1.16-0.15-2.29-0.43-3.38-0.85c-0.36-0.14-0.7-0.31-1.03-0.52
						c-0.44-0.24-0.84-0.55-1.18-0.92c-0.66-0.55-1.54-1.36-2.32-2.1c-1.62-1.58-3.27-3.39-4.26-4.31
						c-0.99-0.92-2.02-1.91-3.05-2.76c-1.03-0.85-1.73-1.55-2.61-2.21c-0.39-0.4-0.82-0.75-1.29-1.07c-0.44-0.4-0.91-0.77-1.4-1.1
						c-0.88-0.66-1.73-1.29-2.65-1.91c-0.51,1.91-0.92,3.94-1.29,6.11c0,1.1-0.37,2.28-0.51,3.46c0.99,0.74,1.94,1.53,2.83,2.39
						c0.47,0.32,0.9,0.69,1.29,1.1c0.39,0.3,0.76,0.63,1.1,0.99c1.01,0.82,1.96,1.72,2.83,2.69l2.61,2.54l2.28,2.1
						c0.4,0.4,0.83,0.77,1.29,1.1l0,0c0.57,0.56,1.21,1.04,1.91,1.44l0,0c1.06,0.58,2.18,1.05,3.34,1.4c2.01,0.66,4.1,1.04,6.21,1.1
						c3.34-0.11,6.62-0.96,9.59-2.5c2.83-2.1,5.46-4.45,7.87-7.03l2.87-2.83l0.74-0.63c0.26-0.3,0.56-0.56,0.88-0.77
						c0.92-0.88,1.91-1.69,2.87-2.47C307.75,253.75,307.24,250.58,306.76,247.53z"/>
					<path class="st1" d="M216.53,288.6c0,0,6.91-5.48,12.2,4.56c6.05,9.56,12.92,18.59,20.51,26.98c0,0-7.24,8.94-16.5,8.94
						s-16.21-18.07-16.21-18.07s9.26,25.54,23.23,22.56c8.04-1.65,14.49-7.64,16.76-15.53c0,0-17.42-23.19-26.83-29.78
						c-6.06-4.27-9.89-2.76-11.8-1.18C217.4,287.57,216.95,288.07,216.53,288.6z"/>
					<path class="st3" d="M237.66,320.51c-2.87,0.29-6.47-5.63-6.91-8.54C228.77,299.75,245.05,319.7,237.66,320.51z"/>
					<path class="st1" d="M380.64,384.88c-5.29-18.4-23.16-24.4-30.36-36.8c-6.51-11.26-1.36-32.06-0.26-36.11
						c-0.15,0.23-0.28,0.48-0.37,0.74l0,0c0.02,0.15,0.02,0.3,0,0.44c-0.07,0.21-0.17,0.41-0.29,0.59l0,0l0,0
						c-1.68,3.63-3.83,7.02-6.4,10.08l-1.47,1.58c-0.68,0.68-1.42,1.29-2.21,1.84l-0.55,0.37c-0.88,0.59-1.85,1.02-2.87,1.29
						c-0.56,0.15-1.15,0.21-1.73,0.18c-1.06-0.02-2.12-0.13-3.16-0.33c-0.66-0.12-1.31-0.28-1.95-0.48
						c-0.53-0.16-1.05-0.37-1.54-0.63c-0.5-0.13-0.98-0.35-1.4-0.66c-0.62-0.33-1.25-0.7-1.8-1.07c-0.41-0.23-0.8-0.49-1.18-0.77
						c-0.37-0.24-0.71-0.51-1.03-0.81c-1.61-1.23-3.08-2.64-4.37-4.2l0.26-0.29l0.44-0.44c1.03-1.21,3.31-3.68,5.95-7.03
						c1.03-1.29,2.13-2.61,3.31-4.12c2.9-3.68,5.84-7.36,8.2-11.04c0.85-1.4,1.65-2.76,2.32-3.97c0.55-1.07,1.23-2.07,2.02-2.98
						c0.3-0.37,0.63-0.71,0.99-1.03c0.59-0.56,1.26-1.03,1.98-1.4c0.55-0.29,1.15-0.49,1.76-0.59h2.02
						c0.64,0.11,1.25,0.31,1.84,0.59c0.5,0.18,0.98,0.4,1.43,0.66l0,0l0,0c-0.37-0.37-0.88-0.96-1.54-1.55
						c-3.74-4.18-8.96-6.72-14.56-7.07c-5.23-0.4-10.13,2.56-12.24,7.36c3.45-14.39,3.38-18.4,18.38-14.39c0,0-7.87-10.64-18.05-8.5
						c-4.57,1.86-8.86,4.34-12.75,7.36c-0.96,0.66-1.95,1.36-2.98,2.02l-1.18,0.85l-3.34,2.17c-1.51,0.99-3.12,1.95-4.67,2.94
						c-4.43,2.89-9.11,5.36-14,7.36c-4.93-2.06-9.64-4.6-14.08-7.58l-2.65-1.58c-0.24-0.2-0.52-0.36-0.81-0.48
						c-0.19-0.25-0.44-0.45-0.74-0.55l0,0c-0.23-0.16-0.48-0.3-0.74-0.4l-1.65-1.1c-0.31-0.24-0.64-0.45-0.99-0.63l0,0l-1.32-0.85
						l-3.23-2.21c-3.9-3.02-8.19-5.5-12.75-7.36c-10.18-2.13-17.94,8.5-17.94,8.5c14.7-4.2,14.7,0,18.12,14.39
						c-2.11-4.78-6.99-7.73-12.2-7.36c-5.53,0.44-10.68,2.95-14.44,7.03l-0.51,0.55c-0.15,0.14-0.28,0.28-0.4,0.44
						c-0.26,0.26-0.37,0.48-0.51,0.63c0.44-0.33,0.94-0.58,1.47-0.74c0.25-0.15,0.52-0.26,0.81-0.33c0.37-0.02,0.74-0.02,1.1,0
						c0.12-0.03,0.25-0.03,0.37,0c0.8-0.11,1.62-0.03,2.39,0.22l0.99,0.37c0.44,0.21,0.86,0.45,1.25,0.74
						c0.45,0.32,0.86,0.69,1.21,1.1c0.46,0.47,0.88,0.99,1.25,1.55c0.45,0.65,0.86,1.32,1.21,2.02c0.37,0.59,0.74,1.21,1.1,1.91
						c0.37,0.7,0.88,1.4,1.36,2.06l0,0c0.92,1.44,1.95,2.91,3.01,4.38c4.59,6,9.89,12.59,12.83,15.86l1.36,1.58
						c0.28,0.32,0.57,0.63,0.88,0.92c0,0-7.09,9.13-16.36,8.94c-0.56,0-1.12-0.08-1.65-0.26c-1.18-0.26-2.29-0.76-3.27-1.47
						c-0.56-0.33-1.08-0.72-1.54-1.18c-0.55-0.38-1.04-0.84-1.47-1.36c-0.94-0.98-1.8-2.02-2.57-3.13c-0.44-0.55-0.81-1.1-1.18-1.66
						c-0.81-1.18-1.55-2.41-2.21-3.68c-0.51-0.92-0.92-1.69-1.25-2.43l0,0c-0.13-0.21-0.24-0.43-0.33-0.66
						c-0.1-0.17-0.18-0.36-0.22-0.55c-0.13-0.23-0.24-0.46-0.33-0.7c0,0,0,0,0-0.18c1.03,3.68,6.32,24.88,0,36.25
						c-7.35,12.59-25.07,18.4-30.43,36.8c-5.37,18.4,16.32,41.15,16.32,41.15l6.29-16.27c-0.22,11.58,2.62,23,8.23,33.12
						c9.08,15.31,29.81,23,29.81,23l-6.1-15.68c0,0,13.89,15.64,24.92,21.35c5.4,3.16,11.37,5.22,17.57,6.04
						c6.22-0.82,12.22-2.87,17.64-6.04c11.03-5.7,24.88-21.35,24.88-21.35l-6.06,15.68c0,0,20.66-7.69,29.81-23
						c5.61-10.12,8.45-21.55,8.23-33.12l6.32,16.27C364.1,426.03,385.97,403.43,380.64,384.88z M339.84,400.49l-3.93-8.02
						c1.09,4.55,1.4,9.26,0.92,13.91c-0.59,4.22-2.11,8.25-4.45,11.81l-5.59-12.37c0.19,4.8-0.71,9.59-2.65,13.99
						c-1.84,3.96-4.74,7.32-8.38,9.72l-1.91-5.48c-2.44,4-5.23,7.77-8.34,11.26c-6.09,7.08-13.61,12.78-22.05,16.75
						c-8.44-3.98-15.95-9.68-22.05-16.75c-3.15-3.47-5.94-7.24-8.34-11.26l-1.98,5.48c-3.8-2.33-6.86-5.7-8.82-9.72
						c-1.93-4.4-2.82-9.19-2.61-13.99l-5.51,12.37c-2.28-3.58-3.76-7.61-4.34-11.81c-0.48-4.66-0.17-9.36,0.92-13.91l-3.93,8.02
						c-6.06-15.16,9.67-27.6,22.27-34.23c-3.68-5.96-3.9-11.78,3.31-15.75c-5.59,15.24,17.39,18.7,30.91,19.87
						c13.6-1.18,36.76-4.64,30.98-19.87c7.13,3.97,7.13,9.79,3.31,15.75C330.17,372.89,345.83,385.33,339.84,400.49z"/>
					<path class="st1" d="M283.35,439.06c-9.23-7.95-24.22-21.68-21.39-25.54c2.83-3.86,14.11-5.3,21.39-5.96
						c7.35,0.66,18.6,2.28,21.39,5.96C307.53,417.2,292.57,431.11,283.35,439.06z"/>
					<path class="st1" d="M329.7,384.52c3.01,6.6,3.61,14.05,1.69,21.05l-10.7-8.8c4.15,10.6,2.43,15.83-2.13,25.76
						c-5.92-15.31-19.99-16.93-35.21-21.79c-15.25,4.86-29.4,6.48-35.25,21.79c-4.52-10.08-6.25-15.31-2.21-25.76l-10.62,8.8
						c-1.95-7-1.33-14.46,1.73-21.05l-7.35,3.68c23.52-31.8,27.16-7.36,53.66,2.58c26.46-9.79,30.1-34.38,53.59-2.58L329.7,384.52z"
						/>
					<path class="st1" d="M350.32,288.6c0,0-6.87-5.48-12.2,4.56c-6.08,9.56-12.95,18.58-20.55,26.98c0,0,7.06,8.94,16.58,8.94
						c9.52,0,16.36-18.07,16.36-18.07s-9.41,25.43-23.45,22.56c-8.09-1.6-14.62-7.6-16.91-15.53c0,0,17.39-23.19,26.79-29.78
						c6.1-4.27,9.89-2.76,11.84-1.18c0.54,0.54,1.06,1.1,1.54,1.69V288.6z"/>
					<path class="st3" d="M329,320.51c2.87,0.29,6.43-5.63,6.95-8.54C337.86,299.75,321.61,319.7,329,320.51z"/>
					<path class="st1" d="M427.98,228.39c0.16-0.09,0.3-0.22,0.4-0.37c-0.12,0.15-0.25,0.29-0.4,0.4V228.39z"/>
					<path class="st4" d="M299.15,232.66c0,0-0.62,18.11-11.8,25.14c-11.17,7.03-20.73,15.24-22.53,19.43
						c-2.03,5.69-3.27,11.64-3.68,17.67c0.48,15.61,3.68,10.75,19.55,11.04s23.6-7.03,24.44-22.08
						C305.99,268.8,302.75,238.18,299.15,232.66z"/>
					<path class="st4" d="M296.51,199.9c0.37-2.72,3.68,8.06,2.98,28.01c-0.7,19.95-7.35,27.57-12.83,30.84
						c-5.48,3.28-14.7,9.05-18.38,13.91s-4.93,12.33-5.4,11.04c-2.51-11.77-2.22-23.96,0.85-35.59
						c4.81-16.75,10.07-20.72,16.76-24.48C288.9,218.32,294.71,209.71,296.51,199.9z"/>
					<path class="st4" d="M294.26,165.31c0.26-2.47,3.68,9.53,2.87,26.98c-0.81,17.45-7.72,25.76-12.53,28.49
						c-5.54,3.09-10.52,7.11-14.7,11.89c-3.09,4.42-4.52,11.78-4.96,10.64c-2.05-10.98-1.75-22.27,0.88-33.12
						c4.19-14.72,8.82-18.14,14.7-21.42C286.4,185.48,292.5,182.13,294.26,165.31z"/>
					<path class="st4" d="M291.54,143.41c0.26-1.91,3.42,5.67,2.79,19.58c-0.62,13.91-5.88,20.83-9.74,23.15
						c-4.81,2.71-9.18,6.15-12.94,10.19c-2.54,3.39-3.2,6.62-3.68,5.7c-2.22-8.3-2.34-17.04-0.33-25.4
						c1.41-7.3,6.4-13.4,13.27-16.23C286.68,156.48,290.53,150.31,291.54,143.41z"/>
					<path class="st4" d="M289.6,119.04c1.68,7.38,2.33,14.96,1.95,22.52c-0.76,6.95-3.84,13.43-8.75,18.4
						c-3.68,3.39-7.76,4.27-11.03,8.65c-1.84,2.54-4.08,8.35-4.08,4.64c0-3.72,1.91-25.17,5.62-29.44S287.72,131.7,289.6,119.04z"/>
					<path class="st4" d="M285.77,95.93c0,0,4.59,17.37,3.68,23.11c-1.51,11.74-8.38,16.34-12.53,21.05
						c-4.15,4.71-5.92,8.69-5.92-1.03c0-7.8,3.68-19.06,6.62-33.97C280.22,93.28,281.73,84.15,285.77,95.93z"/>
					<path class="st5" d="M271.66,269.13c-0.45-0.34-0.88-0.71-1.29-1.1c-1.31,1.4-2.53,2.88-3.68,4.42
						c-0.26,0.37-0.55,0.74-0.81,1.18c-0.32,0.43-0.61,0.88-0.85,1.36c-0.19,0.26-0.34,0.54-0.44,0.85
						c-0.13,0.19-0.22,0.4-0.26,0.63c0.25,0.12,0.48,0.27,0.7,0.44l0,0c0.29,0.11,0.55,0.3,0.74,0.55l0,0c0,0,0.29-0.63,0.44-0.96
						c0.11-0.34,0.28-0.66,0.48-0.96c0.15-0.32,0.32-0.63,0.51-0.92c0.37-0.63,0.74-1.25,1.14-1.8l0.26-0.37l0.26-0.26
						c0.85-0.85,1.84-1.77,2.94-2.76C271.66,269.24,271.66,269.13,271.66,269.13z M271.66,269.13c-0.45-0.34-0.88-0.71-1.29-1.1
						c-1.31,1.4-2.53,2.88-3.68,4.42c-0.26,0.37-0.55,0.74-0.81,1.18c-0.32,0.43-0.61,0.88-0.85,1.36
						c-0.19,0.26-0.34,0.54-0.44,0.85c-0.13,0.19-0.22,0.4-0.26,0.63c0.25,0.12,0.48,0.27,0.7,0.44l0,0
						c0.29,0.11,0.55,0.3,0.74,0.55l0,0c0,0,0.29-0.63,0.44-0.96c0.11-0.34,0.28-0.66,0.48-0.96c0.15-0.32,0.32-0.63,0.51-0.92
						c0.37-0.63,0.74-1.25,1.14-1.8l0.26-0.37l0.26-0.26c0.85-0.85,1.84-1.77,2.94-2.76C271.66,269.24,271.66,269.13,271.66,269.13z
						 M306.5,276.13c0-0.85,0-1.66,0-2.5c0-2.39-0.26-4.75-0.44-7.14c-0.18-2.39-0.44-4.75-0.74-7.07
						c-0.37-3.68-0.88-6.92-1.43-10.23c0.02-0.1,0.02-0.2,0-0.29c0-0.33,0-0.55,0-0.81c-0.22-1.55-0.48-2.94-0.77-4.45
						c-0.29-1.51-0.62-2.8-0.99-4.12c0-0.66-0.37-1.4-0.55-2.02l-0.62-1.91l-0.74-1.69l0,0c0-0.55,0-1.07,0-1.55
						c0.3-6.01,0.18-12.04-0.37-18.03c-0.22-2.94-0.55-5.78-1.03-8.5c-0.26-1.32-0.51-2.69-0.88-3.94
						c-0.14-0.54-0.33-1.07-0.55-1.58c0.27-1.83,0.43-3.67,0.48-5.52c0.25-5.45,0.09-10.91-0.48-16.34
						c-0.26-2.58-0.62-5.19-1.07-7.58c-0.22-1.21-0.48-2.47-0.74-3.68c-0.11-0.5-0.26-0.99-0.44-1.47
						c0.17-4.36-0.01-8.73-0.55-13.07c-0.24-1.96-0.61-3.9-1.1-5.82c-0.15-0.89-0.4-1.77-0.74-2.61c0-0.22,0-0.37-0.22-0.55
						c0-1.03,0.22-2.02,0.29-3.13c0.13-2.1,0.13-4.2,0-6.29c-0.12-1.89-0.34-3.77-0.66-5.63c-0.26-1.88-0.62-3.68-0.99-5.19
						c-0.12-0.71-0.28-1.41-0.48-2.1c-0.03-0.24-0.03-0.49,0-0.74c0.1-1.13,0.1-2.26,0-3.39c-0.11-1.75-0.33-3.5-0.66-5.23
						c-0.62-3.09-1.43-5.74-2.1-8.39s-1.47-5.3-2.17-7.99l-0.66-1.84c-0.18-0.63-0.51-1.1-0.7-1.73c-0.31-1.01-0.91-1.9-1.73-2.58
						c-0.74-0.52-1.58,0.22-2.21,1.29c-0.62,1.18-1.14,2.41-1.54,3.68c-0.85,2.58-1.62,5.37-2.28,8.06l-1.91,8.13
						c-1.29,5.41-2.57,11.04-3.68,16.93c-0.26,1.55-0.55,3.13-0.74,4.78c-0.22,1.82-0.35,3.65-0.37,5.48
						c-0.06,0.92-0.06,1.84,0,2.76c0,0.88,0,1.8,0.26,2.83c0,0.37,0,0.92,0.26,1.44c0.26,0.52-0.26,0.74-0.37,1.18
						c-0.96,3.53-1.67,7.12-2.13,10.75c-0.48,3.68-0.92,7.36-1.14,11.04c0,0.96,0,1.95,0,2.87v3.28c-1.17,4.21-1.75,8.55-1.73,12.92
						c-0.03,2.35,0.1,4.7,0.37,7.03c0.24,2.11,0.61,4.2,1.1,6.26c0,0.37,0.22,0.74,0.26,1.1c-0.66,1.84-1.29,3.68-1.91,5.85
						c-0.29,1.1-0.59,2.47-0.92,3.68c-0.33,1.21-0.55,2.65-0.74,4.01c-0.42,2.82-0.69,5.66-0.81,8.5
						c-0.23,5.6,0.09,11.21,0.96,16.75c0.06,0.66,0.15,1.31,0.29,1.95c0.03,0.12,0.03,0.25,0,0.37l-0.77,2.47l-0.92,3.35
						c0,0,0,0,0,0.22c-0.33,1.55-0.7,3.09-0.92,4.67c-0.22,1.58-0.51,3.68-0.7,5.37c-0.41,4.48-0.47,8.98-0.18,13.47
						c0,0.63,0,1.18,0.18,1.73c0.18,2.47,0.49,4.92,0.92,7.36c0,0.74,0.26,1.44,0.44,2.17c0.18,0.74,0.18,0.66,0.26,1.03
						c-0.02,0.17-0.02,0.34,0,0.52c0,0.85-0.37,1.66-0.51,2.5c-0.22,1.47-0.48,3.02-0.66,4.56c-0.12,0.83-0.18,1.67-0.18,2.5
						c-0.08,0.87-0.08,1.74,0,2.61c0.04,1.63,0.18,3.25,0.4,4.86c0.17,1.45,0.63,2.85,1.36,4.12c0.51,0.71,1.19,1.28,1.98,1.66
						c0.62,0.27,1.28,0.45,1.95,0.55c1.21,0.22,2.44,0.31,3.68,0.29l7.57,0.52c2.5,0.28,5.02,0.35,7.53,0.22
						c2.64-0.05,5.25-0.49,7.76-1.32c1.3-0.48,2.53-1.13,3.68-1.91c0.7-0.41,1.35-0.89,1.95-1.44c0.66-0.61,1.27-1.26,1.84-1.95
						c1.51-1.89,2.75-3.98,3.68-6.22c1.1-3.2,1.78-6.53,2.02-9.9c0.37-3.4,0.54-6.81,0.51-10.23H306.5z M270.23,304.69
						c-1.21,0.18-2.5,0.44-3.68,0.52c-1.28,0.17-2.56-0.32-3.42-1.29c-1.1-2.29-1.61-4.82-1.51-7.36c0-0.74,0-1.58,0-2.17
						c0-0.59,0-1.32,0.18-2.06c0-1.44,0.4-2.83,0.66-4.27c0-0.66,0.29-1.36,0.44-2.1c0.12,0.03,0.25,0.03,0.37,0v-0.18h0.18
						c0-0.18,0-0.44,0.29-0.63l0.37-0.92l0.55-1.77c0.55-1.66,1.1-3.17,1.73-4.56c0.34-0.82,0.73-1.62,1.18-2.39
						c1.9-1.75,3.91-3.38,6.03-4.86l0,0l0.62-0.44l7.35-5.23l0.85-0.63l0.37-0.29l2.43-1.73l1.29-0.92h0.4
						c1.32-0.59,2.56-1.36,3.68-2.28c1.21-1.2,2.26-2.55,3.12-4.01c1.22-1.85,2.24-3.84,3.01-5.93c1.58-4.55,2.57-9.29,2.94-14.1
						l0.44,1.4l0.48,2.06c0,0.59,0.26,1.32,0.37,2.02c0.55,2.83,0.92,5.7,1.29,8.69c0,0.22,0,0.48,0,0.74c0.02,0.1,0.02,0.2,0,0.29
						c0.44,3.5,0.99,7.03,1.18,10.53c0.26,2.16,0.33,4.34,0.18,6.51c-0.17,3.18-0.81,6.32-1.91,9.31
						c-6.54,18.4-29.22,27.64-31.39,28.05L270.23,304.69z M262.29,271.34c-0.12-3.55,0-7.1,0.37-10.64c0-1.66,0.4-3.35,0.7-4.86
						s0.74-3.46,1.21-5.12c0,0,0-0.18,0-0.26s0.29-0.92,0.44-1.36c0.62-2.09,1.36-4.14,2.21-6.15c1.28-3.35,3.06-6.47,5.29-9.27
						c1.89-2.18,4.08-4.08,6.51-5.63l1.65-1.1c0.61-0.43,1.18-0.89,1.73-1.4c1.05-0.86,2.02-1.81,2.9-2.83
						c0.37-0.09,0.72-0.21,1.07-0.37c1.17-0.7,2.25-1.55,3.2-2.54c2.48-2.73,4.38-5.93,5.59-9.42c1.05-3.01,1.8-6.12,2.24-9.27
						c0,0.29,0.22,0.66,0.37,1.03c0.29,1.25,0.55,2.54,0.74,3.9c0.37,2.76,0.59,5.52,0.74,8.43c0.15,2.91,0,5.7,0,8.54
						c0,1.44,0,2.83-0.26,4.27s-0.22,2.69-0.37,4.05c-0.5,4.64-1.61,9.2-3.31,13.54c-1.25,3.04-3.03,5.83-5.26,8.24
						c-0.57,0.51-1.17,0.97-1.8,1.4c-1.14,0.81-2.39,1.44-3.68,2.17l-3.68,2.39c-1.29,0.88-2.57,1.8-3.68,2.83l0,0
						c-1.1,0.81-2.13,1.73-3.2,2.65c-1.07,0.92-2.21,2.1-3.23,3.28c-1.31,1.4-2.53,2.88-3.68,4.42c-0.26,0.37-0.55,0.74-0.81,1.18
						c-0.32,0.43-0.61,0.88-0.85,1.36c-0.19,0.26-0.34,0.54-0.44,0.85c-0.13,0.19-0.22,0.4-0.26,0.63
						c-0.07,0.09-0.14,0.19-0.18,0.29c0,0.63-0.4,1.29-0.59,1.99c-0.18,0.7-0.18,0.92-0.33,1.4c-0.02-0.27-0.02-0.54,0-0.81
						c-0.17-1.28-0.32-2.6-0.44-3.97c-0.7-1.29-0.77-2.47-0.85-3.83H262.29z M264.71,224.27c0-2.43,0.4-4.67,0.77-6.85
						c0-1.03,0.44-2.1,0.7-3.09c0.26-0.99,0.48-1.95,0.81-2.94c0.59-1.95,1.29-3.68,1.95-5.52c1.17-2.97,2.78-5.75,4.78-8.24
						c3.38-4.12,7.35-5.67,11.39-9.42c0.15-0.03,0.3-0.03,0.44,0c0.91-0.53,1.75-1.18,2.5-1.91c2.03-2.22,3.58-4.84,4.56-7.69
						c1.27-3.78,2.03-7.72,2.28-11.7c0.04,0.31,0.11,0.62,0.22,0.92c0.26,1.1,0.44,2.28,0.62,3.5c0.38,2.51,0.62,5.04,0.74,7.58
						c0,2.58,0,5.19,0,7.77s-0.26,5.15-0.48,7.36c-0.44,4.16-1.42,8.24-2.9,12.15c-1.19,3.02-2.8,5.85-4.78,8.43
						c-0.8,1.01-1.68,1.97-2.61,2.87c-0.24,0.23-0.5,0.44-0.77,0.63c-1.08,0.72-2.2,1.39-3.34,1.99l-3.38,1.66
						c-1.24,0.6-2.41,1.34-3.49,2.21c-1.34,0.92-2.58,2-3.68,3.2c-2.61,3.25-4.67,6.9-6.1,10.82v0.7c-0.26-2.36-0.37-4.67-0.44-7.1
						c-0.07-2.43,0.15-4.97,0.29-7.29H264.71z M280.52,96.85c0.18-1.25,0.46-2.48,0.85-3.68c0.33-1.03,0.74-1.8,1.25-1.84
						c0.51-0.04,1.1,0.74,1.65,1.55c0.25,0.48,0.47,0.97,0.66,1.47l0.7,1.73c1.39,5.7,2.34,11.49,2.83,17.34
						c0,1.44,0.18,2.94,0,4.01c0,0.29,0,0.37,0,0.55c0.02,0.22,0.02,0.44,0,0.66c0,0.55-0.26,1.18-0.37,1.73
						c-0.56,2.09-1.3,4.14-2.21,6.11l-0.81,1.55c-0.81,1.03-1.62,2.02-2.46,2.94c-2.65,2.87-5.37,5.23-8.16,7.8
						c-0.33,0.37-0.7,0.7-1.07,1.07l-0.55,0.59c0,0-0.44,0.55-0.62,0.88v-1.07c0-0.66,0-1.4,0-1.95c0.19-2.68,0.6-5.34,1.21-7.95
						c1.25-5.3,2.72-10.6,3.93-16.23c0.62-2.8,1.25-5.74,1.73-8.69C279.56,102.48,280,99.61,280.52,96.85z M273.17,148.74
						c0.19-0.4,0.39-0.8,0.62-1.18l0.33-0.44l0.48-0.55l0.99-1.03c3.01-2.99,5.72-6.27,8.09-9.79l0.74-1.29
						c1.1-1.02,2.05-2.18,2.83-3.46c1.38-2.26,2.34-4.76,2.83-7.36c0,0.22,0,0.44,0,0.66c0,1.73,0.29,3.68,0.4,5.23
						c0.27,3.31,0.27,6.63,0,9.94c-0.13,1.41-0.4,2.8-0.81,4.16c-0.3,1.26-0.71,2.49-1.21,3.68c-0.88,2.2-1.92,4.33-3.12,6.37
						c-0.43,0.57-0.82,1.16-1.18,1.77c-0.28,0.17-0.55,0.35-0.81,0.55c-0.76,0.47-1.56,0.86-2.39,1.18
						c-0.74,0.29-1.62,0.55-2.46,0.92c-1.85,0.77-3.55,1.85-5.04,3.2c-1.8,1.67-3.26,3.67-4.3,5.89c0.37-2.8,0.74-5.59,1.21-8.28
						c0.45-2.94,1.12-5.84,1.98-8.69c0.29-0.44,0.51-0.92,0.7-1.47H273.17z M269.09,177.78c0.44-1.34,0.97-2.66,1.58-3.94
						c0.99-2.04,2.32-3.9,3.93-5.48c2.28-2.32,4.81-3.42,7.35-5.7l0,0c1.7-0.9,3.2-2.16,4.37-3.68c1.59-2.17,2.83-4.58,3.68-7.14
						c0.91-2.38,1.55-4.84,1.91-7.36c0.04,0.12,0.04,0.25,0,0.37c0.22,0.74,0.48,1.58,0.66,2.5c0.55,1.9,0.93,3.85,1.14,5.82
						c0.2,3.93,0.07,7.87-0.4,11.78c-0.65,5.72-2.75,11.18-6.1,15.86c-0.62,0.89-1.34,1.72-2.13,2.47l-0.26,0.18
						c-1.91,1.03-3.93,1.66-5.95,2.65c-2.39,1.19-4.55,2.81-6.36,4.78c-1.75,2.17-3.21,4.56-4.34,7.1
						c-0.31-1.68-0.52-3.37-0.62-5.08c-0.28-3.56-0.14-7.15,0.44-10.67C268.23,180.72,268.59,179.23,269.09,177.78z M271.66,269.13
						c-0.45-0.34-0.88-0.71-1.29-1.1c-1.31,1.4-2.53,2.88-3.68,4.42c-0.26,0.37-0.55,0.74-0.81,1.18c-0.32,0.43-0.61,0.88-0.85,1.36
						c-0.19,0.26-0.34,0.54-0.44,0.85c-0.13,0.19-0.22,0.4-0.26,0.63c0.25,0.12,0.48,0.27,0.7,0.44l0,0
						c0.29,0.11,0.55,0.3,0.74,0.55l0,0c0,0,0.29-0.63,0.44-0.96c0.15-0.33,0.29-0.66,0.48-0.96c0.15-0.32,0.32-0.63,0.51-0.92
						c0.37-0.63,0.74-1.25,1.14-1.8l0.26-0.37l0.26-0.26c0.85-0.85,1.84-1.77,2.94-2.76C271.66,269.24,271.66,269.13,271.66,269.13z
						"/>
					<path class="st5" d="M309.63,276.09c0-1.55,0-3.02,0-4.49s-0.22-3.68-0.37-5.37c-0.22-3.13-0.59-6.26-0.92-9.27
						c-0.33-3.02-0.92-6.37-1.4-9.42c0,0,0-0.33,0-0.44s0,0,0-0.26c0-0.92-0.4-1.88-0.59-2.87l-0.48-2.28
						c-0.26-0.99-0.44-2.02-0.74-3.02V238c0-0.52-0.26-0.99-0.37-1.44l-0.66-2.1l-1.03-1.07v-0.88c0.34-6.13,0.24-12.28-0.29-18.4
						c-0.33-3.02-0.62-5.96-1.1-8.76c-0.23-1.4-0.54-2.79-0.92-4.16c-0.07-0.37-0.18-0.73-0.33-1.07c0.31-1.75,0.52-3.52,0.62-5.3
						c0.12-5.56-0.14-11.11-0.77-16.64c-0.29-2.69-0.59-5.26-1.1-7.88c-0.26-1.21-0.48-2.5-0.81-3.68c-0.06-0.38-0.16-0.75-0.29-1.1
						c0.09-4.38-0.14-8.76-0.7-13.1c-0.23-2.07-0.6-4.12-1.1-6.15c-0.22-0.96-0.5-1.91-0.85-2.83c0-0.88,0.18-1.69,0.26-2.54
						c0-2.21,0-4.49,0-6.66c0-2.17-0.37-4.12-0.7-5.96c-0.33-1.84-0.66-3.68-1.03-5.34c-0.09-0.55-0.21-1.09-0.37-1.62
						c0.13-1.38,0.16-2.77,0.11-4.16c-0.03-1.75-0.19-3.5-0.48-5.23v-0.66c-0.55-2.58-1.18-4.93-1.8-7.36l-0.37-1.4
						c-0.74-2.65-1.47-5.23-2.21-8.21l-0.7-1.84c0-0.37-0.29-0.74-0.4-1.1l-0.55-1.21c-0.52-1.5-1.51-2.79-2.83-3.68
						c-0.98-0.55-2.14-0.66-3.2-0.29c-1.43,0.48-2.61,1.5-3.31,2.83c-0.76,1.44-1.38,2.96-1.84,4.53c-0.88,2.72-1.62,5.56-2.28,8.39
						l-2.1,7.91c-1.14,5.12-2.5,10.82-3.68,17.52c-0.22,1.51-0.48,2.98-0.66,4.56c-0.27,1.91-0.41,3.85-0.4,5.78
						c-0.06,1.05-0.06,2.11,0,3.17c0,0.92,0,1.84,0.26,2.83c0.02,0.28,0.02,0.56,0,0.85c0.02,0.18,0.02,0.37,0,0.55
						c-1.04,3.62-1.8,7.31-2.28,11.04c-0.55,4.09-0.92,7.84-1.1,11.48l-0.18,4.67v1.29c-0.52,1.88-0.93,3.78-1.25,5.7
						c-0.36,2.51-0.52,5.05-0.48,7.58c-0.01,2.46,0.11,4.92,0.37,7.36c0.27,2.23,0.66,4.44,1.18,6.62v0.18
						c-0.62,1.66-1.18,3.39-1.65,5.12c-0.26,0.81-0.44,1.73-0.66,2.65l-0.33,1.36c-0.29,1.36-0.55,2.76-0.74,4.16
						c-0.43,2.93-0.71,5.88-0.85,8.83c0,3.31,0,6.22,0,8.83c0,2.61,0.51,5.74,0.88,8.5l0.29,1.66l-0.55,1.8l-0.62,2.21
						c0,0,0,0,0,0.29c-0.51,1.91-0.92,3.94-1.29,6.11c0,1.1-0.37,2.28-0.51,3.46c-0.64,5.16-0.78,10.38-0.44,15.57v0.66
						c0.2,3.33,0.63,6.63,1.29,9.9c0,0.63,0,1.18,0.29,1.69l0.26,0.96l-0.37,1.99c-0.26,1.55-0.51,3.05-0.7,4.75
						c0,0.85,0,1.69,0,2.8c-0.05,0.91-0.05,1.82,0,2.72c0.05,1.75,0.21,3.5,0.48,5.23c0.22,1.89,0.86,3.7,1.87,5.3
						c0.74,1.24,1.86,2.21,3.2,2.76c0.84,0.42,1.75,0.7,2.68,0.81c1.39,0.21,2.79,0.34,4.19,0.37l8.78,0.55
						c1.58,0,3.12,0.26,4.78,0.26c0.64,0.04,1.27,0.04,1.91,0c2.91-0.1,5.79-0.59,8.56-1.47c1.53-0.51,2.98-1.24,4.3-2.17
						c0.63-0.34,1.22-0.75,1.76-1.21l0.74-0.63c0.8-0.73,1.57-1.5,2.28-2.32c1.62-2.15,2.95-4.52,3.93-7.03
						c1.2-3.48,1.94-7.11,2.21-10.78c0-2.32,0.26-4.49,0.26-6.62C309.7,278.74,309.7,277.56,309.63,276.09z M297.9,301.3l-0.74,0.77
						l-0.81,0.59c-0.3,0.28-0.64,0.53-0.99,0.74c-0.98,0.66-2.04,1.18-3.16,1.55c-2.23,0.76-4.56,1.16-6.91,1.18
						c-1.95,0.15-3.9,0.15-5.84,0h-0.29h-1.03h-2.1c7.61-3.68,21.21-11.81,27.53-24.99c0,1.73,0,3.68-0.18,5.41
						c-0.22,3.09-0.86,6.14-1.91,9.05c-0.7,1.92-1.69,3.72-2.94,5.34c-0.17,0.22-0.35,0.43-0.55,0.63
						C297.98,301.56,297.9,301.26,297.9,301.3z M267.18,283.06c0.4-1.34,1.03-2.22,1.76-3.68c0.23-0.67,0.94-1.19,1.25-1.82
						c1.61-1.54,3.33-2.95,5.15-4.23l1.65-1.25l6.25-4.6l4.85-3.39c1.54-0.74,2.97-1.68,4.26-2.8c1.51-1.31,2.83-2.82,3.93-4.49
						c0.52-0.79,0.99-1.61,1.4-2.47c0.14-0.17,0.26-0.37,0.33-0.59c0.48-0.92,0.92-1.84,1.36-2.91l0.21,1.12l0.1,0.55l0.11,0.99
						c0.51,3.37,0.89,6.7,1.04,10.1c0.13,1.51,0.01,2.43-0.02,3.6c-0.28,4.35-1.54,8.57-3.68,12.37
						c-7.98,14.72-26.9,22.08-27.53,22.08c-1.08,0.22-2.17,0.36-3.27,0.44c-0.66,0-0.85,0-0.96,0c-0.56-2-0.78-4.07-0.66-6.15
						c-0.03-0.44-0.03-0.88,0-1.32c0-0.63,0-1.25,0-1.91c0-1.36,0.37-2.72,0.62-4.09 M287.79,224.86c1.47-0.99,2.61-1.83,3.68-3.02
						c1.78-1.85,3.27-3.96,4.41-6.26c0,2.47,0,4.93,0,7.36c0,1.4,0,2.76-0.26,4.12c-0.26,1.36-0.18,1.95-0.26,2.91V231
						c-0.44,4.37-1.48,8.65-3.09,12.73c-1.01,2.57-2.42,4.95-4.19,7.07c-0.49,0.46-1.02,0.88-1.58,1.25
						c-0.65,0.44-1.33,0.85-2.02,1.21l-5.22,3.28c-1.47,0.99-3.01,2.1-4.48,3.31l0,0c-0.99,0.81-1.98,1.62-2.98,2.54
						c-0.99,0.92-2.21,2.1-3.42,3.39c-1.21,1.29-1.87,1.95-2.79,3.05c0-1.88,0-3.68,0.18-5.59s0.29-4.56,0.66-6.81
						c0.26-1.14,0.48-2.32,0.81-3.5c-0.02-0.08-0.02-0.17,0-0.26c0.26-0.85,0.51-1.77,0.81-2.65c0.62-2.13,1.36-4.05,2.1-5.89
						c1.19-3.08,2.82-5.97,4.85-8.58c1.65-1.91,3.55-3.59,5.66-4.97l2.32-1.62l1.29-0.96 M284.82,119.56
						c-0.49,1.91-1.16,3.77-1.98,5.56l-0.48,0.92c-0.68,0.96-1.42,1.88-2.21,2.76c-1.43,1.55-2.83,2.91-4.26,4.2
						c0-0.63,0.26-1.29,0.37-1.88c0.55-2.43,1.18-4.9,1.8-7.36c0.62-2.47,1.47-5.78,2.13-8.8c0.66-3.02,1.25-5.85,1.73-8.8
						c0.33-1.55,0.55-3.09,0.81-4.64c0-0.74,0-1.51,0.29-2.25c1.04,4.74,1.77,9.55,2.17,14.39c0.09,1.31,0.09,2.63,0,3.94
						L284.82,119.56z M293.71,186.36c-0.02,2.46-0.18,4.92-0.48,7.36c-0.39,3.88-1.31,7.7-2.72,11.34
						c-1.06,2.76-2.52,5.35-4.34,7.69c-0.79,1-1.68,1.93-2.65,2.76c-0.92,0.66-1.89,1.25-2.9,1.77l-3.45,1.69
						c-1.4,0.67-2.73,1.49-3.97,2.43c-1.43,1.09-2.75,2.32-3.93,3.68c-0.46,0.51-0.89,1.06-1.29,1.62c0-0.74,0-1.47,0-2.21
						c0-2.21,0.44-4.45,0.81-6.48c0-1.03,0.37-2.02,0.55-2.76l0.29-1.18c0-0.55,0.33-1.1,0.51-1.73c0.62-1.91,1.21-3.68,1.84-5.3
						c1.07-2.65,2.52-5.13,4.3-7.36c1.65-1.88,3.56-3.51,5.66-4.86c1.79-1.2,3.5-2.51,5.11-3.94l0,0c1.21-0.66,2.33-1.49,3.31-2.47
						c1.29-1.31,2.39-2.8,3.27-4.42C293.71,184.67,293.71,185.55,293.71,186.36z M290.4,164.5c-0.56,5.21-2.44,10.19-5.48,14.46
						c-0.51,0.7-1.09,1.36-1.73,1.95c-0.79,0.42-1.61,0.78-2.46,1.07c-0.96,0.44-2.02,0.85-3.05,1.4c-2.65,1.29-5.03,3.06-7.02,5.23
						c-0.01-1.94,0.16-3.87,0.51-5.78c0.21-1.4,0.55-2.78,1.03-4.12c0.38-1.17,0.84-2.31,1.36-3.42c1.56-3.05,3.94-5.6,6.87-7.36
						c1.17-0.74,2.28-1.58,3.31-2.5c2.09-1.12,3.92-2.68,5.37-4.56c0.65-0.81,1.24-1.68,1.76-2.58 M287.68,139.32
						c-0.13,1.24-0.35,2.47-0.66,3.68c-0.29,1.15-0.66,2.28-1.1,3.39c-0.94,2.08-2.02,4.1-3.23,6.04c-0.28,0.34-0.53,0.71-0.74,1.1
						l0,0c-0.7,0.37-1.32,0.7-1.87,0.92l-0.74,0.26c-0.59,0.26-1.29,0.44-1.91,0.74c-1.18,0.53-2.32,1.15-3.42,1.84
						c0.3-2.02,0.74-4.01,1.32-5.96c0.08-0.38,0.21-0.75,0.37-1.1l1.91-2.54c3.26-3.12,6.19-6.56,8.75-10.27l0.59-1.03
						c0.33-0.31,0.63-0.65,0.92-0.99"/>
				</g>
			</g>
			<path class="st1" d="M147.78,134.13c-28.93-17.76-83.39-14.14-83.39-14.14s20.67,25.33,45.34,72.34
				c24.71,47.01,90.64,76.41,90.64,76.41s-36.37-25.86-52.51-54.14c-16.15-28.28-1.83-38.58-13.9-48.13
				c-12.07-9.59-32.29-27.57-32.29-27.57s45.56-8.51,60.36,26.97c14.84,35.52,15.74,61.3,28.85,72.87
				c13.16,11.53,34.98,22.68,34.98,22.68C195.07,227.26,182.73,155.51,147.78,134.13L147.78,134.13z"/>
			<path class="st1" d="M418.98,134.01c28.93-17.8,83.39-14.17,83.39-14.17s-20.67,25.39-45.34,72.52
				c-24.71,47.12-90.64,76.59-90.64,76.59s36.37-25.92,52.51-54.27c16.15-28.35,1.83-38.67,13.9-48.24
				c12.07-9.61,32.29-27.64,32.29-27.64s-45.56-8.53-60.36,27.04c-14.84,35.6-15.74,61.45-28.85,73.04
				c-13.16,11.56-34.98,22.74-34.98,22.74C371.7,227.36,384.04,155.44,418.98,134.01L418.98,134.01z"/>
		</g>
	</g>
</g>
</svg>
