<?xml version="1.0" encoding="utf-8"?>
<!-- Generator: Adobe Illustrator 25.3.1, SVG Export Plug-In . SVG Version: 6.00 Build 0)  -->
<svg version="1.1" id="Слой_1" xmlns="http://www.w3.org/2000/svg" xmlns:xlink="http://www.w3.org/1999/xlink" x="0px" y="0px"
	 viewBox="0 0 938 938" style="enable-background:new 0 0 938 938;" xml:space="preserve">
<style type="text/css">
	.st0{fill:url(#SVGID_1_);}
	.st1{fill:#FFFFFF;}
	.st2{fill:url(#SVGID_2_);}
	.st3{display:none;}
	.st4{display:inline;fill:url(#SVGID_3_);}
	.st5{display:inline;fill:url(#SVGID_4_);}
	.st6{fill:url(#SVGID_5_);}
	.st7{fill:url(#SVGID_6_);}
	.st8{fill:url(#SVGID_7_);}
	.st9{fill:url(#SVGID_8_);}
	.st10{fill:url(#SVGID_9_);}
	.st11{fill:#E273F9;}
	.st12{fill:url(#SVGID_10_);}
	.st13{fill:url(#SVGID_11_);}
	.st14{fill:url(#SVGID_12_);}
	.st15{fill:url(#SVGID_13_);}
	.st16{fill:url(#SVGID_14_);}
	.st17{fill:url(#SVGID_15_);}
	.st18{fill:url(#SVGID_16_);}
	.st19{fill:url(#SVGID_17_);}
	.st20{fill-rule:evenodd;clip-rule:evenodd;fill:#FFFFFF;}
	.st21{fill-rule:evenodd;clip-rule:evenodd;fill:#020203;}
	.st22{fill-rule:evenodd;clip-rule:evenodd;fill:#CF84BD;}
	.st23{fill:#020203;}
	.st24{fill:url(#SVGID_18_);}
	.st25{fill:url(#SVGID_19_);}
	.st26{fill:url(#SVGID_20_);}
</style>
<g id="Восстание_ГИГАНТЮР">
	<linearGradient id="SVGID_1_" gradientUnits="userSpaceOnUse" x1="471.348" y1="942.4436" x2="471.348" y2="0.2499">
		<stop  offset="6.089431e-02" style="stop-color:#45649A"/>
		<stop  offset="0.3076" style="stop-color:#77699F"/>
		<stop  offset="0.5421" style="stop-color:#A06DA3"/>
		<stop  offset="0.7268" style="stop-color:#B96FA6"/>
		<stop  offset="0.8387" style="stop-color:#C270A7"/>
	</linearGradient>
	<rect y="0.2" class="st0" width="942.7" height="942.2"/>
	<g>
		<path class="st1" d="M377.7,567.4c10.3-7,15.7-20.3,29.8-22.2c3.9-0.5,8.2,1.8,12.4,2.8c3.6,0.8,8.9,3.5,10.7,2
			c3.7-3,8-8.5,7.5-12.5c-0.8-7.6-4.3-15.1-7.6-22.2c-4.1-8.9-8.7-17.6-13.8-26c-1.3-2.2-5.1-2.8-7.8-4.1c-1.4,3-4.3,6.2-3.8,9
			c0.7,4.7,7.4,10.1,0.3,13.5c-7.6,3.7-9.2-4.8-12.5-9.2c-1.1-1.5-2.4-2.9-5.1-6.2c-1,4.9-1.4,7.9-2.2,10.7
			c-0.5,1.8-1.4,4.5-2.6,4.8c-1.4,0.4-3.6-1.1-5-2.4c-1.3-1.1-1.7-3.1-3-4.3c-1.5-1.5-4.5-3.9-5.1-3.5c-2.1,1.6-4.8,4.1-4.9,6.4
			c-1.1,13-2.1,26.1-1.9,39.2c0.1,4.7,2.9,10.1,6.1,13.9c8.1,10,9.2,13.2,1.8,23.2c-8.5,11.4-13.6,23.8-15.7,37.8
			c-1.1,7.7-5.9,12-13.5,14.5c-4,1.3-7.5,5.5-10.2,9.2c-3.5,4.9-5.8,10.5-8.7,15.8c-1.1-0.1-2.3-0.1-3.4-0.1
			c-0.5-5-0.9-9.9-1.7-14.9c-0.4-2.6-1.5-5.1-2.3-7.7c-2.2,1.9-5.4,3.3-6.6,5.7c-3.7,7.8-6.6,16-12.1,24.6
			c-1.3-3.4-2.9-6.8-3.8-10.4c-1.5-5.8-3.1-10.1-9.7-4c-1.2,1.2-3.6,1.1-5.4,1.7c-0.4-2.2-1.5-4.5-1.1-6.4
			c2.3-10.8,9.4-18,18.9-22.9c8.9-4.5,18-8.5,27-12.9c11.4-5.7,21.3-23.6,18.3-36.1c-2.9-12.4-7.2-24.6-12.5-36.2
			c-5.6-12.2-13.1-23.4-19.6-35.2c-5.3-9.6-4.2-16,3.2-23.8c17-17.7,32.9-36.8,55.2-48.4c2.6-1.3,5.4-2.3,7.7-3.9
			c5-3.3,11.2-5.9,14.4-10.5c11.3-16.1,10.9-16.4,28-23.5c-6.5-10.8-15.8-17.7-26.9-22.5c-13.6-6-27-11.9-34.2-26.6
			c-2.6-5.2-7.5-9.2-12.9-15.5c-1,4.5-1.3,6.6-2,8.6c-2.1,6.3-4.1,12.7-6.6,18.9c-2.9,7.2-5.8,14.5-9.9,21
			c-3.5,5.5-7.7,12-13.2,14.4c-9.7,4.3-20.5,6.3-31,8.3c-7.4,1.4-15.3,0.8-22.8,1.9c-8.5,1.3-12.2,7.4-11,16
			c0.7,5.2,1.5,10.4,2.1,15.7c0.1,0.5-0.4,1-1.7,3.8c-2.9-4.2-4.8-7.8-7.5-10.5c-1.8-1.8-4.9-2.4-7.5-3.5c-0.5,2.8-2.4,6.4-1.3,8.3
			c4.1,7.2,9.1,13.9,14.5,22.1c-3.6,0.3-6.7,0.6-9.9,0.9c-0.2,0.4-0.7,0.9-0.7,1.3c0.1,3.2,0.3,6.5,0.5,9.7
			c-4.3-0.5-9.2,0.4-12.7-1.6c-15.6-8.8-22.9-40.8-7.6-52c7.9-5.8,12.3-16.6,18.7-25.7c-12.4-1.9-39.5,19.2-39.2,26.4
			c-3.7,4.4-6.3,7.4-9.6,11.4c-8.6,0.5-21.5-7.9-24.1-17.3c-0.6-2.1-0.4-4.7,0.3-6.8c2.8-8.5,6-16.9,8.7-25.5c0.6-2,0.1-4.5,0-6.7
			c-2.1,0.1-4.2-0.2-6.3,0.2c-3.7,0.6-7.5,1.4-11.1,2.5c-4.7,1.4-9.4,3.2-15.2,5.2c-7.2-7.1-6.4-27.9,2.8-35.8
			c8.2-7,16.1-14.4,23.5-22.1c1.9-1.9,1.9-5.9,2.2-9c0.4-3.9,0.1-7.9,0.1-11.9c1.1-0.4,2.2-0.9,3.2-1.3c2.9,4.2,6.2,8.2,8.5,12.8
			c4.5,8.8,4.1,8.7,10.8,2c2.9-2.9,7.2-5.4,11.1-5.9c11.3-1.4,17-10.6,25.3-16.2c1.7-1.1,3.1-2.8,4.9-3.7
			c15.9-7.6,25.2-20.8,32-36.4c0.6-1.4,1.8-2.6,2.7-4c0.9,0.3,1.9,0.6,2.8,0.9c-2,7.8-4.1,15.6-6.1,23.5c0.7,0.3,1.4,0.5,2.1,0.8
			c3.1-6.4,6.3-12.7,10.2-20.6c1.6,3,2.1,4,2.6,4.9c1,2,1.9,3.9,2.9,5.9c2.2-1.3,5.2-2.1,6.3-3.9c5.5-9.5,10.6-19.1,15.4-28.9
			c0.8-1.7,0.2-5-1.1-6.6c-9.5-11.8-18.3-24.5-29.4-34.6c-10-9.1-25-4.4-32.3,8c-3,5.1-5.6,10.4-8.4,15.7c-0.8-0.2-1.7-0.5-2.5-0.7
			c0-2.6-0.4-5.2,0.1-7.8c3.2-20.6-0.5-38.6-18.7-51.4c-2.6-1.8-5.5-3.4-8.4-4.8c-5.8-2.7-9.5-1.2-10.8,5.5c-0.5,2.5-1.8,4.7-3,7.6
			c-7.2-3.3-8.4-9.2-7.8-14.9c2.1-22.4,4.4-44.8,7.4-67.1c1-7.5,1.9-13.6-5.5-18.5c-2.9-1.9-4.4-5.9-7.5-10.4
			c4.3-0.8,6.9-1.3,9.6-1.8c5.2-1,10.8-1,15.4-3.1c10.3-4.8,20.3-3.9,29.7,1c16.3,8.6,32.7,17.3,48.2,27.4
			c25.7,16.8,50.8,34.6,75.9,52.2c2.6,1.8,5.1,5.2,5.6,8.2c1.9,11.2,9.1,16.9,18.6,21.5c4.7,2.3,9,6.1,12.6,10
			c8.8,9.7,16.7,20.4,25.9,29.7c2.2,2.2,9.5,2.9,11.7,1.1c17.6-14.9,37.2-28.5,48.3-49.3c8-15,12.6-31.4-0.5-47.5
			c-8.4-10.3-6.7-22.7,4.2-29.7c6.1-3.9,14.8-3.9,22.4-4.9c6.3-0.9,13,0.4,19.1-1.1c24.9-6.1,50.2-5.2,75.3-4.4
			c8.3,0.3,16.5,5.1,24.6,8.2c4.1,1.5,7.8,4.3,11.9,5.4c40,10.6,76.3,29.1,110.1,52.3c11,7.5,20.7,17.3,29.6,27.3
			c10.2,11.3,19.5,23.5,27.9,36.1c4.8,7.4,6.6,16.7,10.4,24.8c5,10.5,9.7,21.4,16.3,30.8c6,8.6,9.7,16.7,5.8,27.7
			c-2.4-4.8-4.2-10-7.4-14.2c-5.1-6.6-10.7-12.9-16.9-18.4c-2.3-2-7.8-3.1-10.1-1.6c-2.1,1.3-3.5,7-2.5,9.8
			c4.9,14.3,10.6,28.4,16.1,42.5c1.1,2.8,2.5,5.5,3.7,8.2c-0.8,0.7-1.5,1.3-2.3,2c-2.9-2.4-6.2-4.4-8.7-7.1
			c-12.3-13-24.1-26.5-36.8-39.1c-4-4-10.4-7.5-15.8-7.7c-10-0.4-14.9,6.5-15.6,18.5c-0.4,6.7-0.4,13.5-0.6,20.2
			c0,0.4-0.7,0.8-1.5,1.7c-1-1.1-2.3-2-2.6-3.1c-4.2-15.8-14.3-27.6-26.4-37.6c-4.8-4-10.9-6.6-16.8-9c-2.3-0.9-6.4-0.4-8,1.2
			c-1.4,1.4-0.7,5.2-0.2,7.9c0.8,4.6,2.2,9.2,3.3,13.8c-1,0.5-1.9,0.9-2.9,1.4c-4.7-6.7-8.5-14.4-14.4-19.8
			c-9.3-8.6-19.4-16.8-30.4-22.7c-4.5-2.4-13.7,0.1-18.4,3.5c-2.6,1.9-1.3,10.6-0.2,16c1.7,8.3,4.8,16.4,7.3,24.5
			c-1.1,0.5-2.2,1.1-3.3,1.6c-2-2.5-4-4.9-6-7.5c-4.9-6.2-9.3-12.8-14.7-18.5c-5.9-6.3-11.5-6-17.4,0.5c-7.9,8.9-11.2,19.3-7.8,31
			c3.3,11.3,7.3,22.3,10.3,33.6c1,3.8,0.2,8.1,0.2,12.1c-1.1,0.2-2.1,0.4-3.2,0.6c-1.9-3.6-3.7-7.4-5.9-10.9
			c-4.1-6.4-7.7-13.3-12.8-18.8c-5.9-6.4-16.3-7.2-22.8-3.4c-9.5,5.6-15.7,17.2-14,26.5c1.1,6.1,3,12,3.9,18.1
			c0.6,4.7,0.1,9.5,0.1,14.2c-0.9,0.2-1.7,0.4-2.6,0.6c-1-2.1-2-4.2-3.1-6.3c-4.6-8.5-8.9-17.1-14-25.3c-1.2-1.9-4.8-2.1-7.4-3.2
			c0.3,2.8-0.4,6.4,1.1,8.4c4.2,6,9.3,11.4,14.2,17.2c-12.4,8.8-12.4,15.7-1.9,24.5c6.4,5.4,12.8,11,20.9,17.9
			c-2.9,2.8-7.1,5.5-9.3,9.3c-1.1,2,0.4,7.8,2.3,8.9c8.5,4.5,8.7,12.7,10.7,20.2c0.3,1.1,0.4,2.9-0.2,3.4c-8.2,7-1.5,13.7,0.1,20.6
			c1.6,6.4,2.4,12.5-3.1,18c-3.8,3.9-4.3,8.6-1.2,13.7c1.8,3,2.3,6.8,3.8,11.5c-3.5-0.6-5.1-0.9-6.7-1.1c-6-1.1-7.2,2-4.7,6.5
			c1.8,3.3,5.1,5.7,7.2,8.8c4.1,6,8.7,11.9,11.3,18.6c1.2,3.1-2,7.8-3.2,11.8c-2.8-1.4-5.7-2.8-8.6-4.1c-2.5-1.1-5.1-2.1-7.7-3.2
			c-0.6,2.9-2.3,6.1-1.6,8.7c3.2,13.4,7.5,26.5,10.4,40c1,4.5-0.7,9.7-1.2,14.5c-0.9,0.1-1.9,0.1-2.9,0.2c-3.3-4.5-6.5-9-9.8-13.5
			c-0.8,0.2-1.5,0.4-2.3,0.7c0.4,7.3,1.3,14.6,1,21.8c-0.3,7-1.8,13.9-2.7,20.9c-1,0.1-1.9,0.1-2.9,0.2c-2.3-3.4-4.6-6.7-8.3-12.2
			c-1.8,12-3.2,21.8-4.8,32.3c-3.9-1.2-6.3-2-10.5-3.3c0,7.5-0.7,14.7,0.2,21.6c0.9,7.4,1.8,14.3-5.3,21.6c-1.2-2-1.6-3.7-2.7-4.5
			c-2.2-1.5-4.8-2.5-7.2-3.7c-1.1,2.5-3.2,5-3.2,7.5c-0.3,16.5-0.2,32.9-0.2,49.4c0,34.1,0,68.2,0,102.3c0,9.6,2.6,12.1,11.7,9.3
			c17.9-5.5,35.4-11.9,53.2-17.5c5.2-1.7,10.9-2.3,16.4-2.8c9.5-0.9,18-2.9,25.8-9.5c7.2-6.1,17.5-8.9,24.1-15.5
			c11.7-11.7,24.5-23.1,29.2-40.1c1-3.5,3.4-6.5,5.1-9.8c9.8,5.8-6.9,16.8,8,19.5c-9.9,10-18.8,19-27.7,27.9
			c0.5,0.9,1.1,1.8,1.6,2.7c4.3,0,8.5,0,12.8,0c0,1.8,0.2,2.7,0,2.8c-12.9,6.4-21.6,16.8-31.1,27.4c-8.5,9.5-22.2,14.5-33.7,21.3
			c-6.3,3.7-12.8,7-19.1,10.6c-0.8,0.5-1.1,1.8-2.3,4c8.4,1,15.7,2.1,23.1,2.7c29.2,2.5,58.4,4.7,87.6,7.3c3.1,0.3,7.3,0.9,8.9,3
			c2.7,3.6,5.1,8.5,5.1,12.8c0,2.8-4.1,7.4-7.1,8c-16,3.4-32.2,6.8-48.5,8.3c-31.2,3.1-62.5,5.5-93.8,7.1
			c-27.8,1.4-55.7,1.9-83.6,1.9c-32.9,0-65.8-0.2-98.6-1.9c-38.3-2-76.5-5.6-114.8-8.8c-4.1-0.3-8.9-0.7-11.8-3
			c-3.4-2.7-6.8-7.4-7.2-11.4c-0.2-2.9,4.1-8.3,7.2-9c14.3-3.1,28.8-5.1,43.3-7.2c6.1-0.9,12.4-0.7,18.3-2.3c2.3-0.6,5.6-4.8,5.4-7
			c-3.3-32,5.1-60.7,22.6-87.3c4-6.1,6.5-13.3,10.8-19.2c7.5-10.3,15.5-20.5,24.2-29.8c14.4-15.4,29.6-30,44.2-45.2
			c11.5-12,23.7-23.5,33.7-36.7c7.5-9.9,12.3-21.9,17.4-33.3c3.5-7.8-6.1-9.2-9.1-13.9c-2.9-4.6-8.6-8.2-13.8-10.4
			c-5-2.1-10.9-2.1-16.5-2.5c-5.5-0.4-11-0.1-16.5-0.1C378.4,569.9,378.1,568.7,377.7,567.4z M378.9,760c-1-0.5-2-0.9-3-1.4
			c-1.1-3.1-2.3-6.1-4-10.9c-10.4,11.7-4.4,30.7-20.8,37.7c-0.7-3.2-1.2-5.8-2-9.1c-7.1,5.6-7.2,12.5-7.4,19.6
			c-0.3,12.5-3.8,15.7-15.9,14.4c-1.5,3.8-4,7.8-4.2,11.9c-0.1,2.6,2.7,6.8,5.2,7.8c4.2,1.7,9.2,2,13.8,2.1
			c33.1,0.2,66.1,0.2,99.2,0.2c11.4,0,12.2-0.8,12.2-11.8c0-42.3,0-84.6,0-127c0-3-0.6-6-0.9-8.9c-0.8-0.2-1.6-0.4-2.5-0.6
			c-1.6,2.8-3.2,5.6-5,8.3c-4.5,6.5-5.7,17.1-17.8,14.5c-1.2-0.2-3.4,2.2-4.4,3.8c-1.9,3.3-3.1,7-5.1,10.2
			c-3.6,5.9-6.3,13.1-15.7,14.9c0-3.4,0.4-5.7-0.1-7.8c-0.6-2.5-2.1-4.7-3.2-7.1c-1.9,1.9-4.9,3.5-5.7,5.8
			c-1.9,5.5-2.2,11.6-4.3,17.1C385.2,749.5,381.7,754.6,378.9,760z M311.2,200.9c2.5,5.8,3.3,10,5.7,12.6c1.5,1.7,7.4,2.3,8.1,1.3
			c4.6-7.3,9.7-14.7,12.2-22.9c2.5-7.9-5.4-13.7-12-8.7C319,187.6,315.3,195.3,311.2,200.9z"/>
	</g>
</g>
</svg>
