<?xml version="1.0" encoding="utf-8"?>
<!-- Generator: Adobe Illustrator 25.3.1, SVG Export Plug-In . SVG Version: 6.00 Build 0)  -->
<svg version="1.1" id="Слой_1" xmlns="http://www.w3.org/2000/svg" xmlns:xlink="http://www.w3.org/1999/xlink" x="0px" y="0px"
	 viewBox="0 0 566.9 566.9" style="enable-background:new 0 0 566.9 566.9;" xml:space="preserve">
<style type="text/css">
	.st0{fill:url(#SVGID_1_);}
	.st1{fill:#FFFFFF;}
</style>
<linearGradient id="SVGID_1_" gradientUnits="userSpaceOnUse" x1="283.45" y1="8.995117e-02" x2="283.45" y2="566.99" gradientTransform="matrix(1 0 0 -1 0 567.89)">
	<stop  offset="0.1058" style="stop-color:#115086"/>
	<stop  offset="0.9674" style="stop-color:#CADCE6"/>
</linearGradient>
<rect y="0.9" class="st0" width="566.9" height="566.9"/>
<g>
	<path class="st1" d="M262.5,348c5.9-4,9-11.6,17-12.6c2.2-0.3,4.7,1,7.1,1.6c2.1,0.5,5,2,6.1,1.1c2.1-1.7,4.5-4.9,4.3-7.1
		c-0.5-4.3-2.5-8.6-4.3-12.7c-2.3-5.1-5-10-7.9-14.8c-0.7-1.2-2.9-1.6-4.4-2.4c-0.8,1.7-2.4,3.6-2.2,5.1c0.4,2.7,4.2,5.8,0.2,7.7
		c-4.3,2.1-5.2-2.7-7.1-5.2c-0.6-0.9-1.3-1.7-2.9-3.6c-0.6,2.8-0.8,4.5-1.3,6.1c-0.3,1-0.8,2.5-1.5,2.7c-0.8,0.2-2.1-0.6-2.9-1.3
		c-0.7-0.6-1-1.8-1.7-2.5c-0.9-0.9-2.6-2.2-2.9-2c-1.2,0.9-2.7,2.3-2.8,3.6c-0.6,7.4-1.2,14.9-1.1,22.3c0.1,2.7,1.7,5.7,3.5,7.9
		c4.6,5.7,5.2,7.5,1,13.2c-4.8,6.5-7.8,13.6-8.9,21.5c-0.6,4.4-3.4,6.8-7.7,8.2c-2.3,0.8-4.3,3.1-5.8,5.2c-2,2.8-3.3,6-4.9,9
		c-0.6,0-1.3,0-1.9-0.1c-0.3-2.8-0.5-5.7-0.9-8.5c-0.2-1.5-0.9-2.9-1.3-4.4c-1.3,1.1-3.1,1.9-3.7,3.3c-2.1,4.5-3.8,9.1-6.9,14
		c-0.7-2-1.7-3.9-2.2-5.9c-0.9-3.3-1.8-5.8-5.5-2.3c-0.7,0.7-2,0.6-3.1,1c-0.2-1.2-0.9-2.5-0.6-3.7c1.3-6.2,5.4-10.3,10.8-13
		c5.1-2.6,10.3-4.8,15.4-7.4c6.5-3.2,12.1-13.5,10.4-20.6c-1.7-7-4.1-14-7.1-20.6c-3.2-6.9-7.5-13.3-11.2-20
		c-3-5.5-2.4-9.1,1.8-13.6c9.7-10.1,18.7-21,31.5-27.6c1.5-0.8,3-1.3,4.4-2.2c2.8-1.9,6.4-3.4,8.2-6c6.4-9.2,6.2-9.4,15.9-13.4
		c-3.7-6.1-9-10.1-15.3-12.9c-7.8-3.4-15.4-6.8-19.5-15.1c-1.5-3-4.3-5.3-7.3-8.9c-0.6,2.6-0.8,3.8-1.1,4.9
		c-1.2,3.6-2.3,7.2-3.8,10.8c-1.7,4.1-3.3,8.3-5.6,12c-2,3.1-4.4,6.8-7.6,8.2c-5.5,2.4-11.7,3.6-17.6,4.7c-4.2,0.8-8.7,0.4-13,1.1
		c-4.8,0.8-7,4.2-6.3,9.1c0.4,3,0.8,6,1.2,8.9c0,0.3-0.2,0.6-1,2.2c-1.7-2.4-2.7-4.5-4.3-6c-1.1-1-2.8-1.4-4.3-2
		c-0.3,1.6-1.3,3.6-0.7,4.7c2.3,4.1,5.2,7.9,8.3,12.6c-2,0.2-3.8,0.3-5.7,0.5c-0.1,0.2-0.4,0.5-0.4,0.8c0.1,1.9,0.2,3.7,0.3,5.5
		c-2.4-0.3-5.3,0.2-7.2-0.9c-8.9-5-13-23.2-4.3-29.6c4.5-3.3,7-9.4,10.7-14.7c-7.1-1.1-22.5,10.9-22.4,15c-2.1,2.5-3.6,4.2-5.5,6.5
		c-4.9,0.3-12.3-4.5-13.7-9.9c-0.3-1.2-0.2-2.7,0.2-3.9c1.6-4.9,3.4-9.7,5-14.5c0.4-1.2,0-2.6,0-3.8c-1.2,0-2.4-0.1-3.6,0.1
		c-2.1,0.4-4.3,0.8-6.3,1.4c-2.7,0.8-5.3,1.8-8.7,2.9c-4.1-4-3.7-15.9,1.6-20.4c4.7-4,9.2-8.2,13.4-12.6c1.1-1.1,1.1-3.4,1.2-5.1
		c0.2-2.2,0.1-4.5,0.1-6.8c0.6-0.2,1.2-0.5,1.9-0.8c1.6,2.4,3.5,4.7,4.8,7.3c2.6,5,2.4,4.9,6.2,1.1c1.6-1.6,4.1-3.1,6.4-3.3
		c6.4-0.8,9.7-6.1,14.4-9.2c1-0.6,1.8-1.6,2.8-2.1c9-4.3,14.4-11.9,18.2-20.7c0.4-0.8,1-1.5,1.5-2.3c0.5,0.2,1.1,0.3,1.6,0.5
		c-1.2,4.5-2.3,8.9-3.5,13.4c0.4,0.2,0.8,0.3,1.2,0.5c1.8-3.6,3.6-7.2,5.8-11.8c0.9,1.7,1.2,2.3,1.5,2.8c0.6,1.1,1.1,2.2,1.7,3.4
		c1.2-0.7,3-1.2,3.6-2.2c3.1-5.4,6-10.9,8.8-16.5c0.5-0.9,0.1-2.9-0.6-3.7c-5.4-6.7-10.4-14-16.7-19.7c-5.7-5.2-14.2-2.5-18.4,4.6
		c-1.7,2.9-3.2,5.9-4.8,8.9c-0.5-0.1-1-0.3-1.4-0.4c0-1.5-0.2-3,0-4.4c1.9-11.7-0.3-22-10.6-29.3c-1.5-1-3.1-1.9-4.8-2.7
		c-3.3-1.5-5.4-0.7-6.2,3.2c-0.3,1.4-1.1,2.7-1.7,4.3c-4.1-1.9-4.8-5.2-4.4-8.5c1.2-12.8,2.5-25.6,4.2-38.3
		c0.6-4.3,1.1-7.8-3.1-10.5c-1.6-1.1-2.5-3.4-4.3-6c2.4-0.5,3.9-0.7,5.5-1c2.9-0.6,6.1-0.6,8.8-1.8c5.9-2.7,11.6-2.2,16.9,0.6
		c9.3,4.9,18.6,9.9,27.4,15.6c14.6,9.6,28.9,19.7,43.3,29.8c1.5,1,2.9,2.9,3.2,4.7c1.1,6.4,5.2,9.6,10.6,12.2
		c2.7,1.3,5.1,3.5,7.2,5.7c5,5.6,9.5,11.6,14.8,16.9c1.2,1.3,5.4,1.7,6.7,0.6c10-8.5,21.2-16.2,27.5-28.1c4.6-8.6,7.2-17.9-0.3-27.1
		c-4.8-5.9-3.8-13,2.4-17c3.5-2.2,8.4-2.2,12.8-2.8c3.6-0.5,7.4,0.2,10.9-0.6c14.2-3.5,28.6-3,42.9-2.5c4.7,0.2,9.4,2.9,14,4.7
		c2.3,0.9,4.4,2.5,6.8,3.1c22.8,6,43.5,16.6,62.7,29.8c6.2,4.3,11.8,9.9,16.9,15.6c5.8,6.4,11.1,13.4,15.9,20.6
		c2.8,4.2,3.8,9.5,5.9,14.2c2.8,6,5.5,12.2,9.3,17.6c3.4,4.9,5.5,9.5,3.3,15.8c-1.4-2.7-2.4-5.7-4.2-8.1c-2.9-3.8-6.1-7.3-9.7-10.5
		c-1.3-1.2-4.5-1.7-5.8-0.9c-1.2,0.8-2,4-1.4,5.6c2.8,8.2,6.1,16.2,9.2,24.2c0.6,1.6,1.4,3.1,2.1,4.7c-0.4,0.4-0.9,0.8-1.3,1.1
		c-1.7-1.3-3.5-2.5-5-4c-7-7.4-13.7-15.1-21-22.3c-2.3-2.3-5.9-4.2-9-4.4c-5.7-0.2-8.5,3.7-8.9,10.6c-0.2,3.8-0.2,7.7-0.4,11.5
		c0,0.2-0.4,0.5-0.9,1c-0.6-0.6-1.3-1.1-1.5-1.8c-2.4-9-8.1-15.7-15-21.4c-2.8-2.3-6.2-3.8-9.6-5.1c-1.3-0.5-3.7-0.2-4.6,0.7
		c-0.8,0.8-0.4,3-0.1,4.5c0.5,2.6,1.2,5.2,1.9,7.9c-0.5,0.3-1.1,0.5-1.7,0.8c-2.7-3.8-4.8-8.2-8.2-11.3c-5.3-4.9-11-9.6-17.3-12.9
		c-2.6-1.4-7.8,0-10.5,2c-1.5,1.1-0.7,6.1-0.1,9.1c1,4.7,2.7,9.3,4.1,14c-0.6,0.3-1.2,0.6-1.9,0.9c-1.1-1.4-2.3-2.8-3.4-4.2
		c-2.8-3.5-5.3-7.3-8.4-10.6c-3.4-3.6-6.6-3.4-9.9,0.3c-4.5,5.1-6.4,11-4.5,17.7c1.9,6.4,4.1,12.7,5.9,19.1c0.6,2.2,0.1,4.6,0.1,6.9
		c-0.6,0.1-1.2,0.2-1.8,0.4c-1.1-2.1-2.1-4.2-3.4-6.2c-2.3-3.6-4.4-7.6-7.3-10.7c-3.4-3.6-9.3-4.1-13-1.9c-5.4,3.2-9,9.8-8,15.1
		c0.6,3.5,1.7,6.8,2.2,10.3c0.4,2.7,0.1,5.4,0.1,8.1c-0.5,0.1-1,0.2-1.5,0.3c-0.6-1.2-1.1-2.4-1.8-3.6c-2.6-4.8-5.1-9.8-8-14.4
		c-0.7-1.1-2.8-1.2-4.2-1.8c0.2,1.6-0.2,3.6,0.6,4.8c2.4,3.4,5.3,6.5,8.1,9.8c-7.1,5-7.1,8.9-1.1,14c3.7,3.1,7.3,6.2,11.9,10.2
		c-1.7,1.6-4.1,3.1-5.3,5.3c-0.6,1.2,0.2,4.5,1.3,5.1c4.9,2.6,5,7.2,6.1,11.5c0.2,0.6,0.2,1.6-0.1,1.9c-4.7,4-0.9,7.8,0.1,11.7
		c0.9,3.7,1.4,7.1-1.7,10.3c-2.2,2.2-2.5,4.9-0.7,7.8c1,1.7,1.3,3.9,2.2,6.5c-2-0.3-2.9-0.5-3.8-0.6c-3.4-0.6-4.1,1.1-2.7,3.7
		c1,1.9,2.9,3.2,4.1,5c2.3,3.4,5,6.8,6.4,10.6c0.7,1.7-1.1,4.5-1.9,6.7c-1.6-0.8-3.2-1.6-4.9-2.3c-1.4-0.6-2.9-1.2-4.4-1.8
		c-0.4,1.7-1.3,3.5-0.9,4.9c1.8,7.6,4.2,15.1,5.9,22.8c0.6,2.6-0.4,5.5-0.7,8.3c-0.5,0-1.1,0.1-1.6,0.1c-1.9-2.6-3.7-5.1-5.6-7.7
		c-0.4,0.1-0.9,0.2-1.3,0.4c0.2,4.1,0.7,8.3,0.6,12.4c-0.1,4-1,7.9-1.5,11.9c-0.5,0-1.1,0.1-1.7,0.1c-1.3-1.9-2.6-3.8-4.7-7
		c-1,6.9-1.8,12.4-2.7,18.4c-2.2-0.7-3.6-1.1-6-1.9c0,4.3-0.4,8.4,0.1,12.3c0.5,4.2,1,8.2-3,12.3c-0.7-1.1-0.9-2.1-1.5-2.5
		c-1.3-0.9-2.7-1.4-4.1-2.1c-0.6,1.4-1.8,2.9-1.8,4.3c-0.2,9.4-0.1,18.8-0.1,28.1c0,19.4,0,38.9,0,58.3c0,5.5,1.5,6.9,6.7,5.3
		c10.2-3.1,20.2-6.8,30.3-10c3-1,6.2-1.3,9.4-1.6c5.4-0.5,10.3-1.6,14.7-5.4c4.1-3.5,10-5,13.7-8.8c6.6-6.7,13.9-13.2,16.7-22.9
		c0.5-2,1.9-3.7,2.9-5.6c5.6,3.3-3.9,9.5,4.5,11.1c-5.6,5.7-10.7,10.8-15.8,15.9c0.3,0.5,0.6,1,0.9,1.5c2.4,0,4.9,0,7.3,0
		c0,1,0.1,1.5,0,1.6c-7.3,3.6-12.3,9.5-17.7,15.6c-4.8,5.4-12.6,8.3-19.2,12.2c-3.6,2.1-7.3,4-10.9,6c-0.5,0.3-0.6,1-1.3,2.3
		c4.8,0.6,9,1.2,13.2,1.5c16.6,1.4,33.3,2.7,49.9,4.1c1.8,0.2,4.2,0.5,5.1,1.7c1.6,2.1,2.9,4.8,2.9,7.3c0,1.6-2.4,4.2-4,4.5
		c-9.1,1.9-18.3,3.8-27.6,4.8c-17.8,1.7-35.6,3.1-53.4,4c-15.9,0.8-31.8,1.1-47.6,1.1c-18.7,0-37.5-0.1-56.2-1.1
		c-21.8-1.1-43.6-3.2-65.4-5c-2.3-0.2-5.1-0.4-6.7-1.7c-2-1.5-3.9-4.2-4.1-6.5c-0.1-1.6,2.3-4.7,4.1-5.1c8.1-1.8,16.4-2.9,24.7-4.1
		c3.5-0.5,7.1-0.4,10.4-1.3c1.3-0.3,3.2-2.7,3.1-4c-1.9-18.2,2.9-34.6,12.9-49.8c2.3-3.5,3.7-7.6,6.1-10.9c4.3-5.9,8.8-11.7,13.8-17
		c8.2-8.8,16.9-17.1,25.2-25.8c6.6-6.8,13.5-13.4,19.2-20.9c4.2-5.6,7-12.5,9.9-19c2-4.5-3.5-5.2-5.2-7.9c-1.6-2.6-4.9-4.7-7.9-5.9
		c-2.8-1.2-6.2-1.2-9.4-1.4c-3.1-0.2-6.3,0-9.4,0C262.9,349.5,262.7,348.8,262.5,348z M263.1,457.8c-0.6-0.3-1.1-0.5-1.7-0.8
		c-0.6-1.8-1.3-3.5-2.3-6.2c-5.9,6.7-2.5,17.5-11.9,21.5c-0.4-1.8-0.7-3.3-1.1-5.2c-4,3.2-4.1,7.1-4.2,11.2c-0.2,7.1-2.1,9-9.1,8.2
		c-0.8,2.2-2.3,4.5-2.4,6.8c-0.1,1.5,1.5,3.9,2.9,4.5c2.4,1,5.2,1.2,7.9,1.2c18.8,0.1,37.7,0.1,56.5,0.1c6.5,0,7-0.4,7-6.8
		c0-24.1,0-48.2,0-72.4c0-1.7-0.3-3.4-0.5-5.1c-0.5-0.1-0.9-0.2-1.4-0.3c-0.9,1.6-1.8,3.2-2.8,4.7c-2.6,3.7-3.2,9.7-10.2,8.3
		c-0.7-0.1-1.9,1.2-2.5,2.2c-1.1,1.9-1.8,4-2.9,5.8c-2.1,3.4-3.6,7.5-9,8.5c0-1.9,0.2-3.2-0.1-4.4c-0.4-1.4-1.2-2.7-1.8-4
		c-1.1,1.1-2.8,2-3.2,3.3c-1.1,3.1-1.3,6.6-2.4,9.7C266.8,451.8,264.8,454.7,263.1,457.8z M224.6,139.2c1.4,3.3,1.9,5.7,3.2,7.2
		c0.9,0.9,4.2,1.3,4.6,0.7c2.6-4.1,5.5-8.4,6.9-13c1.4-4.5-3.1-7.8-6.9-5C229,131.6,226.9,136,224.6,139.2z"/>
</g>
</svg>
