<?xml version="1.0" encoding="utf-8"?>
<!-- Generator: Adobe Illustrator 25.3.1, SVG Export Plug-In . SVG Version: 6.00 Build 0)  -->
<svg version="1.1" id="Слой_1" xmlns="http://www.w3.org/2000/svg" xmlns:xlink="http://www.w3.org/1999/xlink" x="0px" y="0px"
	 viewBox="0 0 566.9 566.9" style="enable-background:new 0 0 566.9 566.9;" xml:space="preserve">
<style type="text/css">
	.st0{fill:url(#SVGID_1_);}
	.st1{fill:#FFFFFF;}
</style>
<linearGradient id="SVGID_1_" gradientUnits="userSpaceOnUse" x1="283.45" y1="8.995117e-02" x2="283.45" y2="566.99" gradientTransform="matrix(1 0 0 -1 0 567.89)">
	<stop  offset="0.1058" style="stop-color:#115086"/>
	<stop  offset="0.9674" style="stop-color:#CADCE6"/>
</linearGradient>
<rect y="0.9" class="st0" width="566.9" height="566.9"/>
<g>
	<path class="st1" d="M173,109.9c0.4-0.3,0.9-0.4,1.1-0.7c4.8-7.4,12-12.3,19.1-17c4.8-3.2,10.5-5.1,15.8-7.4
		c5.3-2.2,9.5-5.8,10.9-11.2c1.7-6.6,2.3-13.4,3.3-20.2c0.3-2.9,0.7-5.9,1.4-8.7c1-3.7,3.2-6.5,7.4-7.3c1.6-0.4,3.1-1.1,4.4-2
		c5.3-2.9,9.8-1.4,13.7,4.6c2.4,3.7,1.1,9.2-2.7,12.3c-2.3,1.9-4.5,3.7-7.8,3.6c-2.1-0.1-2.2,1.8-1.8,3.1c1.4,4.8,0.4,9.6,0.4,14.3
		c0,7.1-2.7,13.8-7.6,18.9c-3.4,3.4-7.7,6.1-11.9,8.6c-7.9,4.7-14.9,10.7-20.6,18c-2.2,2.8-2.7,6.9-3.8,10.5c0,0.8,0.5,1.5,1.1,1.8
		c1.2,0.1,2.8,0.2,3.7-0.5c2.1-1.8,4-3.8,5.8-5.9c4.6-5.6,10.5-10.1,17.2-13c4.4-1.9,8.9-0.5,13.1,0.7c2.8,0.8,3.5-0.1,3.9-2.3
		c0.1-0.3,0.1-0.6,0.1-0.9c0.6-7,4.1-9.3,11.6-10.1c2.8-0.4,5.6,1,7,3.5c1.7,2.8,1.1,5.7-0.5,8.4c-2.6,4.2-5.1,8.5-7.9,12.6
		c-1.8,2.8-3.9,5.4-5.9,8c-1,1.3-1.6,2.7,0.3,3.5c1.8,0.7,4.3,2.8,5.6-0.2c3.5-8.1,11.1-9.6,18.2-11.2c6-1.3,11.6,5.8,10,11.8
		c-0.2,0.7-0.3,1.5-0.4,2.5c3.8-0.3,5.8-2.6,7.6-5c4.1-5.5,7.1-11.6,9-18.2c2-6.6,12.1-10.3,16.7-6c3.7,3.5,3.4,10.5-1.2,13.3
		c-6.2,3.8-9,9.4-11.6,15.9c-3.8,9.9-11.8,15.7-21.9,18.9c-7.5,2.4-15.4,3.5-23.2,3.1c-0.4,0-0.8,0.1-1.2,0.2
		c-0.2,0.1-0.3,0.2-0.5,0.4c0.1,0.3,0.1,0.7,0.3,0.8c6.6,5.1,12.9,10.8,20.1,15c2.9,1.7,7.8,0.9,11.5,0c3-0.7,5.6-3.2,8.1-5.2
		c1.1-0.9,1.7-2.3,1.7-3.8c-1.2-5.7,3-8.9,5.8-12.6c3.2-4.4,7.3-4.2,11.4-0.2c2.8,2.8,2.5,8-0.4,11.1c-2.2,2.2-4,4.7-5.5,7.5
		c-5.5,11.2-20.1,18.8-32.5,16.4c-3.6-0.8-7.1-1.9-10.5-3.3c-2.2-0.9-3.5-0.2-4.6,1.6c-1.3,1.9-1,3.4,0.8,4.8c2.3,1.5,4.5,3.2,6.6,5
		c1.1,1.1,2.2,3.2,1.9,4.4c-0.3,1.2-2.5,1.9-3.9,2.7c-1,0.4-1.9,0.7-2.9,1c1.7,1.4,3,2.3,4.1,3.4c0.7,0.9,1.4,1.8,2,2.8
		c-1.2,0.7-2.3,1.8-3.5,1.9c-2.3,0-4.7-0.2-7-0.5c-0.9,0-1.7,0.1-2.6,0.2c1.4,2,2.5,3.6,3.7,5.1c2.3,3,1.8,4.9-2,5.5
		c-2,0.3-3.8,0.5-4.3,2.9c0,0.2-0.4,0.4-0.6,0.6c-2.2,1.8-4.4,3.5-6.2,5.1c1.4,3.4,2.5,6.3,3.8,9.2c1.2,2.6,0.2,4-2.4,4.3
		c-2.3,0.3-2.5,1.3-2,3.3c0.6,2.4,0.7,4.9,1.1,7.4c0.2,0.8,0.7,1.6,1.2,2.3c2.2,3.2,4.5,6.3,6.4,9.6c0.4,1.2,0.2,2.5-0.6,3.4
		c-0.7,0.6-2.5,0.6-3.4,0.2c-2.7-1.3-5.1-2.9-7.7-4.4c-3.3-1.9-5.9-1.2-8,1.9c-4.5,6.3-8.6,13-13.6,18.8c-2.7,3.2-6.9,5.4-10.7,7.5
		c-4.4,2.5-9.1,4.5-12.5,8.5c-0.7,0.9-1.7,2-1.7,3c0.1,7.9,0.4,15.7,0.7,23.6c0,1.3,0.4,2.6,0.4,3.9c0.4,11.7,0.8,23.5,1.3,35.2
		c0.1,1.7-0.1,3.8,0.8,5.1c1,1.5,2.6,2.5,4.4,2.9c3.5,0.4,7.1,0.1,10.7,0.2c14.5,0.2,29,0.8,43.2,4.2c0.8,0.2,1.6,0.4,2.4,0.6
		c7,2.2,9.3,5.6,8.3,12.8c-0.7,4.9-4.7,6.7-8.6,7.7c-8.8,2.3-17.7,4.2-26.6,5.6c-10.7,1.5-21.5,2.5-32.3,3.1
		c-13.9,0.8-27.8,1.4-41.6,1.2c-12.7-0.2-25.6-0.2-38.1-3.4c-4.8-1.2-7.4-3.4-7.8-7c-0.8-7.3,1-12.1,6.2-13.5
		c9.8-2.7,19.8-5.1,29.8-6.9c8.9-1.6,18-2.2,27-3.2c2.7-0.3,4.1-1.7,4-4.4c-0.6-14.2-1.1-28.3-1.8-42.5c-0.2-4.3-0.2-8.6-0.6-12.8
		c-0.6-5.6-3.2-8.4-8.9-10c-7-2-14-4.2-21-6.3c-5.5-1.6-9-5.6-12.4-9.9c-1.7-2.2-3.4-4.3-5.1-6.5c-1.2-1.5-2.2-1.3-3.1,0.3
		c-0.3,0.5-0.5,1.1-0.9,1.6c-1.5,2.2-2.7,2.2-3.9-0.2c-0.9-1.7-1.6-1.7-3-0.6c-1.3,0.7-2.6,1.2-4,1.6c-0.5-1.3-0.8-2.6-1-4
		c-0.1-4.7,0-9.4,0-14.1c-4.2-1.7-5-3.2-3.5-8.1c0.7-2.4,1.1-4-2.2-4.4c-2.1-0.3-2.3-2.2-2-4.1c1-5.8,0.4-6.3-5.3-4.6
		c-3.9,1.1-5.1,0.2-4.1-3.7c0.4-1.8-0.1-2.4-1.8-2.6c-2.7-0.3-3.4-1.7-2.5-4.3c0.6-1.9,1-3.9,1.3-5.9c-1.9-0.1-3.9-0.1-5.8-0.2
		c-3.1-0.1-6.2,0.3-9.2-1.6c-1-0.7-3.1,0.3-4.7,0.3c-1.3-0.1-2.6-0.4-3.9-0.8c0.5-1.2,0.7-2.6,1.4-3.4c4-4.6,8.9-8.6,12.1-13.7
		c3.1-5,7.8-9.7,7.8-16.2c-0.1-2.1-0.3-4.3-0.7-6.4l-1.2-0.3c-1.2,1.6-2.5,3.2-3.7,4.9c-3.2,4.5-5.8,9.5-9.7,13.3
		c-3.3,3.2-8,5.1-12.3,7.1c-5.5,2.6-11.3,4.5-16.8,7.1c-4.8,2.3-10.6,1.5-13.4-2.7c-3-4.4-1.1-11.3,3.9-13.1
		c4.2-1.5,8.6-3.2,12.9-3.2c3.6,0,7.2-0.7,10.7-1.8c5.5-1.7,10.6-7.7,10.8-13.5c-0.1-0.8-0.7-1.4-1.4-1.8c-1.8-0.5-3.6-0.7-5.4-0.7
		c-6.1,0.5-11-2.1-16.1-4.9c-4.3-2.3-9-4.2-14-2.1c-1.2,0.5-2.2,1.4-2.8,2.6c-2.9,6.5-12.2,10-18.3,2.4C8,182,8.3,176,11.9,173
		c3.8-3.2,8.6-4.9,13.5-4.8c3.1,0,6.2-1.2,9.3-1.7c6.3-1.2,12.2,0.7,17.9,3c9.3,3.8,18.7,2.7,25.9-3.9c-0.9-0.9-1.8-1.8-2.6-2.8
		c-0.6-1.1-1.2-2.2-1.6-3.4c1.1-0.4,2.3-1.1,3.4-1c4.2,0.2,8.3,0.9,12.5,0.9c3.4-0.1,6.9-0.6,10.2-1.3c1.9-0.4,1.5-1.9,0.3-2.7
		c-2.2-1.6-4.5-3.5-7.1-4.1c-6.7-1.7-13.6-2.7-20.4-4.1c-9.3-1.9-17.5-5.8-23.2-13.6c-2.7-3.8-4.9-7.9-7.4-11.9
		c-1.3-2.1-2.9-4-4-6.1c-1.5-3.1-1.2-6.8,0.8-9.6c1.7-2.7,4.8-4.2,7.9-3.8c1,0.1,2,0.4,2.9,0.8c4.6,2.3,7.3,7.3,6.4,12.5
		c-0.6,2.7,0.4,5.4,2.6,7c4.8,3.7,9.3,7.8,15.8,8.2c2.5,0.1,5.1-0.2,7.6-0.2c5.1,0,10.2,0,15.2,0c5.2,0,5,0,3.6-4.8
		c-3.3-10.6-2.4-22,2.4-31.9c2.9-6.3,7.8-11.4,14.1-14.4c1-0.7,1.6-1.7,1.7-2.9c-0.1-6-0.9-12-0.6-17.9c0.3-5.7-1.8-10.8-3-16.1
		c-0.5-2.4-1.2-5.1-0.7-7.3c1.2-5,2.5-10.2,7.8-12.9c3.9-1.9,7.6-0.9,10.6,1.6c2.9,2.3,5.3,5.4,4,9.6c-0.8,2.8-2,5.4-3,8.2
		c-0.5,0.9-0.7,1.9-0.7,2.9c1.1,8.5,2.4,17,3.5,25.4c0.3,2.1,1.1,2.4,2.8,1.5c1.5-0.8,3.1-1.6,4.6-2.4c1.9-1.1,2.5-2.6,1.9-4.9
		c-1.6-6.7,1.1-12,7.1-14.5c6.6-2.7,11.8,0.2,12.4,7.4c0.7,8.8-2.1,16.5-9.1,22.1c-3.3,2.6-7.2,4.5-10.9,6.8
		c-2.8,1.7-2.8,2.8,0.1,4.4c3.6,1.9,7.3,3.6,10.9,5.5c6.2,3.2,11.5,7.4,14.8,13.7C172.2,109.4,172.6,109.6,173,109.9z M126.6,129
		c0.3,10.9,6.7,17.3,15,21.9c3.5,2,6.6,0.8,7.7-3.2c0.4-1.8,1-3.5,1.8-5.2c1.8-4,0.6-7.2-2.4-9.8c-5.2-4.5-10.6-8.9-15.9-13.4
		c-1.4-1.2-2.5-1-3.1,0.6C128.5,122.8,127.6,125.9,126.6,129z"/>
</g>
<path class="st1" d="M375.3,334.4c-2.3-2.4-4.9-4.5-6.8-7.1c-3-4.4-3.6-4.3-6.7-0.2c-2.1,2.7-5.6,4.4-8.4,6.6
	c-1.6,1.2-3,2.6-4.2,4.1c-4.3,5.9-8.5,12-12.8,17.9c-0.7,0.7-1.6,1.3-2.5,1.7c-0.4-0.2-0.9-0.5-1.3-0.7c0.6-1.8,1.2-3.6,1.8-5.4
	c1.6-5,5.5-9.6,2.8-15.2c-0.7-1.2-1.8-2-3.1-2.4c-3.9-1.3-7.9-2.4-11.9-3.6c-2.7-0.8-4.7-0.8-6.8,2c-4.9,6.4-17.5,9.9-24.4,6.4
	c3-1.8,5.4-3.3,7.9-4.7c2.6-1.5,5.3-2.8,9.1-4.9c-2.7-1.5-4.2-2.6-5.9-3.2c-3.9-1.4-7.9-2.6-12-3.5c-1.4-0.3-3.2,0.7-4.6,1.4
	c-2.1,1.1-4.1,2.5-7,4.4c-0.2-2.9-0.4-5.1-0.6-7.9c-11.4,0-23.4-7.3-35,3.8v-7.2c-8.3-4.3-16.9-3.3-25.3-1.9
	c-3.2,0.5-6.2,2.8-9.1,4.6c-4.4,2.7-4.5,7.3-3,11.2c1.6,4,4.8,7.2,10,7c4.1-0.2,8.2-0.1,12.3,0.1c1,0.1,2.6,1.1,2.8,1.9
	c0,1.2-0.7,2.3-1.7,2.9c-9.9,4.6-27.2,3.9-32.2-8.9c-3.8-9.7-0.3-19.3,9.5-25.7c4.4-2.9,10.1-3.9,15.1-6c2-0.8,4.3-2.1,5.3-3.8
	c1.5-2.5,2.4-2.6,4.3-0.6c3.7,3.8,8.7,4.2,13.6,3.9c1.6-0.3,3-1.4,3.7-2.9c1.2-3.9,3-3.3,5.2-1.2c4.2,4,10.1,5.6,15.8,4.3
	c1.8-4.9,2.7-5.1,7.1-2c5.1,3.6,9.8,3.3,14.5-0.6c1-0.5,2.2-0.5,3.3,0c4,2,7.6,3.9,12.2,1.1c1.5-0.9,4.1-0.1,6.4-0.1
	c0.4-1.9,0.8-3.6,1.5-6.6l10.1,7.3c0.8-6.2,3.5-4.5,6.7-2.7c2.4,1.3,5,1.9,7.7,1.7c3-0.3,5.8-1.6,9-0.2c0.8,0.4,3.4-1.6,4-3
	c3-6.7,4-7.8,9.3-8.9c0.6-4.9,1.2-9.6,1.9-15.1c-1.5,0.4-3.1,0.7-4.6,0.8c-2,0.1-4.1-0.5-6.1-0.5c-1.6,0-3.5,0.2-4.7,1.1
	c-3.6,2.8-6.7,6.2-10.3,8.9c-3.8,2.9-8.4,1.4-9.9-3c-0.9-2.5-1-4.6,2.6-5.6c2.6-0.7,4.9-2.7,7.6-4.4c-3.5-3.3-9.5-1.1-10.8-6.4
	c4.4-1.1,8.4-1.8,12.2-3.1c3.1-1,3.2-3.1,1.1-5.6c-4.6-5.4-10.9-6.3-17.3-6.5c-3.1-0.1-4-1.5-4.1-4.1c-0.2-5.2,0.5-10.1,4.2-14.1
	c3.4-3.6,7.2-4.3,11.3-1.7c4,2.5,7.7,3.7,11.6-0.3c0.9-1,3-1,4.6-1.1c5.2-0.2,9.8-1.5,13.5-5.4c1.1-1.1,3-1.5,4.5-2.2
	c0.4,1.5,1,2.9,1.6,4.3c0.6,1.3,1.3,2.9,2.4,3.5c3.9,2.2,8.1,5.9,11.9,5.6c8.5-0.7,16.3,2.9,24.5,2.6c3.2-0.1,6.4-1.2,9.5-2.1
	c1.5-0.4,2.7-1.5,4.9-2.8c0.3,3,0.5,5.3,0.6,6.5c4.1,3.2,7.5,6.1,11.2,8.4c1.9,1.2,4.1,1.7,6.3,1.6c7.2-0.6,14.3-2.1,20.7,3.1
	c0.5,0.4,2.2-0.8,4.6-1.7c-7.5-2.9-12.8-5.7-13.9-14.2l15.8,3.1c3.8-5,7-9.1,10.3-13.4c-2.1-0.9-4.3-1.6-6.2-2.6
	c-1-0.5-2.5-1.7-2.4-2.5c0.3-1.3,1-2.6,2.1-3.4c1.3-1.1,3.1-1.7,4.4-2.8c0.9-0.7,1.5-1.7,1.7-2.8c0.5-2.6-6.5-13.9-9.1-14.8
	c-1.5-0.6-3.1-1.1-4.6-1.6c-2.9-0.8-3.4-3.1-1.7-4.8c3.9-4,2.1-8.3,1.3-12.5c-0.6-2.8-2.2-5.4-3.6-7.9c-3.4-6.6-8.7-8.2-15.4-5
	c-10.7,5.1-13.9,14.7-9.4,26.9c0.7,1.9-0.2,4.4-0.4,6.6c-2.1-0.7-5-0.8-6.3-2.2c-12.6-13.7-13.3-36.4,8.4-46.1
	c6.9-3,14.5-6.3,22.1-2.3c4.6,2.4,8.8,5.9,12.9,9.2c1.8,1.4,2.8,2.5,5.4,1.3c4-1.8,5.6-0.4,4.9,3.9c-0.9,5.2-0.9,9.7,3,14.2
	c2.3,2.7,3.5,4,6.5,1.6c0.7-0.6,2.1-0.3,3.3-0.5c2.2,7-2.2,14.8,2.9,20.8l7.5-1.6c-0.9,4.7-1.8,8.4-2.2,12.2
	c-0.7,6.1-0.4,6.3,5.6,6.1c4-0.1,4.5,0.9,3.1,4.9c-1.1,3.2-1.9,6.6-2.4,10c-0.6,3.3,2,5.2,5.3,4.1c1.2-0.4,2.3-1,3.6-1.6
	c2.7,4.7-2.1,6.5-3.1,9.5c6.6,1.7,6.8,1.9,3.4,7.7c-2.4,4-4,8-3.6,12.8c0.1,1.6-0.9,3.3-1.5,4.9c-1.5,3.7-3.2,7.3-4.4,11.1
	c-0.3,1,1.2,2.6,1.9,4c1,2,2,4.1,3.1,6.1l-1.3,0.9c-3.1-1.1-6.3-3.2-9.3-3c-3.1,0.2-6,2.7-9.4,4.3c-3.5,14.6-11,28.1-16.1,28.1
	c0-7-0.5-14.1,0.1-21.1c0.9-10.7-6.2-17.9-17-15.5c3.9,9.6,8.1,19.1,11.7,28.8c4.2,11.1,8.7,22.1,9.4,34.1
	c0.3,5.4,0.4,10.8,0.7,16.1c0.1,0.8,0.4,1.5,0.9,2.1c5.2,6,6.3,13.7,7.4,20.8c1,6.4-1.3,13.3-2.2,19.9c-0.6,4.9-5.7,9-2.1,14.7
	c0.6,0.9-1.3,3.2-1.6,4.9c-0.7,4.7,2.1,6.8,8.6,8c15.5,2.9,30.4,8.6,43.8,16.8c16.2,9.9,14.8,34.9-2.7,44.4
	c-16,8.7-33.1,13.3-50.9,15.9c-21.2,3.1-42.5,5-63.8,2.9c-17.6-1.6-35.1-4.1-52.5-7.5c-14.9-3-29.2-8.4-42.1-17.2
	c-16.7-11.4-16.3-36.4,4.6-45.4c6.8-2.9,13.8-5.3,20.6-8c0.5-0.2,1.2-0.2,1.3-0.5c2.8-5,7.5-6.4,12.7-8.4c4.3-1.7,7.7-2,11.2-0.5
	c4.9,2.1,8.6-0.1,13-1.2c5.3-1.3,7-4.9,8.7-9.3s-1-6.4-4-7.5c-6.2-2.4-12.8-3.8-19-6.3c-4.8-1.9-4.8-7.3-5.1-11.3
	c-0.4-5.8,0.3-11.6,5.1-16.4c2.4-2.4,3.4-6.2,5-9.3c0.3-0.6,0.4-1.5,0.9-1.7c6.5-3.1,4.2-8.9,4.3-13.9c0-4.9,0-9.7,0-15.5
	c-5.2,5.7-6.7,13.2-12,17.7c-0.6-0.4-1.2-0.7-1.8-1.1C373.2,342.7,374.2,338.5,375.3,334.4c2.7-7.6,5.6-15.1,8-22.8
	c0.6-1.8-0.4-4.3-1.4-6.2c-0.2-0.5-3.1,0-4.5,0.6c-1.8,0.7-3.4,1.8-4.7,3.2c-1,1.3-1.9,3.9-1.3,4.9
	C375.8,320.3,375,327.4,375.3,334.4z M422.6,369.7c-2.5,1.7-5,3.4-7.4,5.3c-0.8,0.6-2.1,1.6-2,2.3c0.3,5.1,1,10.1,1.3,13.4
	c4.3,3.3,9.2,5.2,10.6,8.6c1.7,4,2.2,9.5-1.9,13.8c-2.3,2.5-3.6,5.9-5.3,9c14.5,0.8,28.7,1.6,42.8,2.4c0.7-6.1,3.2-11.7-1.4-17.1
	c-1.7-2-2.2-5.6-2-8.3c0.4-6.3,2.6-12.8-3.9-17.5c-0.1-0.1-0.1-0.3-0.1-0.5c-1.5-3.4-3-6.8-5-11.4c-1.5,2.1-2.2,3.1-2.9,4.1
	c-1.7,2.4-4,4.2-6.9,3C433.2,374.7,428,372.1,422.6,369.7z"/>
</svg>
