<?xml version="1.0" encoding="utf-8"?>
<!-- Generator: Adobe Illustrator 25.3.1, SVG Export Plug-In . SVG Version: 6.00 Build 0)  -->
<svg version="1.1" id="Слой_1" xmlns="http://www.w3.org/2000/svg" xmlns:xlink="http://www.w3.org/1999/xlink" x="0px" y="0px"
	 viewBox="0 0 566.93 566.93" style="enable-background:new 0 0 566.93 566.93;" xml:space="preserve">
<style type="text/css">
	.st0{fill:url(#SVGID_1_);}
</style>
<g>
	<radialGradient id="SVGID_1_" cx="283.4646" cy="291.9433" r="353.8729" gradientUnits="userSpaceOnUse">
		<stop  offset="0.3665" style="stop-color:#FFEF26"/>
		<stop  offset="0.3926" style="stop-color:#FFE32C"/>
		<stop  offset="0.469" style="stop-color:#FBC033"/>
		<stop  offset="0.5443" style="stop-color:#F4A034"/>
		<stop  offset="0.6171" style="stop-color:#EF8534"/>
		<stop  offset="0.6866" style="stop-color:#EB7133"/>
		<stop  offset="0.7515" style="stop-color:#E96432"/>
		<stop  offset="0.8072" style="stop-color:#E95F32"/>
		<stop  offset="1" style="stop-color:#E7441C"/>
	</radialGradient>
	<rect x="-22.54" y="-104.06" class="st0" width="612" height="792"/>
	<path d="M366.96,307.44c3.83,1.2,5.46,3.47,6.54,6.13c2.55,6.29,5.13,12.58,7.33,19c0.9,2.62,1.42,5.67,1.05,8.37
		c-0.42,3.07-0.07,5.72,1.37,8.24c2.25,3.91,1.5,7.09-0.81,10.94c-2.35,3.94-2.99,8.91-4.91,13.17c-1.86,4.12-4.34,7.95-6.74,11.78
		c-0.48,0.77-1.84,0.95-2.8,1.39c-4.19,1.94-8.54,3.59-12.53,5.88c-3.72,2.13-5.5,5.61-4.98,10.27c0.46,4.04,0.21,8.17,0.82,12.17
		c0.28,1.82,1.5,3.89,2.91,5.06c5.51,4.6,12.24,6.61,18.96,8.37c9.05,2.37,18.35,3.03,27.57,4.31c13.41,1.85,26.77,2.01,40.11,1.49
		c16.11-0.63,32.4-0.9,47.86-6.78c2.51-0.96,5.03-1.95,7.43-3.15c7.79-3.91,9.35-6.87,8.66-15.67c-0.28-3.62-0.55-7.24-0.6-10.87
		c-0.04-2.69-1.11-4.56-3.19-6.11c-5.53-4.13-11.79-6.08-18.42-7.37c-2.41-0.47-4.77-1.85-6.83-3.3c-0.89-0.63-1.34-2.53-1.23-3.78
		c0.06-0.65,1.72-1.3,2.75-1.67c1.41-0.5,2.92-0.7,4.38-1.07c6.32-1.63,7.8-3.79,8.38-10.56c0.51-5.92-1.75-11.05-3.79-16.23
		c-2.01-5.1-4.35-10.07-6.72-15.01c-1.36-2.83-1.55-4.78,2.18-5.3c0.54-0.07,1-0.67,1.59-1.09c-2.41-3.7-4.51-7.41-7.06-10.75
		c-5.14-6.73-7.43-14.44-8.71-22.74c-1.55-10.12-4.14-20.1-5.23-30.26c-1.09-10.15-0.95-20.44-1.18-30.67
		c-0.06-2.88,1.69-3.68,4.54-4.23c9.58-1.87,19.64-2.19,28.27-7.7c1.28-0.82,2.44-2.13,3.18-3.49c3.26-5.96,6.06-12.2,9.6-17.97
		c1.94-3.16,5.4-5.3,7.49-8.39c2.91-4.29,7.76-4.64,11.63-6.89c2.52-1.47,3.74-3.45,3.7-6.03c-0.03-1.42-1.33-2.83-2.11-4.21
		c-0.39-0.69-1.03-1.25-1.3-1.98c-0.45-1.23-0.49-2.65-1.1-3.77c-0.44-0.8-1.53-1.22-2.32-1.82c-0.48,0.77-1.2,1.48-1.39,2.32
		c-0.54,2.46-4.24,6.6-7.23,7.29c-0.08-1.87-0.01-3.68-0.3-5.42c-0.15-0.92-0.94-1.72-1.43-2.58c-0.68,0.6-1.62,1.06-2,1.82
		c-1.47,2.92-2.73,5.94-4.15,8.89c-0.31,0.65-0.92,1.58-1.44,1.61c-3,0.18-3.49,2.7-4.71,4.73c-1.56,2.6-3.39,5.08-5.37,7.35
		c-3.63,4.16-8.01,7.61-9.76,13.32c-0.91,2.95-4.95,3.81-7.91,3.96c-4.99,0.26-8.11-3.68-12.38-4.74c-3.32-0.82-6.72-1.3-10.1-1.9
		c-0.51-0.09-1.07,0.1-1.6,0.05c-4.95-0.5-4.87-0.52-6.15-5.61c-0.28-1.13-1.43-2.01-2.02-3.1c-0.88-1.63-1.73-3.3-2.39-5.03
		c-0.54-1.41-0.46-3.19-1.27-4.36c-1.03-1.49-1.48-2.58-0.79-4.45c1.76-4.75-0.19-7.33-4.84-9.25c-3.91-1.61-7.71-2.3-11.76-1.81
		c-3.66,0.45-7.38,0.83-10.07,4.06c-0.43,0.52-1.6,0.61-2.41,0.54c-2.98-0.25-5.95-0.66-8.93-0.98c-1.17-0.13-2.36-0.35-3.51-0.22
		c-0.73,0.08-1.84,0.59-1.99,1.14c-0.17,0.61,0.36,1.85,0.93,2.17c2.7,1.52,5.49,2.86,8.29,4.15c0.75,0.35,1.68,0.42,2.53,0.41
		c3.47-0.06,4.12,1.86,4.64,5.12c0.63,3.9,2.56,7.59,4.04,11.32c0.43,1.07,1.25,1.98,1.89,2.96c-0.37,0.02-0.74,0.04-1.11,0.06
		c-0.28,1.75-0.27,3.61-0.91,5.2c-0.59,1.47-1.66,2.89-2.87,3.91c-2.74,2.33-5.74,4.34-8.56,6.57c-4.97,3.94-7.2,9.79-10.37,15.08
		c-2.84,4.75-7.47,8.38-11.36,12.45c-1.71,1.79-3.45,3.6-5.36,5.15c-2.62,2.14-5.42,4.04-8.36,6.21c-0.56-1.22-0.98-1.69-0.97-2.16
		c0.21-8.48,0.46-16.96,0.76-25.43c0.03-0.82,0.3-2.09,0.83-2.34c2.49-1.21,2.08-3.36,1.89-5.4c-0.3-3.27-0.66-6.54-1.13-9.79
		c-0.62-4.23,1.56-7.61,3.77-10.47c3.69-4.76,3.59-10.04,3.41-15.47c-0.02-0.68-1.15-1.74-1.87-1.84c-0.7-0.1-1.63,0.69-2.28,1.29
		c-1.54,1.44-3.06,2.93-4.43,4.53c-0.73,0.85-1.33,1.92-1.66,3c-0.87,2.86-1.35,3.32-4.81,3.46c1.2-5.3,0.46-11.42,7.55-13.3
		c2.37-0.63,3.26-5.34,3.35-7.87c0.13-3.34-0.76-6.56-0.27-10.01c0.45-3.19,1.44-7.22-2.65-9.73c-2.6-1.6-1.05-4.62-1.12-7.06
		c-0.03-1.11-0.49-2.21-0.76-3.31c-1.05,0.63-2.5,1-3.1,1.93c-2.62,4.1-3.78,8.54-2.37,13.49c0.23,0.81-0.22,2.28-0.86,2.84
		c-3.61,3.12-4.76,6.56-3.68,11.14c0.23,0.96-0.05,2.16-0.39,3.14c-2.07,6-4.83,11.84-6.12,18.01c-0.74,3.51-1,8.26,2.05,11.13
		c4.36,4.11,3.31,9.07,3.23,14c-0.01,0.87-0.38,1.94-0.01,2.56c1.89,3.25,2.29,6.58,1.92,10.38c-0.52,5.33-0.25,10.74-0.4,16.11
		c-0.1,3.3-0.16,6.62-0.64,9.87c-0.22,1.54-1.05,3.3-2.16,4.33c-6.17,5.77-12.64,11.21-18.75,17.04c-3.87,3.69-3.62,4.75,0.74,7.57
		c5.68,3.69,10.76,8.01,14.33,13.98c0.06,0.09,0.11,0.2,0.2,0.26c5.42,3.63,5.57,9.16,5.1,14.93c-0.07,0.88-0.08,1.77,0,2.65
		c0.78,7.9-1.96,15.34-2.71,23.03c-0.16,1.62,0.36,4.05,1.45,4.87c1.73,1.31,1.81,2.69,1.91,4.48c0.35,6.03,0.7,12.08,1.32,18.08
		c0.14,1.39,1.36,2.65,2.08,3.98c0.69-1.51,1.86-2.98,1.97-4.52c0.43-6.03,0.35-12.11,0.83-18.14c0.17-2.12,1.23-4.25,2.23-6.19
		c1.1-2.12,3.54-3.89,0.6-6.39c-0.31-0.26-0.4-1.09-0.28-1.56c0.8-3.14,0.63-5.85-1.48-8.66c-0.84-1.12,0.09-3.59,0.11-5.45
		C366.99,316.42,366.96,312.27,366.96,307.44z M399.56,375.63c-0.72,0.78-1.55,2.43-2.44,2.46c-1.76,0.07-2.61,0.76-3.7,2.04
		c-0.71,0.83-2.45,0.72-3.73,1.03c0.13-1.27,0.03-2.62,0.44-3.78c1.47-4.21,2.99-8.4,4.74-12.5c0.97-2.27,2.27-4.43,3.74-6.39
		c0.46-0.62,1.99-0.79,2.91-0.58c3.4,0.78,6.74,2.56,10.1,2.57c5.06,0.01,9.34,0.57,11.76,5.77c0.08,0.18,0.33,0.28,0.47,0.44
		c1.91,2.12,1.61,3.37-1,4.66c-0.62,0.3-1.27,0.79-1.61,1.37c-2.4,4.02-8.27,6.03-12.76,2.27c-1.38-1.15-3.34-1.57-5.01-2.32
		c-0.11,1.62-0.18,2.7-0.25,3.78C402.08,376.2,400.94,375.95,399.56,375.63z"/>
	<path d="M295.82,66.77c2.45-1.15,3.06-2.57,1.17-4.56c-0.95-0.99-2.01-1.87-2.97-2.86c-1.37-1.41-1.4-2.78,0.31-3.95
		c0.89-0.61,1.94-1.01,2.77-1.69c1.62-1.31,3.4-2.55,4.62-4.18c1.67-2.24,2.34-2.42,4.31-0.48c1.01,1,2.32,1.73,3.56,2.45
		c1.27,0.74,2.64,1.3,3.94,1.99c1.82,0.97,1.94,2.22,0.72,3.85c-1.05,1.41-2.03,2.91-2.79,4.49c-0.31,0.64,0.02,1.6,0.05,2.41
		c0.84-0.33,1.9-0.44,2.48-1.03c0.95-0.97,1.66-2.2,2.36-3.39c1.33-2.26,3.08-2.09,4.6-0.52c1.49,1.54,2.58,3.46,3.86,5.19
		c0.8,1.08,2.01,2.01,2.38,3.2c0.74,2.41,1.45,4.97,1.38,7.45c-0.06,2.24-1.18,4.46-1.85,6.68c-0.34,1.12-0.67,2.26-1.1,3.35
		c-0.82,2.09-2.04,2.63-4.12,1.29c-1.46-0.94-3.19-1.58-4.88-2.03c-1.82-0.48-3.13,0.96-2.15,2.26c3.2,4.25,0.79,7.99-0.42,11.9
		c-0.61,1.96-0.58,3.26,1.38,5.01c2.87,2.55,3.77,6.55,3.89,10.45c0.06,2.22,0.02,4.45-2.35,5.88c-0.46,0.28-0.4,2.01-0.07,2.88
		c0.56,1.45,1.49,2.77,2.34,4.1c1.25,1.94,1.08,3.58-0.52,5.32c-2.15,2.33-1.62,3.98,1.43,5.14c2.31,0.88,2.59,2.04,0.62,3.47
		c-2.17,1.58-2.99,3.28-2.94,6.16c0.1,5-0.83,10.01-1.07,15.03c-0.13,2.73,0.23,5.48,0.43,8.22c0.33,4.48,0.68,8.96,1.09,13.43
		c0.06,0.63,0.39,1.35,0.82,1.82c1.56,1.73,2.01,3.55,0.91,5.69c-0.21,0.41-0.4,1.07-0.22,1.41c1.52,2.86,3.13,5.67,4.71,8.5
		c0.31,0,0.61-0.01,0.92-0.01c0.22-1.11,0.65-2.22,0.62-3.33c-0.05-1.79,0.52-2.91,2.2-3.73c2.91-1.43,5.67-3.18,8.57-4.63
		c0.91-0.46,2.13-0.7,3.12-0.53c1.64,0.28,2.44,1.32,1.31,2.98c-0.39,0.57-0.85,1.09-1.33,1.59c-2.21,2.32-3.84,4.78-2.1,8.13
		c0.12,0.24,0.11,0.59,0.06,0.88c-0.84,5.24-1.75,10.47-2.51,15.72c-0.31,2.13-0.19,4.31-0.49,6.44c-0.15,1.09-0.81,2.11-1.24,3.16
		c-0.94-0.41-2.03-0.64-2.81-1.25c-1.96-1.54-3.8-2.38-6.57-2.4c-2.11-0.02-4.22-2.46-6.28-3.9c-1.26-0.88-2.39-1.95-3.65-2.83
		c-0.96-0.67-2.5-0.93-2.99-1.81c-1.98-3.59-5.09-3.78-8.59-3.56c-0.9,0.06-1.85-0.77-2.78-1.19c0.48-0.99,0.71-2.39,1.5-2.89
		c3.35-2.11,6.29-5.14,10.77-5.07c0.68,0.01,2.06-1.66,1.95-2.38c-0.44-3.05-1.4-6.03-2.01-9.06c-0.76-3.83-1.39-7.68-2.03-11.53
		c-0.37-2.22-0.86-4.44-0.93-6.67c-0.1-3.1,0.25-6.2,0.22-9.3c-0.03-3.42-0.36-6.83-0.38-10.25c-0.01-1.5,0.16-3.09,0.66-4.49
		c1.14-3.13,0.69-4.22-2.6-5.17c-6.52-1.88-9.85,0.23-11.02,7.05c-0.11,0.65,0.26,1.39,0.13,2.03c-0.23,1.08-0.54,2.21-1.09,3.16
		c-1.01,1.73-2.38,3.26-3.3,5.03c-2.33,4.45-5.24,8.05-10.62,8.89c-0.73,0.11-1.74,1.02-1.9,1.73c-0.77,3.32-1.22,6.72-1.93,10.06
		c-0.26,1.22-0.58,2.73-1.44,3.45c-2.12,1.79-1.25,3.1-0.13,4.97c0.95,1.57,1.01,3.65,1.71,5.41c0.97,2.43,1.91,4.94,3.33,7.1
		c2.37,3.62,4.7,7.03,2.85,11.71c-0.41,1.04,0,2.6,0.46,3.75c3.52,8.63,7.18,17.2,10.68,25.84c0.51,1.27,0.79,2.92,0.44,4.19
		c-1.05,3.85-2.09,7.62-4.49,11.1c-2.03,2.95-2.61,6.89-3.86,10.39c-0.22,0.6-0.47,1.6-0.86,1.67c-2.74,0.53-2.42,2.67-2.69,4.59
		c-0.32,2.32-0.48,4.72-1.21,6.93c-0.94,2.84-1.05,5.46,0,8.3c0.77,2.08,1.96,3.07,4.15,2.87c0.58-0.05,1.36-0.39,1.72-0.13
		c3.75,2.67,8.26,0.66,12.22,2.02c0.8,0.28,1.86-0.17,2.8-0.3c0.81-0.11,1.69-0.51,2.4-0.31c1.78,0.52,2.92,0.13,4.08-1.38
		c0.45-0.59,1.98-0.68,2.93-0.5c3.19,0.63,6.33,1.49,9.49,2.24c1.96,0.47,4.26,0.42,5.81,1.48c1.38,0.95,1.82,3.18,2.9,4.68
		c0.75,1.04,1.79,1.97,2.89,2.64c3.5,2.14,7.2,3.96,10.61,6.22c3.43,2.27,5.02,5.7,4.99,9.86c-0.03,4.44-0.19,8.89,0.05,13.31
		c0.2,3.79-1.42,6.61-3.74,9.31c-3.84,4.47-8.74,7.31-14.19,9.29c-11.52,4.19-23.19,7.9-35.53,8.54c-11.7,0.6-23.45,1.52-35.12,1.04
		c-16.47-0.68-32.5-4.01-46.94-12.61c-5.89-3.51-10.1-8.13-9.41-15.72c0.19-2.03-0.04-4.15-0.39-6.18
		c-1.08-6.16,1.53-10.79,6.04-14.5c5.15-4.25,11.1-7.07,17.44-9.18c2.2-0.74,4.14-2.24,6.31-3.13c1.83-0.75,3.8-1.5,5.73-1.55
		c3.81-0.09,7.54-5.01,6.35-8.84c-0.35-1.13-0.87-2.25-0.95-3.39c-0.06-0.74,0.32-1.79,0.88-2.24c2.48-2,2.67-4.25,0.46-6.68
		c-2.35-2.58-4.73-5.14-6.84-7.92c-0.52-0.68-0.45-2.49,0.1-3.18c1.34-1.67,1.34-3.1,0.39-4.87c-1.28-2.37-1.68-5.37-4.81-6.34
		c-0.17-0.05-0.35-0.24-0.42-0.4c-2.49-6.5-8.59-9.92-12.77-14.97c-0.19-0.23-0.46-0.4-0.61-0.64c-2.11-3.5-5.62-4.25-9.27-4.93
		c-1.23-0.23-2.74-1.07-3.34-2.09c-1.48-2.5-3.9-4.78-2.87-8.26c0.15-0.51-0.57-1.49-1.12-1.96c-2.94-2.51-5.98-4.9-8.93-7.39
		c-0.57-0.48-0.88-1.25-1.37-1.83c-0.6-0.71-1.15-1.6-1.93-1.99c-2.97-1.48-3.76-3.48-2.55-7.12c0.79-2.38,3.48-3.77,6.15-3.47
		c2.12,0.24,3.3,1.19,4.07,3.2c0.39,1.03,1.63,1.74,2.46,2.62c0.58,0.61,1.16,1.23,1.67,1.9c1.77,2.32,3.39,4.76,5.29,6.96
		c1.22,1.42,2.78,1.28,3.48-0.59c1.28-3.46,2.37-7,3.48-10.52c1-3.16,1.92-6.34,2.91-9.5c0.11-0.36,0.3-0.84,0.59-0.97
		c3.74-1.69,3.23-5.51,4.33-8.52c0.32-0.89,0.31-2.09,0.92-2.66c4.23-3.96,6.14-8.75,6.03-14.53c-0.02-1,1.02-2.31,1.93-2.98
		c1.27-0.94,1.58-1.65,0.96-3.17c-0.31-0.76,0.23-2.02,0.68-2.91c0.89-1.77,2.01-3.44,2.99-5.17c0.82-1.45,1.79-2.87,2.32-4.42
		c0.9-2.65,1.58-5.38,2.2-8.11c1.21-5.36,2.1-10.8,3.52-16.1c1.22-4.52,4.39-7.79,9.09-8.23c5.5-0.51,10.51,1.68,13.5,6.4
		c1.48,2.33,1.78,5.65,1.9,8.54c0.13,3.23,1.7,6.55-0.23,9.82c-0.29,0.5,0.17,1.78,0.68,2.3c0.36,0.36,1.44,0.16,2.15-0.02
		c4.13-1.06,8.25-2.19,12.38-3.27c3.48-0.91,6.45-1.76,5.53-6.96c-0.18-1.02-0.88-2.11-1.66-2.82c-2.03-1.88-2.2-3.02-0.05-4.8
		c1.5-1.24,2.77-2.33,2.6-4.6c-0.06-0.74,1.12-1.66,1.86-2.37c1.85-1.8,4.04-3.34,5.6-5.35c1.81-2.34,3.28-5,4.53-7.69
		c0.55-1.18,0.55-2.93,0.11-4.18c-0.61-1.72-1.7-3.37-2.92-4.76c-1.93-2.22-3.35-4.36-1.76-7.39c0.21-0.4-0.15-1.47-0.56-1.73
		c-0.45-0.29-1.3-0.11-1.92,0.07c-0.43,0.12-0.78,0.57-1.15,0.9c-3.53,3.17-4.56,3.16-7.19-0.85c-4.98-7.56-6.13-15.44-1.45-23.66
		c2.03-3.57,3.38-3.86,6.27-1C293.97,64.58,294.76,65.58,295.82,66.77z M237.47,244.11c0.53-2.49,0.61-4.61,1.43-6.4
		c2.12-4.64,1.6-9.01,0.01-13.71c-1.79-5.3-0.86-10.72,2.61-15.07c4.19-5.26,3.9-11.06,3.22-17c-0.35-3.09-1.21-6.12-1.94-9.16
		c-0.16-0.67-0.61-1.61-1.13-1.77c-0.6-0.18-1.82,0.14-2.08,0.62c-0.7,1.3-1.1,2.79-1.5,4.23c-0.31,1.11-0.27,2.34-0.68,3.41
		c-1.26,3.33-3.31,6.44-1.92,10.32c0.36,1.01,0.13,2.37-0.17,3.47c-1.71,6.09-4.9,11.35-9.34,15.82c-2.94,2.95-1.68,7.03-3.07,10.39
		c-0.1,0.25,0.45,0.83,0.77,1.18c3.78,4,7.57,8,11.39,11.96C235.65,242.99,236.41,243.37,237.47,244.11z"/>
	<path d="M164.66,392.02c2.52,3.47,4.86,6.44,6.91,9.61c1.16,1.79,2.36,3.84,2.6,5.88c0.36,3.12,2.2,4.67,4.63,5.75
		c2.56,1.15,3.45,2.86,2.75,5.52c-0.66,2.49,0,5.28-3.03,7.14c-1.17,0.71-1.29,3.88-0.99,5.8c0.1,0.64,2.96,0.97,4.59,1.23
		c3,0.48,6.07,0.57,9.02,1.23c7.68,1.71,15.27,3.87,22.99,5.39c6.55,1.29,13.27,8.5,13.17,15.15c-0.06,4.26-0.28,8.54-0.72,12.78
		c-0.39,3.82-3.13,6.22-6.08,8.21c-8.45,5.71-18.01,8.65-27.93,10.23c-9.51,1.51-19.1,2.89-28.7,3.32
		c-15.34,0.69-30.74,1.09-46.08,0.61c-13.07-0.41-25.9-3.2-38.09-8.22c-3.12-1.29-6.06-3.03-9.15-4.39
		c-3.94-1.73-4.87-5.13-5.03-8.87c-0.17-3.84-0.13-7.69-0.01-11.52c0.09-2.79,1.31-5.03,3.91-6.4c4.35-2.3,7.64-5.56,9.56-10.21
		c0.24-0.58,2.17-1.15,2.69-0.8c2.9,1.95,4.65,1.04,6.56-1.56c2.78-3.77,7.33-4.36,11.51-5.43c3.13-0.8,6.28-1.57,9.45-2.22
		c1.82-0.38,3.7-0.41,5.52-0.77c0.99-0.2,2.15-0.51,2.81-1.19c1.75-1.81,3.83-1.66,5.26-0.34c2.25,2.07,4.01,0.65,4.91-0.74
		c1.77-2.74,3.33-2.33,4.76-0.19c1.99,2.96,4.85,2.99,7.84,2.97c1.2-0.01,2.62-0.41,3.55,0.09c4.15,2.25,6.59-0.59,9.57-2.59
		c2.47-1.66,4.23-3.43,4.96-6.4c0.79-3.21,1.44-6.19-1.28-8.86c-0.6-0.58-0.99-1.49-1.21-2.32c-0.68-2.5-3.17-2.84-4.64-4.23
		c-2.01-1.9-3.48-2.01-5.77-1.25c-0.64,0.21-1.96-0.66-2.52-1.38c-0.99-1.29-1.61-2.86-2.42-4.29c-1.92-3.34-4-6.18-8.14-7.48
		c-4.26-1.34-6.74-5.07-8.29-9.27c-0.73-1.98-0.28-3.42,1.76-4.25c0.6-0.24,1.54-0.5,1.65-0.93c1.46-5.66,6.4-10.06,5.84-16.47
		c-0.17-1.94,0.75-4.02,0.42-5.9c-0.21-1.19-1.63-2.55-2.85-3.1c-1.99-0.91-2.83-2.11-2.86-4.26c-0.05-2.91-0.35-5.82-0.59-8.73
		c-0.25-2.86,1.16-4.82,3.37-6.34c3.19-2.19,4.76-9.05,2.78-12.21c-2.4-3.84-4.81-7.67-7.12-11.55c-0.54-0.91-0.75-2.04-1.06-3.08
		c-1.1-3.65-2.22-7.3-3.27-10.96c-0.56-1.95-1.74-1.95-2.87-0.75c-2.23,2.37-4.3,4.89-6.39,7.39c-1.28,1.52-2.5,3.09-3.69,4.69
		c-1.69,2.26-3.96,4.35-4.85,6.91c-1.28,3.66-3.65,5.86-6.83,7.5c-2.11,1.09-3.28,2.44-2.41,4.97c1.82,5.28,1.11,7.1-3.44,10.27
		c-1.49,1.04-2.87,2.34-4.04,3.74c-8.27,9.82-14.84,20.73-21.02,31.95c-2,3.63-5.42,6.53-8.45,9.52c-0.82,0.81-2.55,0.69-3.86,1
		c0.12-1.31-0.16-2.84,0.42-3.9c4.78-8.64,9.69-17.2,14.63-25.75c1.75-3.04,3.77-5.93,5.49-8.98c1.81-3.23,3.05-6.52,0.89-10.23
		c-0.72-1.24-1.22-3.09-0.87-4.4c1.28-4.8,2.96-9.49,4.48-14.23c0.47-1.46,1.1-2.9,1.3-4.4c0.58-4.34,2.9-7.59,5.94-10.52
		c1.91-1.84,3.87-1.55,6.07-0.7c3.35,1.29,4.34,0.57,4.57-2.87c0.05-0.74,0.46-1.71,1.04-2.13c2.17-1.57,4.5-2.92,6.7-4.45
		c0.67-0.47,1.37-1.21,1.6-1.96c2.23-7.45,7.94-10.63,14.89-12.42c5.58-1.44,7.52-4.93,6.43-10.63c-0.49-2.54-0.24-5.22-0.61-7.79
		c-0.36-2.46-0.87-4.96-1.76-7.26c-0.76-1.97-1.36-3.65,0.06-5.52c0.36-0.48,0.42-1.24,0.49-1.88c0.99-8.37,9.17-12.89,17.05-9.41
		c1.7,0.75,3.61,1.22,5.08,2.29c1.33,0.97,2.65,2.43,3.12,3.94c0.63,2,0.6,4.07,3.04,5.02c0.35,0.14,0.47,2.34-0.05,3
		c-2.69,3.41-1.65,6.87-0.96,10.61c0.82,4.38,2.47,5.77,7.16,5.07c2.98-0.44,6.3,1.36,9.45,2.19c0.83,0.22,1.62,0.64,2.45,0.82
		c5.53,1.19,10.89,2.51,15.97,5.45c2.76,1.6,6.81,1.05,10.29,1.28c2.52,0.17,5.05,0.02,7.58,0.04c1.86,0.02,2.42-0.52,2.57-2.68
		c0.58-8.32-4.1-15.04-6.2-22.54c-1.59-5.68-2.89-11.45-4.11-17.23c-0.23-1.1,0.53-2.41,0.83-3.63c1.1,0.74,2.7,1.22,3.22,2.25
		c3.29,6.44,6.42,12.96,9.46,19.52c2.12,4.58,3.66,9.45,6.1,13.84c2.16,3.89,4.95,7.52,7.93,10.84c3.64,4.05,4.31,6.69,1.96,11.67
		c-0.3,0.64-0.42,1.54-0.23,2.21c1.03,3.64,1.59,7.46,4.88,10.13c0.91,0.74,1.53,3.61,1.24,3.79c-2.06,1.25-4.33,2.4-6.67,2.79
		c-0.72,0.12-2.81-2.38-2.63-3.4c0.79-4.74-2.78-7.69-4.13-11.51c-0.13-0.36-0.55-0.75-0.92-0.88c-8.14-2.79-16.07-6.39-25-2.01
		c-3.14,1.54-6.94,1.73-10.88,0.64c-4.99-1.37-10.34-1.48-15.54-2.02c-2.18-0.23-3.11,1.2-2.72,3.11c0.96,4.76-0.34,9.25-0.81,13.9
		c-0.66,6.51-3.39,13.11-0.8,19.79c0.27,0.7,0.3,1.56,0.73,2.13c2.28,2.98,4.48,6.05,7.08,8.74c1.09,1.13,3.03,1.57,4.66,2.01
		c5.06,1.38,5.63,2.47,3.4,7.08c-0.33,0.69-0.51,1.51-0.98,2.08c-4.63,5.48-2.91,10.65,0.31,16.09c2.61,4.42,4.6,9.21,6.83,13.85
		c1.27,2.64,0.25,5.98-2.34,6.05c-5.22,0.14-6.88,4.58-9.07,7.54c-2.02,2.73-3.97,4.34-7.04,5.06
		C166.7,391.06,166.03,391.45,164.66,392.02z"/>
</g>
</svg>
