<?xml version="1.0" encoding="utf-8"?>
<!-- Generator: Adobe Illustrator 25.3.1, SVG Export Plug-In . SVG Version: 6.00 Build 0)  -->
<svg version="1.1" id="Слой_1" xmlns="http://www.w3.org/2000/svg" xmlns:xlink="http://www.w3.org/1999/xlink" x="0px" y="0px"
	 viewBox="0 0 938 938" style="enable-background:new 0 0 938 938;" xml:space="preserve">
<style type="text/css">
	.st0{fill:url(#SVGID_1_);}
	.st1{fill:#FFFFFF;}
	.st2{fill:url(#SVGID_2_);}
	.st3{display:none;}
	.st4{display:inline;fill:url(#SVGID_3_);}
	.st5{display:inline;fill:url(#SVGID_4_);}
	.st6{fill:url(#SVGID_5_);}
	.st7{fill:url(#SVGID_6_);}
	.st8{fill:url(#SVGID_7_);}
	.st9{fill:url(#SVGID_8_);}
	.st10{fill:url(#SVGID_9_);}
	.st11{fill:#E273F9;}
	.st12{fill:url(#SVGID_10_);}
	.st13{fill:url(#SVGID_11_);}
	.st14{fill:url(#SVGID_12_);}
	.st15{fill:url(#SVGID_13_);}
	.st16{fill:url(#SVGID_14_);}
	.st17{fill:url(#SVGID_15_);}
	.st18{fill:url(#SVGID_16_);}
	.st19{fill:url(#SVGID_17_);}
	.st20{fill-rule:evenodd;clip-rule:evenodd;fill:#FFFFFF;}
	.st21{fill-rule:evenodd;clip-rule:evenodd;fill:#020203;}
	.st22{fill-rule:evenodd;clip-rule:evenodd;fill:#CF84BD;}
	.st23{fill:#020203;}
	.st24{fill:url(#SVGID_18_);}
	.st25{fill:url(#SVGID_19_);}
	.st26{fill:url(#SVGID_20_);}
</style>
<g id="Миниатюры_в_каждый_дом">
	<g id="Грунтовка_8_">
		<linearGradient id="SVGID_1_" gradientUnits="userSpaceOnUse" x1="469" y1="937.7501" x2="469" y2="0.2499">
			<stop  offset="6.089431e-02" style="stop-color:#45649A"/>
			<stop  offset="0.3076" style="stop-color:#77699F"/>
			<stop  offset="0.5421" style="stop-color:#A06DA3"/>
			<stop  offset="0.7268" style="stop-color:#B96FA6"/>
			<stop  offset="0.8387" style="stop-color:#C270A7"/>
		</linearGradient>
		<rect y="0.2" class="st0" width="938" height="937.5"/>
	</g>
	<path class="st1" d="M593.5,532.9c6.4,2,9.1,5.8,10.9,10.2c4.2,10.4,8.5,20.9,12.2,31.5c1.5,4.3,2.3,9.4,1.7,13.9
		c-0.7,5.1-0.1,9.5,2.3,13.7c3.7,6.5,2.5,11.8-1.3,18.2c-3.9,6.5-5,14.8-8.2,21.9c-3.1,6.8-7.2,13.2-11.2,19.6
		c-0.8,1.3-3.1,1.6-4.6,2.3c-7,3.2-14.2,6-20.8,9.8c-6.2,3.5-9.1,9.3-8.3,17c0.8,6.7,0.4,13.5,1.4,20.2c0.5,3,2.5,6.4,4.8,8.4
		c9.1,7.6,20.3,11,31.5,13.9c15,3.9,30.5,5,45.8,7.1c22.2,3.1,44.4,3.3,66.6,2.5c26.7-1,53.8-1.5,79.4-11.2
		c4.2-1.6,8.3-3.2,12.3-5.2c12.9-6.5,15.5-11.4,14.4-26c-0.5-6-0.9-12-1-18c-0.1-4.5-1.8-7.6-5.3-10.1c-9.2-6.8-19.6-10.1-30.6-12.2
		c-4-0.8-7.9-3.1-11.3-5.5c-1.5-1-2.2-4.2-2-6.3c0.1-1.1,2.8-2.2,4.6-2.8c2.3-0.8,4.8-1.2,7.3-1.8c10.5-2.7,12.9-6.3,13.9-17.5
		c0.8-9.8-2.9-18.3-6.3-26.9c-3.3-8.5-7.2-16.7-11.2-24.9c-2.3-4.7-2.6-7.9,3.6-8.8c0.9-0.1,1.7-1.1,2.6-1.8
		c-4-6.1-7.5-12.3-11.7-17.8c-8.5-11.2-12.3-24-14.4-37.7c-2.6-16.8-6.9-33.3-8.7-50.2c-1.8-16.8-1.6-33.9-2-50.9
		c-0.1-4.8,2.8-6.1,7.5-7c15.9-3.1,32.6-3.6,46.9-12.8c2.1-1.4,4-3.5,5.3-5.8c5.4-9.9,10.1-20.2,15.9-29.8c3.2-5.2,9-8.8,12.4-13.9
		c4.8-7.1,12.9-7.7,19.3-11.4c4.2-2.4,6.2-5.7,6.1-10c0-2.4-2.2-4.7-3.5-7c-0.6-1.1-1.7-2.1-2.2-3.3c-0.8-2-0.8-4.4-1.8-6.3
		c-0.7-1.3-2.5-2-3.9-3c-0.8,1.3-2,2.5-2.3,3.9c-0.9,4.1-7,10.9-12,12.1c-0.1-3.1,0-6.1-0.5-9c-0.3-1.5-1.6-2.9-2.4-4.3
		c-1.1,1-2.7,1.8-3.3,3c-2.4,4.8-4.5,9.9-6.9,14.7c-0.5,1.1-1.5,2.6-2.4,2.7c-5,0.3-5.8,4.5-7.8,7.8c-2.6,4.3-5.6,8.4-8.9,12.2
		c-6,6.9-13.3,12.6-16.2,22.1c-1.5,4.9-8.2,6.3-13.1,6.6c-8.3,0.4-13.4-6.1-20.5-7.9c-5.5-1.4-11.2-2.2-16.8-3.2
		c-0.9-0.2-1.8,0.2-2.6,0.1c-8.2-0.8-8.1-0.9-10.2-9.3c-0.5-1.9-2.4-3.3-3.4-5.1c-1.5-2.7-2.9-5.5-4-8.3c-0.9-2.3-0.8-5.3-2.1-7.2
		c-1.7-2.5-2.5-4.3-1.3-7.4c2.9-7.9-0.3-12.2-8-15.3c-6.5-2.7-12.8-3.8-19.5-3c-6.1,0.7-12.3,1.4-16.7,6.7c-0.7,0.9-2.7,1-4,0.9
		c-5-0.4-9.9-1.1-14.8-1.6c-1.9-0.2-3.9-0.6-5.8-0.4c-1.2,0.1-3.1,1-3.3,1.9c-0.3,1,0.6,3.1,1.6,3.6c4.5,2.5,9.1,4.7,13.8,6.9
		c1.3,0.6,2.8,0.7,4.2,0.7c5.8-0.1,6.8,3.1,7.7,8.5c1,6.5,4.2,12.6,6.7,18.8c0.7,1.8,2.1,3.3,3.1,4.9c-0.6,0-1.2,0.1-1.8,0.1
		c-0.5,2.9-0.5,6-1.5,8.6c-1,2.4-2.8,4.8-4.8,6.5c-4.6,3.9-9.5,7.2-14.2,10.9c-8.3,6.5-11.9,16.2-17.2,25
		c-4.7,7.9-12.4,13.9-18.8,20.7c-2.8,3-5.7,6-8.9,8.5c-4.4,3.5-9,6.7-13.9,10.3c-0.9-2-1.6-2.8-1.6-3.6c0.4-14.1,0.8-28.1,1.3-42.2
		c0-1.4,0.5-3.5,1.4-3.9c4.1-2,3.5-5.6,3.1-9c-0.5-5.4-1.1-10.9-1.9-16.2c-1-7,2.6-12.6,6.3-17.4c6.1-7.9,6-16.7,5.7-25.7
		c0-1.1-1.9-2.9-3.1-3.1c-1.2-0.2-2.7,1.1-3.8,2.1c-2.6,2.4-5.1,4.9-7.4,7.5c-1.2,1.4-2.2,3.2-2.8,5c-1.4,4.7-2.2,5.5-8,5.7
		c2-8.8,0.8-19,12.5-22.1c3.9-1,5.4-8.9,5.6-13.1c0.2-5.5-1.3-10.9-0.5-16.6c0.8-5.3,2.4-12-4.4-16.1c-4.3-2.6-1.7-7.7-1.9-11.7
		c0-1.8-0.8-3.7-1.3-5.5c-1.8,1-4.1,1.7-5.1,3.2c-4.3,6.8-6.3,14.2-3.9,22.4c0.4,1.4-0.4,3.8-1.4,4.7c-6,5.2-7.9,10.9-6.1,18.5
		c0.4,1.6-0.1,3.6-0.7,5.2c-3.4,10-8,19.6-10.2,29.9c-1.2,5.8-1.7,13.7,3.4,18.5c7.2,6.8,5.5,15,5.4,23.2c0,1.4-0.6,3.2,0,4.3
		c3.1,5.4,3.8,10.9,3.2,17.2c-0.9,8.8-0.4,17.8-0.7,26.7c-0.2,5.5-0.3,11-1.1,16.4c-0.4,2.6-1.7,5.5-3.6,7.2
		c-10.2,9.6-21,18.6-31.1,28.3c-6.4,6.1-6,7.9,1.2,12.6c9.4,6.1,17.8,13.3,23.8,23.2c0.1,0.2,0.2,0.3,0.3,0.4c9,6,9.2,15.2,8.5,24.8
		c-0.1,1.5-0.1,2.9,0,4.4c1.3,13.1-3.3,25.4-4.5,38.2c-0.3,2.7,0.6,6.7,2.4,8.1c2.9,2.2,3,4.5,3.2,7.4c0.6,10,1.2,20,2.2,30
		c0.2,2.3,2.3,4.4,3.4,6.6c1.1-2.5,3.1-4.9,3.3-7.5c0.7-10,0.6-20.1,1.4-30.1c0.3-3.5,2-7.1,3.7-10.3c1.8-3.5,5.9-6.5,1-10.6
		c-0.5-0.4-0.7-1.8-0.5-2.6c1.3-5.2,1-9.7-2.5-14.4c-1.4-1.9,0.2-6,0.2-9C593.6,547.8,593.5,541,593.5,532.9z M647.6,646.1
		c-1.2,1.3-2.6,4-4.1,4.1c-2.9,0.1-4.3,1.3-6.1,3.4c-1.2,1.4-4.1,1.2-6.2,1.7c0.2-2.1,0.1-4.3,0.7-6.3c2.4-7,5-13.9,7.9-20.7
		c1.6-3.8,3.8-7.3,6.2-10.6c0.8-1,3.3-1.3,4.8-1c5.6,1.3,11.2,4.2,16.8,4.3c8.4,0,15.5,0.9,19.5,9.6c0.1,0.3,0.5,0.5,0.8,0.7
		c3.2,3.5,2.7,5.6-1.7,7.7c-1,0.5-2.1,1.3-2.7,2.3c-4,6.7-13.7,10-21.2,3.8c-2.3-1.9-5.5-2.6-8.3-3.8c-0.2,2.7-0.3,4.5-0.4,6.3
		C651.8,647,649.9,646.6,647.6,646.1z"/>
	<path class="st1" d="M475.5,133.6c4.1-1.9,5.1-4.3,1.9-7.6c-1.6-1.6-3.3-3.1-4.9-4.7c-2.3-2.3-2.3-4.6,0.5-6.5
		c1.5-1,3.2-1.7,4.6-2.8c2.7-2.2,5.6-4.2,7.7-6.9c2.8-3.7,3.9-4,7.1-0.8c1.7,1.7,3.8,2.9,5.9,4.1c2.1,1.2,4.4,2.2,6.5,3.3
		c3,1.6,3.2,3.7,1.2,6.4c-1.7,2.3-3.4,4.8-4.6,7.5c-0.5,1.1,0,2.7,0.1,4c1.4-0.5,3.2-0.7,4.1-1.7c1.6-1.6,2.8-3.6,3.9-5.6
		c2.2-3.8,5.1-3.5,7.6-0.9c2.5,2.6,4.3,5.7,6.4,8.6c1.3,1.8,3.3,3.3,3.9,5.3c1.2,4,2.4,8.3,2.3,12.4c-0.1,3.7-2,7.4-3.1,11.1
		c-0.6,1.9-1.1,3.7-1.8,5.6c-1.4,3.5-3.4,4.4-6.8,2.1c-2.4-1.6-5.3-2.6-8.1-3.4c-3-0.8-5.2,1.6-3.6,3.8c5.3,7,1.3,13.3-0.7,19.7
		c-1,3.3-1,5.4,2.3,8.3c4.8,4.2,6.3,10.9,6.4,17.3c0.1,3.7,0,7.4-3.9,9.8c-0.8,0.5-0.7,3.3-0.1,4.8c0.9,2.4,2.5,4.6,3.9,6.8
		c2.1,3.2,1.8,5.9-0.9,8.8c-3.6,3.9-2.7,6.6,2.4,8.5c3.8,1.5,4.3,3.4,1,5.8c-3.6,2.6-5,5.4-4.9,10.2c0.2,8.3-1.4,16.6-1.8,24.9
		c-0.2,4.5,0.4,9.1,0.7,13.6c0.5,7.4,1.1,14.9,1.8,22.3c0.1,1.1,0.7,2.2,1.4,3c2.6,2.9,3.3,5.9,1.5,9.4c-0.4,0.7-0.7,1.8-0.4,2.3
		c2.5,4.7,5.2,9.4,7.8,14.1c0.5,0,1,0,1.5,0c0.4-1.8,1.1-3.7,1-5.5c-0.1-3,0.9-4.8,3.6-6.2c4.8-2.4,9.4-5.3,14.2-7.7
		c1.5-0.8,3.5-1.2,5.2-0.9c2.7,0.5,4,2.2,2.2,4.9c-0.6,0.9-1.4,1.8-2.2,2.6c-3.7,3.9-6.4,7.9-3.5,13.5c0.2,0.4,0.2,1,0.1,1.5
		c-1.4,8.7-2.9,17.4-4.2,26.1c-0.5,3.5-0.3,7.2-0.8,10.7c-0.3,1.8-1.3,3.5-2.1,5.2c-1.6-0.7-3.4-1.1-4.7-2.1
		c-3.2-2.6-6.3-3.9-10.9-4c-3.5,0-7-4.1-10.4-6.5c-2.1-1.5-4-3.2-6.1-4.7c-1.6-1.1-4.2-1.5-5-3c-3.3-6-8.4-6.3-14.3-5.9
		c-1.5,0.1-3.1-1.3-4.6-2c0.8-1.6,1.2-4,2.5-4.8c5.6-3.5,10.4-8.5,17.9-8.4c1.1,0,3.4-2.7,3.2-4c-0.7-5.1-2.3-10-3.3-15
		c-1.3-6.3-2.3-12.7-3.4-19.1c-0.6-3.7-1.4-7.4-1.5-11.1c-0.2-5.1,0.4-10.3,0.4-15.4c-0.1-5.7-0.6-11.3-0.6-17
		c0-2.5,0.3-5.1,1.1-7.5c1.9-5.2,1.1-7-4.3-8.6c-10.8-3.1-16.3,0.4-18.3,11.7c-0.2,1.1,0.4,2.3,0.2,3.4c-0.4,1.8-0.9,3.7-1.8,5.2
		c-1.7,2.9-3.9,5.4-5.5,8.3c-3.9,7.4-8.7,13.4-17.6,14.8c-1.2,0.2-2.9,1.7-3.2,2.9c-1.3,5.5-2,11.1-3.2,16.7c-0.4,2-1,4.5-2.4,5.7
		c-3.5,3-2.1,5.1-0.2,8.2c1.6,2.6,1.7,6.1,2.8,9c1.6,4,3.2,8.2,5.5,11.8c3.9,6,7.8,11.7,4.7,19.4c-0.7,1.7,0,4.3,0.8,6.2
		c5.8,14.3,11.9,28.5,17.7,42.9c0.9,2.1,1.3,4.8,0.7,7c-1.7,6.4-3.5,12.6-7.4,18.4c-3.4,4.9-4.3,11.4-6.4,17.2
		c-0.4,1-0.8,2.6-1.4,2.8c-4.5,0.9-4,4.4-4.5,7.6c-0.5,3.9-0.8,7.8-2,11.5c-1.6,4.7-1.7,9.1,0,13.8c1.3,3.5,3.3,5.1,6.9,4.8
		c1-0.1,2.3-0.6,2.8-0.2c6.2,4.4,13.7,1.1,20.3,3.4c1.3,0.5,3.1-0.3,4.6-0.5c1.3-0.2,2.8-0.9,4-0.5c2.9,0.9,4.8,0.2,6.8-2.3
		c0.7-1,3.3-1.1,4.9-0.8c5.3,1,10.5,2.5,15.8,3.7c3.3,0.8,7.1,0.7,9.6,2.5c2.3,1.6,3,5.3,4.8,7.8c1.2,1.7,3,3.3,4.8,4.4
		c5.8,3.5,11.9,6.6,17.6,10.3c5.7,3.8,8.3,9.5,8.3,16.4c-0.1,7.4-0.3,14.7,0.1,22.1c0.3,6.3-2.3,11-6.2,15.4
		c-6.4,7.4-14.5,12.1-23.5,15.4c-19.1,7-38.5,13.1-59,14.2c-19.4,1-38.9,2.5-58.3,1.7c-27.3-1.1-53.9-6.7-77.9-20.9
		c-9.8-5.8-16.8-13.5-15.6-26.1c0.3-3.4-0.1-6.9-0.7-10.3c-1.8-10.2,2.5-17.9,10-24.1c8.6-7,18.4-11.7,28.9-15.2
		c3.7-1.2,6.9-3.7,10.5-5.2c3-1.2,6.3-2.5,9.5-2.6c6.3-0.1,12.5-8.3,10.5-14.7c-0.6-1.9-1.4-3.7-1.6-5.6c-0.1-1.2,0.5-3,1.5-3.7
		c4.1-3.3,4.4-7.1,0.8-11.1c-3.9-4.3-7.9-8.5-11.4-13.1c-0.9-1.1-0.7-4.1,0.2-5.3c2.2-2.8,2.2-5.1,0.6-8.1c-2.1-3.9-2.8-8.9-8-10.5
		c-0.3-0.1-0.6-0.4-0.7-0.7c-4.1-10.8-14.3-16.5-21.2-24.8c-0.3-0.4-0.8-0.7-1-1.1c-3.5-5.8-9.3-7.1-15.4-8.2
		c-2-0.4-4.5-1.8-5.5-3.5c-2.5-4.2-6.5-7.9-4.8-13.7c0.2-0.8-0.9-2.5-1.9-3.3c-4.9-4.2-9.9-8.1-14.8-12.3c-0.9-0.8-1.5-2.1-2.3-3
		c-1-1.2-1.9-2.7-3.2-3.3c-4.9-2.5-6.2-5.8-4.2-11.8c1.3-3.9,5.8-6.3,10.2-5.8c3.5,0.4,5.5,2,6.7,5.3c0.7,1.7,2.7,2.9,4.1,4.3
		c1,1,1.9,2,2.8,3.1c2.9,3.8,5.6,7.9,8.8,11.6c2,2.4,4.6,2.1,5.8-1c2.1-5.7,3.9-11.6,5.8-17.5c1.7-5.2,3.2-10.5,4.8-15.8
		c0.2-0.6,0.5-1.4,1-1.6c6.2-2.8,5.4-9.1,7.2-14.1c0.5-1.5,0.5-3.5,1.5-4.4c7-6.6,10.2-14.5,10-24.1c0-1.7,1.7-3.8,3.2-4.9
		c2.1-1.6,2.6-2.7,1.6-5.3c-0.5-1.3,0.4-3.4,1.1-4.8c1.5-2.9,3.3-5.7,5-8.6c1.4-2.4,3-4.8,3.8-7.3c1.5-4.4,2.6-8.9,3.7-13.5
		c2-8.9,3.5-17.9,5.8-26.7c2-7.5,7.3-12.9,15.1-13.6c9.1-0.8,17.4,2.8,22.4,10.6c2.5,3.9,3,9.4,3.1,14.2c0.2,5.4,2.8,10.9-0.4,16.3
		c-0.5,0.8,0.3,3,1.1,3.8c0.6,0.6,2.4,0.3,3.6,0c6.9-1.8,13.7-3.6,20.5-5.4c5.8-1.5,10.7-2.9,9.2-11.6c-0.3-1.7-1.5-3.5-2.8-4.7
		c-3.4-3.1-3.6-5-0.1-8c2.5-2.1,4.6-3.9,4.3-7.6c-0.1-1.2,1.9-2.8,3.1-3.9c3.1-3,6.7-5.5,9.3-8.9c3-3.9,5.4-8.3,7.5-12.8
		c0.9-2,0.9-4.9,0.2-6.9c-1-2.9-2.8-5.6-4.8-7.9c-3.2-3.7-5.6-7.2-2.9-12.3c0.3-0.7-0.2-2.4-0.9-2.9c-0.7-0.5-2.2-0.2-3.2,0.1
		c-0.7,0.2-1.3,0.9-1.9,1.5c-5.9,5.3-7.6,5.2-11.9-1.4c-8.3-12.6-10.2-25.6-2.4-39.3c3.4-5.9,5.6-6.4,10.4-1.7
		C472.4,130,473.7,131.6,475.5,133.6z M378.6,427.9c0.9-4.1,1-7.7,2.4-10.6c3.5-7.7,2.7-15,0-22.8c-3-8.8-1.4-17.8,4.3-25
		c7-8.7,6.5-18.3,5.3-28.2c-0.6-5.1-2-10.2-3.2-15.2c-0.3-1.1-1-2.7-1.9-2.9c-1-0.3-3,0.2-3.4,1c-1.2,2.2-1.8,4.6-2.5,7
		c-0.5,1.8-0.5,3.9-1.1,5.7c-2.1,5.5-5.5,10.7-3.2,17.1c0.6,1.7,0.2,3.9-0.3,5.8c-2.8,10.1-8.1,18.8-15.5,26.2
		c-4.9,4.9-2.8,11.7-5.1,17.2c-0.2,0.4,0.7,1.4,1.3,2c6.3,6.6,12.6,13.3,18.9,19.8C375.6,426,376.9,426.6,378.6,427.9z"/>
	<path class="st1" d="M257.8,673.3c4.2,5.7,8.1,10.7,11.5,15.9c1.9,3,3.9,6.4,4.3,9.8c0.6,5.2,3.7,7.7,7.7,9.5
		c4.3,1.9,5.7,4.7,4.6,9.2c-1.1,4.1,0,8.8-5,11.8c-1.9,1.2-2.1,6.4-1.7,9.6c0.2,1.1,4.9,1.6,7.6,2c5,0.8,10.1,0.9,15,2
		c12.7,2.8,25.3,6.4,38.1,8.9c10.9,2.1,22,14.1,21.9,25.1c-0.1,7.1-0.5,14.2-1.2,21.2c-0.6,6.3-5.2,10.3-10.1,13.6
		c-14,9.5-29.9,14.3-46.3,17c-15.8,2.5-31.7,4.8-47.6,5.5c-25.5,1.2-51,1.8-76.5,1c-21.7-0.7-43-5.3-63.2-13.6
		c-5.2-2.1-10-5-15.2-7.3c-6.5-2.9-8.1-8.5-8.4-14.7c-0.3-6.4-0.2-12.8,0-19.1c0.1-4.6,2.2-8.3,6.5-10.6c7.2-3.8,12.7-9.2,15.9-16.9
		c0.4-1,3.6-1.9,4.5-1.3c4.8,3.2,7.7,1.7,10.9-2.6c4.6-6.3,12.2-7.2,19.1-9c5.2-1.3,10.4-2.6,15.7-3.7c3-0.6,6.1-0.7,9.2-1.3
		c1.6-0.3,3.6-0.9,4.7-2c2.9-3,6.4-2.7,8.7-0.6c3.7,3.4,6.6,1.1,8.1-1.2c2.9-4.5,5.5-3.9,7.9-0.3c3.3,4.9,8,5,13,4.9
		c2,0,4.4-0.7,5.9,0.2c6.9,3.7,10.9-1,15.9-4.3c4.1-2.8,7-5.7,8.2-10.6c1.3-5.3,2.4-10.3-2.1-14.7c-1-1-1.6-2.5-2-3.8
		c-1.1-4.2-5.3-4.7-7.7-7c-3.3-3.1-5.8-3.3-9.6-2.1c-1.1,0.4-3.3-1.1-4.2-2.3c-1.6-2.1-2.7-4.7-4-7.1c-3.2-5.5-6.6-10.3-13.5-12.4
		c-7.1-2.2-11.2-8.4-13.7-15.4c-1.2-3.3-0.5-5.7,2.9-7c1-0.4,2.6-0.8,2.7-1.5c2.4-9.4,10.6-16.7,9.7-27.3c-0.3-3.2,1.2-6.7,0.7-9.8
		c-0.4-2-2.7-4.2-4.7-5.1c-3.3-1.5-4.7-3.5-4.8-7.1c-0.1-4.8-0.6-9.7-1-14.5c-0.4-4.7,1.9-8,5.6-10.5c5.3-3.6,7.9-15,4.6-20.3
		c-4-6.4-8-12.7-11.8-19.2c-0.9-1.5-1.2-3.4-1.8-5.1c-1.8-6.1-3.7-12.1-5.4-18.2c-0.9-3.2-2.9-3.2-4.8-1.3
		c-3.7,3.9-7.1,8.1-10.6,12.3c-2.1,2.5-4.2,5.1-6.1,7.8c-2.8,3.8-6.6,7.2-8.1,11.5c-2.1,6.1-6.1,9.7-11.3,12.5
		c-3.5,1.8-5.4,4.1-4,8.3c3,8.8,1.8,11.8-5.7,17c-2.5,1.7-4.8,3.9-6.7,6.2c-13.7,16.3-24.6,34.4-34.9,53c-3.3,6-9,10.8-14,15.8
		c-1.4,1.3-4.2,1.1-6.4,1.7c0.2-2.2-0.3-4.7,0.7-6.5c7.9-14.3,16.1-28.5,24.3-42.7c2.9-5,6.3-9.8,9.1-14.9c3-5.4,5.1-10.8,1.5-17
		c-1.2-2.1-2-5.1-1.4-7.3c2.1-8,4.9-15.7,7.4-23.6c0.8-2.4,1.8-4.8,2.2-7.3c1-7.2,4.8-12.6,9.9-17.5c3.2-3.1,6.4-2.6,10.1-1.2
		c5.6,2.1,7.2,0.9,7.6-4.8c0.1-1.2,0.8-2.8,1.7-3.5c3.6-2.6,7.5-4.8,11.1-7.4c1.1-0.8,2.3-2,2.7-3.2c3.7-12.4,13.2-17.6,24.7-20.6
		c9.3-2.4,12.5-8.2,10.7-17.6c-0.8-4.2-0.4-8.7-1-12.9c-0.6-4.1-1.4-8.2-2.9-12.1c-1.3-3.3-2.3-6.1,0.1-9.2c0.6-0.8,0.7-2.1,0.8-3.1
		c1.6-13.9,15.2-21.4,28.3-15.6c2.8,1.2,6,2,8.4,3.8c2.2,1.6,4.4,4,5.2,6.5c1,3.3,1,6.7,5.1,8.3c0.6,0.2,0.8,3.9-0.1,5
		c-4.5,5.7-2.7,11.4-1.6,17.6c1.4,7.3,4.1,9.6,11.9,8.4c4.9-0.7,10.4,2.3,15.7,3.6c1.4,0.4,2.7,1.1,4.1,1.4c9.2,2,18.1,4.2,26.5,9
		c4.6,2.6,11.3,1.7,17.1,2.1c4.2,0.3,8.4,0,12.6,0.1c3.1,0,4-0.9,4.3-4.4c1-13.8-6.8-25-10.3-37.4c-2.6-9.4-4.8-19-6.8-28.6
		c-0.4-1.8,0.9-4,1.4-6c1.8,1.2,4.5,2,5.3,3.7c5.5,10.7,10.7,21.5,15.7,32.4c3.5,7.6,6.1,15.7,10.1,23c3.6,6.5,8.2,12.5,13.2,18
		c6,6.7,7.2,11.1,3.3,19.4c-0.5,1.1-0.7,2.6-0.4,3.7c1.7,6,2.6,12.4,8.1,16.8c1.5,1.2,2.5,6,2.1,6.3c-3.4,2.1-7.2,4-11.1,4.6
		c-1.2,0.2-4.7-3.9-4.4-5.6c1.3-7.9-4.6-12.8-6.9-19.1c-0.2-0.6-0.9-1.2-1.5-1.5c-13.5-4.6-26.7-10.6-41.5-3.3
		c-5.2,2.6-11.5,2.9-18.1,1.1c-8.3-2.3-17.2-2.5-25.8-3.4c-3.6-0.4-5.2,2-4.5,5.2c1.6,7.9-0.6,15.4-1.3,23.1
		c-1.1,10.8-5.6,21.8-1.3,32.8c0.5,1.2,0.5,2.6,1.2,3.5c3.8,4.9,7.4,10,11.7,14.5c1.8,1.9,5,2.6,7.7,3.3c8.4,2.3,9.3,4.1,5.6,11.7
		c-0.6,1.1-0.8,2.5-1.6,3.4c-7.7,9.1-4.8,17.7,0.5,26.7c4.3,7.3,7.6,15.3,11.3,23c2.1,4.4,0.4,9.9-3.9,10c-8.7,0.2-11.4,7.6-15,12.5
		c-3.4,4.5-6.6,7.2-11.7,8.4C261.2,671.7,260.1,672.3,257.8,673.3z"/>
</g>
</svg>
