<?xml version="1.0" encoding="utf-8"?>
<!-- Generator: Adobe Illustrator 26.5.0, SVG Export Plug-In . SVG Version: 6.00 Build 0)  -->
<svg version="1.1" id="Layer_1" xmlns="http://www.w3.org/2000/svg" xmlns:xlink="http://www.w3.org/1999/xlink" x="0px" y="0px"
	 viewBox="0 0 79 79" style="enable-background:new 0 0 79 79;" xml:space="preserve">
<style type="text/css">
	.st0{fill:#FDC613;}
	.st1{fill:#EF9904;}
	.st2{fill:#E67004;}
	.st3{fill:#91A4AE;}
	.st4{fill:#66737D;}
</style>
<g>
	<g>
		<path class="st0" d="M32.2,47c1.2,2,2.9,3.4,4.8,4.7c1.3,1.4,2.6,2.8,3.8,4.3c1.6,1.9,1.7,3.9-0.2,5.6c-1.7,1.6-3.5,1.4-5.3,0
			c-1.8-1.4-2.9-3.5-5.1-4.3c-0.7-2.1-2.2-3.3-4-4.4c-1.1-1.8-2.3-3.4-4.4-4c-0.5-2.2-2.5-3.3-3.9-4.8c-1.8-2-2.2-4-0.1-6
			c1.9-1.7,3.8-1.3,5.6,0.4c1.3,1.2,2.6,2.4,3.9,3.5C28.5,44.1,30.2,45.7,32.2,47z"/>
		<path class="st0" d="M18.7,68.8c1.1,2.4,2.8,4.8-0.2,7c-2.9,2.1-4.8,0-6.7-1.9c-2.1-2.1-4.2-4.2-6.2-6.3c-1.9-2-4.6-3.8-2.3-7
			c2.1-3,4.6-1,7-0.2c0.8,2.5,2.9,3.9,4.9,5.5C16.1,67.1,17,68.3,18.7,68.8z"/>
		<path class="st1" d="M15.2,65.8c-1.9-1.5-4-2.9-4.9-5.5c3.8-3.8,7.6-7.6,11.4-11.3c2.2,0.6,3.4,2.2,4.4,4c-1.2,1.3-2.4,2.6-3.5,4
			C20.2,59.9,16.3,61.7,15.2,65.8z"/>
		<path class="st2" d="M15.2,65.8c1.1-4.1,5-5.8,7.4-8.8c1.1-1.4,2.4-2.7,3.5-4c1.8,1.1,3.3,2.3,4,4.4c-3.8,3.8-7.6,7.6-11.5,11.5
			C17,68.3,16.1,67.1,15.2,65.8z"/>
		<path class="st3" d="M76.6,2.4"/>
	</g>
	<g>
		<path class="st4" d="M32.2,47C47.2,32.4,76.6,2.4,76.6,2.4l-7.7,23.8c0,0-23,18.7-32,25.6C35.1,50.4,33.3,49,32.2,47z"/>
		<path class="st3" d="M27.2,42.1c8.1-10.3,24.1-31,24.1-31l25.3-8.7c0,0-29.4,30-44.4,44.6C30.2,45.7,28.5,44.1,27.2,42.1z"/>
	</g>
</g>
</svg>
